<?xml version="1.0" standalone="no"?>
<!DOCTYPE svg PUBLIC "-//W3C//DTD SVG 1.1//EN" "http://www.w3.org/Graphics/SVG/1.1/DTD/svg11.dtd" >
<svg xmlns="http://www.w3.org/2000/svg" xmlns:xlink="http://www.w3.org/1999/xlink" version="1.1">
<metadata>
Created by FontForge 20170731 at Fri Jan 28 20:55:53 2022
 By Aleksey,,,
Copyright (c) Joshua Darden &#38; Phil's Fonts, Inc, 2005. All rights reserved.
</metadata>
<defs>
<font id="Freight-DispBold" horiz-adv-x="1077" >
  <font-face 
    font-family="Freight"
    font-weight="700"
    font-stretch="normal"
    units-per-em="2048"
    panose-1="2 0 8 3 9 0 0 2 0 4"
    ascent="1536"
    descent="-512"
    x-height="891"
    cap-height="1280"
    bbox="-193 -557 2050 1771"
    underline-thickness="40"
    underline-position="-380"
    unicode-range="U+0020-FB02"
  />
<missing-glyph horiz-adv-x="1024" 
 />
    <glyph glyph-name=".notdef" horiz-adv-x="1024" 
 />
    <glyph glyph-name=".null" horiz-adv-x="0" 
 />
    <glyph glyph-name=".null" horiz-adv-x="0" 
 />
    <glyph glyph-name="nonmarkingreturn" horiz-adv-x="682" 
 />
    <glyph glyph-name="space" unicode=" " horiz-adv-x="284" 
 />
    <glyph glyph-name="exclam" unicode="!" horiz-adv-x="567" 
d="M154 1182q-9 58 18 92.5t111 34.5h6q83 0 110.5 -35t18.5 -92l-117 -783q-5 -11 -16 -11t-15 11zM285 -29q-59 0 -99.5 41t-40.5 99q0 56 40.5 95.5t99.5 39.5t99 -40t40 -95q0 -57 -40 -98.5t-99 -41.5z" />
    <glyph glyph-name="quotedbl" unicode="&#x22;" horiz-adv-x="724" 
d="M573 1321h2l158 -64l-344 -432h-35zM221 1321h4l158 -64l-346 -432h-35z" />
    <glyph glyph-name="numbersign" unicode="#" horiz-adv-x="1067" 
d="M645 426l111 424h-330l-113 -424h332zM258 385h-274v41h284l113 424h-277v41h287l107 403h47l-109 -403h330l106 403h48l-107 -403h274v-41h-286l-111 -424h275v-41h-285l-105 -395h-47l105 395h-328l-106 -395h-45z" />
    <glyph glyph-name="dollar" unicode="$" horiz-adv-x="1026" 
d="M322 -16q-134 16 -230 53l-22 350h51l112 -248q58 -54 109 -78l127 488l-12 4q-68 24 -116.5 45.5t-98.5 54t-80.5 69t-50 88t-19.5 114.5q0 158 125 269.5t322 111.5q65 0 127 -9l57 215h45l-29 -110q-29 -113 -30 -113q43 -6 112 -26l90 28l4 -377h-45l-147 293
q-5 3 -15.5 8.5t-15.5 8.5l-110 -426q78 -28 131 -51.5t109 -59t89.5 -75.5t54.5 -97t21 -127q0 -80 -35.5 -154.5t-98 -132.5t-155.5 -92.5t-200 -34.5q-45 0 -131 4l-80 -307h-47zM651 1237q-56 20 -125 20q-103 0 -167 -57.5t-64 -144.5q0 -93 62 -146.5t182 -95.5
l57 213q7 25 17 62.5t16 59.5t12 45t8.5 33.5t1.5 10.5zM383 43q71 -23 125 -23q122 0 195 67.5t73 174.5q0 55 -19 98t-58 74.5t-81.5 53t-105.5 44.5z" />
    <glyph glyph-name="percent" unicode="%" horiz-adv-x="1216" 
d="M301 791q106 0 171 69t65 170q0 103 -64.5 173.5t-171.5 70.5q-105 0 -168 -70.5t-63 -173.5q0 -101 64 -170t167 -69zM301 748q-126 0 -202 81.5t-76 200.5q0 120 76.5 203.5t201.5 83.5q127 0 205 -83.5t78 -203.5q0 -119 -78 -200.5t-205 -81.5zM913 8
q107 0 170.5 68.5t63.5 173.5q0 100 -65.5 171t-168.5 71t-167 -71t-64 -171q0 -105 62.5 -173.5t168.5 -68.5zM913 -35q-125 0 -201.5 82t-76.5 201q0 120 76.5 203.5t201.5 83.5q127 0 204 -83.5t77 -203.5q0 -119 -77 -201t-204 -82zM1044 1311h50l-924 -1340h-51z" />
    <glyph glyph-name="ampersand" unicode="&#x26;" horiz-adv-x="1484" 
d="M416 -29q-174 0 -279.5 103.5t-105.5 251.5q0 144 96.5 247.5t255.5 149.5q-90 43 -144.5 115t-54.5 161q0 125 120 215.5t267 90.5q152 0 251.5 -68.5t99.5 -167.5q0 -94 -75 -157.5t-190 -90.5q96 -44 198.5 -147t162.5 -207q138 183 141 252q15 81 -135 96l-31 6
l-6 33h512l-6 -33l-37 -6q-71 -4 -124 -42.5t-126 -135.5l-166 -211q85 -178 146 -245.5t147 -67.5q87 0 160 73l20 -20q-32 -34 -50 -52t-56 -50t-68 -48.5t-72.5 -30.5t-84.5 -14q-114 0 -190 65.5t-134 199.5q-111 -127 -216.5 -196t-225.5 -69zM623 838q90 62 90 213
q0 86 -42.5 150.5t-117.5 64.5q-71 0 -113.5 -52.5t-42.5 -132.5q0 -154 226 -243zM549 137q165 0 293 137q-64 150 -172 262t-252 171q-87 -58 -123.5 -127t-36.5 -158q0 -120 83 -202.5t208 -82.5z" />
    <glyph glyph-name="quotesingle" unicode="'" horiz-adv-x="376" 
d="M221 1321h4l158 -64l-346 -432h-35z" />
    <glyph glyph-name="parenleft" unicode="(" horiz-adv-x="696" 
d="M668 -547q-69 36 -140 94.5t-144 147t-128.5 191.5t-91 237.5t-35.5 277.5t35.5 278.5t91 238.5t128.5 191.5t143.5 146t140.5 94.5l24 -37q-67 -36 -135.5 -94t-137 -144t-121 -185.5t-85.5 -227.5t-33 -261q0 -135 33 -263.5t85.5 -228t121.5 -185t137 -143t135 -93.5z
" />
    <glyph glyph-name="parenright" unicode=")" horiz-adv-x="696" 
d="M4 -512q67 36 135 93.5t136.5 143t120.5 185t85 228t33 263.5q0 133 -33 261t-85 227.5t-120.5 185.5t-136.5 144t-135 94l25 37q69 -36 140 -94t143.5 -146.5t128.5 -191.5t91 -238.5t35 -278.5t-35 -277.5t-91 -237.5t-128.5 -191.5t-143.5 -147t-140 -94.5z" />
    <glyph glyph-name="asterisk" unicode="*" horiz-adv-x="665" 
d="M313 696l11 250q0 3 -4 6t-7.5 4t-5.5 -2l-123 -211l-135 7q-11 0 -16 14l26 133l238 66q11 11 0 22l-238 70l-26 131q0 4 4.5 9t9.5 5l137 8l121 -213q1 -4 10 -2t9 4l-11 254l117 64q6 7 19 -6l51 -117l-164 -197q-1 -1 1 -5.5t5 -8t4 -2.5l236 92l98 -88q2 -5 2 -12.5
t-2 -7.5l-98 -89l-236 95q-2 0 -6.5 -8.5t-3.5 -12.5l162 -192l-52 -117q-1 -1 -5.5 -3.5t-8.5 -4t-4 -0.5z" />
    <glyph glyph-name="plus" unicode="+" horiz-adv-x="915" 
d="M432 459h-405l6 51h399v403h53v-403h400l4 -51h-404v-410h-53v410z" />
    <glyph glyph-name="comma" unicode="," horiz-adv-x="428" 
d="M59 -272q87 47 133 110t46 135q0 35 -14 63.5t-35.5 44.5t-47 26.5t-48.5 9t-40 -7.5q-19 55 23.5 111t122.5 56q85 0 137.5 -55t52.5 -141q0 -104 -86 -208.5t-221 -166.5z" />
    <glyph glyph-name="hyphen" unicode="-" horiz-adv-x="606" 
d="M53 532h508l-4 -94h-510z" />
    <glyph glyph-name="period" unicode="." horiz-adv-x="450" 
d="M225 -27q-61 0 -103 43t-42 103q0 58 42 99.5t103 41.5q60 0 102 -42t42 -99q0 -61 -41.5 -103.5t-102.5 -42.5z" />
    <glyph glyph-name="slash" unicode="/" horiz-adv-x="528" 
d="M459 1323h47l-432 -1796h-49z" />
    <glyph glyph-name="zero" unicode="0" horiz-adv-x="1171" 
d="M586 20q119 0 194.5 131.5t75.5 325.5q0 229 -71.5 356.5t-200.5 127.5q-117 0 -193 -130t-76 -321q0 -240 70 -365t201 -125zM578 -27q-222 0 -367 144t-145 370q0 225 152.5 373t375.5 148q222 0 367 -144.5t145 -369.5q0 -149 -70 -268.5t-190.5 -186t-267.5 -66.5z
" />
    <glyph glyph-name="one" unicode="1" horiz-adv-x="737" 
d="M109 35l73 8q45 5 62.5 12t17.5 25v790l-201 25l7 31l434 75v-925q0 -25 94 -33l70 -8l6 -35h-570z" />
    <glyph glyph-name="two" unicode="2" horiz-adv-x="974" 
d="M43 82q88 67 139.5 106.5t112.5 89t93.5 81.5t67.5 71t50.5 70t26 66t10.5 71q0 93 -59 152t-150 59q-83 0 -142.5 -39.5t-107.5 -122.5l-25 12q60 148 168.5 228t249.5 80q130 0 216.5 -75t86.5 -190q0 -29 -6.5 -57t-16.5 -52t-30.5 -51.5t-38.5 -49t-51.5 -51
t-59 -50.5t-71.5 -55.5t-78 -57.5t-90 -64t-96 -69v-6h403q97 0 146 42.5t100 162.5l20 43l35 -4l-80 -422h-813z" />
    <glyph glyph-name="three" unicode="3" horiz-adv-x="886" 
d="M303 -412q-127 0 -207 49.5t-80 122.5q0 47 34 80t81 33q75 0 120.5 -69t37.5 -154q30 -10 61 -10q107 0 182.5 89t75.5 226q0 141 -77.5 227t-206.5 86q-74 0 -172 -41l-13 35q188 107 241 146q109 78 132 164q8 29 8 63q0 94 -60.5 154.5t-154.5 60.5q-163 0 -246 -164
l-24 12q56 147 162 227.5t245 80.5q135 0 222.5 -75t87.5 -183q0 -47 -16.5 -89t-41 -73.5t-67 -64.5t-79 -55.5t-93.5 -53.5v-4q173 0 277 -101t104 -252q0 -92 -42 -177.5t-113 -149t-170 -102t-208 -38.5z" />
    <glyph glyph-name="four" unicode="4" horiz-adv-x="1042" 
d="M561 172v573h-4l-401 -573h405zM561 16h-534l-4 37l651 934h112v-815h242l-39 -156h-203v-393h-225v393z" />
    <glyph glyph-name="five" unicode="5" horiz-adv-x="862" 
d="M256 -410q-143 0 -213 44.5t-70 125.5q0 50 34 83.5t85 33.5q68 0 111 -66t35 -147q39 -20 92 -20q102 0 173.5 84.5t71.5 212.5q0 163 -128 260.5t-375 128.5l164 643h569l-35 -215h-541l-57 -228q159 -20 277.5 -64t188.5 -105.5t104 -134.5t34 -158
q0 -126 -74.5 -237.5t-194.5 -176t-251 -64.5z" />
    <glyph glyph-name="six" unicode="6" horiz-adv-x="1083" 
d="M569 16q99 0 152 92t53 259q0 162 -71.5 255t-186.5 93q-104 0 -174 -70q-20 -46 -20 -166q0 -208 62 -335.5t185 -127.5zM545 -29q-141 0 -252.5 68.5t-171.5 186.5t-60 263q0 170 73 324.5t199 268.5t300.5 187t370.5 87l8 -35q-140 -20 -258 -81.5t-199 -149.5
t-134 -186t-81 -204l4 -4q145 119 307 119q161 0 266 -106t105 -281q0 -129 -64.5 -234.5t-173.5 -164t-239 -58.5z" />
    <glyph glyph-name="seven" unicode="7" horiz-adv-x="948" 
d="M795 768v6h-326q-146 0 -214 -10.5t-100 -38.5t-49 -90l-20 -49h-37l47 389h819l7 -37l-572 -1315h-188z" />
    <glyph glyph-name="eight" unicode="8" horiz-adv-x="1038" 
d="M621 737q102 76 102 238q0 120 -61.5 209.5t-161.5 89.5q-93 0 -147 -65t-54 -156q0 -56 22.5 -102t69 -84t99 -67t131.5 -63zM539 12q107 0 170 64.5t63 161.5q0 62 -27 114t-80 94t-113 74t-144 66q-118 -81 -121 -264q0 -121 71 -215.5t181 -94.5zM520 -31
q-195 0 -324.5 95t-129.5 245q0 101 84.5 181.5t214.5 113.5v2q-60 29 -105 59.5t-84.5 70t-60.5 89.5t-21 109q0 71 28.5 137.5t80 120.5t133.5 86.5t180 32.5q186 0 305 -88t119 -230q0 -94 -75.5 -163.5t-200.5 -108.5v-2q69 -31 120.5 -63.5t97 -76t69.5 -99.5t24 -122
q0 -159 -128.5 -274t-326.5 -115z" />
    <glyph glyph-name="nine" unicode="9" horiz-adv-x="1083" 
d="M565 268q101 0 172 68q21 52 21 170q0 89 -14 168t-42 146t-77 106t-113 39q-94 0 -150.5 -91.5t-56.5 -255.5q0 -159 72 -254.5t188 -95.5zM70 -340q139 20 257 82t199 150.5t134 187t79 203.5l-4 2q-66 -56 -146.5 -87.5t-158.5 -31.5q-164 0 -268.5 105t-104.5 284
q0 130 66.5 235.5t176 162.5t237.5 57q215 0 348 -148t133 -368q0 -228 -124 -420t-338.5 -310t-477.5 -139z" />
    <glyph glyph-name="colon" unicode=":" horiz-adv-x="446" 
d="M225 586q-61 0 -103 42.5t-42 102.5q0 56 42 97.5t103 41.5t102.5 -41.5t41.5 -97.5q0 -60 -41.5 -102.5t-102.5 -42.5zM225 -25q-61 0 -103 42t-42 102q0 56 42 97.5t103 41.5t102.5 -41.5t41.5 -97.5q0 -60 -41.5 -102t-102.5 -42z" />
    <glyph glyph-name="semicolon" unicode=";" horiz-adv-x="428" 
d="M215 586q-60 0 -102.5 41.5t-42.5 101.5q0 57 42.5 99t102.5 42t101.5 -42t41.5 -99q0 -60 -41 -101.5t-102 -41.5zM59 -270q179 98 179 243q0 35 -14 63.5t-35.5 44.5t-47 26.5t-48.5 9t-40 -7.5q-19 54 23.5 110.5t122.5 56.5q84 0 137 -56t53 -138
q0 -106 -85.5 -209.5t-221.5 -165.5z" />
    <glyph glyph-name="less" unicode="&#x3c;" horiz-adv-x="897" 
d="M23 465v35l821 395l16 -47l-756 -363v-4l756 -366l-16 -47z" />
    <glyph glyph-name="equal" unicode="=" horiz-adv-x="909" 
d="M45 684h819l-6 -49h-807zM51 328h807l6 -49h-819z" />
    <glyph glyph-name="greater" unicode="&#x3e;" horiz-adv-x="897" 
d="M39 115l754 366v4l-754 363l14 47l821 -395v-35l-821 -397z" />
    <glyph glyph-name="question" unicode="?" horiz-adv-x="702" 
d="M317 371q-67 49 -118.5 116.5t-51.5 122.5q0 43 16 74.5t52 56t73.5 41t100.5 37.5q111 38 153 64t42 65q0 63 -84.5 108.5t-225.5 45.5q-55 0 -163 -21q-49 42 -52 105q-2 57 37.5 90t126.5 33q116 0 212.5 -61t149 -156.5t52.5 -200.5q0 -78 -20 -126t-57 -75t-109 -57
q-116 -47 -137 -59q-46 -27 -46 -66q0 -34 19.5 -62t64.5 -71zM328 -27q-59 0 -99.5 41t-40.5 97t40.5 95.5t99.5 39.5t98 -40t39 -95q0 -57 -39 -97.5t-98 -40.5z" />
    <glyph glyph-name="at" unicode="@" horiz-adv-x="1634" 
d="M651 246q49 0 121.5 84t151.5 229q16 29 35.5 80.5t19.5 65.5q-8 56 -57 107.5t-101 51.5q-36 0 -69 -33q-61 -58 -123 -208.5t-62 -255.5q0 -56 24 -88.5t60 -32.5zM819 -238q-163 0 -304.5 55t-242 151.5t-157 234.5t-54.5 297q2 168 67.5 320.5t174 263t259 176
t315.5 65.5q200 0 360.5 -84t251.5 -236t88 -341q0 -113 -40 -217.5t-106 -179.5t-153 -120t-178 -45q-111 0 -171 49.5t-55 124.5q0 29 18 95t34 104h-11q-48 -78 -77.5 -122.5t-69 -97t-70 -79t-67.5 -45t-74 -18.5q-83 0 -141.5 57.5t-59.5 142.5q0 119 77.5 260
t191.5 250q132 138 262 138q63 0 96 -56t31 -139h8l82 225l192 -6l-131 -342l-86 -272q-26 -81 4 -125.5t121 -44.5q59 0 117.5 35t105.5 95.5t77 148t32 184.5q4 272 -184 447t-478 175q-206 0 -382.5 -106.5t-280.5 -287.5t-107 -392q0 -203 90.5 -362t254.5 -248t372 -89
q169 0 317 81t224 204l20 -29q-81 -129 -233 -212t-330 -83z" />
    <glyph glyph-name="A" unicode="A" horiz-adv-x="1329" 
d="M307 344q-25 -75 -35.5 -108t-18.5 -75t-3.5 -56t19 -31.5t40 -23t68.5 -9.5l47 -6l6 -35h-457l7 35l38 6q34 4 53.5 9.5t42 23.5t37 40t38 71.5t45 105.5t57.5 155l233 650l-16 69q49 13 107.5 58.5t78.5 91.5h37l365 -1065q44 -125 76 -163.5t94 -43.5l61 -8l6 -35
h-635l7 35l59 6q71 7 81 47.5t-28 147.5l-90 276h-362zM557 1038h-8l-168 -481h332z" />
    <glyph glyph-name="B" unicode="B" horiz-adv-x="1251" 
d="M551 705q137 0 218 71t81 195q0 129 -80 196.5t-225 67.5h-62v-530h68zM592 39q10 0 16 2q5 1 11 2h-1q128 8 208.5 92t80.5 213q0 145 -98 231.5t-248 86.5q-69 0 -78 -4v-592zM51 33l76 8q90 11 90 37v1130q0 12 -18.5 18t-87.5 13l-58 6l-6 35h551q528 0 528 -285
q0 -114 -94 -187t-274 -103v-7q203 -17 316.5 -107.5t113.5 -232.5q0 -167 -144.5 -262.5t-429.5 -95.5h-569z" />
    <glyph glyph-name="C" unicode="C" horiz-adv-x="1419" 
d="M801 -27q-329 0 -532 181t-203 473q0 147 52.5 272.5t148 216t237.5 142t313 51.5q90 0 181 -21.5t143 -48.5l147 43l10 -424h-51l-172 342q-97 62 -256 62q-145 0 -251.5 -81.5t-160 -220t-53.5 -315.5q0 -284 129.5 -455.5t331.5 -171.5q134 0 225 57t162 173l76 178
h55l-61 -381h-88q-65 -27 -174.5 -49.5t-208.5 -22.5z" />
    <glyph glyph-name="D" unicode="D" horiz-adv-x="1427" 
d="M623 41q142 0 247 80t156 208t51 285q0 289 -124.5 456t-372.5 167h-97v-1161zM51 33l76 8q90 11 90 37v1130q0 13 -20 19t-86 12l-58 8l-6 33q209 0 295 2h49h47.5t45 0.5t41.5 0.5h36t30.5 0.5t22.5 0.5h13.5t3.5 0q350 4 542.5 -165.5t192.5 -459.5q0 -135 -54 -255
t-150.5 -209.5t-241 -142t-316.5 -52.5h-559z" />
    <glyph glyph-name="E" unicode="E" horiz-adv-x="1267" 
d="M51 33l74 8q92 11 92 37v1130q0 8 -6.5 13t-30.5 10t-69 8l-58 8l-6 33h1067l14 -420h-53l-18 68q-34 121 -83.5 186t-132 94t-220.5 29l-138 -2v-561l76 2q124 5 183 37.5t85 115.5l23 66h43l-51 -492l-41 3l-8 63q-8 91 -57.5 124.5t-190.5 37.5l-62 2v-584l170 -6
q201 0 305 77.5t162 237.5l21 62h53l-53 -420h-1096z" />
    <glyph glyph-name="F" unicode="F" horiz-adv-x="1193" 
d="M51 33l78 8q88 10 88 37v1130q0 8 -6 13t-29.5 10t-68.5 8l-60 8l-6 33h1063l14 -403h-51l-20 67q-39 115 -88 176t-130.5 89t-216.5 28l-135 -2v-573l78 2q125 5 183.5 35.5t84.5 113.5l25 68h41l-51 -492l-41 2l-6 64q-5 62 -27 95.5t-74 49.5t-149 16l-64 2v-546
q0 -9 6 -14t29 -9.5t68 -7.5l94 -8l6 -33h-641z" />
    <glyph glyph-name="G" unicode="G" horiz-adv-x="1478" 
d="M788 -33q-163 0 -299 49.5t-228.5 137t-143.5 210t-51 265.5q0 146 52.5 271t148 215.5t237.5 142t313 51.5q93 0 188 -20.5t142 -47.5l145 41l4 -422h-53l-166 338q-92 66 -264 66q-144 0 -248.5 -82t-156.5 -220t-52 -315q0 -150 36.5 -272.5t99 -200.5t143 -120
t170.5 -42q62 0 123.5 18t95.5 40v422q0 24 -121 32l-74 6l-6 35h625l-6 -35l-84 -8q-80 -8 -80 -30v-371l119 10l4 -25q-127 -57 -300 -98t-313 -41z" />
    <glyph glyph-name="H" unicode="H" horiz-adv-x="1536" 
d="M51 33l76 8q90 11 90 37v1130q0 8 -6.5 13t-30.5 10t-69 8l-58 8l-6 33h606l-6 -33l-76 -8q-90 -11 -90 -37v-528h574v534q0 13 -19.5 19t-85.5 12l-59 8l-6 33h606l-6 -33l-76 -8q-88 -11 -88 -37v-1130q0 -13 19 -19t85 -12l58 -8l6 -33h-606l6 33l78 8q88 11 88 37
v551h-574v-557q0 -13 19.5 -19t85.5 -12l59 -8l6 -33h-606z" />
    <glyph glyph-name="I" unicode="I" horiz-adv-x="747" 
d="M68 33l84 8q90 9 90 37v1130q0 8 -6.5 13t-31 10t-69.5 8l-67 8l-7 33h625l-6 -33l-84 -8q-90 -8 -90 -37v-1130q0 -13 19.5 -19t84.5 -12l68 -8l6 -33h-623z" />
    <glyph glyph-name="J" unicode="J" horiz-adv-x="745" 
d="M47 -305q-92 0 -150.5 42.5t-58.5 108.5q0 55 38 92t97 37q57 0 94.5 -37t41 -88.5t-24.5 -107.5q170 12 170 414v1052q0 9 -6.5 14t-29.5 9.5t-68 7.5l-74 8l-6 33h626l-6 -33l-80 -8q-90 -11 -90 -37v-1012q0 -79 -41.5 -167t-106 -160.5t-152.5 -120t-173 -47.5z" />
    <glyph glyph-name="K" unicode="K" horiz-adv-x="1417" 
d="M51 33l78 8q88 11 88 37v1130q0 8 -6 13t-29.5 10t-68.5 8l-60 8l-6 33h617l-7 -33l-86 -8q-90 -8 -90 -37v-614l320 327q182 186 195 252q9 47 -57 63q-22 6 -56 9l-64 8l-4 33h549l-6 -33l-55 -8q-94 -11 -158.5 -60t-247.5 -237q-11 -10 -16 -16l-82 -80l395 -639
q59 -103 92.5 -131.5t95.5 -36.5l39 -6l6 -33h-598l5 33l40 8q33 4 47.5 12.5t14 32t-17 58.5t-52.5 100l-250 420l-135 -136v-456q0 -13 20.5 -19t86.5 -12l67 -8l7 -33h-617z" />
    <glyph glyph-name="L" unicode="L" horiz-adv-x="1181" 
d="M51 33l78 10q88 8 88 35v1128q0 8 -5.5 13.5t-30 11t-68.5 8.5l-60 8l-6 33h631l-6 -33l-101 -10q-90 -6 -90 -35v-1153l117 -8q96 0 162.5 18t118.5 63t89 104.5t81 158.5l24 68h53l-59 -453h-1022z" />
    <glyph glyph-name="M" unicode="M" horiz-adv-x="1755" 
d="M37 33l59 6q81 7 106.5 42t30.5 142l27 932q-37 70 -125 82l-74 8l-6 35h492l327 -922h7l333 922h494l-6 -35l-111 -8q-40 -4 -61 -16t-21 -27l23 -1016q0 -57 9 -83.5t27.5 -36.5t63.5 -15l74 -10l6 -33h-629l7 33l100 10q43 5 58 33.5t14 105.5l-25 994h-8l-430 -1164
h-68l-405 1116q-3 5 -11.5 13.5t-9.5 11.5l-22 -942q-4 -99 23.5 -131.5t121.5 -40.5l59 -6l7 -33h-463z" />
    <glyph glyph-name="N" unicode="N" horiz-adv-x="1452" 
d="M289 1067h-6l2 -850q0 -68 14 -104t45 -51.5t92 -20.5l62 -8l6 -33h-463l6 33l57 8q74 6 101.5 44.5t27.5 141.5l7 867q-69 122 -179 141l-43 12l-6 33h457l713 -895h6l-2 676q0 101 -30.5 135.5t-121.5 42.5l-59 8l-6 33h461l-7 -33l-57 -8q-73 -6 -101 -45t-28 -143
l-6 -1063h-72z" />
    <glyph glyph-name="O" unicode="O" horiz-adv-x="1527" 
d="M770 16q192 0 295.5 156t103.5 463q0 295 -112 461t-299 166q-194 0 -299 -156t-105 -463q0 -297 112 -462t304 -165zM754 -29q-199 0 -355.5 83t-244.5 234.5t-88 346.5q0 180 95.5 335t259 246t353.5 91q199 0 355.5 -82.5t244.5 -235t88 -348.5q0 -180 -95.5 -334.5
t-259 -245t-353.5 -90.5z" />
    <glyph glyph-name="P" unicode="P" horiz-adv-x="1212" 
d="M602 627q123 0 199 82.5t76 218.5q0 311 -289 311h-60q-31 0 -45 -2v-596q77 -14 119 -14zM41 33l86 8q90 11 90 37v1130q0 8 -6.5 13t-30.5 10t-69 8l-68 8l-6 33h588q267 0 401.5 -82.5t134.5 -239.5q0 -172 -152.5 -272t-400.5 -100q-78 0 -125 8v-522q0 -9 6 -14
t29 -9.5t68 -7.5l90 -8l6 -33h-647z" />
    <glyph glyph-name="Q" unicode="Q" horiz-adv-x="1525" 
d="M770 14q192 0 295.5 156.5t103.5 464.5q0 295 -112 461t-299 166q-193 0 -298.5 -157.5t-105.5 -465.5q0 -294 112.5 -459.5t303.5 -165.5zM1241 -371q-202 0 -333.5 76.5t-221.5 269.5q-276 20 -448 205t-172 455q0 177 95.5 331.5t259 246.5t353.5 92
q202 0 359.5 -86.5t243 -237.5t85.5 -340q0 -209 -131.5 -380.5t-339.5 -242.5q96 -208 220.5 -272.5t349.5 -38.5l6 -31q-48 -18 -143 -32.5t-183 -14.5z" />
    <glyph glyph-name="R" unicode="R" horiz-adv-x="1368" 
d="M592 664q139 5 216 77t77 209q0 138 -84 215.5t-236 73.5h-43q-25 0 -39 -2v-557q67 -16 109 -16zM41 33l86 8q41 4 65.5 14.5t24.5 22.5v1130q0 8 -6.5 13t-30.5 10t-69 8l-68 8l-6 33l610 2q520 0 520 -324q0 -118 -82.5 -203.5t-226.5 -121.5l266 -420
q62 -100 101 -133.5t104 -40.5l33 -6l8 -33h-430l-37 72l-305 542q-8 2 -34 6.5t-48 9.5t-33 9v-567q0 -22 103 -31l73 -8l7 -33h-631z" />
    <glyph glyph-name="S" unicode="S" horiz-adv-x="1075" 
d="M510 -27q-208 -3 -406 68l-22 348h49l86 -203q110 -168 305 -168q127 1 198 69t71 179q0 60 -23 106.5t-70 80t-97 56.5t-126 48q-68 24 -116.5 45.5t-98.5 54t-80.5 69t-49.5 88t-19 114.5q0 159 121.5 269t318.5 110q145 0 283 -43l90 28l6 -379h-45l-148 295
q-85 54 -194 54q-104 0 -169 -57.5t-65 -145.5q0 -37 9.5 -67t32 -54.5t44.5 -42t62 -36.5t69 -30.5t80 -29.5q73 -25 126.5 -49t105.5 -59t84 -75.5t51.5 -97t19.5 -125.5q0 -82 -35 -158t-96.5 -134t-153 -93t-198.5 -35z" />
    <glyph glyph-name="T" unicode="T" horiz-adv-x="1359" 
d="M362 33l97 8q88 8 88 37v1161h-49q-69 -2 -129 -27t-104.5 -67t-76 -88t-55.5 -101l-22 -73h-56l54 397h1159l26 -395h-49l-22 71q-24 59 -55 107t-74.5 89t-101.5 64t-126 23h-53v-1167q0 -13 20 -19t85 -12l79 -8l7 -33h-648z" />
    <glyph glyph-name="U" unicode="U" horiz-adv-x="1435" 
d="M737 -35q-270 0 -400 107.5t-130 337.5v800q0 8 -6 12.5t-29.5 9t-67.5 7.5l-69 8l-6 33h624l-6 -33l-86 -8q-88 -8 -88 -35v-733q0 -397 354 -397q361 0 361 420l-2 567q0 101 -31 135.5t-121 42.5l-61 8l-6 33h463l-7 -33l-57 -8q-73 -6 -101 -45t-28 -143l-4 -570
q-3 -516 -496 -516z" />
    <glyph glyph-name="V" unicode="V" horiz-adv-x="1339" 
d="M219 1040q-55 131 -80.5 162t-87.5 35l-63 10l-4 33h624l-4 -33l-72 -6q-73 -4 -85 -29q-11 -23 18 -106q6 -14 18 -47l295 -766h13l225 616q20 56 32 91.5t21.5 71.5t11.5 56.5t-0.5 41t-11.5 31t-26 19.5t-39.5 13.5t-55.5 7.5l-45 6l-6 33h463l-6 -33l-39 -8
q-39 -5 -61 -13t-45.5 -27t-44.5 -59.5t-46 -100t-61 -160.5l-338 -893h-90z" />
    <glyph glyph-name="W" unicode="W" horiz-adv-x="2015" 
d="M207 1040q-45 121 -74.5 157t-89.5 40l-59 8l-7 35h627l-6 -35l-72 -4q-71 -4 -80.5 -34.5t23.5 -121.5l283 -790h8l244 645l-35 100q-43 116 -72.5 154.5t-87.5 42.5l-68 8l-6 35h635l-6 -35l-70 -4q-73 -4 -83.5 -34.5t22.5 -127.5l264 -774h8l203 580q27 77 41 122.5
t21.5 87.5t3 63.5t-21 40t-44 26.5t-72.5 14l-51 6l-6 35h471l-6 -35l-37 -6q-33 -6 -52.5 -12t-41 -23.5t-35 -36.5t-34.5 -63t-38.5 -91t-48.5 -132l-323 -904h-80l-320 900h-6l-342 -900h-82z" />
    <glyph glyph-name="X" unicode="X" horiz-adv-x="1339" 
d="M0 33l63 10q40 4 70.5 18t68.5 53.5t69.5 80t93.5 127.5l196 268l-291 440q-83 133 -110 162q-35 39 -78 43l-72 12l-8 33h631l-4 -33l-66 -6q-46 -3 -61 -20t-2 -55.5t59 -108.5l170 -273h4l125 183q78 111 99.5 165t-0.5 76.5t-95 30.5l-53 8l-6 33h483l-6 -33l-57 -10
q-55 -5 -99.5 -34.5t-89 -82t-131.5 -172.5l-143 -198l356 -549q70 -105 92 -127q29 -27 68 -31l57 -10l8 -33h-618l4 33l66 6q67 4 74.5 38t-40.5 103l-239 375h-4q1 0 -9.5 -15.5t-32 -47t-36.5 -54.5q-37 -57 -80 -116q-58 -81 -84.5 -132.5t-23.5 -82.5t28 -45.5
t76 -20.5l53 -8l6 -33h-487z" />
    <glyph glyph-name="Y" unicode="Y" horiz-adv-x="1300" 
d="M334 33l96 8q88 8 88 37v487l-295 516q-55 90 -85.5 119.5t-88.5 36.5l-47 8l-6 35h618l-6 -35l-45 -4q-80 -10 -90.5 -44t35.5 -112l242 -438h8l162 299q33 61 52.5 100.5t29.5 73t8.5 53t-15.5 34t-38 21.5t-64 11l-47 6l-6 35h460l-6 -35l-51 -8q-52 -9 -84 -29
t-76 -81t-110 -185l-189 -338v-532q0 -13 20 -19t85 -12l78 -8l6 -33h-645z" />
    <glyph glyph-name="Z" unicode="Z" horiz-adv-x="1234" 
d="M66 35l772 1194v6h-197q-201 0 -302.5 -72t-156.5 -231l-16 -62h-51l18 410h1018v-37l-786 -1190v-6l215 -4q121 -2 203 15.5t141.5 63.5t98.5 108t81 165l22 64h54l-60 -459h-1054v35z" />
    <glyph glyph-name="bracketleft" unicode="[" horiz-adv-x="665" 
d="M131 1305h510v-43h-459v-1700h459v-43h-510v1786z" />
    <glyph glyph-name="backslash" unicode="\" horiz-adv-x="503" 
d="M-6 1323h49l432 -1796h-47z" />
    <glyph glyph-name="bracketright" unicode="]" horiz-adv-x="665" 
d="M23 -438h458v1700h-458v43h509v-1786h-509v43z" />
    <glyph glyph-name="asciicircum" unicode="^" horiz-adv-x="776" 
d="M369 1409h39l278 -403h-31l-264 200h-4l-268 -200h-29z" />
    <glyph glyph-name="underscore" unicode="_" horiz-adv-x="927" 
d="M29 0h872l6 -74h-884z" />
    <glyph glyph-name="grave" unicode="`" horiz-adv-x="819" 
d="M80 1399h248l202 -379h-34z" />
    <glyph glyph-name="a" unicode="a" horiz-adv-x="946" 
d="M410 119q74 0 143 69l12 306q-158 -37 -220 -95t-62 -137q0 -65 36 -104t91 -39zM725 -27q-70 0 -113 44.5t-53 129.5l-4 3q-74 -84 -139 -129.5t-140 -45.5q-93 0 -158 61t-65 148q0 116 115.5 196.5t394.5 149.5l2 54q4 129 -49.5 196.5t-153.5 67.5q-53 0 -92 -15.5
t-39 -33.5q0 -5 14.5 -23t29 -44t14.5 -52q0 -43 -33.5 -75t-85.5 -32q-50 0 -84.5 27.5t-34.5 71.5q0 62 73.5 121.5t178 94t197.5 34.5q170 0 240.5 -78t60.5 -266l-17 -369q-9 -107 68 -107q15 0 31 9.5t26 18.5t31 30l21 -21q-123 -166 -236 -166z" />
    <glyph glyph-name="b" unicode="b" horiz-adv-x="1079" 
d="M569 14q92 0 148.5 110t56.5 279q0 158 -67.5 260.5t-178.5 102.5q-96 0 -186 -82v-491q45 -79 105.5 -129t121.5 -50zM111 1141q0 54 -14 75t-56 33l-64 23l3 24l362 97v-656l8 -2q144 176 314 176q155 0 260.5 -124t105.5 -312q0 -116 -42.5 -213t-112 -159.5
t-157.5 -97t-181 -34.5q-116 0 -271 60h-2l-137 -74h-16v1184z" />
    <glyph glyph-name="c" unicode="c" horiz-adv-x="903" 
d="M475 -31q-184 0 -305 128t-121 323q0 214 138.5 358t353.5 144q141 0 231 -57t90 -148q0 -56 -35.5 -90.5t-87.5 -34.5q-59 0 -94.5 43t-30.5 104q0 25 18.5 55t18.5 33q-5 19 -36.5 34.5t-71.5 15.5q-106 0 -174 -100.5t-68 -270.5q0 -179 81 -282t218 -103
q164 0 254 151l25 -12q-128 -291 -404 -291z" />
    <glyph glyph-name="d" unicode="d" horiz-adv-x="1099" 
d="M553 115q96 0 180 84v493q-43 77 -102 125.5t-117 48.5q-97 0 -154 -108t-57 -277q0 -161 68 -263.5t182 -102.5zM733 147l-4 3q-146 -179 -311 -179q-156 0 -262.5 126.5t-106.5 316.5q0 116 42 211.5t112 157t159 95t185 33.5q108 0 184 -30h2v278q0 56 -13 77.5
t-54 31.5l-84 22l4 23l381 78v-1217q0 -52 9.5 -69.5t41.5 -28.5l84 -21l-4 -24l-365 -62v178z" />
    <glyph glyph-name="e" unicode="e" horiz-adv-x="933" 
d="M647 612q0 54 -7.5 100t-24 84.5t-45 60.5t-66.5 22q-73 0 -130.5 -74.5t-70.5 -194.5zM475 -31q-183 0 -304.5 129.5t-121.5 325.5q0 215 136.5 357.5t344.5 142.5q162 0 254.5 -85.5t92.5 -213.5q0 -27 -7 -58q-190 0 -270 2q-60 0 -130.5 1.5t-117.5 3t-51 1.5
q-4 -15 -4 -77q0 -167 85 -272t220 -105q166 0 260 151l25 -12q-128 -291 -412 -291z" />
    <glyph glyph-name="f" unicode="f" horiz-adv-x="673" 
d="M51 33l41 2q47 5 63.5 11t16.5 24v706l-162 4l37 107h123l4 94q6 89 47 165t103.5 126t139 78t154.5 28q94 0 143.5 -35t49.5 -92q0 -47 -34.5 -79.5t-84.5 -32.5q-106 0 -143 159l-4 13l-41 8q-55 -24 -75.5 -91t-20.5 -212v-129h260l-29 -107h-231v-712q0 -15 17.5 -22
t76.5 -11l73 -2l7 -33h-537z" />
    <glyph glyph-name="g" unicode="g" horiz-adv-x="987" 
d="M461 348q153 0 153 256q0 277 -153 277q-70 0 -108 -65.5t-38 -194.5q0 -132 39 -202.5t107 -70.5zM498 -446q127 0 207.5 64.5t80.5 158.5q0 79 -54.5 118.5t-176.5 45.5q-5 3 -47.5 2t-58.5 -2t-67 -4.5t-73 -4.5q-48 -19 -76 -64t-28 -106q0 -93 80 -150.5t213 -57.5z
M391 -502q-180 0 -274 54.5t-94 158.5q0 139 239 228v4q-92 10 -151.5 61t-59.5 117q0 76 64.5 131.5t156.5 83.5q0 2 2 4q-87 33 -137.5 98.5t-50.5 163.5q0 132 107 225t270 93q139 0 248 -68l278 35l-16 -121l-203 31l-2 -9q72 -68 72 -165q0 -134 -109.5 -223
t-277.5 -89q-65 0 -131 15q-44 -11 -72.5 -38t-28.5 -61q0 -80 156 -80q32 0 128 3.5t134 3.5q140 0 222.5 -69t82.5 -187q0 -169 -155.5 -284.5t-397.5 -115.5z" />
    <glyph glyph-name="h" unicode="h" horiz-adv-x="1101" 
d="M27 33l34 2q48 5 64 11t16 24v1069q0 56 -12 76t-53 32l-66 23l4 24l365 97v-641l4 -2q62 52 106 83.5t111 60t129 28.5q94 0 166 -66q68 -71 68 -229v-555q0 -8 5.5 -13t28 -11t66.5 -11l29 -2l6 -33h-486l6 33l39 2q46 4 59 12t13 23v499q0 106 -42 150.5t-128 44.5
q-96 0 -182 -62v-301v-333q0 -14 17 -21.5t71 -11.5l37 -2l6 -33h-488z" />
    <glyph glyph-name="i" unicode="i" horiz-adv-x="559" 
d="M266 1057q-66 0 -105.5 43.5t-39.5 101.5t39.5 102t105.5 44q68 0 108 -44t40 -102t-40 -101.5t-108 -43.5zM47 33l35 2q48 5 65 11t17 24v551q0 93 -15 121t-71 40l-43 11l2 24l362 101v-850q0 -14 18 -20.5t79 -12.5l28 -2l6 -33h-489z" />
    <glyph glyph-name="j" unicode="j" horiz-adv-x="536" 
d="M262 1057q-68 0 -107.5 43.5t-39.5 101.5t39.5 102t107.5 44q66 0 105 -44t39 -102t-39 -101.5t-105 -43.5zM-23 -522q-77 0 -123.5 36.5t-46.5 94.5q0 49 35.5 82t83.5 33q67 0 102.5 -56.5t22.5 -122.5q107 13 107 328v748q0 91 -16 120t-70 41l-45 11l2 24l362 101
v-961q-3 -107 -67 -219.5t-160.5 -186t-186.5 -73.5z" />
    <glyph glyph-name="k" unicode="k" horiz-adv-x="1060" 
d="M31 33l32 2q62 9 72 18q6 6 6 17v1069q0 56 -12 76t-53 32l-66 23l4 24l365 97v-957l135 125q98 92 141 143.5t43 85.5q0 31 -24.5 46.5t-89.5 21.5l-25 2l-4 33h461l-6 -33l-37 -6q-69 -7 -131.5 -49.5t-186.5 -163.5q-3 -3 -9 -8t-9 -8t-5 -6.5t-5 -6.5l-6 -6l256 -438
q47 -76 71.5 -99t73.5 -30l31 -4l6 -33h-367l-39 78l-204 368l-70 -63v-315q0 -14 17 -20.5t75 -12.5l35 -2l4 -33h-485z" />
    <glyph glyph-name="l" unicode="l" horiz-adv-x="546" 
d="M43 33l35 2q47 5 61.5 11t14.5 24v1044q0 72 -13 96.5t-55 36.5l-61 23l2 24l364 97v-1323q0 -14 17 -20.5t71 -12.5l33 -2l6 -33h-481z" />
    <glyph glyph-name="m" unicode="m" horiz-adv-x="1667" 
d="M45 33l35 2q48 5 65 11t17 24v548q0 95 -15 123.5t-71 40.5l-43 11l2 24l364 101l-4 -170h6q85 79 162.5 125.5t165.5 46.5q97 0 166 -66q40 -43 55 -111l6 -2q87 83 168 131t170 48q94 0 166 -66q68 -71 68 -260v-524q0 -9 4.5 -13.5t27 -10.5t66.5 -11l29 -2l6 -33
h-485l6 33l39 2q32 3 49 8.5t20.5 11t3.5 15.5v495q0 109 -41 154t-129 45q-49 0 -95.5 -21t-63.5 -51q1 -1 -1 -38t-1 -40v-546q0 -13 15.5 -19.5t74.5 -13.5l32 -2l7 -33h-480l6 33l37 2q44 4 59 12.5t15 22.5v495q0 109 -41.5 154t-126.5 45q-82 0 -164 -59v-228v-409
q0 -15 16 -22t72 -11l35 -2l6 -33h-487z" />
    <glyph glyph-name="n" unicode="n" horiz-adv-x="1122" 
d="M45 33l35 2q48 5 65 11t17 24v548q0 95 -15 123.5t-71 40.5l-43 11l2 24l364 101l-4 -170h6q95 80 177.5 126t171.5 46q97 0 163 -66q70 -70 70 -229v-555q0 -8 4.5 -13t27 -11t66.5 -11l29 -2l6 -33h-483l6 33l37 2q46 4 60 12.5t14 22.5v495q0 110 -42.5 154.5
t-129.5 44.5q-95 0 -181 -62v-301v-333q0 -15 16 -22t70 -11l39 -2l4 -33h-487z" />
    <glyph glyph-name="o" unicode="o" 
d="M539 12q105 0 166 116t61 296q0 299 -102 401q-54 54 -127 54q-107 0 -167.5 -114t-60.5 -292q0 -303 101 -407q51 -54 129 -54zM530 -29q-216 0 -348.5 135.5t-132.5 337.5q0 200 142 339t358 139q143 0 254 -63.5t169 -169.5t58 -234q0 -99 -37.5 -188.5t-102.5 -154.5
t-158.5 -103t-201.5 -38z" />
    <glyph glyph-name="p" unicode="p" horiz-adv-x="1101" 
d="M594 14q92 0 148.5 110t56.5 279q0 157 -67.5 259t-180.5 102q-95 0 -182 -80v-494q44 -80 104.5 -128t120.5 -48zM10 -481l43 4q28 3 38 4.5t23.5 5t17 9t3.5 14.5v1065q0 91 -16 120t-70 41l-45 11l2 24l365 101l-2 -181l6 -2q147 176 313 176q157 0 262 -124t105 -312
q0 -116 -42 -213t-111.5 -159.5t-157 -97t-179.5 -34.5q-106 0 -192 33h-4v-453q0 -9 6 -14t28 -9t62 -5l72 -4l6 -33h-539z" />
    <glyph glyph-name="q" unicode="q" horiz-adv-x="1087" 
d="M553 115q96 0 180 84v491q-43 78 -102 127t-117 49q-98 0 -154.5 -106.5t-56.5 -274.5q0 -161 68 -265.5t182 -104.5zM567 -481l74 4q39 1 60 5t26.5 9t5.5 14v596l-4 3q-146 -179 -311 -179q-156 0 -262.5 126.5t-106.5 316.5q0 117 42 213.5t112 157t158.5 93.5
t185.5 33q145 0 266 -59h2l137 76h15v-1374q0 -16 16.5 -21t69.5 -10l39 -4l6 -33h-537z" />
    <glyph glyph-name="r" unicode="r" horiz-adv-x="831" 
d="M47 33l33 2q48 5 65 11t17 24v548q0 95 -15 123.5t-71 40.5l-43 11l2 24l364 101l-4 -304h6q57 155 122 230.5t155 75.5q65 0 106 -37.5t41 -102.5q0 -50 -36 -89.5t-89 -39.5t-89 32t-48 87q-49 -13 -89 -74t-77 -178v-450q0 -14 19.5 -21.5t79.5 -11.5l53 -2l6 -33
h-514z" />
    <glyph glyph-name="s" unicode="s" horiz-adv-x="804" 
d="M371 -29q-167 0 -301 52l-13 262l49 -2l52 -117q46 -77 99.5 -115.5t125.5 -38.5q79 0 127.5 43.5t48.5 112.5q0 66 -56.5 108t-162.5 80q-51 19 -84 34.5t-71.5 40.5t-60.5 52t-37 67t-15 89q0 125 93 203t245 78q101 0 202 -33l84 20l11 -276l-48 -2l-122 205
q-65 45 -131 45q-72 0 -113 -38t-41 -104q0 -35 14 -61t47 -47t64 -35t90 -35q52 -20 84.5 -35t74 -41t65 -53.5t40.5 -69.5t17 -92q0 -124 -99 -210.5t-278 -86.5z" />
    <glyph glyph-name="t" unicode="t" horiz-adv-x="729" 
d="M406 -27q-255 0 -246 271l10 530l-166 4l31 70l147 113l183 143l34 -4l-2 -211h314l-27 -109h-289l-10 -497q-1 -96 37.5 -138.5t118.5 -42.5q92 0 170 60l8 -25q-157 -164 -313 -164z" />
    <glyph glyph-name="u" unicode="u" horiz-adv-x="1081" 
d="M717 145h-4q-89 -80 -173 -127t-173 -47q-91 0 -164 70q-69 72 -66 229l2 555q0 13 -16.5 18.5t-83.5 12.5l-33 2l-6 33h377l-6 -567q-1 -107 41.5 -151t132.5 -44q92 0 170 59v318v293q0 31 -18 42t-79 15l-36 2l-9 33h375v-694q0 -53 9.5 -70.5t41.5 -28.5l84 -20
l-4 -23l-364 -88z" />
    <glyph glyph-name="v" unicode="v" horiz-adv-x="985" 
d="M129 748q-24 59 -44.5 79.5t-64.5 24.5l-36 6l-9 33h517l-5 -33l-43 -6q-53 -4 -66 -24.5t5 -67.5l207 -518l149 393q47 126 33 166.5t-96 48.5l-43 8l-6 33h370l-6 -33l-39 -6q-61 -9 -84 -42t-84 -185l-249 -645h-84z" />
    <glyph glyph-name="w" unicode="w" horiz-adv-x="1521" 
d="M133 733q-31 74 -49.5 94.5t-65.5 24.5l-36 6l-5 33h500l-4 -33l-43 -6q-48 -5 -59.5 -23t6.5 -65l194 -526l166 426l-32 88q-24 57 -45.5 75.5t-65.5 24.5l-37 6l-6 33h502l-4 -33l-43 -6q-49 -6 -59.5 -26t5.5 -62l197 -520l129 381q44 121 30 167t-102 58l-37 8l-6 33
h369l-6 -33l-37 -8q-60 -4 -85 -41t-77 -186l-225 -643h-86l-254 626l-248 -626h-86z" />
    <glyph glyph-name="x" unicode="x" horiz-adv-x="999" 
d="M4 33l45 8q61 12 102.5 48t131.5 151l125 157l-213 316q-51 74 -84.5 104.5t-73.5 34.5l-33 6l-6 33h514l-6 -33l-39 -6q-31 -4 -41 -18.5t-1.5 -39t34.5 -63.5l116 -178h3l86 117q52 71 67 108.5t-2 54t-72 19.5l-32 6l-7 33h373l-6 -33l-49 -10q-60 -12 -101 -47.5
t-130 -149.5l-103 -131l232 -342q47 -71 80 -102t69 -37l33 -6l6 -33h-508l6 33l35 6q49 4 51 33.5t-37 83.5l-137 209h-2l-106 -144q-78 -104 -77 -140t79 -44l36 -4l7 -33h-371z" />
    <glyph glyph-name="y" unicode="y" horiz-adv-x="983" 
d="M209 -528q-58 0 -100.5 34.5t-42.5 92.5q0 49 32.5 82.5t85.5 33.5q56 0 88.5 -30t44.5 -76q34 10 58 47t51 117l70 198h-19l-348 777q-30 62 -48 80t-65 22l-36 8l-7 33h512l-6 -33l-41 -6q-53 -6 -64.5 -25.5t9.5 -66.5l215 -506l139 385q31 85 34 126t-19 59t-82 26
l-41 8l-6 33h370l-6 -33l-41 -6q-58 -4 -83.5 -41.5t-80.5 -183.5l-227 -604l-92 -281q-49 -141 -107.5 -205.5t-146.5 -64.5z" />
    <glyph glyph-name="z" unicode="z" horiz-adv-x="929" 
d="M43 29l537 821l-91 -2q-146 -4 -212.5 -49.5t-110.5 -151.5l-41 -102h-43v346h774v-31l-543 -817h99q159 4 246.5 60.5t142.5 162.5l43 84h43l-70 -350h-774v29z" />
    <glyph glyph-name="braceleft" unicode="{" horiz-adv-x="673" 
d="M641 -518q-201 12 -329 104.5t-128 227.5q0 65 26 143.5t52.5 149t26.5 116.5q0 80 -63 116t-208 48l-10 27l10 26q138 13 204.5 48.5t66.5 115.5q0 37 -16.5 90t-36 99.5t-36 108t-16.5 112.5q0 134 128 227t329 105l2 -31q-132 -17 -198 -68t-66 -131q0 -62 52 -207.5
t52 -224.5q0 -226 -377 -266v-10q377 -40 377 -267q0 -80 -52 -224.5t-52 -207.5q0 -162 264 -196z" />
    <glyph glyph-name="bar" unicode="|" horiz-adv-x="387" 
d="M172 1346h45v-1797h-45v1797z" />
    <glyph glyph-name="braceright" unicode="}" horiz-adv-x="673" 
d="M10 -487q264 34 264 196q0 63 -52 207.5t-52 224.5q0 227 377 267v10q-377 40 -377 266q0 79 52 224.5t52 207.5q0 80 -66 131t-198 68l4 31q198 -12 326.5 -105.5t128.5 -226.5q0 -64 -26 -143.5t-52 -150.5t-26 -116q0 -55 35 -89.5t91 -50t146 -24.5l8 -26l-8 -27
q-146 -12 -209 -48t-63 -116q0 -46 26 -116.5t52 -149t26 -143.5q0 -134 -128 -227t-327 -105z" />
    <glyph glyph-name="asciitilde" unicode="~" horiz-adv-x="804" 
d="M559 315q-54 0 -127 33.5t-138 67t-101 33.5q-37 0 -57.5 -21.5t-31.5 -93.5h-36q13 146 52.5 203t125.5 57q42 0 97.5 -21t99.5 -45.5t91.5 -45.5t75.5 -21q37 0 59 22.5t33 91.5h33q-12 -143 -51 -201.5t-125 -58.5z" />
    <glyph glyph-name="nbspace" unicode="&#xa0;" horiz-adv-x="284" 
 />
    <glyph glyph-name="exclamdown" unicode="&#xa1;" horiz-adv-x="567" 
d="M285 1030q-59 0 -99.5 40t-40.5 95q0 57 40.5 98.5t99.5 41.5t99 -41.5t40 -98.5q0 -56 -40 -95.5t-99 -39.5zM283 -33q-81 0 -109.5 35t-19.5 92l114 783q4 11 15 11t16 -11l113 -783q19 -127 -125 -127h-4z" />
    <glyph glyph-name="cent" unicode="&#xa2;" horiz-adv-x="899" 
d="M635 848q-48 31 -92 31q-106 0 -174 -101.5t-68 -271.5q0 -120 40.5 -207t111.5 -133zM403 -25q-156 25 -255 151t-99 300q0 214 139.5 356t352.5 142q34 0 110 -13l90 344h45l-96 -354q80 -24 126 -71.5t46 -112.5q0 -53 -33 -88t-81 -35q-42 0 -72.5 23t-42.5 59
l-141 -529q51 -26 110 -26q160 0 254 151l25 -10q-62 -140 -164 -216.5t-240 -76.5q-25 0 -31 2l-79 -297h-41z" />
    <glyph glyph-name="sterling" unicode="&#xa3;" horiz-adv-x="1126" 
d="M369 127q-69 46 -116.5 69t-92.5 23q-55 0 -88 -28t-33 -78q0 -49 36 -78t91 -29q54 0 109 33.5t94 87.5zM125 588l6 43h205q-39 107 -39 190q0 203 147.5 336t370.5 133q123 0 187.5 -46t64.5 -132q0 -48 -38 -85.5t-91 -37.5q-55 0 -89 38.5t-34.5 88.5t23.5 98
q-10 10 -36 20.5t-57 10.5q-87 0 -144.5 -70t-57.5 -212q0 -43 15 -157.5t20 -174.5h266l6 -43h-268q2 -23 2 -72q0 -124 -74 -266q7 -2 50 -17t54.5 -18.5t47.5 -15t53 -15t45.5 -10t51 -8.5t44.5 -2q94 0 138 48.5t61 184.5l28 -6q0 -112 -35.5 -207t-107 -155t-164.5 -60
q-101 0 -185.5 34.5t-180.5 96.5q-118 -131 -246 -131q-72 0 -118 41t-46 107q0 82 67 136t181 54q70 0 178 -31q2 6 2 33q0 41 -12 92.5t-26 89t-38 97.5h-227z" />
    <glyph glyph-name="currency" unicode="&#xa4;" horiz-adv-x="1058" 
d="M633 -27q-185 0 -320.5 131.5t-171.5 356.5h-131l6 43h119q-6 56 -6 102q0 68 10 117h-129l6 43h129q49 237 210.5 380.5t363.5 143.5q142 0 223.5 -47t81.5 -133q0 -48 -37 -83.5t-90 -35.5q-41 0 -72 22t-44 54.5t-10.5 72t22.5 72.5q-2 1 -9.5 6t-10.5 6.5t-10.5 5.5
t-13 5.5t-14 3.5t-17.5 3t-20 1q-129 0 -212.5 -131t-104.5 -346h393l6 -43h-403v-68q0 -87 10 -151h387l6 -43h-383q37 -160 129 -248t222 -88q93 0 162 38t122 122l23 -15q-144 -297 -422 -297z" />
    <glyph glyph-name="yen" unicode="&#xa5;" horiz-adv-x="1271" 
d="M322 35l104 12q82 8 82 37v233h-373l6 43h369v220h-371l-2 45h350q0 2 -133 231l-135 229q-52 85 -87 116.5t-93 35.5l-51 8l-8 35h634l-6 -35l-55 -4q-72 -4 -81.5 -44t40.5 -126l231 -428h5l124 238q39 76 61.5 125.5t35 90.5t11.5 64t-16 40.5t-39.5 25.5t-66.5 14
l-45 6l-8 33h473l-6 -33l-43 -8q-69 -13 -123 -64.5t-127 -191.5q-44 -83 -96 -178q-19 -35 -45.5 -83.5t-39.5 -73t-14 -23.5h367l-2 -45h-375v-220h373l6 -43h-379v-237q0 -15 18 -22t80 -13l89 -10l6 -35h-652z" />
    <glyph glyph-name="section" unicode="&#xa7;" horiz-adv-x="860" 
d="M639 362q63 48 63 115q0 38 -15 68.5t-49.5 58t-70 47.5t-94.5 49q-23 13 -67 36t-69.5 37t-57.5 35t-54 40q-65 -52 -65 -113q0 -38 15 -68.5t50 -58.5t68.5 -47.5t93.5 -50.5q9 -5 46 -23.5l49 -24.5t41 -22t44 -26t35.5 -24t36.5 -28zM379 -102q-120 0 -193 41.5
t-73 117.5q0 45 29 78t75 33q74 0 106 -60t7 -141q46 -26 98 -26q65 0 107.5 43.5t42.5 97.5q0 34 -14.5 62.5t-54.5 57.5t-65 43.5t-90 48.5q-21 11 -32 17q-4 2 -13 7q-40 21 -60.5 32.5t-56 33.5t-55 38t-44.5 40.5t-38 47.5t-22.5 52t-9.5 61q0 147 180 243
q-68 71 -68 160q0 118 104 200.5t238 82.5q120 0 190 -41t70 -117q0 -45 -32 -78t-78 -33q-72 0 -101.5 60.5t-11.5 140.5q-48 27 -84 27q-64 0 -104.5 -42t-40.5 -96q0 -30 14.5 -57.5t35 -48t58.5 -44.5t67.5 -39.5t80.5 -39.5q66 -32 109.5 -57.5t92 -64t73 -85.5
t24.5 -102q0 -79 -50.5 -142.5t-130.5 -105.5q70 -70 70 -160q0 -118 -107 -202t-243 -84z" />
    <glyph glyph-name="dieresis" unicode="&#xa8;" horiz-adv-x="808" 
d="M610 1053q-58 0 -91.5 38t-33.5 89q0 49 34 89t91 40t91 -40t34 -89q0 -51 -33.5 -89t-91.5 -38zM201 1053q-59 0 -94 38.5t-35 88.5q0 48 35.5 88.5t93.5 40.5q57 0 91 -40t34 -89q0 -51 -33.5 -89t-91.5 -38z" />
    <glyph glyph-name="copyright" unicode="&#xa9;" horiz-adv-x="1480" 
d="M766 238q-199 0 -317.5 113t-118.5 284t122 287t320 116q123 0 193 -41l88 27l6 -260h-31l-104 201q-52 43 -154 43q-124 0 -196 -100t-72 -261q0 -168 77.5 -274.5t196.5 -106.5q141 0 223 142l50 106h30l-35 -231l-53 -2q-38 -16 -104.5 -29.5t-120.5 -13.5zM741 -8
q104 0 202.5 33t177.5 93t138.5 140t92 178.5t32.5 202.5q0 131 -51 251.5t-137 208t-205.5 139.5t-249.5 52t-249.5 -52t-206 -139.5t-138 -208t-51.5 -251.5q0 -130 51.5 -250t138 -207t206 -138.5t249.5 -51.5zM741 -43q-140 0 -266.5 54t-218 145.5t-145.5 217.5
t-54 265q0 187 91.5 345.5t249 250.5t343.5 92t343.5 -92t249 -250.5t91.5 -345.5q0 -139 -54 -265t-145.5 -217.5t-218 -145.5t-266.5 -54z" />
    <glyph glyph-name="ordfeminine" unicode="&#xaa;" horiz-adv-x="733" 
d="M326 690q52 0 110 58l8 215q-213 -51 -213 -164q0 -49 26.5 -79t68.5 -30zM209 578q-68 0 -116 44t-48 109q0 84 94.5 148t304.5 114l2 56q1 91 -45 141.5t-120 50.5q-29 0 -50.5 -8t-29.5 -16t-8 -13q0 -4 18 -35.5t18 -54.5q0 -35 -27.5 -58.5t-68.5 -23.5
q-39 0 -66.5 23.5t-27.5 60.5q0 47 63 92.5t148.5 71t157.5 25.5q116 0 174.5 -59t52.5 -175l-12 -297q-3 -92 55 -92q37 0 72 35l8 -17q-85 -122 -187 -122q-113 0 -131 139h-4q-114 -139 -227 -139z" />
    <glyph glyph-name="guillemotleft" unicode="&#xab;" horiz-adv-x="950" 
d="M35 426v57l454 324l11 -16l-244 -338l244 -336l-11 -17zM442 426v57l465 346l13 -16l-265 -360l263 -357l-11 -16z" />
    <glyph glyph-name="registered" unicode="&#xae;" horiz-adv-x="1480" 
d="M717 653q77 2 120.5 45.5t43.5 126.5q0 85 -54.5 127t-148.5 37h-51v-317q39 -15 90 -19zM365 289l53 6q51 6 51 22v650q0 8 -11 12t-48 8l-45 8l-5 29h357q165 0 248.5 -51t83.5 -146q0 -72 -51 -125t-138 -73l154 -238q23 -38 45.5 -59t38.5 -27t47 -12l22 -4l4 -31
h-268l-20 41l-185 322q-8 3 -35 8t-36 8v-324q0 -12 57 -18l49 -6l4 -31h-379zM741 -6q175 0 323 87.5t234 236.5t86 323q0 175 -86 324.5t-234 237t-323 87.5q-174 0 -322.5 -87.5t-235.5 -237t-87 -324.5q0 -130 51.5 -250t138 -207t206 -138.5t249.5 -51.5zM741 -43
q-186 0 -343.5 91.5t-249 249t-91.5 343.5q0 139 54 266t145.5 219t218 146.5t266.5 54.5t266.5 -54.5t218 -146.5t145.5 -219t54 -266q0 -186 -91.5 -343.5t-249 -249t-343.5 -91.5z" />
    <glyph glyph-name="macron" unicode="&#xaf;" horiz-adv-x="774" 
d="M129 1180h537l-17 -97h-543z" />
    <glyph glyph-name="degree" unicode="&#xb0;" horiz-adv-x="659" 
d="M330 791q106 0 170.5 69t64.5 172t-65 173.5t-170 70.5q-103 0 -168.5 -71t-65.5 -173q0 -103 64 -172t170 -69zM330 750q-126 0 -203.5 81.5t-77.5 200.5q0 121 77 203t204 82t203.5 -82t76.5 -203q0 -119 -76.5 -200.5t-203.5 -81.5z" />
    <glyph glyph-name="plusminus" unicode="&#xb1;" horiz-adv-x="733" 
d="M92 35l76 8q45 5 63.5 12t18.5 25v819q0 25 -90 33l-72 8l-6 35h571l-6 -35l-74 -8q-46 -5 -65 -12.5t-19 -24.5v-819q0 -25 91 -33l71 -8l6 -35h-571z" />
    <glyph glyph-name="acute" unicode="&#xb4;" horiz-adv-x="819" 
d="M492 1399h245l-413 -379h-37z" />
    <glyph glyph-name="paragraph" unicode="&#xb6;" horiz-adv-x="919" 
d="M748 514q-75 -14 -173 -14q-239 0 -379.5 104t-140.5 283q0 393 543 393h205v-1346h-55v580z" />
    <glyph glyph-name="periodcentered" unicode="&#xb7;" horiz-adv-x="452" 
d="M225 336q-61 0 -103 42.5t-42 102.5q0 58 42 100t103 42q60 0 102 -42.5t42 -99.5q0 -60 -41.5 -102.5t-102.5 -42.5z" />
    <glyph glyph-name="cedilla" unicode="&#xb8;" horiz-adv-x="802" 
d="M190 -535q160 26 239 68.5t79 112.5q0 57 -48.5 84.5t-125.5 27.5q-76 0 -150 -22v22l232 248h47l-127 -133q131 17 223 -32.5t92 -137.5q0 -62 -38.5 -109.5t-106.5 -77t-142 -47t-163 -26.5z" />
    <glyph glyph-name="ordmasculine" unicode="&#xba;" horiz-adv-x="831" 
d="M416 604q77 0 120.5 91.5t43.5 226.5q0 233 -72 305q-41 41 -94 41q-82 0 -125 -88.5t-43 -227.5q0 -233 76 -309q39 -39 94 -39zM412 571q-168 0 -272.5 104.5t-104.5 256.5q0 156 108.5 263.5t276.5 107.5t271.5 -104.5t103.5 -256.5q0 -158 -107 -264.5t-276 -106.5z
" />
    <glyph glyph-name="guillemotright" unicode="&#xbb;" horiz-adv-x="948" 
d="M457 117l241 336l-239 338l8 16l455 -324v-57l-455 -326zM37 96l262 357l-260 360l10 16l467 -346v-57l-467 -346z" />
    <glyph glyph-name="questiondown" unicode="&#xbf;" horiz-adv-x="702" 
d="M377 1034q-59 0 -99 40t-40 95q0 57 40 98.5t99 41.5q57 0 98 -41.5t41 -98.5q0 -55 -41 -95t-98 -40zM479 -29q-119 0 -214.5 61.5t-146 157.5t-50.5 203q0 110 39.5 161t142.5 93q122 46 149 66q34 25 35 59q0 36 -20 65.5t-64 67.5l35 6q67 -49 118.5 -116.5
t51.5 -122.5q0 -43 -16 -75t-53 -56.5t-72.5 -40t-98.5 -37.5q-108 -36 -151 -64t-43 -65q0 -65 83 -110.5t224 -45.5q72 0 166 23q46 -39 49 -107q2 -57 -39 -90t-125 -33z" />
    <glyph glyph-name="Agrave" unicode="&#xc0;" horiz-adv-x="1329" 
d="M307 344q-25 -75 -35.5 -108t-18.5 -75t-3.5 -56t19 -31.5t40 -23t68.5 -9.5l47 -6l6 -35h-457l7 35l38 6q34 4 53.5 9.5t42 23.5t37 40t38 71.5t45 105.5t57.5 155l233 650l-16 69q49 13 107.5 58.5t78.5 91.5h37l365 -1065q44 -125 76 -163.5t94 -43.5l61 -8l6 -35
h-635l7 35l59 6q71 7 81 47.5t-28 147.5l-90 276h-362zM557 1038h-8l-168 -481h332zM279 1741h248l202 -379h-34z" />
    <glyph glyph-name="Aacute" unicode="&#xc1;" horiz-adv-x="1329" 
d="M307 344q-25 -75 -35.5 -108t-18.5 -75t-3.5 -56t19 -31.5t40 -23t68.5 -9.5l47 -6l6 -35h-457l7 35l38 6q34 4 53.5 9.5t42 23.5t37 40t38 71.5t45 105.5t57.5 155l233 650l-16 69q49 13 107.5 58.5t78.5 91.5h37l365 -1065q44 -125 76 -163.5t94 -43.5l61 -8l6 -35
h-635l7 35l59 6q71 7 81 47.5t-28 147.5l-90 276h-362zM557 1038h-8l-168 -481h332zM760 1741h245l-413 -379h-37z" />
    <glyph glyph-name="Acircumflex" unicode="&#xc2;" horiz-adv-x="1329" 
d="M307 344q-25 -75 -35.5 -108t-18.5 -75t-3.5 -56t19 -31.5t40 -23t68.5 -9.5l47 -6l6 -35h-457l7 35l38 6q34 4 53.5 9.5t42 23.5t37 40t38 71.5t45 105.5t57.5 155l233 650l-16 69q49 13 107.5 58.5t78.5 91.5h37l365 -1065q44 -125 76 -163.5t94 -43.5l61 -8l6 -35
h-635l7 35l59 6q71 7 81 47.5t-28 147.5l-90 276h-362zM557 1038h-8l-168 -481h332zM652 1751h39l278 -403h-31l-264 200h-4l-268 -200h-29z" />
    <glyph glyph-name="Atilde" unicode="&#xc3;" horiz-adv-x="1329" 
d="M307 344q-25 -75 -35.5 -108t-18.5 -75t-3.5 -56t19 -31.5t40 -23t68.5 -9.5l47 -6l6 -35h-457l7 35l38 6q34 4 53.5 9.5t42 23.5t37 40t38 71.5t45 105.5t57.5 155l233 650l-16 69q49 13 107.5 58.5t78.5 91.5h37l365 -1065q44 -125 76 -163.5t94 -43.5l61 -8l6 -35
h-635l7 35l59 6q71 7 81 47.5t-28 147.5l-90 276h-362zM557 1038h-8l-168 -481h332zM821 1376q-43 0 -98.5 21t-99.5 45.5t-91.5 45.5t-76.5 21q-37 0 -57.5 -21t-31.5 -93h-36q13 146 52.5 203t125.5 57q53 0 126 -33.5t138 -66.5t100 -33q37 0 59 22.5t33 91.5h33
q-12 -143 -51 -201.5t-125 -58.5z" />
    <glyph glyph-name="Adieresis" unicode="&#xc4;" horiz-adv-x="1329" 
d="M307 344q-25 -75 -35.5 -108t-18.5 -75t-3.5 -56t19 -31.5t40 -23t68.5 -9.5l47 -6l6 -35h-457l7 35l38 6q34 4 53.5 9.5t42 23.5t37 40t38 71.5t45 105.5t57.5 155l233 650l-16 69q49 13 107.5 58.5t78.5 91.5h37l365 -1065q44 -125 76 -163.5t94 -43.5l61 -8l6 -35
h-635l7 35l59 6q71 7 81 47.5t-28 147.5l-90 276h-362zM557 1038h-8l-168 -481h332zM870 1395q-58 0 -91.5 38t-33.5 89q0 49 34 89t91 40t91 -40t34 -89q0 -51 -33.5 -89t-91.5 -38zM461 1395q-59 0 -94 38.5t-35 88.5q0 48 35.5 88.5t93.5 40.5q57 0 91 -40t34 -89
q0 -51 -33.5 -89t-91.5 -38z" />
    <glyph glyph-name="Aring" unicode="&#xc5;" horiz-adv-x="1329" 
d="M662 1276q69 0 110 46t41 112t-41 111.5t-110 45.5q-70 0 -112 -45.5t-42 -111.5t42 -112t112 -46zM365 510l-58 -166q-25 -75 -35.5 -108t-18.5 -75t-3.5 -56t19 -31.5t40 -23t68.5 -9.5l47 -6l6 -35h-457l7 35l38 6q26 3 42.5 6.5t34.5 13.5t29.5 19.5t28 34.5
t27.5 48.5t30.5 70.5t36 91.5t44.5 120.5l295 816q-55 23 -84 68.5t-29 103.5q0 80 52 135t137 55q84 0 135 -55t51 -135q0 -55 -25.5 -99t-72.5 -67l346 -1018q44 -125 76 -163.5t94 -43.5l61 -8l6 -35h-635l7 35l59 6q71 7 81 47.5t-28 147.5l-88 274h-364zM713 557
l-78 242l-78 241h-8l-168 -483h332z" />
    <glyph glyph-name="AE" unicode="&#xc6;" horiz-adv-x="1796" 
d="M778 563v654h-8l-348 -654h356zM-90 35l67 8q46 9 81 33.5t90.5 102t132.5 222.5l389 725q32 54 12 80t-111 33l-75 8l-7 33h1156l14 -420h-51l-19 68q-50 180 -136 244.5t-286 64.5l-127 -2v-561l60 2q120 5 178 37.5t82 115.5l22 66h43l-53 -492l-39 3l-6 63
q-5 63 -25.5 95t-71 48t-147.5 19l-43 2v-584l144 -6q105 0 183 21t132 63.5t89.5 97.5t64.5 133l18 62h53l-51 -420h-1085l6 33l102 12q82 11 82 39v432h-383l-90 -172q-84 -165 -78.5 -228t95.5 -75l57 -6l6 -35h-481z" />
    <glyph glyph-name="Ccedilla" unicode="&#xc7;" horiz-adv-x="1419" 
d="M782 -27q-213 3 -376 86.5t-251.5 231t-88.5 336.5q0 147 52.5 272.5t148 216t237.5 142t313 51.5q90 0 181 -21.5t143 -48.5l147 43l10 -424h-51l-172 342q-97 62 -256 62q-145 0 -251.5 -81.5t-160 -220t-53.5 -315.5q0 -284 129.5 -455.5t331.5 -171.5q134 0 225 57
t162 173l76 178h55l-61 -381h-88q-54 -25 -156.5 -46.5t-198.5 -25.5l-96 -100q131 17 223.5 -32.5t92.5 -137.5q0 -62 -38.5 -109.5t-107 -77t-142.5 -47t-163 -26.5l-10 22q160 26 238.5 68.5t78.5 112.5q0 57 -48.5 84.5t-125.5 27.5q-75 0 -149 -22v22z" />
    <glyph glyph-name="Egrave" unicode="&#xc8;" horiz-adv-x="1267" 
d="M51 33l74 8q92 11 92 37v1130q0 8 -6.5 13t-30.5 10t-69 8l-58 8l-6 33h1067l14 -420h-53l-18 68q-34 121 -83.5 186t-132 94t-220.5 29l-138 -2v-561l76 2q124 5 183 37.5t85 115.5l23 66h43l-51 -492l-41 3l-8 63q-8 91 -57.5 124.5t-190.5 37.5l-62 2v-584l170 -6
q201 0 305 77.5t162 237.5l21 62h53l-53 -420h-1096zM291 1741h248l202 -379h-34z" />
    <glyph glyph-name="Eacute" unicode="&#xc9;" horiz-adv-x="1267" 
d="M51 33l74 8q92 11 92 37v1130q0 8 -6.5 13t-30.5 10t-69 8l-58 8l-6 33h1067l14 -420h-53l-18 68q-34 121 -83.5 186t-132 94t-220.5 29l-138 -2v-561l76 2q124 5 183 37.5t85 115.5l23 66h43l-51 -492l-41 3l-8 63q-8 91 -57.5 124.5t-190.5 37.5l-62 2v-584l170 -6
q201 0 305 77.5t162 237.5l21 62h53l-53 -420h-1096zM734 1741h245l-413 -379h-37z" />
    <glyph glyph-name="Ecircumflex" unicode="&#xca;" horiz-adv-x="1267" 
d="M51 33l74 8q92 11 92 37v1130q0 8 -6.5 13t-30.5 10t-69 8l-58 8l-6 33h1067l14 -420h-53l-18 68q-34 121 -83.5 186t-132 94t-220.5 29l-138 -2v-561l76 2q124 5 183 37.5t85 115.5l23 66h43l-51 -492l-41 3l-8 63q-8 91 -57.5 124.5t-190.5 37.5l-62 2v-584l170 -6
q201 0 305 77.5t162 237.5l21 62h53l-53 -420h-1096zM623 1751h39l278 -403h-31l-264 200h-4l-268 -200h-29z" />
    <glyph glyph-name="Edieresis" unicode="&#xcb;" horiz-adv-x="1267" 
d="M51 33l74 8q92 11 92 37v1130q0 8 -6.5 13t-30.5 10t-69 8l-58 8l-6 33h1067l14 -420h-53l-18 68q-34 121 -83.5 186t-132 94t-220.5 29l-138 -2v-561l76 2q124 5 183 37.5t85 115.5l23 66h43l-51 -492l-41 3l-8 63q-8 91 -57.5 124.5t-190.5 37.5l-62 2v-584l170 -6
q201 0 305 77.5t162 237.5l21 62h53l-53 -420h-1096zM846 1395q-58 0 -91.5 38t-33.5 89q0 49 34 89t91 40t91 -40t34 -89q0 -51 -33.5 -89t-91.5 -38zM437 1395q-59 0 -94 38.5t-35 88.5q0 48 35.5 88.5t93.5 40.5q57 0 91 -40t34 -89q0 -51 -33.5 -89t-91.5 -38z" />
    <glyph glyph-name="Igrave" unicode="&#xcc;" horiz-adv-x="747" 
d="M68 33l84 8q90 9 90 37v1130q0 8 -6.5 13t-31 10t-69.5 8l-67 8l-7 33h625l-6 -33l-84 -8q-90 -8 -90 -37v-1130q0 -13 19.5 -19t84.5 -12l68 -8l6 -33h-623zM19 1741h248l202 -379h-34z" />
    <glyph glyph-name="Iacute" unicode="&#xcd;" horiz-adv-x="747" 
d="M68 33l84 8q90 9 90 37v1130q0 8 -6.5 13t-31 10t-69.5 8l-67 8l-7 33h625l-6 -33l-84 -8q-90 -8 -90 -37v-1130q0 -13 19.5 -19t84.5 -12l68 -8l6 -33h-623zM490 1741h245l-413 -379h-37z" />
    <glyph glyph-name="Icircumflex" unicode="&#xce;" horiz-adv-x="747" 
d="M68 33l84 8q90 9 90 37v1130q0 8 -6.5 13t-31 10t-69.5 8l-67 8l-7 33h625l-6 -33l-84 -8q-90 -8 -90 -37v-1130q0 -13 19.5 -19t84.5 -12l68 -8l6 -33h-623zM357 1751h39l278 -403h-31l-264 200h-4l-268 -200h-29z" />
    <glyph glyph-name="Idieresis" unicode="&#xcf;" horiz-adv-x="747" 
d="M68 33l84 8q90 9 90 37v1130q0 8 -6.5 13t-31 10t-69.5 8l-67 8l-7 33h625l-6 -33l-84 -8q-90 -8 -90 -37v-1130q0 -13 19.5 -19t84.5 -12l68 -8l6 -33h-623zM583 1395q-58 0 -91.5 38t-33.5 89q0 49 34 89t91 40t91 -40t34 -89q0 -51 -33.5 -89t-91.5 -38zM174 1395
q-59 0 -94 38.5t-35 88.5q0 48 35.5 88.5t93.5 40.5q57 0 91 -40t34 -89q0 -51 -33.5 -89t-91.5 -38z" />
    <glyph glyph-name="Eth" unicode="&#xd0;" horiz-adv-x="1421" 
d="M733 668l6 -47h-258v-543l140 -35q144 0 249 78t156 205.5t51 285.5q0 291 -126 458t-376 167h-94v-569h252zM41 621l6 47h170v532q0 26 -96 35l-78 12l-6 33q211 0 299 2l291 2q351 4 544 -165.5t193 -459.5q0 -135 -54 -255.5t-150.5 -210t-241 -141.5t-316.5 -52h-567
l6 33l94 14q82 8 82 37v537h-176z" />
    <glyph glyph-name="Ntilde" unicode="&#xd1;" horiz-adv-x="1452" 
d="M289 1067h-6l2 -850q0 -68 14 -104t45 -51.5t92 -20.5l62 -8l6 -33h-463l6 33l57 8q74 6 101.5 44.5t27.5 141.5l7 867q-69 122 -179 141l-43 12l-6 33h457l713 -895h6l-2 676q0 101 -30.5 135.5t-121.5 42.5l-59 8l-6 33h461l-7 -33l-57 -8q-73 -6 -101 -45t-28 -143
l-6 -1063h-72zM913 1376q-43 0 -98.5 21t-99.5 45.5t-91.5 45.5t-76.5 21q-37 0 -57.5 -21t-31.5 -93h-36q13 146 52.5 203t125.5 57q53 0 126 -33.5t138 -66.5t100 -33q37 0 59 22.5t33 91.5h33q-12 -143 -51 -201.5t-125 -58.5z" />
    <glyph glyph-name="Ograve" unicode="&#xd2;" horiz-adv-x="1527" 
d="M770 16q192 0 295.5 156t103.5 463q0 295 -112 461t-299 166q-194 0 -299 -156t-105 -463q0 -297 112 -462t304 -165zM754 -29q-199 0 -355.5 83t-244.5 234.5t-88 346.5q0 180 95.5 335t259 246t353.5 91q199 0 355.5 -82.5t244.5 -235t88 -348.5q0 -180 -95.5 -334.5
t-259 -245t-353.5 -90.5zM410 1741h248l202 -379h-34z" />
    <glyph glyph-name="Oacute" unicode="&#xd3;" horiz-adv-x="1527" 
d="M770 16q192 0 295.5 156t103.5 463q0 295 -112 461t-299 166q-194 0 -299 -156t-105 -463q0 -297 112 -462t304 -165zM754 -29q-199 0 -355.5 83t-244.5 234.5t-88 346.5q0 180 95.5 335t259 246t353.5 91q199 0 355.5 -82.5t244.5 -235t88 -348.5q0 -180 -95.5 -334.5
t-259 -245t-353.5 -90.5zM881 1741h245l-413 -379h-37z" />
    <glyph glyph-name="Ocircumflex" unicode="&#xd4;" horiz-adv-x="1527" 
d="M770 16q192 0 295.5 156t103.5 463q0 295 -112 461t-299 166q-194 0 -299 -156t-105 -463q0 -297 112 -462t304 -165zM754 -29q-199 0 -355.5 83t-244.5 234.5t-88 346.5q0 180 95.5 335t259 246t353.5 91q199 0 355.5 -82.5t244.5 -235t88 -348.5q0 -180 -95.5 -334.5
t-259 -245t-353.5 -90.5zM746 1751h39l278 -403h-31l-264 200h-4l-268 -200h-29z" />
    <glyph glyph-name="Otilde" unicode="&#xd5;" horiz-adv-x="1527" 
d="M770 16q192 0 295.5 156t103.5 463q0 295 -112 461t-299 166q-194 0 -299 -156t-105 -463q0 -297 112 -462t304 -165zM754 -29q-199 0 -355.5 83t-244.5 234.5t-88 346.5q0 180 95.5 335t259 246t353.5 91q199 0 355.5 -82.5t244.5 -235t88 -348.5q0 -180 -95.5 -334.5
t-259 -245t-353.5 -90.5zM932 1376q-43 0 -98.5 21t-99.5 45.5t-91.5 45.5t-76.5 21q-37 0 -57.5 -21t-31.5 -93h-36q13 146 52.5 203t125.5 57q53 0 126 -33.5t138 -66.5t100 -33q37 0 59 22.5t33 91.5h33q-12 -143 -51 -201.5t-125 -58.5z" />
    <glyph glyph-name="Odieresis" unicode="&#xd6;" horiz-adv-x="1527" 
d="M770 16q192 0 295.5 156t103.5 463q0 295 -112 461t-299 166q-194 0 -299 -156t-105 -463q0 -297 112 -462t304 -165zM754 -29q-199 0 -355.5 83t-244.5 234.5t-88 346.5q0 180 95.5 335t259 246t353.5 91q199 0 355.5 -82.5t244.5 -235t88 -348.5q0 -180 -95.5 -334.5
t-259 -245t-353.5 -90.5zM968 1395q-58 0 -91.5 38t-33.5 89q0 49 34 89t91 40t91 -40t34 -89q0 -51 -33.5 -89t-91.5 -38zM559 1395q-59 0 -94 38.5t-35 88.5q0 48 35.5 88.5t93.5 40.5q57 0 91 -40t34 -89q0 -51 -33.5 -89t-91.5 -38z" />
    <glyph glyph-name="Oslash" unicode="&#xd8;" horiz-adv-x="1527" 
d="M1030 1130q-102 132 -272 132q-193 0 -298.5 -157t-105.5 -462q0 -308 121 -473zM504 135q107 -119 266 -119q192 0 295.5 156t103.5 463q0 292 -110 459zM1133 1221q155 -83 242 -233.5t87 -346.5q0 -180 -95.5 -334.5t-259 -245t-353.5 -90.5q-171 0 -310 62l-106 -185
h-49l117 203q-160 81 -250 232.5t-90 351.5q0 180 95.5 335t259 246t353.5 91q173 0 320 -66l98 168h49z" />
    <glyph glyph-name="Ugrave" unicode="&#xd9;" horiz-adv-x="1435" 
d="M737 -35q-270 0 -400 107.5t-130 337.5v800q0 8 -6 12.5t-29.5 9t-67.5 7.5l-69 8l-6 33h624l-6 -33l-86 -8q-88 -8 -88 -35v-733q0 -397 354 -397q361 0 361 420l-2 567q0 101 -31 135.5t-121 42.5l-61 8l-6 33h463l-7 -33l-57 -8q-73 -6 -101 -45t-28 -143l-4 -570
q-3 -516 -496 -516zM397 1741h248l202 -379h-34z" />
    <glyph glyph-name="Uacute" unicode="&#xda;" horiz-adv-x="1435" 
d="M737 -35q-270 0 -400 107.5t-130 337.5v800q0 8 -6 12.5t-29.5 9t-67.5 7.5l-69 8l-6 33h624l-6 -33l-86 -8q-88 -8 -88 -35v-733q0 -397 354 -397q361 0 361 420l-2 567q0 101 -31 135.5t-121 42.5l-61 8l-6 33h463l-7 -33l-57 -8q-73 -6 -101 -45t-28 -143l-4 -570
q-3 -516 -496 -516zM898 1741h245l-413 -379h-37z" />
    <glyph glyph-name="Ucircumflex" unicode="&#xdb;" horiz-adv-x="1435" 
d="M737 -35q-270 0 -400 107.5t-130 337.5v800q0 8 -6 12.5t-29.5 9t-67.5 7.5l-69 8l-6 33h624l-6 -33l-86 -8q-88 -8 -88 -35v-733q0 -397 354 -397q361 0 361 420l-2 567q0 101 -31 135.5t-121 42.5l-61 8l-6 33h463l-7 -33l-57 -8q-73 -6 -101 -45t-28 -143l-4 -570
q-3 -516 -496 -516zM756 1751h39l278 -403h-31l-264 200h-4l-268 -200h-29z" />
    <glyph glyph-name="Udieresis" unicode="&#xdc;" horiz-adv-x="1435" 
d="M737 -35q-270 0 -400 107.5t-130 337.5v800q0 8 -6 12.5t-29.5 9t-67.5 7.5l-69 8l-6 33h624l-6 -33l-86 -8q-88 -8 -88 -35v-733q0 -397 354 -397q361 0 361 420l-2 567q0 101 -31 135.5t-121 42.5l-61 8l-6 33h463l-7 -33l-57 -8q-73 -6 -101 -45t-28 -143l-4 -570
q-3 -516 -496 -516zM991 1395q-58 0 -91.5 38t-33.5 89q0 49 34 89t91 40t91 -40t34 -89q0 -51 -33.5 -89t-91.5 -38zM582 1395q-59 0 -94 38.5t-35 88.5q0 48 35.5 88.5t93.5 40.5q57 0 91 -40t34 -89q0 -51 -33.5 -89t-91.5 -38z" />
    <glyph glyph-name="Yacute" unicode="&#xdd;" horiz-adv-x="1300" 
d="M334 33l96 8q88 8 88 37v487l-295 516q-55 90 -85.5 119.5t-88.5 36.5l-47 8l-6 35h618l-6 -35l-45 -4q-80 -10 -90.5 -44t35.5 -112l242 -438h8l162 299q33 61 52.5 100.5t29.5 73t8.5 53t-15.5 34t-38 21.5t-64 11l-47 6l-6 35h460l-6 -35l-51 -8q-52 -9 -84 -29
t-76 -81t-110 -185l-189 -338v-532q0 -13 20 -19t85 -12l78 -8l6 -33h-645zM793 1741h245l-413 -379h-37z" />
    <glyph glyph-name="Thorn" unicode="&#xde;" horiz-adv-x="1228" 
d="M608 348q119 0 194 84.5t75 222.5q0 151 -74.5 234t-224.5 84h-43q-30 0 -46 -2v-609q72 -14 119 -14zM49 37l86 8q88 8 88 33v1128q0 13 -19 19t-85 12l-68 6l-6 37h623l-6 -37l-84 -8q-89 -9 -89 -33v-188h82q36 0 54 -2q266 0 401 -85.5t135 -246.5
q0 -170 -153.5 -273.5t-395.5 -103.5q-71 0 -123 10v-239q0 -9 7 -14t30 -9.5t68 -7.5l90 -6l6 -37h-647z" />
    <glyph glyph-name="germandbls" unicode="&#xdf;" horiz-adv-x="1150" 
d="M741 866q150 -73 257.5 -211t107.5 -284q0 -159 -107 -278.5t-254 -119.5q-109 0 -176 48.5t-67 123.5q0 55 36.5 92t90.5 37q66 0 95.5 -45.5t14.5 -98t-61 -71.5q5 -16 27.5 -29.5t56.5 -13.5q67 0 108 51.5t41 143.5q0 161 -99.5 316t-297.5 264v53q134 34 193 94
t59 180q0 93 -49 153t-127 60q-99 0 -140.5 -66t-41.5 -229v-1036h-363l6 37l43 2q26 3 36 4.5t22.5 5t16 9t3.5 14.5v704l-162 4l37 109l125 -2l4 92q12 180 133 289.5t293 109.5q184 0 285.5 -72t101.5 -200q0 -185 -248 -240z" />
    <glyph glyph-name="agrave" unicode="&#xe0;" horiz-adv-x="946" 
d="M410 119q74 0 143 69l12 306q-158 -37 -220 -95t-62 -137q0 -65 36 -104t91 -39zM725 -27q-70 0 -113 44.5t-53 129.5l-4 3q-74 -84 -139 -129.5t-140 -45.5q-93 0 -158 61t-65 148q0 116 115.5 196.5t394.5 149.5l2 54q4 129 -49.5 196.5t-153.5 67.5q-53 0 -92 -15.5
t-39 -33.5q0 -5 14.5 -23t29 -44t14.5 -52q0 -43 -33.5 -75t-85.5 -32q-50 0 -84.5 27.5t-34.5 71.5q0 62 73.5 121.5t178 94t197.5 34.5q170 0 240.5 -78t60.5 -266l-17 -369q-9 -107 68 -107q15 0 31 9.5t26 18.5t31 30l21 -21q-123 -166 -236 -166zM115 1399h248
l202 -379h-34z" />
    <glyph glyph-name="aacute" unicode="&#xe1;" horiz-adv-x="946" 
d="M410 119q74 0 143 69l12 306q-158 -37 -220 -95t-62 -137q0 -65 36 -104t91 -39zM725 -27q-70 0 -113 44.5t-53 129.5l-4 3q-74 -84 -139 -129.5t-140 -45.5q-93 0 -158 61t-65 148q0 116 115.5 196.5t394.5 149.5l2 54q4 129 -49.5 196.5t-153.5 67.5q-53 0 -92 -15.5
t-39 -33.5q0 -5 14.5 -23t29 -44t14.5 -52q0 -43 -33.5 -75t-85.5 -32q-50 0 -84.5 27.5t-34.5 71.5q0 62 73.5 121.5t178 94t197.5 34.5q170 0 240.5 -78t60.5 -266l-17 -369q-9 -107 68 -107q15 0 31 9.5t26 18.5t31 30l21 -21q-123 -166 -236 -166zM566 1399h245
l-413 -379h-37z" />
    <glyph glyph-name="acircumflex" unicode="&#xe2;" horiz-adv-x="946" 
d="M410 119q74 0 143 69l12 306q-158 -37 -220 -95t-62 -137q0 -65 36 -104t91 -39zM725 -27q-70 0 -113 44.5t-53 129.5l-4 3q-74 -84 -139 -129.5t-140 -45.5q-93 0 -158 61t-65 148q0 116 115.5 196.5t394.5 149.5l2 54q4 129 -49.5 196.5t-153.5 67.5q-53 0 -92 -15.5
t-39 -33.5q0 -5 14.5 -23t29 -44t14.5 -52q0 -43 -33.5 -75t-85.5 -32q-50 0 -84.5 27.5t-34.5 71.5q0 62 73.5 121.5t178 94t197.5 34.5q170 0 240.5 -78t60.5 -266l-17 -369q-9 -107 68 -107q15 0 31 9.5t26 18.5t31 30l21 -21q-123 -166 -236 -166zM432 1409h39l278 -403
h-31l-264 200h-4l-268 -200h-29z" />
    <glyph glyph-name="atilde" unicode="&#xe3;" horiz-adv-x="946" 
d="M410 119q74 0 143 69l12 306q-158 -37 -220 -95t-62 -137q0 -65 36 -104t91 -39zM725 -27q-70 0 -113 44.5t-53 129.5l-4 3q-74 -84 -139 -129.5t-140 -45.5q-93 0 -158 61t-65 148q0 116 115.5 196.5t394.5 149.5l2 54q4 129 -49.5 196.5t-153.5 67.5q-53 0 -92 -15.5
t-39 -33.5q0 -5 14.5 -23t29 -44t14.5 -52q0 -43 -33.5 -75t-85.5 -32q-50 0 -84.5 27.5t-34.5 71.5q0 62 73.5 121.5t178 94t197.5 34.5q170 0 240.5 -78t60.5 -266l-17 -369q-9 -107 68 -107q15 0 31 9.5t26 18.5t31 30l21 -21q-123 -166 -236 -166zM610 1034
q-43 0 -98.5 21t-99.5 45.5t-91.5 45.5t-76.5 21q-37 0 -57.5 -21t-31.5 -93h-36q13 146 52.5 203t125.5 57q53 0 126 -33.5t138 -66.5t100 -33q37 0 59 22.5t33 91.5h33q-12 -143 -51 -201.5t-125 -58.5z" />
    <glyph glyph-name="adieresis" unicode="&#xe4;" horiz-adv-x="946" 
d="M410 119q74 0 143 69l12 306q-158 -37 -220 -95t-62 -137q0 -65 36 -104t91 -39zM725 -27q-70 0 -113 44.5t-53 129.5l-4 3q-74 -84 -139 -129.5t-140 -45.5q-93 0 -158 61t-65 148q0 116 115.5 196.5t394.5 149.5l2 54q4 129 -49.5 196.5t-153.5 67.5q-53 0 -92 -15.5
t-39 -33.5q0 -5 14.5 -23t29 -44t14.5 -52q0 -43 -33.5 -75t-85.5 -32q-50 0 -84.5 27.5t-34.5 71.5q0 62 73.5 121.5t178 94t197.5 34.5q170 0 240.5 -78t60.5 -266l-17 -369q-9 -107 68 -107q15 0 31 9.5t26 18.5t31 30l21 -21q-123 -166 -236 -166zM653 1053
q-58 0 -91.5 38t-33.5 89q0 49 34 89t91 40t91 -40t34 -89q0 -51 -33.5 -89t-91.5 -38zM244 1053q-59 0 -94 38.5t-35 88.5q0 48 35.5 88.5t93.5 40.5q57 0 91 -40t34 -89q0 -51 -33.5 -89t-91.5 -38z" />
    <glyph glyph-name="aring" unicode="&#xe5;" horiz-adv-x="946" 
d="M410 119q74 0 143 69l12 306q-158 -37 -220 -95t-62 -137q0 -65 36 -104t91 -39zM725 -27q-70 0 -113 44.5t-53 129.5l-4 3q-74 -84 -139 -129.5t-140 -45.5q-93 0 -158 61t-65 148q0 116 115.5 196.5t394.5 149.5l2 54q4 129 -49.5 196.5t-153.5 67.5q-53 0 -92 -15.5
t-39 -33.5q0 -5 14.5 -23t29 -44t14.5 -52q0 -43 -33.5 -75t-85.5 -32q-50 0 -84.5 27.5t-34.5 71.5q0 62 73.5 121.5t178 94t197.5 34.5q170 0 240.5 -78t60.5 -266l-17 -369q-9 -107 68 -107q15 0 31 9.5t26 18.5t31 30l21 -21q-123 -166 -236 -166zM442 1063q70 0 111 45
t41 113q0 66 -41.5 111.5t-110.5 45.5q-70 0 -111.5 -45.5t-41.5 -111.5q0 -68 41.5 -113t111.5 -45zM442 1030q-85 0 -136.5 55t-51.5 136t51.5 135.5t136.5 54.5t137 -55t52 -135q0 -81 -52 -136t-137 -55z" />
    <glyph glyph-name="ae" unicode="&#xe6;" horiz-adv-x="1439" 
d="M807 610q63 2 172 2h172q0 74 -13 131t-46.5 96.5t-85.5 39.5q-73 0 -129.5 -74t-69.5 -195zM406 115q47 0 90 25t98 83q-35 83 -35 226q0 15 4 43q-158 -42 -219 -99t-61 -137q0 -61 37 -101t86 -40zM274 -27q-91 0 -156 62t-65 149q0 117 115.5 198t394.5 148l2 56
q6 127 -48.5 194.5t-154.5 67.5q-53 0 -92 -15.5t-39 -33.5q0 -5 14.5 -23t29 -44t14.5 -52q0 -43 -33.5 -75t-85.5 -32q-50 0 -84.5 27.5t-34.5 71.5q0 63 72 122t177 93.5t202 34.5q87 0 142 -25.5t87 -81.5q133 109 301 109q163 0 256.5 -85.5t93.5 -213.5q0 -34 -8 -58
q-188 0 -268 2q-61 0 -131 1.5t-117.5 3t-54.5 1.5q-2 -23 -2 -77q0 -167 85 -270t220 -103q87 0 150.5 35.5t111.5 115.5l23 -12q-62 -142 -167 -216.5t-247 -74.5q-126 0 -222.5 60t-144.5 162q-180 -222 -336 -222z" />
    <glyph glyph-name="ccedilla" unicode="&#xe7;" horiz-adv-x="903" 
d="M475 -31q-184 0 -305 128t-121 323q0 214 138.5 358t353.5 144q141 0 231 -57t90 -148q0 -56 -35.5 -90.5t-87.5 -34.5q-59 0 -94.5 43t-30.5 104q0 25 18.5 55t18.5 33q-5 19 -36.5 34.5t-71.5 15.5q-106 0 -174 -100.5t-68 -270.5q0 -179 81 -282t218 -103
q164 0 254 151l25 -12q-117 -263 -353 -289l-94 -98q131 17 223.5 -32.5t92.5 -137.5q0 -62 -38.5 -109.5t-107 -77t-142.5 -47t-163 -26.5l-10 22q160 26 238.5 68.5t78.5 112.5q0 57 -48 84.5t-126 27.5q-75 0 -149 -22v22l196 211h-2z" />
    <glyph glyph-name="egrave" unicode="&#xe8;" horiz-adv-x="933" 
d="M647 612q0 54 -7.5 100t-24 84.5t-45 60.5t-66.5 22q-73 0 -130.5 -74.5t-70.5 -194.5zM475 -31q-183 0 -304.5 129.5t-121.5 325.5q0 215 136.5 357.5t344.5 142.5q162 0 254.5 -85.5t92.5 -213.5q0 -27 -7 -58q-190 0 -270 2q-60 0 -130.5 1.5t-117.5 3t-51 1.5
q-4 -15 -4 -77q0 -167 85 -272t220 -105q166 0 260 151l25 -12q-128 -291 -412 -291zM152 1399h248l202 -379h-34z" />
    <glyph glyph-name="eacute" unicode="&#xe9;" horiz-adv-x="933" 
d="M647 612q0 54 -7.5 100t-24 84.5t-45 60.5t-66.5 22q-73 0 -130.5 -74.5t-70.5 -194.5zM475 -31q-183 0 -304.5 129.5t-121.5 325.5q0 215 136.5 357.5t344.5 142.5q162 0 254.5 -85.5t92.5 -213.5q0 -27 -7 -58q-190 0 -270 2q-60 0 -130.5 1.5t-117.5 3t-51 1.5
q-4 -15 -4 -77q0 -167 85 -272t220 -105q166 0 260 151l25 -12q-128 -291 -412 -291zM596 1399h245l-413 -379h-37z" />
    <glyph glyph-name="ecircumflex" unicode="&#xea;" horiz-adv-x="933" 
d="M647 612q0 54 -7.5 100t-24 84.5t-45 60.5t-66.5 22q-73 0 -130.5 -74.5t-70.5 -194.5zM475 -31q-183 0 -304.5 129.5t-121.5 325.5q0 215 136.5 357.5t344.5 142.5q162 0 254.5 -85.5t92.5 -213.5q0 -27 -7 -58q-190 0 -270 2q-60 0 -130.5 1.5t-117.5 3t-51 1.5
q-4 -15 -4 -77q0 -167 85 -272t220 -105q166 0 260 151l25 -12q-128 -291 -412 -291zM473 1409h39l278 -403h-31l-264 200h-4l-268 -200h-29z" />
    <glyph glyph-name="edieresis" unicode="&#xeb;" horiz-adv-x="933" 
d="M647 612q0 54 -7.5 100t-24 84.5t-45 60.5t-66.5 22q-73 0 -130.5 -74.5t-70.5 -194.5zM475 -31q-183 0 -304.5 129.5t-121.5 325.5q0 215 136.5 357.5t344.5 142.5q162 0 254.5 -85.5t92.5 -213.5q0 -27 -7 -58q-190 0 -270 2q-60 0 -130.5 1.5t-117.5 3t-51 1.5
q-4 -15 -4 -77q0 -167 85 -272t220 -105q166 0 260 151l25 -12q-128 -291 -412 -291zM694 1053q-58 0 -91.5 38t-33.5 89q0 49 34 89t91 40t91 -40t34 -89q0 -51 -33.5 -89t-91.5 -38zM285 1053q-59 0 -94 38.5t-35 88.5q0 48 35.5 88.5t93.5 40.5q57 0 91 -40t34 -89
q0 -51 -33.5 -89t-91.5 -38z" />
    <glyph glyph-name="igrave" unicode="&#xec;" horiz-adv-x="559" 
d="M47 33l35 2q48 5 65 11t17 24v551q0 93 -15 121t-71 40l-43 11l2 24l362 101v-850q0 -14 18 -20.5t79 -12.5l28 -2l6 -33h-489zM-49 1399h248l202 -379h-34z" />
    <glyph glyph-name="iacute" unicode="&#xed;" horiz-adv-x="559" 
d="M47 33l35 2q48 5 65 11t17 24v551q0 93 -15 121t-71 40l-43 11l2 24l362 101v-850q0 -14 18 -20.5t79 -12.5l28 -2l6 -33h-489zM371 1399h245l-413 -379h-37z" />
    <glyph glyph-name="icircumflex" unicode="&#xee;" horiz-adv-x="559" 
d="M266 1409h39l264 -403h-30l-252 200h-4l-250 -200h-33zM47 33l35 2q48 5 65 11t17 24v551q0 93 -15 121t-71 40l-43 11l2 24l362 101v-850q0 -14 18 -20.5t79 -12.5l28 -2l6 -33h-489z" />
    <glyph glyph-name="idieresis" unicode="&#xef;" horiz-adv-x="559" 
d="M47 33l35 2q48 5 65 11t17 24v551q0 93 -15 121t-71 40l-43 11l2 24l362 101v-850q0 -14 18 -20.5t79 -12.5l28 -2l6 -33h-489zM495 1053q-58 0 -91.5 38t-33.5 89q0 49 34 89t91 40t91 -40t34 -89q0 -51 -33.5 -89t-91.5 -38zM86 1053q-59 0 -94 38.5t-35 88.5
q0 48 35.5 88.5t93.5 40.5q57 0 91 -40t34 -89q0 -51 -33.5 -89t-91.5 -38z" />
    <glyph glyph-name="eth" unicode="&#xf0;" horiz-adv-x="1058" 
d="M537 16q106 0 161.5 104.5t55.5 305.5q0 207 -64 333t-170 126q-101 0 -157 -111.5t-56 -296.5q0 -461 230 -461zM469 1133q1 0 -17.5 -5.5t-53.5 -16.5t-64 -21l-135 -46l4 48l221 73q-113 74 -262 103l12 30q206 -22 365 -96l241 80l4 -47l-188 -61q198 -108 306 -285
t108 -375q0 -241 -135 -391t-349 -150q-215 0 -346 135t-131 338q0 205 131.5 341.5t333.5 136.5q84 0 148 -21q-76 142 -193 230z" />
    <glyph glyph-name="ntilde" unicode="&#xf1;" horiz-adv-x="1122" 
d="M45 33l35 2q48 5 65 11t17 24v548q0 95 -15 123.5t-71 40.5l-43 11l2 24l364 101l-4 -170h6q95 80 177.5 126t171.5 46q97 0 163 -66q70 -70 70 -229v-555q0 -8 4.5 -13t27 -11t66.5 -11l29 -2l6 -33h-483l6 33l37 2q46 4 60 12.5t14 22.5v495q0 110 -42.5 154.5
t-129.5 44.5q-95 0 -181 -62v-301v-333q0 -15 16 -22t70 -11l39 -2l4 -33h-487zM723 1034q-43 0 -98.5 21t-99.5 45.5t-91.5 45.5t-76.5 21q-37 0 -57.5 -21t-31.5 -93h-36q13 146 52.5 203t125.5 57q53 0 126 -33.5t138 -66.5t100 -33q37 0 59 22.5t33 91.5h33
q-12 -143 -51 -201.5t-125 -58.5z" />
    <glyph glyph-name="ograve" unicode="&#xf2;" 
d="M539 12q105 0 166 116t61 296q0 299 -102 401q-54 54 -127 54q-107 0 -167.5 -114t-60.5 -292q0 -303 101 -407q51 -54 129 -54zM530 -29q-216 0 -348.5 135.5t-132.5 337.5q0 200 142 339t358 139q143 0 254 -63.5t169 -169.5t58 -234q0 -99 -37.5 -188.5t-102.5 -154.5
t-158.5 -103t-201.5 -38zM172 1399h248l202 -379h-34z" />
    <glyph glyph-name="oacute" unicode="&#xf3;" 
d="M539 12q105 0 166 116t61 296q0 299 -102 401q-54 54 -127 54q-107 0 -167.5 -114t-60.5 -292q0 -303 101 -407q51 -54 129 -54zM530 -29q-216 0 -348.5 135.5t-132.5 337.5q0 200 142 339t358 139q143 0 254 -63.5t169 -169.5t58 -234q0 -99 -37.5 -188.5t-102.5 -154.5
t-158.5 -103t-201.5 -38zM652 1399h245l-413 -379h-37z" />
    <glyph glyph-name="ocircumflex" unicode="&#xf4;" 
d="M539 12q105 0 166 116t61 296q0 299 -102 401q-54 54 -127 54q-107 0 -167.5 -114t-60.5 -292q0 -303 101 -407q51 -54 129 -54zM530 -29q-216 0 -348.5 135.5t-132.5 337.5q0 200 142 339t358 139q143 0 254 -63.5t169 -169.5t58 -234q0 -99 -37.5 -188.5t-102.5 -154.5
t-158.5 -103t-201.5 -38zM519 1409h39l278 -403h-31l-264 200h-4l-268 -200h-29z" />
    <glyph glyph-name="otilde" unicode="&#xf5;" 
d="M539 12q105 0 166 116t61 296q0 299 -102 401q-54 54 -127 54q-107 0 -167.5 -114t-60.5 -292q0 -303 101 -407q51 -54 129 -54zM530 -29q-216 0 -348.5 135.5t-132.5 337.5q0 200 142 339t358 139q143 0 254 -63.5t169 -169.5t58 -234q0 -99 -37.5 -188.5t-102.5 -154.5
t-158.5 -103t-201.5 -38zM694 1034q-43 0 -98.5 21t-99.5 45.5t-91.5 45.5t-76.5 21q-37 0 -57.5 -21t-31.5 -93h-36q13 146 52.5 203t125.5 57q53 0 126 -33.5t138 -66.5t100 -33q37 0 59 22.5t33 91.5h33q-12 -143 -51 -201.5t-125 -58.5z" />
    <glyph glyph-name="odieresis" unicode="&#xf6;" 
d="M539 12q105 0 166 116t61 296q0 299 -102 401q-54 54 -127 54q-107 0 -167.5 -114t-60.5 -292q0 -303 101 -407q51 -54 129 -54zM530 -29q-216 0 -348.5 135.5t-132.5 337.5q0 200 142 339t358 139q143 0 254 -63.5t169 -169.5t58 -234q0 -99 -37.5 -188.5t-102.5 -154.5
t-158.5 -103t-201.5 -38zM743 1053q-58 0 -91.5 38t-33.5 89q0 49 34 89t91 40t91 -40t34 -89q0 -51 -33.5 -89t-91.5 -38zM334 1053q-59 0 -94 38.5t-35 88.5q0 48 35.5 88.5t93.5 40.5q57 0 91 -40t34 -89q0 -51 -33.5 -89t-91.5 -38z" />
    <glyph glyph-name="divide" unicode="&#xf7;" horiz-adv-x="1148" 
d="M575 39q192 0 317.5 127.5t125.5 327.5q0 197 -126 324.5t-317 127.5t-315.5 -129.5t-124.5 -327.5q0 -200 123.5 -325t316.5 -125zM573 -27q-221 0 -362 142.5t-141 371.5q0 228 143 374.5t365 146.5q221 0 363 -144t142 -370q0 -229 -144.5 -375t-365.5 -146z" />
    <glyph glyph-name="oslash" unicode="&#xf8;" 
d="M367 127q17 -35 43 -61q51 -54 129 -54q105 0 166 116t61 296q0 198 -47 313zM698 780q-14 25 -34 45q-56 56 -127 56q-107 0 -167.5 -115t-60.5 -293q0 -195 39 -299zM270 39q-105 61 -163 168t-58 237q0 200 142 339t358 139q111 0 207 -41l178 307h45
q-30 -50 -94 -162q-19 -33 -44 -76t-37.5 -65t-12.5 -21q114 -59 176.5 -168t62.5 -241q0 -99 -37.5 -188.5t-102.5 -154.5t-158.5 -103t-201.5 -38q-131 0 -225 49l-166 -284h-45z" />
    <glyph glyph-name="ugrave" unicode="&#xf9;" horiz-adv-x="1081" 
d="M717 145h-4q-89 -80 -173 -127t-173 -47q-91 0 -164 70q-69 72 -66 229l2 555q0 13 -16.5 18.5t-83.5 12.5l-33 2l-6 33h377l-6 -567q-1 -107 41.5 -151t132.5 -44q92 0 170 59v318v293q0 31 -18 42t-79 15l-36 2l-9 33h375v-694q0 -53 9.5 -70.5t41.5 -28.5l84 -20
l-4 -23l-364 -88zM174 1399h248l202 -379h-34z" />
    <glyph glyph-name="uacute" unicode="&#xfa;" horiz-adv-x="1081" 
d="M717 145h-4q-89 -80 -173 -127t-173 -47q-91 0 -164 70q-69 72 -66 229l2 555q0 13 -16.5 18.5t-83.5 12.5l-33 2l-6 33h377l-6 -567q-1 -107 41.5 -151t132.5 -44q92 0 170 59v318v293q0 31 -18 42t-79 15l-36 2l-9 33h375v-694q0 -53 9.5 -70.5t41.5 -28.5l84 -20
l-4 -23l-364 -88zM644 1399h245l-413 -379h-37z" />
    <glyph glyph-name="ucircumflex" unicode="&#xfb;" horiz-adv-x="1081" 
d="M717 145h-4q-89 -80 -173 -127t-173 -47q-91 0 -164 70q-69 72 -66 229l2 555q0 13 -16.5 18.5t-83.5 12.5l-33 2l-6 33h377l-6 -567q-1 -107 41.5 -151t132.5 -44q92 0 170 59v318v293q0 31 -18 42t-79 15l-36 2l-9 33h375v-694q0 -53 9.5 -70.5t41.5 -28.5l84 -20
l-4 -23l-364 -88zM512 1409h39l278 -403h-31l-264 200h-4l-268 -200h-29z" />
    <glyph glyph-name="udieresis" unicode="&#xfc;" horiz-adv-x="1081" 
d="M717 145h-4q-89 -80 -173 -127t-173 -47q-91 0 -164 70q-69 72 -66 229l2 555q0 13 -16.5 18.5t-83.5 12.5l-33 2l-6 33h377l-6 -567q-1 -107 41.5 -151t132.5 -44q92 0 170 59v318v293q0 31 -18 42t-79 15l-36 2l-9 33h375v-694q0 -53 9.5 -70.5t41.5 -28.5l84 -20
l-4 -23l-364 -88zM755 1053q-58 0 -91.5 38t-33.5 89q0 49 34 89t91 40t91 -40t34 -89q0 -51 -33.5 -89t-91.5 -38zM346 1053q-59 0 -94 38.5t-35 88.5q0 48 35.5 88.5t93.5 40.5q57 0 91 -40t34 -89q0 -51 -33.5 -89t-91.5 -38z" />
    <glyph glyph-name="yacute" unicode="&#xfd;" horiz-adv-x="983" 
d="M209 -528q-58 0 -100.5 34.5t-42.5 92.5q0 49 32.5 82.5t85.5 33.5q56 0 88.5 -30t44.5 -76q34 10 58 47t51 117l70 198h-19l-348 777q-30 62 -48 80t-65 22l-36 8l-7 33h512l-6 -33l-41 -6q-53 -6 -64.5 -25.5t9.5 -66.5l215 -506l139 385q31 85 34 126t-19 59t-82 26
l-41 8l-6 33h370l-6 -33l-41 -6q-58 -4 -83.5 -41.5t-80.5 -183.5l-227 -604l-92 -281q-49 -141 -107.5 -205.5t-146.5 -64.5zM621 1399h245l-413 -379h-37z" />
    <glyph glyph-name="thorn" unicode="&#xfe;" 
d="M569 14q92 0 148.5 110t56.5 277q0 160 -67.5 262.5t-178.5 102.5q-96 0 -186 -82v-494q44 -80 104.5 -128t122.5 -48zM-14 -477l43 2q50 5 66 10.5t16 24.5v1579q0 54 -14 75t-56 33l-64 23l3 24l362 97v-654l8 -2q144 176 314 176q155 0 260.5 -124.5t105.5 -313.5
q0 -116 -42 -212.5t-111.5 -158.5t-157 -96.5t-180.5 -34.5q-105 0 -191 33h-6v-453q0 -24 98 -26l70 -2l6 -37h-536z" />
    <glyph glyph-name="ydieresis" unicode="&#xff;" horiz-adv-x="983" 
d="M209 -528q-58 0 -100.5 34.5t-42.5 92.5q0 49 32.5 82.5t85.5 33.5q56 0 88.5 -30t44.5 -76q34 10 58 47t51 117l70 198h-19l-348 777q-30 62 -48 80t-65 22l-36 8l-7 33h512l-6 -33l-41 -6q-53 -6 -64.5 -25.5t9.5 -66.5l215 -506l139 385q31 85 34 126t-19 59t-82 26
l-41 8l-6 33h370l-6 -33l-41 -6q-58 -4 -83.5 -41.5t-80.5 -183.5l-227 -604l-92 -281q-49 -141 -107.5 -205.5t-146.5 -64.5zM710 1053q-58 0 -91.5 38t-33.5 89q0 49 34 89t91 40t91 -40t34 -89q0 -51 -33.5 -89t-91.5 -38zM301 1053q-59 0 -94 38.5t-35 88.5
q0 48 35.5 88.5t93.5 40.5q57 0 91 -40t34 -89q0 -51 -33.5 -89t-91.5 -38z" />
    <glyph glyph-name="dotlessi" unicode="&#x131;" horiz-adv-x="559" 
d="M47 33l35 2q48 5 65 11t17 24v551q0 93 -15 121t-71 40l-43 11l2 24l362 101v-850q0 -14 18 -20.5t79 -12.5l28 -2l6 -33h-489z" />
    <glyph glyph-name="Lslash" unicode="&#x141;" horiz-adv-x="1185" 
d="M29 463l2 49l188 59v627q0 14 -17.5 21t-78.5 14l-74 10l-6 37h639l-6 -37l-111 -12q-37 -4 -59.5 -14.5t-22.5 -22.5v-541l207 64l4 -47l-211 -66v-555l119 -8q95 0 161.5 18t118.5 62.5t89.5 104t81.5 157.5l22 70h53l-57 -453h-1030l6 37l90 12q82 8 82 37v436z" />
    <glyph glyph-name="lslash" unicode="&#x142;" horiz-adv-x="546" 
d="M4 442l2 47l148 46v577q0 72 -13 96.5t-55 36.5l-61 23l2 24l364 101v-785l150 47l2 -47l-152 -47v-483q0 -13 14 -18.5t72 -16.5l39 -8l6 -35h-485l6 35l37 8q45 7 59.5 13t14.5 24v407z" />
    <glyph glyph-name="OE" unicode="&#x152;" horiz-adv-x="1978" 
d="M946 45v1163l-139 29q-110 0 -198.5 -45.5t-144.5 -124t-86 -181t-30 -218.5q0 -141 31 -254t92 -196t157.5 -128t223.5 -45h94zM791 0q-347 0 -536 167t-189 456q0 134 53 253t148.5 209t240.5 142.5t319 52.5h998l14 -418h-49l-21 70q-34 120 -83.5 184t-133 92.5
t-225.5 28.5l-119 -2v-561l66 2q124 5 183 37.5t85 113.5l25 68l39 -2l-52 -487h-38l-7 65q-5 61 -27 93t-73 48t-149 19l-52 2v-584l156 -6q106 0 184.5 20.5t132 63t88.5 96.5t64 133l20 64l52 -2l-52 -418h-1062z" />
    <glyph glyph-name="oe" unicode="&#x153;" horiz-adv-x="1652" 
d="M1018 610q66 2 174 2h172q0 74 -12.5 131t-45.5 96.5t-85 39.5q-73 0 -129.5 -73.5t-73.5 -195.5zM539 8q104 0 164.5 116.5t60.5 297.5q0 300 -98 403q-53 56 -129 56q-106 0 -167 -115t-61 -299q0 -297 99 -404q52 -55 131 -55zM530 -33q-146 0 -257 64t-167.5 170.5
t-56.5 238.5q0 99 37.5 188.5t102.5 154.5t158.5 103t201.5 38q221 0 354 -150q140 150 346 150q161 0 254.5 -85.5t93.5 -213.5q0 -34 -8 -58q-190 0 -270 2q-61 0 -131 1.5t-117.5 3t-54.5 1.5q-4 -46 -4 -77q0 -166 87.5 -271.5t221.5 -105.5q165 0 262 151l23 -12
q-128 -291 -414 -291q-178 0 -307 142q-144 -144 -355 -144z" />
    <glyph glyph-name="Scaron" unicode="&#x160;" horiz-adv-x="1075" 
d="M510 -27q-208 -3 -406 68l-22 348h49l86 -203q110 -168 305 -168q127 1 198 69t71 179q0 60 -23 106.5t-70 80t-97 56.5t-126 48q-68 24 -116.5 45.5t-98.5 54t-80.5 69t-49.5 88t-19 114.5q0 159 121.5 269t318.5 110q145 0 283 -43l90 28l6 -379h-45l-148 295
q-85 54 -194 54q-104 0 -169 -57.5t-65 -145.5q0 -37 9.5 -67t32 -54.5t44.5 -42t62 -36.5t69 -30.5t80 -29.5q73 -25 126.5 -49t105.5 -59t84 -75.5t51.5 -97t19.5 -125.5q0 -82 -35 -158t-96.5 -134t-153 -93t-198.5 -35zM250 1771h29l268 -203h4l266 203h29l-278 -403
h-39z" />
    <glyph glyph-name="scaron" unicode="&#x161;" horiz-adv-x="804" 
d="M371 -29q-167 0 -301 52l-13 262l49 -2l52 -117q46 -77 99.5 -115.5t125.5 -38.5q79 0 127.5 43.5t48.5 112.5q0 66 -56.5 108t-162.5 80q-51 19 -84 34.5t-71.5 40.5t-60.5 52t-37 67t-15 89q0 125 93 203t245 78q101 0 202 -33l84 20l11 -276l-48 -2l-122 205
q-65 45 -131 45q-72 0 -113 -38t-41 -104q0 -35 14 -61t47 -47t64 -35t90 -35q52 -20 84.5 -35t74 -41t65 -53.5t40.5 -69.5t17 -92q0 -124 -99 -210.5t-278 -86.5zM100 1391h29l268 -203h4l266 203h29l-278 -403h-39z" />
    <glyph glyph-name="Ydieresis" unicode="&#x178;" horiz-adv-x="1300" 
d="M334 33l96 8q88 8 88 37v487l-295 516q-55 90 -85.5 119.5t-88.5 36.5l-47 8l-6 35h618l-6 -35l-45 -4q-80 -10 -90.5 -44t35.5 -112l242 -438h8l162 299q33 61 52.5 100.5t29.5 73t8.5 53t-15.5 34t-38 21.5t-64 11l-47 6l-6 35h460l-6 -35l-51 -8q-52 -9 -84 -29
t-76 -81t-110 -185l-189 -338v-532q0 -13 20 -19t85 -12l78 -8l6 -33h-645zM876 1395q-58 0 -91.5 38t-33.5 89q0 49 34 89t91 40t91 -40t34 -89q0 -51 -33.5 -89t-91.5 -38zM467 1395q-59 0 -94 38.5t-35 88.5q0 48 35.5 88.5t93.5 40.5q57 0 91 -40t34 -89
q0 -51 -33.5 -89t-91.5 -38z" />
    <glyph glyph-name="Zcaron" unicode="&#x17d;" horiz-adv-x="1234" 
d="M66 35l772 1194v6h-197q-201 0 -302.5 -72t-156.5 -231l-16 -62h-51l18 410h1018v-37l-786 -1190v-6l215 -4q121 -2 203 15.5t141.5 63.5t98.5 108t81 165l22 64h54l-60 -459h-1054v35zM326 1757h29l268 -203h4l266 203h29l-278 -403h-39z" />
    <glyph glyph-name="zcaron" unicode="&#x17e;" horiz-adv-x="929" 
d="M43 29l537 821l-91 -2q-146 -4 -212.5 -49.5t-110.5 -151.5l-41 -102h-43v346h774v-31l-543 -817h99q159 4 246.5 60.5t142.5 162.5l43 84h43l-70 -350h-774v29zM170 1382h29l268 -203h4l266 203h29l-278 -403h-39z" />
    <glyph glyph-name="florin" unicode="&#x192;" horiz-adv-x="1130" 
d="M201 -113q-96 0 -155.5 42t-59.5 110q0 50 34 86.5t91 36.5q45 0 80 -30t42 -74.5t-24 -96.5q5 -1 16.5 -2t16.5 -2q36 -4 45 -4q48 12 83 122.5t95 413.5l39 222l-213 8l33 86l204 22q70 259 172 367q53 53 130.5 83t160.5 30q97 0 155 -45t58 -115q0 -53 -37 -90
t-88 -37q-57 0 -90 35t-28.5 84.5t47.5 89.5q-5 1 -15.5 4t-15.5 4q-21 8 -47 8q-27 -5 -49.5 -34t-40.5 -83t-32 -108.5t-32 -135.5q-9 -42 -14 -63h252l-10 -102h-261l-47 -197q-43 -190 -99 -318t-140 -212q-105 -105 -256 -105z" />
    <glyph glyph-name="circumflex" unicode="&#x2c6;" horiz-adv-x="776" 
d="M369 1409h39l278 -403h-31l-264 200h-4l-268 -200h-29z" />
    <glyph glyph-name="caron" unicode="&#x2c7;" horiz-adv-x="776" 
d="M90 1409h29l268 -203h4l266 203h29l-278 -403h-39z" />
    <glyph glyph-name="breve" unicode="&#x2d8;" horiz-adv-x="804" 
d="M403 1010q-63 0 -111.5 27.5t-82.5 80.5t-56.5 117t-39.5 149h37q38 -110 104 -167.5t152 -57.5q87 0 153.5 57.5t104.5 167.5h32q-16 -85 -37.5 -149t-55.5 -117t-84.5 -80.5t-115.5 -27.5z" />
    <glyph glyph-name="dotaccent" unicode="&#x2d9;" horiz-adv-x="817" 
d="M410 1073q-63 0 -101.5 42t-38.5 97t38.5 98.5t101.5 43.5t99 -43t36 -99t-35.5 -97.5t-99.5 -41.5z" />
    <glyph glyph-name="ring" unicode="&#x2da;" horiz-adv-x="776" 
d="M389 1063q70 0 111 45t41 113q0 66 -41.5 111.5t-110.5 45.5q-70 0 -111.5 -45.5t-41.5 -111.5q0 -68 41.5 -113t111.5 -45zM389 1030q-85 0 -136.5 55t-51.5 136t51.5 135.5t136.5 54.5t137 -55t52 -135q0 -81 -52 -136t-137 -55z" />
    <glyph glyph-name="ogonek" unicode="&#x2db;" horiz-adv-x="813" 
d="M399 -494q-93 0 -157 58t-64 145q0 58 28.5 111t78 94t103.5 71.5t118 55.5h61q-124 -58 -187 -132t-63 -147q0 -71 46 -113t120 -42q79 0 158 61l10 -20q-47 -57 -112 -99.5t-140 -42.5z" />
    <glyph glyph-name="tilde" unicode="&#x2dc;" horiz-adv-x="804" 
d="M559 1034q-43 0 -98.5 21t-99.5 45.5t-91.5 45.5t-76.5 21q-37 0 -57.5 -21t-31.5 -93h-36q13 146 52.5 203t125.5 57q53 0 126 -33.5t138 -66.5t100 -33q37 0 59 22.5t33 91.5h33q-12 -143 -51 -201.5t-125 -58.5z" />
    <glyph glyph-name="hungarumlaut" unicode="&#x2dd;" horiz-adv-x="860" 
d="M698 1399h234l-402 -379h-34zM338 1399h233l-399 -379h-37z" />
    <glyph glyph-name="pi" unicode="&#x3c0;" horiz-adv-x="1480" 
d="M776 608q72 0 117 51.5t45 137.5q0 88 -44 137.5t-130 50.5l-59 -2v-365q38 -10 71 -10zM440 279l56 6q49 8 49 24v649q0 10 -9.5 13t-48.5 8l-47 6l-4 29h348q162 0 242 -53t80 -152q0 -103 -89 -167t-235 -64q-8 0 -77 6v-279q0 -16 57 -18l59 -8l4 -29h-389zM741 -8
q104 0 202.5 33t177.5 93t138.5 140t92 178.5t32.5 202.5q0 131 -51 251.5t-137 208t-205.5 139.5t-249.5 52t-249.5 -52t-206 -139.5t-138 -208t-51.5 -251.5q0 -130 51.5 -250t138 -207t206 -138.5t249.5 -51.5zM741 -43q-140 0 -266.5 54t-218 145.5t-145.5 217.5
t-54 265q0 187 91.5 345.5t249 250.5t343.5 92t343.5 -92t249 -250.5t91.5 -345.5q0 -139 -54 -265t-145.5 -217.5t-218 -145.5t-266.5 -54z" />
    <glyph glyph-name="endash" unicode="&#x2013;" horiz-adv-x="901" 
d="M31 528h839l4 -86h-849z" />
    <glyph glyph-name="emdash" unicode="&#x2014;" horiz-adv-x="1861" 
d="M31 528h1802l6 -86h-1814z" />
    <glyph glyph-name="quoteleft" unicode="&#x2018;" horiz-adv-x="428" 
d="M236 768q-89 0 -142 59t-53 144q0 106 84.5 205t230.5 165l25 -24q-87 -47 -133.5 -110.5t-46.5 -133.5q0 -41 18.5 -72t45 -46.5t53 -25t45 -14t18.5 -6.5q0 -52 -38.5 -96.5t-106.5 -44.5z" />
    <glyph glyph-name="quoteright" unicode="&#x2019;" horiz-adv-x="428" 
d="M49 786q87 47 133.5 110.5t46.5 133.5q0 41 -18.5 72t-45 46.5t-53 25.5t-45 14t-18.5 6q0 52 39 96.5t107 44.5q88 0 141 -58.5t53 -143.5q0 -108 -84 -205t-231 -164z" />
    <glyph glyph-name="quotesinglbase" unicode="&#x201a;" horiz-adv-x="428" 
d="M49 -272q87 47 133.5 110t46.5 133q0 41 -18.5 72t-45 46.5t-53 25.5t-45 14t-18.5 6q0 52 39 96.5t107 44.5q88 0 141 -58.5t53 -143.5q0 -108 -84 -205t-231 -164z" />
    <glyph glyph-name="quotedblleft" unicode="&#x201c;" horiz-adv-x="829" 
d="M236 768q-89 0 -142 59t-53 144q0 106 84.5 205t230.5 165l25 -24q-87 -47 -133.5 -110.5t-46.5 -133.5q0 -41 18.5 -72t45 -46.5t53 -25t45 -14t18.5 -6.5q0 -52 -38.5 -96.5t-106.5 -44.5zM641 768q-88 0 -140 59t-52 144q0 106 83.5 205t229.5 165l24 -24
q-86 -47 -134 -111t-48 -133q0 -41 18.5 -72t45.5 -46.5t54 -25t45.5 -14t18.5 -6.5q0 -52 -38.5 -96.5t-106.5 -44.5z" />
    <glyph glyph-name="quotedblright" unicode="&#x201d;" horiz-adv-x="829" 
d="M455 786q87 47 133.5 110.5t46.5 133.5q0 41 -18.5 72t-45 46.5t-53 25.5t-45 14t-18.5 6q0 52 39 96.5t106 44.5q88 0 141.5 -58.5t53.5 -143.5q0 -108 -84 -205t-232 -164zM49 786q87 47 133.5 110.5t46.5 133.5q0 41 -18.5 72t-45 46.5t-53 25.5t-45 14t-18.5 6
q0 52 39 96.5t107 44.5q88 0 141 -58.5t53 -143.5q0 -108 -84 -205t-231 -164z" />
    <glyph glyph-name="quotedblbase" unicode="&#x201e;" horiz-adv-x="825" 
d="M455 -272q87 47 133.5 110t46.5 133q0 41 -18.5 72t-45 46.5t-53 25.5t-45 14t-18.5 6q0 52 39 96.5t106 44.5q88 0 141.5 -58.5t53.5 -143.5q0 -108 -84 -205t-232 -164zM49 -272q87 47 133.5 110t46.5 133q0 41 -18.5 72t-45 46.5t-53 25.5t-45 14t-18.5 6
q0 52 39 96.5t107 44.5q88 0 141 -58.5t53 -143.5q0 -108 -84 -205t-231 -164z" />
    <glyph glyph-name="dagger" unicode="&#x2020;" horiz-adv-x="909" 
d="M434 831h-401l-2 43h403v406h43v-406h406l-4 -43h-402v-1150h-43v1150z" />
    <glyph glyph-name="daggerdbl" unicode="&#x2021;" horiz-adv-x="909" 
d="M434 63h-403l2 43h401v746h-401l-2 43h403v385h43v-385h406l-4 -43h-402v-746h402l4 -43h-406v-382h-43v382z" />
    <glyph glyph-name="bullet" unicode="&#x2022;" horiz-adv-x="888" 
d="M444 80q-42 0 -144 42.5t-132 72.5q-31 35 -74 136t-43 144t43 145.5t74 133.5t133 72.5t145 41.5t147.5 -41.5t131.5 -72.5q31 -27 73 -131.5t42 -147.5t-41.5 -145.5t-73.5 -134.5q-31 -31 -134 -73t-147 -42z" />
    <glyph glyph-name="ellipsis" unicode="&#x2026;" horiz-adv-x="1347" 
d="M676 -27q-61 0 -103.5 43t-42.5 103q0 58 42.5 99.5t103.5 41.5q59 0 101 -42.5t42 -98.5q0 -60 -41.5 -103t-101.5 -43zM221 -27q-61 0 -103 43t-42 103q0 57 42 99t101 42q60 0 101.5 -42t41.5 -99q0 -60 -40.5 -103t-100.5 -43zM1130 -27q-60 0 -101.5 43t-41.5 103
q0 57 41.5 99t101.5 42t102 -42t42 -99q0 -61 -41.5 -103.5t-102.5 -42.5z" />
    <glyph glyph-name="perthousand" unicode="&#x2030;" horiz-adv-x="1863" 
d="M301 748q-126 0 -202 81.5t-76 200.5q0 120 76.5 203.5t201.5 83.5q127 0 205 -83.5t78 -203.5q0 -119 -78 -200.5t-205 -81.5zM1044 1311h50l-924 -1340h-51zM1561 -35q-127 0 -204 82t-77 201q0 120 77 203.5t204 83.5q126 0 203 -83.5t77 -203.5q0 -119 -76.5 -201
t-203.5 -82zM913 -35q-125 0 -201.5 82t-76.5 201q0 120 76.5 203.5t201.5 83.5q127 0 204 -83.5t77 -203.5q0 -119 -77 -201t-204 -82zM301 788q106 0 171 70.5t65 171.5q0 103 -65 174.5t-171 71.5q-103 0 -167 -71.5t-64 -174.5q0 -101 64 -171.5t167 -70.5zM1561 6
q106 0 169.5 68.5t63.5 173.5q0 103 -65 174.5t-168 71.5t-168.5 -72t-65.5 -174q0 -105 63.5 -173.5t170.5 -68.5zM913 6q107 0 170.5 68.5t63.5 173.5q0 102 -65.5 174t-168.5 72t-167 -71.5t-64 -174.5q0 -105 62.5 -173.5t168.5 -68.5z" />
    <glyph glyph-name="guilsinglleft" unicode="&#x2039;" horiz-adv-x="575" 
d="M37 426v57l481 346l10 -16l-260 -360l262 -357l-12 -16z" />
    <glyph glyph-name="guilsinglright" unicode="&#x203a;" horiz-adv-x="577" 
d="M49 96l264 357l-264 360l12 16l482 -346v-57l-482 -346z" />
    <glyph glyph-name="fraction" unicode="&#x2044;" horiz-adv-x="980" 
d="M940 1311h59l-958 -1340h-59z" />
    <glyph glyph-name="Euro" unicode="&#x20ac;" horiz-adv-x="1058" 
d="M633 -27q-185 0 -320.5 131.5t-171.5 356.5h-131l6 43h119q-6 56 -6 102q0 68 10 117h-129l6 43h129q49 237 210.5 380.5t363.5 143.5q142 0 223.5 -47t81.5 -133q0 -48 -37 -83.5t-90 -35.5q-41 0 -72 22t-44 54.5t-10.5 72t22.5 72.5q-2 1 -9.5 6t-10.5 6.5t-10.5 5.5
t-13 5.5t-14 3.5t-17.5 3t-20 1q-129 0 -212.5 -131t-104.5 -346h393l6 -43h-403v-68q0 -87 10 -151h387l6 -43h-383q37 -160 129 -248t222 -88q93 0 162 38t122 122l23 -15q-144 -297 -422 -297z" />
    <glyph glyph-name="trademark" unicode="&#x2122;" horiz-adv-x="1165" 
d="M530 850l25 2q27 2 33.5 16t7.5 76l8 281q-9 23 -35 26l-32 6l-2 23h194l90 -317h8l105 317h196l-2 -23l-36 -6q-27 -3 -27 -14l8 -342q0 -24 5.5 -30t25.5 -11l31 -4l4 -25h-236v25l39 4q14 5 18 12t3 31l-7 338h-6l-139 -401h-49l-119 389h-8l-6 -283q-1 -59 5 -72.5
t36 -15.5l26 -2l2 -25h-170zM147 850l41 4q23 3 23 14v387h-10q-46 0 -73.5 -31.5t-49.5 -90.5l-8 -19h-27l12 166h428l6 -166h-26l-6 19q-23 65 -48 93.5t-75 28.5h-15v-389q0 -5 13 -8q2 -1 7 -2l9 -2l33 -4l2 -25h-236v25z" />
    <glyph glyph-name="Omega" unicode="&#x2126;" horiz-adv-x="1251" 
d="M799 1139q-35 -27 -76 -27q-62 0 -102 48t-50 134l-47 11q-61 -24 -88.5 -93.5t-27.5 -212.5v-110l340 -2l6 92q6 87 45 160zM834 1194q65 85 162.5 132.5t203.5 47.5q93 0 141 -35t48 -92q0 -47 -33.5 -79.5t-81.5 -32.5q-112 0 -146 159v9q0 4 -2 6l-43 8
q-55 -25 -76.5 -92t-21.5 -211v-125h262l-28 -109h-234v-712q0 -15 18 -22t78 -11l74 -2l6 -33h-530l6 33l39 2q48 5 62 11t14 24v714h-344v-714q0 -15 14 -22t65 -11l64 -4l6 -33h-512l6 33l45 4q45 5 60.5 11t15.5 24v708l-162 6l37 103l123 -2l4 59q10 103 54 184
t110.5 129.5t145 73.5t163.5 25q87 0 139 -36.5t52 -96.5q0 -3 -4 -31z" />
    <glyph glyph-name="Delta" unicode="&#x2206;" horiz-adv-x="1030" 
d="M383 -27q-171 0 -261.5 63t-90.5 161q0 65 42 106t103 41q60 0 99.5 -36t39.5 -93q0 -37 -20 -73t-55 -54q18 -30 58.5 -51t88.5 -21q101 0 144.5 68.5t43.5 234.5v883q0 9 -6 15t-28 11.5t-62 8.5l-98 10l-6 33h649l-6 -33l-94 -12q-82 -8 -82 -37v-858q0 -89 -65 -174
t-172 -139t-222 -54z" />
    <glyph glyph-name="radical" unicode="&#x221a;" horiz-adv-x="1718" 
d="M809 1151q-33 -39 -88 -39q-126 0 -150 182l-47 11q-61 -24 -88.5 -93.5t-27.5 -212.5v-110l340 -2l6 84q9 98 55 180zM1561 1391v-1323q0 -14 17 -20t79 -13l29 -2l6 -33h-484l6 33l37 2q48 5 62 11t14 24v714h-342v-716q0 -15 16 -22t70 -11l59 -2l5 -33h-504l6 33
l39 2q48 5 62 11t14 24v714h-344v-714q0 -15 14 -22t65 -11l64 -4l6 -33h-512l6 33l45 4q45 5 60.5 11t15.5 24v708l-162 6l37 103l123 -2l4 59q10 103 54 184t110.5 129.5t145 73.5t163.5 25q87 0 139 -36.5t52 -96.5q0 -28 -9 -43q68 97 183 150.5t245 53.5q101 0 160 -47
zM1327 1139q-58 10 -94.5 56.5t-44.5 111.5l-72 18q-68 -27 -99.5 -104t-31.5 -228v-104h342v250z" />
    <glyph glyph-name="approxequal" unicode="&#x2248;" horiz-adv-x="1724" 
d="M813 1155q-37 -43 -92 -43q-59 0 -99 52t-51 130l-47 11q-61 -24 -88.5 -93.5t-27.5 -212.5v-110l340 -2l6 84q9 100 59 184zM827 1176q70 100 188.5 155t250.5 55q97 0 158 -42t61 -109q0 -51 -36.5 -87t-86.5 -36q-67 0 -110.5 53.5t-55.5 141.5l-72 18
q-70 -27 -104.5 -103t-34.5 -223v-110h416l160 26v-847q0 -16 16 -21.5t80 -11.5l31 -2l6 -33h-486l6 35l39 2q45 5 59.5 11t14.5 24v712h-342v-716q0 -15 16 -22t70 -11l59 -2l5 -33h-504l6 33l39 2q48 5 62 11t14 24v714h-344v-714q0 -15 14 -22t65 -11l64 -4l6 -33h-512
l6 33l45 4q45 5 60.5 11t15.5 24v708l-162 6l37 103l123 -2l4 59q10 103 54 184t110.5 129.5t145 73.5t163.5 25q87 0 139 -36.5t52 -96.5q0 -20 -11 -49z" />
    <glyph glyph-name="apple" unicode="&#xf8ff;" horiz-adv-x="1552" 
d="M905 346l361 -180l-179 362l377 129l-377 125l179 361l-361 -178l-127 378l-131 -378l-358 178l178 -361l-381 -127l381 -131l-178 -358l358 180l127 -381zM602 236l-383 -140l139 383l-370 176l370 170l-139 387l383 -141l176 371l170 -371l387 141l-141 -387l369 -168
l-369 -174l141 -387l-387 142l-174 -371z" />
    <glyph glyph-name="fi" unicode="&#xfb01;" horiz-adv-x="1146" 
d="M51 33l41 2q47 5 63.5 11t16.5 24v708l-162 8l37 101h123l6 84q8 126 85 222.5t189 144.5t236 48q98 0 158.5 -41.5t60.5 -109.5q0 -52 -35 -87.5t-88 -35.5q-66 0 -109.5 54t-54.5 141l-73 18q-69 -27 -103 -103t-34 -223v-112h415l160 28v-847q0 -16 16 -21.5t80 -11.5
l29 -2l6 -33h-485l4 33l41 2q48 5 62 11t14 24v714h-342v-716q0 -15 16 -22t68 -11l57 -2l6 -33h-510z" />
    <glyph glyph-name="fl" unicode="&#xfb02;" horiz-adv-x="1138" 
d="M983 1391v-1323q0 -14 17 -20t79 -13l29 -2l6 -33h-485l6 33l33 2q48 5 65 11.5t17 23.5v714h-342v-716q0 -15 16 -22t68 -11l57 -2l6 -33h-510l6 33l41 2q47 5 63.5 11t16.5 24v708l-162 6l37 103h123l6 84q8 126 83 222.5t184 144.5t231 48q103 0 162 -47zM750 1139
q-60 7 -99 54t-45 114l-69 18q-67 -27 -98 -102t-31 -224v-112h342v252z" />
    </font>
</defs>
</svg>
