<?xml version="1.0" standalone="no"?>
<!DOCTYPE svg PUBLIC "-//W3C//DTD SVG 1.1//EN" "http://www.w3.org/Graphics/SVG/1.1/DTD/svg11.dtd" >
<svg>
<metadata>
Created by FontForge 20090914 at Tue Oct 19 10:56:57 2021
 By www-data
Copyright &#194;&#169; 2013 Schick Toikka. All rights reserved. Saol Display is a trademark of Schick Toikka. Unauthorised copying or modification of any of its data is illegal.
</metadata>
<defs>
<font id="SaolDisplay-LightItalic" horiz-adv-x="277" >
  <font-face 
    font-family="Saol Display Light Italic"
    font-weight="300"
    font-style="italic"
    font-stretch="normal"
    units-per-em="1000"
    panose-1="0 0 4 0 0 0 0 0 0 0"
    ascent="750"
    descent="-250"
    x-height="497"
    cap-height="681"
    bbox="-294 -250.004 1365 1053"
    underline-thickness="50"
    underline-position="-50"
    unicode-range="U+0020-U+FB02"
  />
<missing-glyph horiz-adv-x="547" 
d="M319 -226h-444l383 1002h445zM261 757l-368 -962l390 480zM294 272l22 -478l368 958zM270 766l23 -479l389 479h-412zM284 260l-387 -476h410z" />
    <glyph glyph-name="fi" unicode="fi" horiz-adv-x="526" 
d="M479 354l-111 -229c-22.667 -45.333 -34 -76.333 -34 -93c0 -12 5.66699 -18 17 -18c19.333 0 57 37 113 111l6 -4c-63.333 -86 -112.666 -129 -147.999 -129c-15.333 0 -27 4.5 -35 13.5s-12 19.833 -12 32.5c0 21.333 10.667 54 32 98l111 229
c22.667 45.333 34 76.333 34 93c0 12 -5.66699 18 -17 18c-19.333 0 -57 -37 -113 -111l-6 4c63.333 86 112.666 129 147.999 129c15.333 0 27 -4.5 35 -13.5s12 -19.833 12 -32.5c0 -21.333 -10.667 -54 -32 -98zM492 699c26.667 0 40.0029 -8.66797 40.0029 -26.001
c0 -18.667 -11.667 -28 -35 -28c-9.33301 0 -25.666 3.66699 -48.999 11s-43.333 11 -60 11c-22 0 -40.167 -3 -54.5 -9s-30.333 -21.167 -48 -45.5s-35.834 -60.166 -54.501 -107.499l-6 -15h123v-8h-126l-119 -359c-38 -113.333 -92.167 -201.5 -162.5 -264.5
s-136.833 -94.5 -199.5 -94.5c-10 0 -18.333 2.5 -25 7.5s-10 11.5 -10 19.5c0 18 11.667 27 35 27c7.33301 0 21.666 -2.66699 42.999 -8s37.666 -8 48.999 -8c31.333 0 63.333 22 96 66s61.667 104.333 87 181l120 362c9.33301 27.333 18.666 51 27.999 71h-89v8h93
c37.333 69.333 81.5 121.5 132.5 156.5s114.833 52.5 191.5 52.5z" />
    <glyph glyph-name="fl" unicode="fl" horiz-adv-x="502" 
d="M222 482l-119 -358.999c-38 -113.333 -92.167 -201.5 -162.5 -264.5s-136.833 -94.5 -199.5 -94.5c-10 0 -18.333 2.5 -25 7.5s-10 11.5 -10 19.5c0 18 11.667 27 35 27c7.33301 0 21.666 -2.66699 42.999 -8s37.666 -8 48.999 -8c31.333 0 63.333 22 96 66
s61.667 104.333 87 181l120 362c9.33301 27.333 18.666 51 27.999 71h-89v8h93c60.667 140 137.667 210 231 210c22.667 0 43.334 -5 62.001 -15s31.667 -20.667 39 -32c22 7.33301 38.333 15.666 49 24.999s21.334 24.333 32.001 45l5 -2l-239 -595
c-22 -53.333 -33 -84.666 -33 -93.999c0 -12 5.66699 -18 17 -18c19.333 0 57 37 113 111l6 -4c-63.333 -86 -112.666 -129 -147.999 -129c-15.333 0 -27 4.5 -35 13.5s-12 19.833 -12 32.5c0 14 10 46.333 30 97l206 514c-6 11.333 -17.5 21.166 -34.5 29.499
s-36.167 12.5 -57.5 12.5c-42 0 -73.667 -13.5 -95 -40.5s-46.333 -77.167 -75 -150.5l-4 -10h124v-8h-127z" />
    <glyph glyph-name="fj" unicode="fj" horiz-adv-x="519" 
d="M492 699c26.667 0 40.0029 -8.66797 40.0029 -26.001c0 -18.667 -11.667 -28 -35 -28c-9.33301 0 -25.666 3.66699 -48.999 11s-43.333 11 -60 11c-22 0 -40.167 -3 -54.5 -9s-30.333 -21.167 -48 -45.5s-35.834 -60.166 -54.501 -107.499l-6 -15h123v-8h-126l-119 -359
c-38 -113.333 -92.167 -201.5 -162.5 -264.5s-136.833 -94.5 -199.5 -94.5c-10 0 -18.333 2.5 -25 7.5s-10 11.5 -10 19.5c0 18 11.667 27 35 27c7.33301 0 21.666 -2.66699 42.999 -8s37.666 -8 48.999 -8c31.333 0 63.333 22 96 66s61.667 104.333 87 181l120 362
c9.33301 27.333 18.666 51 27.999 71h-89v8h93c37.333 69.333 81.5 121.5 132.5 156.5s114.833 52.5 191.5 52.5zM303.003 48.999l113.999 316c20.667 54.667 31 85.667 31 93c0 12 -5.66699 18 -17 18c-20 0 -58 -37 -114 -111l-6 4c62.667 86 112.334 129 149.001 129
c15.333 0 27.166 -4.5 35.499 -13.5s12.5 -19.833 12.5 -32.5c0 -15.333 -9.33301 -48 -28 -98l-90 -236c-43.333 -114 -98.666 -201.5 -165.999 -262.5s-132.666 -91.5 -195.999 -91.5c-10 0 -18.333 2.5 -25 7.5s-10 11.5 -10 19.5c0 18 11.667 27 35 27
c7.33301 0 21.666 -2.66699 42.999 -8s37.666 -8 48.999 -8c30.667 0 61.834 21.667 93.501 65s61.5 104 89.5 182z" />
    <glyph glyph-name="fb" unicode="fb" horiz-adv-x="724" 
d="M231 -6l252.001 653c-8.66699 12 -21 22.333 -37 31s-33 13 -51 13c-42 0 -72.833 -13 -92.5 -39s-44.167 -76.667 -73.5 -152l-4 -10h124v-8h-127l-119 -359c-38 -113.333 -92.167 -201.5 -162.5 -264.5s-136.833 -94.5 -199.5 -94.5c-10 0 -18.333 2.5 -25 7.5
s-10 11.5 -10 19.5c0 18 11.667 27 35 27c7.33301 0 21.666 -2.66699 42.999 -8s37.666 -8 48.999 -8c31.333 0 63.333 22 96 66s61.667 104.333 87 181l120 362c9.33301 27.333 18.666 51 27.999 71h-89v8h93c60.667 140 136.334 210 227.001 210
c20.667 0 39.667 -5 57 -15s29.666 -20.667 36.999 -32c22.667 8 39.667 16.5 51 25.5s22.333 23.833 33 44.5l5 -2l-239 -622l178 269c29.333 44.667 55 77.5 77 98.5s44 31.5 66 31.5c16.667 0 30.834 -5.33301 42.501 -16s17.5 -27.334 17.5 -50.001
c0 -39.333 -13.5 -93.166 -40.5 -161.499s-63.667 -131.833 -110 -190.5s-91.5 -88 -135.5 -88c-40 0 -76.333 25.333 -109 76c-22.667 -9.33301 -40.167 -18.833 -52.5 -28.5s-24.166 -25.5 -35.499 -47.5zM629.001 476c-20.667 0 -56 -37.668 -106 -113.001l-192 -289
c11.333 -19.333 25.333 -36.166 42 -50.499s33 -21.5 49 -21.5c32 0 66.667 30 104 90s67.5 124.333 90.5 193s34.5 120 34.5 154c0 24.667 -7.33301 37 -22 37z" />
    <glyph glyph-name="fk" unicode="fk" horiz-adv-x="722" 
d="M588 721l-179.002 -445.998h11c58 0 111.333 36.667 160 110c26.667 40 50.834 68.833 72.501 86.5s47.167 26.5 76.5 26.5c9.33301 0 17.5 -2.16699 24.5 -6.5s10.5 -10.833 10.5 -19.5c0 -18 -10.333 -27 -31 -27c-8 0 -17.667 2 -29 6s-21.333 6 -30 6
c-13.333 0 -26 -5.33301 -38 -16s-28 -31 -48 -61c-42 -63.333 -86 -99.333 -132 -108c68 -4.66699 102 -29 102 -73c0 -16.667 -2.33301 -42.334 -7 -77.001s-7 -59.334 -7 -74.001c0 -23.333 7.33301 -35 22 -35c26.667 0 68 37.333 124 112l6 -4
c-63.333 -86 -113.666 -129 -150.999 -129c-18 0 -32.833 5.5 -44.5 16.5s-17.5 27.5 -17.5 49.5c0 11.333 2.33301 34 7 68s7 57.333 7 70c0 25.333 -4.33301 43.5 -13 54.5s-28.667 16.5 -60 16.5h-18l-107 -267c-3.33301 -0 -8.66602 0.333008 -15.999 1
s-12.666 1 -15.999 1s-8.83301 -0.333008 -16.5 -1s-13.167 -1 -16.5 -1l260 647c-8 12 -20.667 22.333 -38 31s-36.333 13 -57 13c-42 0 -73.667 -13.5 -95 -40.5s-46.333 -77.167 -75 -150.5l-4 -10h124v-8h-127l-119 -359c-38 -113.333 -92.167 -201.5 -162.5 -264.5
s-136.833 -94.5 -199.5 -94.5c-10 0 -18.333 2.5 -25 7.5s-10 11.5 -10 19.5c0 18 11.667 27 35 27c7.33301 0 21.666 -2.66699 42.999 -8s37.666 -8 48.999 -8c31.333 0 63.333 22 96 66s61.667 104.333 87 181l120 362c9.33301 27.333 18.666 51 27.999 71h-89v8h93
c60.667 140 137.667 210 231 210c22.667 0 43.334 -5 62.001 -15s31.667 -20.667 39 -32c22.667 8 39.667 16.5 51 25.5s22 23.833 32 44.5z" />
    <glyph glyph-name="fh" unicode="fh" horiz-adv-x="762" 
d="M589 721l-278.002 -691.999l225 309c46.667 63.333 80.667 105.833 102 127.5s43.666 32.5 66.999 32.5c14.667 0 25.834 -4.66699 33.501 -14s11.5 -20 11.5 -32c0 -22.667 -11.333 -57.334 -34 -104.001l-109 -223c-23.333 -46.667 -35 -77.667 -35 -93
c0 -12 5.66699 -18 17 -18c19.333 0 57 37 113 111l6 -4c-63.333 -86 -112.666 -129 -147.999 -129c-15.333 0 -27 4.5 -35 13.5s-12 19.833 -12 32.5c0 20.667 10.667 53 32 97l106 217c26.667 54.667 40 88.667 40 102c0 14.667 -6.33301 22 -19 22
c-9.33301 0 -23 -9.66699 -41 -29s-47.667 -57.333 -89 -114l-243 -333c-3.33301 -0 -8.66602 0.333008 -15.999 1s-12.666 1 -15.999 1s-8.83301 -0.333008 -16.5 -1s-13.167 -1 -16.5 -1l260 647c-8 12 -20.667 22.333 -38 31s-36.333 13 -57 13
c-42 0 -73.667 -13.5 -95 -40.5s-46.333 -77.167 -75 -150.5l-4 -10h124v-8h-127l-119 -359c-38 -113.333 -92.167 -201.5 -162.5 -264.5s-136.833 -94.5 -199.5 -94.5c-10 0 -18.333 2.5 -25 7.5s-10 11.5 -10 19.5c0 18 11.667 27 35 27
c7.33301 0 21.666 -2.66699 42.999 -8s37.666 -8 48.999 -8c31.333 0 63.333 22 96 66s61.667 104.333 87 181l120 362c9.33301 27.333 18.666 51 27.999 71h-89v8h93c60.667 140 137.667 210 231 210c22.667 0 43.334 -5 62.001 -15s31.667 -20.667 39 -32
c22.667 8 39.834 16.5 51.501 25.5s22.5 23.833 32.5 44.5z" />
    <glyph glyph-name="gg" unicode="gg" horiz-adv-x="864" 
d="M111 -236c-28 0 -55.001 1.33496 -81.001 4.00195s-51.333 6.83398 -76 12.501s-44.5 14 -59.5 25s-22.5 23.833 -22.5 38.5c0 34 54.333 74.333 163 121l45 19l-34 16c-22 10.667 -39 21.167 -51 31.5s-18 23.166 -18 38.499c0 16.667 7.5 31.167 22.5 43.5
s40.5 25.166 76.5 38.499l32 12c-22 20 -33 52 -33 96c0 56.667 21.333 110.5 64 161.5s93 76.5 151 76.5c24.667 0 48.334 -10.667 71.001 -32l5 5c48.667 48.667 88 73 118 73c8.66699 0 16.167 -2.33301 22.5 -7s9.5 -11 9.5 -19s-3 -14.5 -9 -19.5
s-13.667 -7.5 -23 -7.5c-6.66699 0 -15.334 1.83301 -26.001 5.5s-20 5.5 -28 5.5c-14.667 0 -34 -12 -58 -36l-6 -6c16.667 -20.667 25 -50 25 -88c0 -57.333 -21.667 -111.166 -65 -161.499s-93.333 -75.5 -150 -75.5c-19.333 0 -40 8 -62 24l-35 -13
c-39.333 -14.667 -59 -30.334 -59 -47.001c0 -9.33301 3.83301 -16.833 11.5 -22.5s22.167 -13.834 43.5 -24.501l118 -58c44.667 -22 76.334 -41.833 95.001 -59.5s28 -37.167 28 -58.5c0 -34.667 -21.333 -62 -64 -82s-89.667 -30 -141 -30zM110.999 -228.998
c46.667 0 84.333 7.66895 113 23.002s43 34 43 56c0 16.667 -7.33301 31.167 -22 43.5s-41 28.166 -79 47.499l-76 39l-51 -22c-28.667 -12.667 -52.834 -28.334 -72.501 -47.001s-29.5 -39 -29.5 -61c0 -26.667 16.333 -46.5 49 -59.5s74.334 -19.5 125.001 -19.5z
M173.998 142.004c24 0 49.667 16.668 77 50.001s49.666 73.166 66.999 119.499s26 87.5 26 123.5c0 37.333 -17.333 56 -52 56c-24 0 -49.667 -16.667 -77 -50s-49.666 -72.833 -66.999 -118.5s-26 -86.167 -26 -121.5c0 -39.333 17.333 -59 52 -59zM552.998 -235.995
c-53.333 0 -103.167 6.33105 -149.5 18.998s-69.5 33 -69.5 61c0 32.667 51 75 153 127l25 13l-34 16c-22 10.667 -39 21.167 -51 31.5s-18 23.166 -18 38.499c0 16.667 7.5 31.167 22.5 43.5s40.5 25.166 76.5 38.499l32 12c-22 20 -33 52 -33 96
c0 56.667 21.333 110.5 64 161.5s93 76.5 151 76.5c24.667 0 48.334 -10.667 71.001 -32l5 5c48.667 48.667 88 73 118 73c8.66699 0 16.167 -2.33301 22.5 -7s9.5 -11 9.5 -19s-3 -14.5 -9 -19.5s-13.667 -7.5 -23 -7.5c-6.66699 0 -15.334 1.83301 -26.001 5.5
s-20 5.5 -28 5.5c-14.667 0 -34 -12 -58 -36l-6 -6c16.667 -20.667 25 -50 25 -88c0 -57.333 -21.667 -111.166 -65 -161.499s-93.333 -75.5 -150 -75.5c-19.333 0 -40 8 -62 24l-35 -13c-39.333 -14.667 -59 -30.334 -59 -47.001c0 -9.33301 4 -17.166 12 -23.499
s22.333 -14.166 43 -23.499l148 -68c50 -23.333 84.667 -43.166 104 -59.499s29 -34.166 29 -53.499c0 -36 -20.833 -62.833 -62.5 -80.5s-99.167 -26.5 -172.5 -26.5zM552.997 -228.997c124 0 186 24.666 186 73.999c0 14.667 -8 27.834 -24 39.501s-45 27.167 -87 46.5
l-106 49l-31 -16c-64.667 -33.333 -97 -71.333 -97 -114c0 -26 16 -45.667 48 -59s69 -20 111 -20zM605.997 142.002c24 0 49.667 16.668 77 50.001s49.666 73.166 66.999 119.499s26 87.5 26 123.5c0 37.333 -17.333 56 -52 56c-24 0 -49.667 -16.667 -77 -50
s-49.666 -72.833 -66.999 -118.5s-26 -86.167 -26 -121.5c0 -39.333 17.333 -59 52 -59z" />
    <glyph glyph-name="gy" unicode="gy" horiz-adv-x="860" 
d="M590 498c13.333 0 24.002 -3.66797 32.002 -11.001s13.667 -18.333 17 -33s5.5 -28 6.5 -40s1.5 -27.333 1.5 -46c0 -86 -5.66699 -183 -17 -291c76.667 88 128.667 154.833 156 200.5s41 88.167 41 127.5c0 4 -0.833008 13.167 -2.5 27.5s-2.5 23.833 -2.5 28.5
c0 10.667 2.5 19.5 7.5 26.5s11.833 10.5 20.5 10.5c18.667 0 28 -10.333 28 -31c0 -34.667 -19.5 -86 -58.5 -154s-102.5 -151 -190.5 -249l-7 -64c-3.33301 0 -8.33301 0.333008 -15 1s-11.667 1 -15 1c-2.66699 0 -6.33398 -0.333008 -11.001 -1s-8.33398 -1 -11.001 -1
c-48 -52.667 -103 -100.834 -165 -144.501s-118.333 -70.5 -169 -80.5c-38.667 -7.33301 -80.334 -11 -125.001 -11c-28 0 -55 1.33301 -81 4s-51.333 6.83398 -76 12.501s-44.5 14 -59.5 25s-22.5 23.833 -22.5 38.5c0 34 54.333 74.333 163 121l45 19l-34 16
c-22 10.667 -39 21.167 -51 31.5s-18 23.166 -18 38.499c0 16.667 7.5 31.167 22.5 43.5s40.5 25.166 76.5 38.499l32 12c-22 20 -33 52 -33 96c0 56.667 21.333 110.5 64 161.5s93 76.5 151 76.5c24.667 0 48.334 -10.667 71.001 -32l5 5c48.667 48.667 88 73 118 73
c8.66699 0 16.167 -2.33301 22.5 -7s9.5 -11 9.5 -19s-3 -14.5 -9 -19.5s-13.667 -7.5 -23 -7.5c-6.66699 0 -15.334 1.83301 -26.001 5.5s-20 5.5 -28 5.5c-14.667 0 -34 -12 -58 -36l-6 -6c16.667 -20.667 25 -50 25 -88c0 -57.333 -21.667 -111.166 -65 -161.499
s-93.333 -75.5 -150 -75.5c-19.333 0 -40 8 -62 24l-35 -13c-39.333 -14.667 -59 -30.334 -59 -47.001c0 -9.33301 4 -17.166 12 -23.499s22.333 -14.166 43 -23.499l148 -68c50 -23.333 84.667 -43.166 104 -59.499s29 -34.166 29 -53.499
c0 -18.667 -7.33301 -35.334 -22 -50.001c79.333 42.667 155 103 227 181c16 129.333 24 248.666 24 357.999c0 18.667 -0.166992 32.667 -0.5 42s-1.33301 20 -3 32s-4.83398 20.5 -9.50098 25.5s-10.667 7.5 -18 7.5c-9.33301 0 -20.833 -8.83301 -34.5 -26.5
s-33.5 -47.5 -59.5 -89.5l-6 4l33 53c8.66699 13.333 19.334 27.833 32.001 43.5s24.834 27.334 36.501 35.001s23.167 11.5 34.5 11.5zM111.002 -229.001c65.333 0 114.333 6.83301 147 20.5s49 31.5 49 53.5c0 14.667 -8 27.834 -24 39.501s-45 27.167 -87 46.5l-106 49
l-51 -22c-28.667 -12.667 -52.834 -28.334 -72.501 -47.001s-29.5 -39 -29.5 -61c0 -26.667 16.333 -46.5 49 -59.5s74.334 -19.5 125.001 -19.5zM174.002 141.999c24 0 49.667 16.668 77 50.001s49.666 73.166 66.999 119.499s26 87.5 26 123.5c0 37.333 -17.333 56 -52 56
c-24 0 -49.667 -16.667 -77 -50s-49.666 -72.833 -66.999 -118.5s-26 -86.167 -26 -121.5c0 -39.333 17.333 -59 52 -59z" />
    <glyph glyph-name="gj" unicode="gj" horiz-adv-x="688" 
d="M472 49l113.998 315.998c20.667 54.667 31 85.667 31 93c0 12 -5.66699 18 -17 18c-20 0 -58 -37 -114 -111l-6 4c62.667 86 112.334 129 149.001 129c15.333 0 27.166 -4.5 35.499 -13.5s12.5 -19.833 12.5 -32.5c0 -15.333 -9.33301 -48 -28 -98l-90 -236
c-66 -172.667 -155 -281.334 -267 -326.001c-45.333 -18.667 -105.666 -28 -180.999 -28c-28 0 -55 1.33301 -81 4s-51.333 6.83398 -76 12.501s-44.5 14 -59.5 25s-22.5 23.833 -22.5 38.5c0 34 54.333 74.333 163 121l45 19l-34 16c-22 10.667 -39 21.167 -51 31.5
s-18 23.166 -18 38.499c0 16.667 7.5 31.167 22.5 43.5s40.5 25.166 76.5 38.499l32 12c-22 20 -33 52 -33 96c0 56.667 21.333 110.5 64 161.5s93 76.5 151 76.5c24.667 0 48.334 -10.667 71.001 -32l5 5c48.667 48.667 88 73 118 73c8.66699 0 16.167 -2.33301 22.5 -7
s9.5 -11 9.5 -19s-3 -14.5 -9 -19.5s-13.667 -7.5 -23 -7.5c-6.66699 0 -15.334 1.83301 -26.001 5.5s-20 5.5 -28 5.5c-14.667 0 -34 -12 -58 -36l-6 -6c16.667 -20.667 25 -50 25 -88c0 -57.333 -21.667 -111.166 -65 -161.499s-93.333 -75.5 -150 -75.5
c-19.333 0 -40 8 -62 24l-35 -13c-39.333 -14.667 -59 -30.334 -59 -47.001c0 -9.33301 4 -17.166 12 -23.499s22.333 -14.166 43 -23.499l148 -68c50 -23.333 84.667 -43.166 104 -59.499s29 -34.166 29 -53.499c0 -17.333 -6 -33 -18 -47
c46.667 34 91.334 109 134.001 225zM110.998 -229.002c65.333 0 114.333 6.83301 147 20.5s49 31.5 49 53.5c0 14.667 -8 27.834 -24 39.501s-45 27.167 -87 46.5l-106 49l-51 -22c-28.667 -12.667 -52.834 -28.334 -72.501 -47.001s-29.5 -39 -29.5 -61
c0 -26.667 16.333 -46.5 49 -59.5s74.334 -19.5 125.001 -19.5zM173.998 141.998c24 0 49.667 16.668 77 50.001s49.666 73.166 66.999 119.499s26 87.5 26 123.5c0 37.333 -17.333 56 -52 56c-24 0 -49.667 -16.667 -77 -50s-49.666 -72.833 -66.999 -118.5
s-26 -86.167 -26 -121.5c0 -39.333 17.333 -59 52 -59zM706.998 595.999c-13.333 0 -24.333 4.33301 -33 13s-13 19.667 -13 33s4.33301 24.5 13 33.5s19.667 13.5 33 13.5s24.5 -4.5 33.5 -13.5s13.5 -20.167 13.5 -33.5s-4.5 -24.333 -13.5 -33s-20.167 -13 -33.5 -13z
" />
    <glyph glyph-name="ggy" unicode="ggy" horiz-adv-x="1292" 
d="M111 -236c-28 0 -55.001 1.33496 -81.001 4.00195s-51.333 6.83398 -76 12.501s-44.5 14 -59.5 25s-22.5 23.833 -22.5 38.5c0 34 54.333 74.333 163 121l45 19l-34 16c-22 10.667 -39 21.167 -51 31.5s-18 23.166 -18 38.499c0 16.667 7.5 31.167 22.5 43.5
s40.5 25.166 76.5 38.499l32 12c-22 20 -33 52 -33 96c0 56.667 21.333 110.5 64 161.5s93 76.5 151 76.5c24.667 0 48.334 -10.667 71.001 -32l5 5c48.667 48.667 88 73 118 73c8.66699 0 16.167 -2.33301 22.5 -7s9.5 -11 9.5 -19s-3 -14.5 -9 -19.5
s-13.667 -7.5 -23 -7.5c-6.66699 0 -15.334 1.83301 -26.001 5.5s-20 5.5 -28 5.5c-14.667 0 -34 -12 -58 -36l-6 -6c16.667 -20.667 25 -50 25 -88c0 -57.333 -21.667 -111.166 -65 -161.499s-93.333 -75.5 -150 -75.5c-19.333 0 -40 8 -62 24l-35 -13
c-39.333 -14.667 -59 -30.334 -59 -47.001c0 -9.33301 3.83301 -16.833 11.5 -22.5s22.167 -13.834 43.5 -24.501l118 -58c44.667 -22 76.334 -41.833 95.001 -59.5s28 -37.167 28 -58.5c0 -34.667 -21.333 -62 -64 -82s-89.667 -30 -141 -30zM110.999 -228.998
c46.667 0 84.333 7.66895 113 23.002s43 34 43 56c0 16.667 -7.33301 31.167 -22 43.5s-41 28.166 -79 47.499l-76 39l-51 -22c-28.667 -12.667 -52.834 -28.334 -72.501 -47.001s-29.5 -39 -29.5 -61c0 -26.667 16.333 -46.5 49 -59.5s74.334 -19.5 125.001 -19.5z
M173.998 142.004c24 0 49.667 16.668 77 50.001s49.666 73.166 66.999 119.499s26 87.5 26 123.5c0 37.333 -17.333 56 -52 56c-24 0 -49.667 -16.667 -77 -50s-49.666 -72.833 -66.999 -118.5s-26 -86.167 -26 -121.5c0 -39.333 17.333 -59 52 -59zM542.998 -228.995
c65.333 0 114.333 6.83203 147 20.499s49 31.5 49 53.5c0 14.667 -8 27.834 -24 39.501s-45 27.167 -87 46.5l-106 49l-31 -16c-64.667 -33.333 -97 -71.333 -97 -114c0 -25.333 15.5 -44.833 46.5 -58.5s65.167 -20.5 102.5 -20.5zM605.998 142.004
c24 0 49.667 16.668 77 50.001s49.666 73.166 66.999 119.499s26 87.5 26 123.5c0 37.333 -17.333 56 -52 56c-24 0 -49.667 -16.667 -77 -50s-49.666 -72.833 -66.999 -118.5s-26 -86.167 -26 -121.5c0 -39.333 17.333 -59 52 -59zM542.998 -235.995
c-20.667 0 -41.999 1.33203 -63.999 3.99902s-44.333 6.83398 -67 12.501s-41.334 14 -56.001 25s-22 23.833 -22 38.5c0 32.667 51 75 153 127l25 13l-34 16c-22 10.667 -39 21.167 -51 31.5s-18 23.166 -18 38.499c0 16.667 7.5 31.167 22.5 43.5s40.5 25.166 76.5 38.499
l32 12c-22 20 -33 52 -33 96c0 56.667 21.333 110.5 64 161.5s93 76.5 151 76.5c24.667 0 48.334 -10.667 71.001 -32l5 5c48.667 48.667 88 73 118 73c8.66699 0 16.167 -2.33301 22.5 -7s9.5 -11 9.5 -19s-3 -14.5 -9 -19.5s-13.667 -7.5 -23 -7.5
c-6.66699 0 -15.334 1.83301 -26.001 5.5s-20 5.5 -28 5.5c-14.667 0 -34 -12 -58 -36l-6 -6c16.667 -20.667 25 -50 25 -88c0 -57.333 -21.667 -111.166 -65 -161.499s-93.333 -75.5 -150 -75.5c-19.333 0 -40 8 -62 24l-35 -13c-39.333 -14.667 -59 -30.334 -59 -47.001
c0 -9.33301 4 -17.166 12 -23.499s22.333 -14.166 43 -23.499l148 -68c50 -23.333 84.667 -43.166 104 -59.499s29 -34.166 29 -53.499c0 -18.667 -7.33301 -35.334 -22 -50.001c79.333 42.667 155 103 227 181c16 129.333 24 248.666 24 357.999
c0 18.667 -0.166992 32.667 -0.5 42s-1.33301 20 -3 32s-4.83398 20.5 -9.50098 25.5s-10.667 7.5 -18 7.5c-9.33301 0 -20.833 -8.83301 -34.5 -26.5s-33.5 -47.5 -59.5 -89.5l-6 4l33 53c8.66699 13.333 19.334 27.833 32.001 43.5s24.834 27.334 36.501 35.001
s23.167 11.5 34.5 11.5c13.333 0 24 -3.66699 32 -11s13.667 -18.333 17 -33s5.5 -28 6.5 -40s1.5 -27.333 1.5 -46c0 -86 -5.66699 -183 -17 -291c76.667 88 128.667 154.833 156 200.5s41 88.167 41 127.5c0 4 -0.833008 13.167 -2.5 27.5s-2.5 23.833 -2.5 28.5
c0 10.667 2.5 19.5 7.5 26.5s11.833 10.5 20.5 10.5c18.667 0 28 -10.333 28 -31c0 -34.667 -19.5 -86 -58.5 -154s-102.5 -151 -190.5 -249l-7 -64c-3.33301 0 -8.33301 0.333008 -15 1s-11.667 1 -15 1c-2 0 -5.5 -0.333008 -10.5 -1s-8.83301 -1 -11.5 -1
c-48 -52.667 -103 -100.834 -165 -144.501s-118.333 -70.5 -169 -80.5c-38.667 -7.33301 -80.334 -11 -125.001 -11z" />
    <glyph glyph-name="ggj" unicode="ggj" horiz-adv-x="1120" 
d="M111 -236c-28 0 -55.001 1.33496 -81.001 4.00195s-51.333 6.83398 -76 12.501s-44.5 14 -59.5 25s-22.5 23.833 -22.5 38.5c0 34 54.333 74.333 163 121l45 19l-34 16c-22 10.667 -39 21.167 -51 31.5s-18 23.166 -18 38.499c0 16.667 7.5 31.167 22.5 43.5
s40.5 25.166 76.5 38.499l32 12c-22 20 -33 52 -33 96c0 56.667 21.333 110.5 64 161.5s93 76.5 151 76.5c24.667 0 48.334 -10.667 71.001 -32l5 5c48.667 48.667 88 73 118 73c8.66699 0 16.167 -2.33301 22.5 -7s9.5 -11 9.5 -19s-3 -14.5 -9 -19.5
s-13.667 -7.5 -23 -7.5c-6.66699 0 -15.334 1.83301 -26.001 5.5s-20 5.5 -28 5.5c-14.667 0 -34 -12 -58 -36l-6 -6c16.667 -20.667 25 -50 25 -88c0 -57.333 -21.667 -111.166 -65 -161.499s-93.333 -75.5 -150 -75.5c-19.333 0 -40 8 -62 24l-35 -13
c-39.333 -14.667 -59 -30.334 -59 -47.001c0 -9.33301 3.83301 -16.833 11.5 -22.5s22.167 -13.834 43.5 -24.501l118 -58c44.667 -22 76.334 -41.833 95.001 -59.5s28 -37.167 28 -58.5c0 -34.667 -21.333 -62 -64 -82s-89.667 -30 -141 -30zM110.999 -228.998
c46.667 0 84.333 7.66895 113 23.002s43 34 43 56c0 16.667 -7.33301 31.167 -22 43.5s-41 28.166 -79 47.499l-76 39l-51 -22c-28.667 -12.667 -52.834 -28.334 -72.501 -47.001s-29.5 -39 -29.5 -61c0 -26.667 16.333 -46.5 49 -59.5s74.334 -19.5 125.001 -19.5z
M173.998 142.004c24 0 49.667 16.668 77 50.001s49.666 73.166 66.999 119.499s26 87.5 26 123.5c0 37.333 -17.333 56 -52 56c-24 0 -49.667 -16.667 -77 -50s-49.666 -72.833 -66.999 -118.5s-26 -86.167 -26 -121.5c0 -39.333 17.333 -59 52 -59zM787.998 -128.995
c0 -17.333 -6.00098 -33.002 -18.001 -47.002c46.667 34 91.334 109 134.001 225l114 316c20.667 54.667 31 85.667 31 93c0 12 -5.66699 18 -17 18c-20 0 -58 -37 -114 -111l-6 4c62.667 86 112.334 129 149.001 129c15.333 0 27.166 -4.5 35.499 -13.5
s12.5 -19.833 12.5 -32.5c0 -15.333 -9.33301 -48 -28 -98l-90 -236c-66 -172.667 -155 -281.334 -267 -326.001c-45.333 -18.667 -105.666 -28 -180.999 -28c-20.667 0 -42 1.33301 -64 4s-44.333 6.83398 -67 12.501s-41.334 14 -56.001 25s-22 23.833 -22 38.5
c0 32.667 51 75 153 127l25 13l-34 16c-22 10.667 -39 21.167 -51 31.5s-18 23.166 -18 38.499c0 16.667 7.5 31.167 22.5 43.5s40.5 25.166 76.5 38.499l32 12c-22 20 -33 52 -33 96c0 56.667 21.333 110.5 64 161.5s93 76.5 151 76.5c24.667 0 48.334 -10.667 71.001 -32
l5 5c48.667 48.667 88 73 118 73c8.66699 0 16.167 -2.33301 22.5 -7s9.5 -11 9.5 -19s-3 -14.5 -9 -19.5s-13.667 -7.5 -23 -7.5c-6.66699 0 -15.334 1.83301 -26.001 5.5s-20 5.5 -28 5.5c-14.667 0 -34 -12 -58 -36l-6 -6c16.667 -20.667 25 -50 25 -88
c0 -57.333 -21.667 -111.166 -65 -161.499s-93.333 -75.5 -150 -75.5c-19.333 0 -40 8 -62 24l-35 -13c-39.333 -14.667 -59 -30.334 -59 -47.001c0 -9.33301 4 -17.166 12 -23.499s22.333 -14.166 43 -23.499l148 -68c50 -23.333 84.667 -43.166 104 -59.499
s29 -34.166 29 -53.499zM605.997 142.003c24 0 49.667 16.668 77 50.001s49.666 73.166 66.999 119.499s26 87.5 26 123.5c0 37.333 -17.333 56 -52 56c-24 0 -49.667 -16.667 -77 -50s-49.666 -72.833 -66.999 -118.5s-26 -86.167 -26 -121.5c0 -39.333 17.333 -59 52 -59z
M738.997 -154.996c0 14.667 -8 27.833 -24 39.5s-45 27.167 -87 46.5l-106 49l-31 -16c-64.667 -33.333 -97 -71.333 -97 -114c0 -25.333 15.5 -44.833 46.5 -58.5s65.167 -20.5 102.5 -20.5c65.333 0 114.333 6.83301 147 20.5s49 31.5 49 53.5zM1139 596.003
c-13.333 0 -24.333 4.33301 -33 13s-13 19.667 -13 33s4.33301 24.5 13 33.5s19.667 13.5 33 13.5s24.5 -4.5 33.5 -13.5s13.5 -20.167 13.5 -33.5s-4.5 -24.333 -13.5 -33s-20.167 -13 -33.5 -13z" />
    <glyph glyph-name="gf" unicode="gf" horiz-adv-x="695" 
d="M111 -236c-28 0 -55.002 1.33008 -81.002 3.99707s-51.333 6.83398 -76 12.501s-44.5 14 -59.5 25s-22.5 23.833 -22.5 38.5c0 34 54.333 74.333 163 121l45 19l-34 16c-22 10.667 -39 21.167 -51 31.5s-18 23.166 -18 38.499c0 16.667 7.5 31.167 22.5 43.5
s40.5 25.166 76.5 38.499l32 12c-22 20 -33 52 -33 96c0 56.667 21.333 110.5 64 161.5s93 76.5 151 76.5c24.667 0 48.334 -10.667 71.001 -32l5 5c48.667 48.667 88 73 118 73c8.66699 0 16.167 -2.33301 22.5 -7s9.5 -11 9.5 -19s-3 -14.5 -9 -19.5
s-13.667 -7.5 -23 -7.5c-6.66699 0 -15.334 1.83301 -26.001 5.5s-20 5.5 -28 5.5c-14.667 0 -34 -12 -58 -36l-6 -6c16.667 -20.667 25 -50 25 -88c0 -57.333 -21.667 -111.166 -65 -161.499s-93.333 -75.5 -150 -75.5c-19.333 0 -40 8 -62 24l-35 -13
c-39.333 -14.667 -59 -30.334 -59 -47.001c0 -9.33301 4 -17.166 12 -23.499s22.333 -14.166 43 -23.499l148 -68c50 -23.333 84.667 -43.166 104 -59.499s29 -34.166 29 -53.499c0 -15.333 -4.66699 -29.333 -14 -42c20.667 16.667 37.334 39 50.001 67
s31.334 79 56.001 153l120 362c9.33301 27.333 18.666 51 27.999 71h-89v8h93c33.333 65.333 76.666 116.5 129.999 153.5s109.333 55.5 168 55.5c10 0 18.333 -2.5 25 -7.5s10 -11.5 10 -19.5c0 -18 -11.667 -27 -35 -27c-7.33301 0 -21.666 2.66699 -42.999 8
s-37.666 8 -48.999 8c-33.333 0 -59.333 -10.5 -78 -31.5s-41 -64.167 -67 -129.5l-4 -10h123v-8h-126l-119 -359c-14.667 -44.667 -28.667 -82.167 -42 -112.5s-31.5 -62.333 -54.5 -96s-48.5 -60.5 -76.5 -80.5s-63.333 -36.667 -106 -50s-91 -20 -145 -20z
M110.998 -229.003c65.333 0 114.333 6.83301 147 20.5s49 31.5 49 53.5c0 14.667 -8 27.834 -24 39.501s-45 27.167 -87 46.5l-106 49l-51 -22c-28.667 -12.667 -52.834 -28.334 -72.501 -47.001s-29.5 -39 -29.5 -61c0 -26.667 16.333 -46.5 49 -59.5
s74.334 -19.5 125.001 -19.5zM173.998 141.997c24 0 49.667 16.668 77 50.001s49.666 73.166 66.999 119.499s26 87.5 26 123.5c0 37.333 -17.333 56 -52 56c-24 0 -49.667 -16.667 -77 -50s-49.666 -72.833 -66.999 -118.5s-26 -86.167 -26 -121.5
c0 -39.333 17.333 -59 52 -59z" />
    <glyph glyph-name="ggf" unicode="ggf" horiz-adv-x="1127" 
d="M111 -236c-28 0 -55.001 1.33496 -81.001 4.00195s-51.333 6.83398 -76 12.501s-44.5 14 -59.5 25s-22.5 23.833 -22.5 38.5c0 34 54.333 74.333 163 121l45 19l-34 16c-22 10.667 -39 21.167 -51 31.5s-18 23.166 -18 38.499c0 16.667 7.5 31.167 22.5 43.5
s40.5 25.166 76.5 38.499l32 12c-22 20 -33 52 -33 96c0 56.667 21.333 110.5 64 161.5s93 76.5 151 76.5c24.667 0 48.334 -10.667 71.001 -32l5 5c48.667 48.667 88 73 118 73c8.66699 0 16.167 -2.33301 22.5 -7s9.5 -11 9.5 -19s-3 -14.5 -9 -19.5
s-13.667 -7.5 -23 -7.5c-6.66699 0 -15.334 1.83301 -26.001 5.5s-20 5.5 -28 5.5c-14.667 0 -34 -12 -58 -36l-6 -6c16.667 -20.667 25 -50 25 -88c0 -57.333 -21.667 -111.166 -65 -161.499s-93.333 -75.5 -150 -75.5c-19.333 0 -40 8 -62 24l-35 -13
c-39.333 -14.667 -59 -30.334 -59 -47.001c0 -9.33301 3.83301 -16.833 11.5 -22.5s22.167 -13.834 43.5 -24.501l118 -58c44.667 -22 76.334 -41.833 95.001 -59.5s28 -37.167 28 -58.5c0 -34.667 -21.333 -62 -64 -82s-89.667 -30 -141 -30zM110.999 -228.998
c46.667 0 84.333 7.66895 113 23.002s43 34 43 56c0 16.667 -7.33301 31.167 -22 43.5s-41 28.166 -79 47.499l-76 39l-51 -22c-28.667 -12.667 -52.834 -28.334 -72.501 -47.001s-29.5 -39 -29.5 -61c0 -26.667 16.333 -46.5 49 -59.5s74.334 -19.5 125.001 -19.5z
M173.998 142.004c24 0 49.667 16.668 77 50.001s49.666 73.166 66.999 119.499s26 87.5 26 123.5c0 37.333 -17.333 56 -52 56c-24 0 -49.667 -16.667 -77 -50s-49.666 -72.833 -66.999 -118.5s-26 -86.167 -26 -121.5c0 -39.333 17.333 -59 52 -59zM542.998 -228.995
c65.333 0 114.333 6.83203 147 20.499s49 31.5 49 53.5c0 14.667 -8 27.834 -24 39.501s-45 27.167 -87 46.5l-106 49l-31 -16c-64.667 -33.333 -97 -71.333 -97 -114c0 -25.333 15.667 -44.833 47 -58.5s65.333 -20.5 102 -20.5zM605.998 142.004
c24 0 49.667 16.668 77 50.001s49.666 73.166 66.999 119.499s26 87.5 26 123.5c0 37.333 -17.333 56 -52 56c-24 0 -49.667 -16.667 -77 -50s-49.666 -72.833 -66.999 -118.5s-26 -86.167 -26 -121.5c0 -39.333 17.333 -59 52 -59zM542.998 -235.995
c-28 0 -56.6699 1.99707 -86.0029 5.99707s-57.166 12.5 -83.499 25.5s-39.5 29.167 -39.5 48.5c0 32.667 51 75 153 127l25 13l-34 16c-22 10.667 -39 21.167 -51 31.5s-18 23.166 -18 38.499c0 16.667 7.5 31.167 22.5 43.5s40.5 25.166 76.5 38.499l32 12
c-22 20 -33 52 -33 96c0 56.667 21.333 110.5 64 161.5s93 76.5 151 76.5c24.667 0 48.334 -10.667 71.001 -32l5 5c48.667 48.667 88 73 118 73c8.66699 0 16.167 -2.33301 22.5 -7s9.5 -11 9.5 -19s-3 -14.5 -9 -19.5s-13.667 -7.5 -23 -7.5
c-6.66699 0 -15.334 1.83301 -26.001 5.5s-20 5.5 -28 5.5c-14.667 0 -34 -12 -58 -36l-6 -6c16.667 -20.667 25 -50 25 -88c0 -57.333 -21.667 -111.166 -65 -161.499s-93.333 -75.5 -150 -75.5c-19.333 0 -40 8 -62 24l-35 -13c-39.333 -14.667 -59 -30.334 -59 -47.001
c0 -9.33301 4 -17.166 12 -23.499s22.333 -14.166 43 -23.499l148 -68c50 -23.333 84.667 -43.166 104 -59.499s29 -34.166 29 -53.499c0 -15.333 -4.66699 -29.333 -14 -42c20.667 16.667 37.334 39 50.001 67s31.334 79 56.001 153l120 362
c9.33301 27.333 18.666 51 27.999 71h-89v8h93c33.333 65.333 76.666 116.5 129.999 153.5s109.333 55.5 168 55.5c10 0 18.333 -2.5 25 -7.5s10 -11.5 10 -19.5c0 -18 -11.667 -27 -35 -27c-7.33301 0 -21.666 2.66699 -42.999 8s-37.666 8 -48.999 8
c-33.333 0 -59.333 -10.5 -78 -31.5s-41 -64.167 -67 -129.5l-4 -10h123v-8h-126l-117 -352c-12.667 -38.667 -24.5 -71.167 -35.5 -97.5s-24.833 -55 -41.5 -86s-35 -56.333 -55 -76s-43.833 -38.167 -71.5 -55.5s-60.167 -30.166 -97.5 -38.499s-79 -12.5 -125 -12.5z" />
    <glyph glyph-name="qj" unicode="qj" horiz-adv-x="715" 
d="M499 49l114 315.998c20.667 54.667 31 85.667 31 93c0 12 -5.66699 18 -17 18c-20 0 -58 -37 -114 -111l-6 4c62.667 86 112.334 129 149.001 129c15.333 0 27.166 -4.5 35.499 -13.5s12.5 -19.833 12.5 -32.5c0 -15.333 -9.33301 -48 -28 -98l-90 -236
c-44.667 -116.667 -95 -203.167 -151 -259.5s-114.333 -84.5 -175 -84.5h-5c-9.33301 0 -20.833 0.5 -34.5 1.5s-26.834 1.5 -39.501 1.5s-27 -0.5 -43 -1.5s-28 -1.5 -36 -1.5h-43v7h44c16.667 0 29.834 3.33301 39.501 10s18.167 19.334 25.5 38.001l218 562l-179 -269
c-29.333 -44.667 -55 -77.5 -77 -98.5s-44 -31.5 -66 -31.5c-16.667 0 -30.834 5.33301 -42.501 16s-17.5 27.334 -17.5 50.001c0 28.667 8.16699 67.334 24.5 116.001s37.333 97.167 63 145.5s56.667 90.166 93 125.499s71.833 53 106.5 53c40 0 76.333 -25.333 109 -76
c24 9.33301 41.833 19 53.5 29s22.834 25.667 33.501 47l6 -2l-260 -663c-5.33301 -12 -8 -21.667 -8 -29c0 -15.333 10.333 -23 31 -23h4c56 2 100.833 22.667 134.5 62s68.5 108 104.5 206zM95 13.998c20.667 0 56 37.668 106 113.001l193 289
c-11.333 19.333 -25.333 36.166 -42 50.499s-33 21.5 -49 21.5c-33.333 0 -68.833 -30 -106.5 -90s-67.667 -124.167 -90 -192.5s-33.5 -119.833 -33.5 -154.5c0 -24.667 7.33301 -37 22 -37zM734 595.999c-13.333 0 -24.333 4.33301 -33 13s-13 19.667 -13 33
s4.33301 24.5 13 33.5s19.667 13.5 33 13.5s24.5 -4.5 33.5 -13.5s13.5 -20.167 13.5 -33.5s-4.5 -24.333 -13.5 -33s-20.167 -13 -33.5 -13z" />
    <glyph glyph-name="qf" unicode="qf" horiz-adv-x="722" 
d="M265 -226l-9.99902 -0.00390625c-9.33301 0 -20.833 0.5 -34.5 1.5s-26.834 1.5 -39.501 1.5s-27 -0.5 -43 -1.5s-28 -1.5 -36 -1.5h-43v7h44c16 0 28.833 3.33301 38.5 10s18.5 19.334 26.5 38.001l218 562l-179 -269c-29.333 -44.667 -55 -77.5 -77 -98.5
s-44 -31.5 -66 -31.5c-16.667 0 -30.834 5.33301 -42.501 16s-17.5 27.334 -17.5 50.001c0 28.667 8.16699 67.334 24.5 116.001s37.333 97.167 63 145.5s56.667 90.166 93 125.499s71.833 53 106.5 53c40 0 76.333 -25.333 109 -76c24 9.33301 41.833 19 53.5 29
s22.834 25.667 33.501 47l6 -2l-260 -663c-5.33301 -12 -8 -21.667 -8 -29c0 -15.333 10.333 -23 31 -23h9c23.333 0 44.666 4.83301 63.999 14.5s34.5 18.834 45.5 27.501s23.333 27.667 37 57s22.667 49.833 27 61.5s13.5 38.834 27.5 81.501l9 26l120 362
c9.33301 27.333 18.666 51 27.999 71h-89v8h93c33.333 65.333 76.666 116.5 129.999 153.5s109.333 55.5 168 55.5c10 0 18.333 -2.5 25 -7.5s10 -11.5 10 -19.5c0 -18 -11.667 -27 -35 -27c-7.33301 0 -21.666 2.66699 -42.999 8s-37.666 8 -48.999 8
c-33.333 0 -59.333 -10.5 -78 -31.5s-41 -64.167 -67 -129.5l-4 -10h123v-8h-126l-119 -359c-40 -120.667 -84.167 -209 -132.5 -265s-103.166 -84 -164.499 -84zM95.001 13.9961c20.667 0 56 37.668 106 113.001l193 289c-11.333 19.333 -25.333 36.166 -42 50.499
s-33 21.5 -49 21.5c-33.333 0 -68.833 -30 -106.5 -90s-67.667 -124.167 -90 -192.5s-33.5 -119.833 -33.5 -154.5c0 -24.667 7.33301 -37 22 -37z" />
    <glyph glyph-name=".notdef" horiz-adv-x="547" 
d="M319 -226h-444l383 1002h445zM261 757l-368 -962l390 480zM294 272l22 -478l368 958zM270 766l23 -479l389 479h-412zM284 260l-387 -476h410z" />
    <glyph glyph-name="space" unicode=" " horiz-adv-x="168" 
 />
    <glyph glyph-name="exclam" unicode="!" horiz-adv-x="245" 
d="M104 206l-8 3l15 38c14 36 32.333 92.667 55 170c34.667 124 59 206 73 246c6 16.667 17 25 33 25c8.66699 0 16.5 -2.83301 23.5 -8.5s10.5 -13.5 10.5 -23.5c0 -6 -2.33301 -15.5 -7 -28.5s-11.5 -29 -20.5 -48l-26 -54.5l-30 -60.5l-26.5 -53.5
c-34 -68 -59.667 -123.667 -77 -167zM38 -8c-14 0 -26.167 5 -36.5 15s-15.5 22.333 -15.5 37s5.16699 27 15.5 37s22.5 15 36.5 15s26.167 -5 36.5 -15s15.5 -22.333 15.5 -37s-5.16699 -27 -15.5 -37s-22.5 -15 -36.5 -15z" />
    <glyph glyph-name="quotedbl" unicode="&#x22;" horiz-adv-x="301" 
d="M167 462l-5.99805 2.00098l4 12c14 42.667 23.167 83.334 27.5 122.001s7.16602 60 8.49902 64c4.66699 19.333 16.667 29 36 29c11.333 0 20.5 -3.33301 27.5 -10s10.5 -16 10.5 -28c0 -10 -4.83301 -21.333 -14.5 -34s-23.334 -31.834 -41.001 -57.501
s-33.5 -54.834 -47.5 -87.501zM294.002 462.001l-5.99805 2.00098l4 12c14 42.667 23.167 83.334 27.5 122.001s7.16602 60 8.49902 64c4.66699 19.333 16.667 29 36 29c11.333 0 20.5 -3.33301 27.5 -10s10.5 -16 10.5 -28c0 -10 -4.83301 -21.333 -14.5 -34
s-23.334 -31.834 -41.001 -57.501s-33.5 -54.834 -47.5 -87.501z" />
    <glyph glyph-name="numbersign" unicode="#" horiz-adv-x="550" 
d="M191 458v9h118l132 204l8 -5l-128 -199h142l132 204l8 -5l-128 -199h114v-9h-120l-151 -236h112v-9h-118l-131 -204l-9 5l128 199h-142l-131 -204l-9 5l128 199h-114v9h120l151 236h-112zM315 458l-151 -236h142l151 236h-142z" />
    <glyph glyph-name="dollar" unicode="$" horiz-adv-x="491" 
d="M127 -74l-8.99902 2.99805l30 77c-42.667 10 -78.167 29.333 -106.5 58s-42.5 60.667 -42.5 96c0 13.333 3 23.5 9 30.5s13.667 10.5 23 10.5s16.666 -3 21.999 -9s8 -13.333 8 -22c0 -5.33301 -0.5 -11.666 -1.5 -18.999s-1.5 -14 -1.5 -20c0 -63.333 31 -102 93 -116
l120 312l-18 17c-54.667 52.667 -82 103.334 -82 152.001c0 55.333 19 100 57 134s84.333 51 139 51c10.667 0 23.334 -1.66699 38.001 -5l30 78l9 -3l-30 -78c32 -10 59.833 -26.667 83.5 -50s35.5 -48 35.5 -74c0 -26.667 -11 -40 -33 -40c-8.66699 0 -15.667 3 -21 9
s-8 13 -8 21c0 2.66699 0.5 8.16699 1.5 16.5s1.5 15.166 1.5 20.499c0 46 -21 75.667 -63 89l-108 -280l27 -26c33.333 -33.333 56.833 -61.166 70.5 -83.499s20.5 -48.833 20.5 -79.5c0 -39.333 -11.833 -74.333 -35.5 -105s-51.834 -53.5 -84.501 -68.5
s-65.334 -22.5 -98.001 -22.5c-17.333 -0 -32.666 1.33301 -45.999 4zM278.001 320.998l-117.999 -308c13.333 -2 27.666 -3 42.999 -3c46 0 86 13 120 39s51 59.333 51 100c0 54.667 -32 112 -96 172zM215.002 539.998c0 -24 6.00098 -47.168 18.001 -69.501
s33 -48.5 63 -78.5l106 276c-14.667 2.66699 -26.334 4 -35.001 4c-46 0 -82.833 -12.167 -110.5 -36.5s-41.5 -56.166 -41.5 -95.499z" />
    <glyph glyph-name="percent" unicode="%" horiz-adv-x="640" 
d="M218 346c-26.667 0 -48.5 10.001 -65.5 30.001s-25.5 45.333 -25.5 76c0 31.333 8.16699 64.833 24.5 100.5s41 67.167 74 94.5s69.167 41 108.5 41c28 0 49.333 -12 64 -36c18 -28.667 43 -43 75 -43c59.333 0 119.666 26 180.999 78l7 -7l-614 -690l-7 6l587 659
c-54 -36.667 -105.333 -55 -154 -55c-26.667 0 -48.667 8.66699 -66 26c2 -6.66699 3 -14.334 3 -23.001c0 -54 -19.667 -110.333 -59 -169s-83.666 -88 -132.999 -88zM385 -7.99902c-26.667 0 -48.501 10 -65.501 30s-25.5 45.333 -25.5 76
c0 31.333 8.16699 64.833 24.5 100.5s41 67.167 74 94.5s69.167 41 108.5 41c22.667 0 41 -8 55 -24s21 -36.333 21 -61c0 -54 -19.667 -110.333 -59 -169s-83.666 -88 -132.999 -88zM384.999 1.00098c46 0 88 28.332 126 84.999s57 111 57 163c0 22.667 -6 41 -18 55
s-28.333 21 -49 21c-24.667 0 -51.667 -19.333 -81 -58c-23.333 -30 -43 -65.167 -59 -105.5s-24 -74.166 -24 -101.499c0 -39.333 16 -59 48 -59zM217.999 355c46 0 87.999 28.333 125.999 85s57 111 57 163c0 22.667 -6 41 -18 55s-28.333 21 -49 21
c-25.333 0 -52.666 -19.667 -81.999 -59c-22.667 -30 -42 -65 -58 -105s-24 -73.667 -24 -101c0 -39.333 16 -59 48 -59z" />
    <glyph glyph-name="ampersand" unicode="&#x26;" horiz-adv-x="754" 
d="M414 683c-43.333 0 -79.002 -18.501 -107.002 -55.501s-42 -80.167 -42 -129.5c0 -20 2 -37.333 6 -52c25.333 7.33301 49 11 71 11c61.333 0 92 -15.333 92 -46c0 -11.333 -6.33301 -21.333 -19 -30s-30.334 -13 -53.001 -13c-48.667 0 -88.667 17.333 -120 52
c-34.667 -20.667 -62.834 -51 -84.501 -91s-32.5 -87.333 -32.5 -142c0 -59.333 18 -105.333 54 -138s83.333 -49 142 -49c46.667 0 89.167 7 127.5 21s69 31.667 92 53s40.667 44 53 68s18.5 47.333 18.5 70c0 32.667 -9.16699 59.5 -27.5 80.5s-39.166 31.5 -62.499 31.5
c-24 0 -47 -9.83301 -69 -29.5s-33 -42.834 -33 -69.501c0 -15.333 4 -27.5 12 -36.5s17.667 -13.5 29 -13.5c10.667 0 21 3.5 31 10.5s17.333 16.167 22 27.5l6 -2c-12 -29.333 -33.333 -44 -64 -44c-20.667 0 -39 6.83301 -55 20.5s-24 32.5 -24 56.5
c0 54 39.667 96 119 126l138 52c84 31.333 140.333 59.833 169 85.5s43 53.167 43 82.5c0 22 -8.16699 40.5 -24.5 55.5s-34.833 22.5 -55.5 22.5c-18.667 0 -35.5 -5.33301 -50.5 -16s-22.5 -24.667 -22.5 -42c0 -9.33301 7 -19.666 21 -30.999s21 -23 21 -35
c0 -8.66699 -3 -15.667 -9 -21s-12.667 -8 -20 -8c-11.333 0 -20.666 5.33301 -27.999 16s-11 25 -11 43c0 30 9.83301 54.333 29.5 73s42.834 28 69.501 28c24 0 44.833 -8.5 62.5 -25.5s26.5 -39.167 26.5 -66.5c0 -88 -66.333 -156 -199 -204l-132 -48
c24.667 0 46.834 -11.167 66.501 -33.5s29.5 -50.833 29.5 -85.5c0 -52 -26.667 -101.667 -80 -149s-126.333 -71 -219 -71c-42 0 -82.667 7 -122 21s-73.5 37.5 -102.5 70.5s-43.5 72.167 -43.5 117.5c0 50 17.333 95.5 52 136.5s77.334 72.5 128.001 94.5
c-16 22.667 -24 48.667 -24 78c0 52.667 21.167 96 63.5 130s89.5 51 141.5 51c40 0 76.167 -13.167 108.5 -39.5s48.5 -53.166 48.5 -80.499c0 -10.667 -2.83301 -19.334 -8.5 -26.001s-13.167 -10 -22.5 -10c-8.66699 0 -15.834 3 -21.501 9s-8.5 13.667 -8.5 23
c0 4.66699 0.333008 10.167 1 16.5s1 11.5 1 15.5c0 22.667 -7.5 42.334 -22.5 59.001s-40.167 25 -75.5 25zM341.998 448.999c-24 0 -46.666 -4.33301 -67.999 -13c14.667 -40 44 -60 88 -60c19.333 0 34.666 3.5 45.999 10.5s17 15.167 17 24.5
c0 25.333 -27.667 38 -83 38z" />
    <glyph glyph-name="quotesingle" unicode="'" horiz-adv-x="174" 
d="M167 462l-5.99805 2.00098l4 12c14 42.667 23.167 83.334 27.5 122.001s7.16602 60 8.49902 64c4.66699 19.333 16.667 29 36 29c11.333 0 20.5 -3.33301 27.5 -10s10.5 -16 10.5 -28c0 -10 -4.83301 -21.333 -14.5 -34s-23.334 -31.834 -41.001 -57.501
s-33.5 -54.834 -47.5 -87.501z" />
    <glyph glyph-name="parenleft" unicode="(" horiz-adv-x="282" 
d="M450 721c-113.333 -75.333 -202.5 -176.668 -267.5 -304.001s-97.5 -260.333 -97.5 -399c0 -74 10.333 -137 31 -189l-7 -4c-17.333 38.667 -33 86.834 -47 144.501s-21 105.5 -21 143.5c0 244.667 135 449.667 405 615z" />
    <glyph glyph-name="parenright" unicode=")" horiz-adv-x="282" 
d="M-142 -175l-4 7.00195c113.333 75.333 202.5 176.666 267.5 303.999s97.5 260.333 97.5 399c0 74 -10.333 137 -31 189l7 4c17.333 -38.667 33 -86.834 47 -144.501s21 -105.5 21 -143.5c0 -245.333 -135 -450.333 -405 -615z" />
    <glyph glyph-name="asterisk" unicode="*" horiz-adv-x="365" 
d="M307 400c-8 0 -14.8232 2.83301 -20.4902 8.5s-8.5 12.5 -8.5 20.5c0 11.333 4.16699 30.5 12.5 57.5s12.833 50.5 13.5 70.5c-16.667 -10 -34.334 -25.333 -53.001 -46s-33.334 -33.667 -44.001 -39c-5.33301 -3.33301 -11 -5 -17 -5c-8 0 -14.5 3.16699 -19.5 9.5
s-7.5 13.166 -7.5 20.499c0 10 4.66699 18 14 24c9.33301 5.33301 28.166 11 56.499 17s51.166 14 68.499 24c-17.333 9.33301 -40 17.166 -68 23.499s-47 12.5 -57 18.5c-9.33301 6 -14 14.333 -14 25c0 7.33301 2.66699 14 8 20s12 9 20 9
c5.33301 0 10.666 -1.66699 15.999 -5c10 -6 24.5 -19.333 43.5 -40s36.833 -36 53.5 -46c-0.666992 20 -5.16699 43.5 -13.5 70.5s-12.5 46.167 -12.5 57.5c0 8 2.83301 14.833 8.5 20.5s12.5 8.5 20.5 8.5s14.833 -2.83301 20.5 -8.5s8.5 -12.5 8.5 -20.5
c0 -11.333 -4.16699 -30.5 -12.5 -57.5s-12.833 -50.5 -13.5 -70.5c16.667 10 34.5 25.333 53.5 46s33.5 34 43.5 40c5.33301 3.33301 10.666 5 15.999 5c8 0 14.667 -3 20 -9s8 -12.667 8 -20c0 -10.667 -4.66699 -19 -14 -25c-10 -6 -29 -12.167 -57 -18.5
s-50.667 -14.166 -68 -23.499c17.333 -10 40.166 -18 68.499 -24s47.166 -11.667 56.499 -17c9.33301 -6 14 -14 14 -24c0 -7.33301 -2.5 -14.166 -7.5 -20.499s-11.5 -9.5 -19.5 -9.5c-6 0 -11.667 1.66699 -17 5c-10.667 5.33301 -25.334 18.333 -44.001 39
s-36.334 36 -53.001 46c0.666992 -20 5.16699 -43.5 13.5 -70.5s12.5 -46.167 12.5 -57.5c0 -8 -2.83301 -14.833 -8.5 -20.5s-12.5 -8.5 -20.5 -8.5z" />
    <glyph glyph-name="plus" unicode="+" horiz-adv-x="493" 
d="M368 541l-82 -214h191v-9h-195l-82 -215l-9 3l81 212h-191v9h195l83 217z" />
    <glyph glyph-name="comma" unicode="," horiz-adv-x="226" 
d="M35 -3c-14 0 -25.501 4.66895 -34.501 14.002s-13.5 20.666 -13.5 33.999s4.83301 25 14.5 35s21.834 15 36.501 15s27.167 -5 37.5 -15s15.5 -24 15.5 -42c0 -38.667 -14.167 -70.834 -42.5 -96.501s-59.833 -41.5 -94.5 -47.5l-1 6c31.333 6 59 19.5 83 40.5
s38.667 46.5 44 76.5c-10 -13.333 -25 -20 -45 -20z" />
    <glyph glyph-name="hyphen" unicode="-" horiz-adv-x="304" 
d="M247 262h-155v39h155v-39z" />
    <glyph glyph-name="period" unicode="." horiz-adv-x="219" 
d="M35 -6c-13.333 0 -25 4.83301 -35 14.5s-15 21.5 -15 35.5s5 25.833 15 35.5s21.667 14.5 35 14.5s25 -4.83301 35 -14.5s15 -21.5 15 -35.5s-5 -25.833 -15 -35.5s-21.667 -14.5 -35 -14.5z" />
    <glyph glyph-name="slash" unicode="/" horiz-adv-x="328" 
d="M481 719l-612 -893l-8 5l612 893z" />
    <glyph glyph-name="zero" unicode="0" horiz-adv-x="571" 
d="M202 -2c42.667 0 85.5 22.833 128.5 68.5s79.167 99.834 108.5 162.501s53.166 125 71.499 187s27.5 111 27.5 147c0 80 -33 120 -99 120c-42.667 0 -85.5 -22.833 -128.5 -68.5s-79.167 -99.834 -108.5 -162.501s-53.166 -125 -71.499 -187s-27.5 -111 -27.5 -147
c0 -80 33 -120 99 -120zM442 691c44 0 78.833 -18.833 104.5 -56.5s38.5 -81.834 38.5 -132.501c0 -54 -10.5 -111.167 -31.5 -171.5s-48.667 -115.666 -83 -165.999s-75.833 -92 -124.5 -125s-97.667 -49.5 -147 -49.5c-44 0 -78.833 18.833 -104.5 56.5
s-38.5 81.834 -38.5 132.501c0 54 10.5 111.167 31.5 171.5s48.667 115.666 83 165.999s75.833 92 124.5 125s97.667 49.5 147 49.5z" />
    <glyph glyph-name="one" unicode="1" horiz-adv-x="324" 
d="M61 63l191.003 497c2 5.33301 3 9.33301 3 12c0 7.33301 -4 11 -12 11c-7.33301 0 -21.333 -4.66699 -42 -14l-21 -9l-3 8c42 18 81.333 39.167 118 63.5s59.667 45.833 69 64.5l6 -2l-243 -632c-4.66699 -13.333 -7 -23.333 -7 -30c0 -16 10.667 -24 32 -24h19v-8h-34
c-6.66699 0 -16.834 0.5 -30.501 1.5s-25.5 1.5 -35.5 1.5s-21.833 -0.5 -35.5 -1.5s-23.834 -1.5 -30.501 -1.5h-40v8h23c19.333 0 34.166 3.83301 44.499 11.5s19.833 22.167 28.5 43.5z" />
    <glyph glyph-name="two" unicode="2" horiz-adv-x="500" 
d="M389 62l-73.001 -125l-6 3c8 16 12 27.667 12 35c0 16.667 -12.667 25 -38 25h-329v4l113 87l117 93c32.667 26.667 69.167 59 109.5 97s73 73 98 105s46.333 66.333 64 103s26.5 71 26.5 103c0 60.667 -30 91 -90 91c-34 0 -64 -10.833 -90 -32.5s-51 -53.167 -75 -94.5
c-9.33301 -16.667 -21 -25 -35 -25c-19.333 0 -29 10.333 -29 31c0 26 26 54 78 84s102.667 45 152 45c37.333 0 72.333 -12 105 -36s49 -56 49 -96c0 -19.333 -4.66699 -39.833 -14 -61.5s-24.333 -44.5 -45 -68.5s-41.167 -46.167 -61.5 -66.5
s-47.666 -44.333 -81.999 -72l-86.5 -68.5l-95.5 -72.5l-89.5 -67.5l-26 -20h341z" />
    <glyph glyph-name="three" unicode="3" horiz-adv-x="541" 
d="M417 683c-36 0 -67.335 -10.668 -94.002 -32.001s-51.667 -53 -75 -95c-9.33301 -16.667 -20.666 -25 -33.999 -25c-8.66699 0 -15.834 2.83301 -21.501 8.5s-8.5 12.834 -8.5 21.501c0 27.333 26.833 55.833 80.5 85.5s104.5 44.5 152.5 44.5
c36.667 0 70.334 -11 101.001 -33s46 -50 46 -84c0 -39.333 -19.333 -75.833 -58 -109.5s-85 -60.834 -139 -81.501c27.333 2 54 -8.66699 80 -32s39 -54 39 -92c0 -64.667 -31.833 -125.667 -95.5 -183s-132.5 -86 -206.5 -86c-57.333 0 -101.666 16.333 -132.999 49
s-47 68.334 -47 107.001c0 29.333 11.667 44 35 44c8 0 15 -3 21 -9s9 -13.667 9 -23c0 -5.33301 -0.5 -13.833 -1.5 -25.5s-1.5 -21.5 -1.5 -29.5c0 -70 40 -105 120 -105c40.667 0 79.667 17.5 117 52.5s66.333 76.667 87 125s31 93.833 31 136.5
c0 41.333 -17.333 62 -52 62c-13.333 0 -32 -5.33301 -56 -16l-80 -37l-4 8l108 50c46 21.333 84.833 51.833 116.5 91.5s47.5 82.167 47.5 127.5c0 56.667 -28 85 -84 85z" />
    <glyph glyph-name="four" unicode="4" horiz-adv-x="525" 
d="M286 205l167 438l-441 -438h274zM231 63l51.002 133h-287v5l483 480c4.66699 0 10 -0.166992 16 -0.5s10 -0.5 12 -0.5s6.33301 0.166992 13 0.5s12 0.5 16 0.5l-183 -475h9c21.333 0 43 8.16699 65 24.5s58 51.5 108 105.5l5 -4l-80 -136h-110l-52 -134
c-4.66699 -10.667 -7 -20.667 -7 -30c0 -16 10.667 -24 32 -24h19v-8h-34c-6 0 -16 0.5 -30 1.5s-26 1.5 -36 1.5s-21.833 -0.5 -35.5 -1.5s-23.834 -1.5 -30.501 -1.5h-38v8h21c19.333 0 34.166 3.83301 44.499 11.5s19.833 22.167 28.5 43.5z" />
    <glyph glyph-name="five" unicode="5" horiz-adv-x="530" 
d="M10 124c0 11.333 3.33105 20.334 9.99805 27.001s14.667 10 24 10c8.66699 0 15.834 -3 21.501 -9s8.5 -13.333 8.5 -22c0 -3.33301 -0.166992 -9.33301 -0.5 -18s-0.5 -15.334 -0.5 -20.001c0 -24 8.5 -45.667 25.5 -65s42.833 -29 77.5 -29
c44 0 84.167 18.5 120.5 55.5s63.5 79.833 81.5 128.5s27 94.334 27 137.001c0 81.333 -30.333 122 -91 122c-66 0 -128 -34.333 -186 -103l-7 5c114.667 225.333 172.334 338 173.001 338h248c22 0 38.833 2.66699 50.5 8s23.167 16.666 34.5 33.999l6 -3l-62 -101h-298
l-126 -248c53.333 52 109 78 167 78c43.333 0 80 -14.667 110 -44s45 -67 45 -113c0 -78 -29.5 -147.833 -88.5 -209.5s-127.5 -92.5 -205.5 -92.5c-48 0 -87.5 14 -118.5 42s-46.5 58.667 -46.5 92z" />
    <glyph glyph-name="six" unicode="6" horiz-adv-x="530" 
d="M565 686c-61.333 -4.66699 -118.169 -22.6699 -170.502 -54.0029s-95 -67.166 -128 -107.499s-62.5 -86.5 -88.5 -138.5c46.667 42 95.334 63 146.001 63c42.667 0 79.334 -14.5 110.001 -43.5s46 -68.167 46 -117.5c0 -74.667 -29.333 -143 -88 -205s-124 -93 -196 -93
c-42 0 -76.167 17.833 -102.5 53.5s-39.5 80.834 -39.5 135.501c0 126.667 49 240.834 147 342.501s219.333 158.5 364 170.5v-6zM321.997 440.997c-52 0 -102.667 -24.333 -152 -73c-22.667 -48.667 -39.834 -96 -51.501 -142s-17.5 -82.667 -17.5 -110
c0 -14.667 1.33301 -28.334 4 -41.001s7.33398 -25.167 14.001 -37.5s16.5 -22.166 29.5 -29.499s28.833 -11 47.5 -11c41.333 0 79.5 18.833 114.5 56.5s61.333 80.667 79 129s26.5 92.833 26.5 133.5c0 83.333 -31.333 125 -94 125z" />
    <glyph glyph-name="seven" unicode="7" horiz-adv-x="456" 
d="M177 25c-4.66699 -20.667 -17.999 -31 -39.999 -31c-10 0 -18.667 3.5 -26 10.5s-11 16.167 -11 27.5c0 8.66699 4 23 12 43c88 224 220.333 405.333 397 544h-258c-22.667 0 -42.167 -5.33301 -58.5 -16s-32.5 -28.334 -48.5 -53.001l-6 3l96 169l6 -3
c-6 -12 -9 -20.667 -9 -26c0 -8 6 -12 18 -12h344v-4c-68.667 -52 -125.834 -101.667 -171.501 -149s-84 -97.666 -115 -150.999s-55.667 -106 -74 -158s-36.833 -116.667 -55.5 -194z" />
    <glyph glyph-name="eight" unicode="8" horiz-adv-x="538" 
d="M556 544c0 -88 -61 -152.334 -183 -193.001c24.667 -28 43.834 -54.833 57.501 -80.5s20.5 -53.5 20.5 -83.5c0 -60 -22.167 -107.833 -66.5 -143.5s-95.5 -53.5 -153.5 -53.5c-56.667 0 -103.834 15.833 -141.501 47.5s-56.5 73.5 -56.5 125.5
c0 110 75.333 184.667 226 224c-34 46 -51 89.667 -51 131c0 52.667 17.333 94.667 52 126s77.667 47 129 47c44 0 82.833 -13.667 116.5 -41s50.5 -62.666 50.5 -105.999zM315 322.999l-52 57.9971c-57.333 -17.333 -99.166 -47.666 -125.499 -90.999
s-39.5 -91.666 -39.5 -144.999c0 -43.333 10.333 -78.666 31 -105.999s54.667 -41 102 -41c50 0 90 14 120 42s45 66 45 114c0 34 -6.83301 63.333 -20.5 88s-33.834 51.667 -60.501 81zM318 411.996l50 -56c88.667 36.667 133 104.667 133 204c0 40 -9.66699 70.5 -29 91.5
s-47 31.5 -83 31.5c-41.333 0 -74 -11.833 -98 -35.5s-36 -55.167 -36 -94.5c0 -48.667 21 -95.667 63 -141z" />
    <glyph glyph-name="nine" unicode="9" horiz-adv-x="530" 
d="M33 -5c61.333 4.66699 118.169 22.6699 170.502 54.0029s95 67.166 128 107.499s62.5 86.5 88.5 138.5c-46.667 -42 -95.334 -63 -146.001 -63c-42.667 0 -79.334 14.5 -110.001 43.5s-46 68.167 -46 117.5c0 74.667 29.333 143 88 205s124 93 196 93
c42 0 76.167 -17.833 102.5 -53.5s39.5 -80.834 39.5 -135.501c0 -126.667 -49 -240.834 -147 -342.501s-219.333 -158.5 -364 -170.5v6zM276.003 240.003c52 0 102.667 24.333 152 73c22.667 48.667 39.834 96 51.501 142s17.5 82.667 17.5 110
c0 14.667 -1.33301 28.334 -4 41.001s-7.33398 25.167 -14.001 37.5s-16.5 22.166 -29.5 29.499s-28.833 11 -47.5 11c-41.333 0 -79.5 -18.833 -114.5 -56.5s-61.333 -80.667 -79 -129s-26.5 -92.833 -26.5 -133.5c0 -83.333 31.333 -125 94 -125z" />
    <glyph glyph-name="colon" unicode=":" horiz-adv-x="229" 
d="M185 372c-13.333 0 -25 4.83301 -35 14.5s-15 21.5 -15 35.5s5 25.833 15 35.5s21.667 14.5 35 14.5s25 -4.83301 35 -14.5s15 -21.5 15 -35.5s-5 -25.833 -15 -35.5s-21.667 -14.5 -35 -14.5zM40 -6c-13.333 0 -25 4.83301 -35 14.5s-15 21.5 -15 35.5s5 25.833 15 35.5
s21.667 14.5 35 14.5s25 -4.83301 35 -14.5s15 -21.5 15 -35.5s-5 -25.833 -15 -35.5s-21.667 -14.5 -35 -14.5z" />
    <glyph glyph-name="semicolon" unicode=";" horiz-adv-x="236" 
d="M185 372c-13.333 0 -25 4.83301 -35 14.5s-15 21.5 -15 35.5s5 25.833 15 35.5s21.667 14.5 35 14.5s25 -4.83301 35 -14.5s15 -21.5 15 -35.5s-5 -25.833 -15 -35.5s-21.667 -14.5 -35 -14.5zM40 -3c-14 0 -25.501 4.66895 -34.501 14.002s-13.5 20.666 -13.5 33.999
s4.83301 25 14.5 35s21.834 15 36.501 15s27.167 -5 37.5 -15s15.5 -24 15.5 -42c0 -38.667 -14.167 -70.834 -42.5 -96.501s-59.833 -41.5 -94.5 -47.5l-1 6c31.333 6 59 19.5 83 40.5s38.667 46.5 44 76.5c-10 -13.333 -25 -20 -45 -20z" />
    <glyph glyph-name="less" unicode="&#x3c;" horiz-adv-x="438" 
d="M82 327l405 174l4 -8l-398 -171l263 -170l-5 -8l-271 175z" />
    <glyph glyph-name="equal" unicode="=" horiz-adv-x="493" 
d="M116 409v9h396v-9h-396zM47 229v9h396v-9h-396z" />
    <glyph glyph-name="greater" unicode="&#x3e;" horiz-adv-x="438" 
d="M424 319l-405 -174l-4 8l398 171l-263 170l5 8l271 -175z" />
    <glyph glyph-name="question" unicode="?" horiz-adv-x="326" 
d="M125 206l-8.00195 2.99902l77 202c128.667 50.667 193 105.667 193 165c0 18 -5.83301 32.167 -17.5 42.5s-27.5 15.5 -47.5 15.5c-14 0 -29.167 -2.16699 -45.5 -6.5s-27.166 -6.5 -32.499 -6.5c-9.33301 0 -17 2.66699 -23 8s-9 12.333 -9 21c0 25.333 23 38 69 38
c32.667 0 59.834 -10 81.501 -30s32.5 -47 32.5 -81c0 -95.333 -74.667 -178.666 -224 -249.999zM55.998 -8.00098c-14 0 -26.167 5 -36.5 15s-15.5 22.333 -15.5 37s5.16699 27 15.5 37s22.5 15 36.5 15s26.167 -5 36.5 -15s15.5 -22.333 15.5 -37s-5.16699 -27 -15.5 -37
s-22.5 -15 -36.5 -15z" />
    <glyph glyph-name="at" unicode="@" horiz-adv-x="849" 
d="M480 481c38 0 72.002 -23.3369 102.002 -70.0039c25.333 9.33301 43.166 18.333 53.499 27s20.5 23 30.5 43l6 -2l-122 -293c-26 -63.333 -39 -104.333 -39 -123c0 -14 3.66699 -24.5 11 -31.5s17 -10.5 29 -10.5c41.333 0 80.166 15.167 116.499 45.5
s64.5 67.333 84.5 111s30 86.834 30 129.501c0 94.667 -33.5 171.834 -100.5 231.501s-147.833 89.5 -242.5 89.5c-103.333 0 -191.166 -37.5 -263.499 -112.5s-108.5 -165.167 -108.5 -270.5c0 -108 36 -198.5 108 -271.5s160.667 -109.5 266 -109.5
c72.667 0 140 18.833 202 56.5s105.667 88.834 131 153.501l8 -3c-25.333 -66.667 -70 -119.334 -134 -158.001s-133 -58 -207 -58c-107.333 0 -198 37.667 -272 113s-111 167.666 -111 276.999c0 107.333 37.167 199.5 111.5 276.5s164.166 115.5 269.499 115.5
c97.333 0 180.333 -30.667 249 -92s103 -140.666 103 -237.999c0 -70 -23.833 -136.833 -71.5 -200.5s-104.5 -95.5 -170.5 -95.5c-26 0 -47.333 7.33301 -64 22s-25 34.334 -25 59.001c0 28.667 12.333 70.334 37 125.001l70 161l-173 -247
c-56 -80 -101.667 -120 -137 -120c-36.667 0 -55 20.333 -55 61c0 23.333 8 57.333 24 102s36.167 90 60.5 136s54.333 86 90 120s70.167 51 103.5 51zM289.002 37.9961c19.333 0 52.332 32.667 98.999 98l189 269c-26.667 44 -55 66 -85 66
c-32.667 0 -67.167 -28.667 -103.5 -86s-65.166 -117.5 -86.499 -180.5s-32 -108.833 -32 -137.5c0 -19.333 6.33301 -29 19 -29z" />
    <glyph glyph-name="A" unicode="A" horiz-adv-x="592" 
d="M512 0l-29.999 0.00195312c-4 0 -13 0.5 -27 1.5s-26 1.5 -36 1.5c-11.333 0 -25.666 -0.5 -42.999 -1.5s-27.333 -1.5 -30 -1.5h-20v8h11c16.667 0.666992 30.167 6.16699 40.5 16.5s15.833 24.166 16.5 41.499l2 123h-297l-50 -67
c-22.667 -30 -34.334 -53.667 -35.001 -71c0 -28.667 16 -43 48 -43h11v-8h-24c-7.33301 0 -19.333 0.5 -36 1.5s-28.334 1.5 -35.001 1.5c-4.66699 0 -16.167 -0.5 -34.5 -1.5s-29.833 -1.5 -34.5 -1.5h-19v8h7c20.667 0 42 9.33301 64 28s48.667 49 80 91l358 476l-2 78
c5.33301 0 11.5 -0.333008 18.5 -1s12.5 -1 16.5 -1s9.16699 0.333008 15.5 1s11.833 1 16.5 1l-7 -616c0 -20.667 4 -35.334 12 -44.001s21.333 -13 40 -13h3v-8zM396.001 198.002l4 392l-294 -392h290z" />
    <glyph glyph-name="B" unicode="B" horiz-adv-x="565" 
d="M220 0l-124 0.000976562c-6.66699 0 -16.5 0.166992 -29.5 0.5s-24.5 0.5 -34.5 0.5c-9.33301 0 -21 -0.166992 -35 -0.5s-24.333 -0.5 -31 -0.5h-28v7h12c19.333 0 34.166 4 44.499 12s19.5 22.667 27.5 44l214 556c4.66699 10.667 7 20.667 7 30
c0 16.667 -10.667 25 -32 25h-19v7h34c6.66699 0 16.667 -0.166992 30 -0.5s25 -0.5 35 -0.5s21.5 0.166992 34.5 0.5s22.833 0.5 29.5 0.5h85c48.667 0 86.834 -9.83301 114.501 -29.5s41.5 -49.5 41.5 -89.5c0 -56.667 -24 -105.667 -72 -147s-102 -64.666 -162 -69.999
c40.667 -2.66699 74.5 -14.334 101.5 -35.001s40.5 -49.334 40.5 -86.001c0 -60.667 -25.833 -113.167 -77.5 -157.5s-120.5 -66.5 -206.5 -66.5zM225 9.00098c30.667 0 58.999 7.16699 84.999 21.5s46.833 31.666 62.5 51.999s29 42.5 40 66.5s18.667 44.833 23 62.5
s6.5 31.834 6.5 42.501c0 32 -7.66699 54.167 -23 66.5s-45.666 18.5 -90.999 18.5h-133l-128 -330h158zM329.999 348.001c34.667 0 66.167 10.002 94.5 30.002s50.333 44.167 66 72.5s27.5 55.166 35.5 80.499s12 45.666 12 60.999c0 30 -7 50.833 -21 62.5
s-41 17.5 -81 17.5h-113l-125 -324h132z" />
    <glyph glyph-name="C" unicode="C" horiz-adv-x="579" 
d="M228 -10c-48.667 0 -89.502 18.666 -122.502 55.999s-49.5 88 -49.5 152c0 75.333 18.333 151.333 55 228s85.5 140 146.5 190s123.5 75 187.5 75c18 0 40.333 -3.16699 67 -9.5s43 -9.5 49 -9.5c18.667 0 27.334 10.667 26.001 32l6 1l30 -227l-6 -1l-17.5 57.5
c-4.33301 13.667 -11.5 31.334 -21.5 53.001s-20.167 38.334 -30.5 50.001s-24 22 -41 31s-35.833 13.5 -56.5 13.5c-53.333 0 -105.166 -23.667 -155.499 -71s-90.333 -107 -120 -179s-44.5 -143.667 -44.5 -215c0 -58.667 12.167 -103.834 36.5 -135.501
s59.5 -47.5 105.5 -47.5c34.667 0 72 12 112 36s78.667 61.333 116 112l6 -5c-40 -56.667 -85 -102 -135 -136s-97.667 -51 -143 -51z" />
    <glyph glyph-name="D" unicode="D" horiz-adv-x="612" 
d="M192 0l-96 0.00195312c-6.66699 0 -16.5 0.166992 -29.5 0.5s-24.5 0.5 -34.5 0.5c-9.33301 0 -21 -0.166992 -35 -0.5s-24.333 -0.5 -31 -0.5h-28v8h10c19.333 0 34.5 4 45.5 12s20.5 22.333 28.5 43l214 556c4.66699 10.667 7 20.667 7 30c0 16 -10.667 24 -32 24h-19
v8h34c6.66699 0 16.667 -0.166992 30 -0.5s25 -0.5 35 -0.5s21.5 0.166992 34.5 0.5s22.833 0.5 29.5 0.5h59c61.333 0 110.833 -15.667 148.5 -47s56.5 -83.333 56.5 -156c0 -26 -3.5 -55 -10.5 -87s-17.5 -66.167 -31.5 -102.5s-32.833 -71.333 -56.5 -105
s-50.667 -64.334 -81 -92.001s-66.833 -49.834 -109.5 -66.501s-88.667 -25 -138 -25zM199 9.00195c40.667 0 79.5 10.999 116.5 32.999s68.333 50.333 94 85s49 72.5 70 113.5s37.833 81.833 50.5 122.5s22.167 76.5 28.5 107.5s9.5 55.167 9.5 72.5
c0 48.667 -13.167 82.334 -39.5 101.001s-66.833 28 -121.5 28h-85l-254 -663h131z" />
    <glyph glyph-name="E" unicode="E" horiz-adv-x="572" 
d="M371 -32l-6.00098 2c4 8 4.5 15 1.5 21s-9.16699 9 -18.5 9h-251c-6.66699 0 -16.5 0.166992 -29.5 0.5s-24.5 0.5 -34.5 0.5c-9.33301 0 -21.166 -0.166992 -35.499 -0.5s-24.833 -0.5 -31.5 -0.5h-28v8h11c19.333 0 34.333 3.83301 45 11.5s20 22.167 28 43.5l214 556
c4.66699 10.667 7 20.667 7 30c0 16 -10.667 24 -32 24h-19v8h35c6 0 15.667 -0.166992 29 -0.5s25.333 -0.5 36 -0.5c10 0 21.5 0.166992 34.5 0.5s22.833 0.5 29.5 0.5h203c25.333 0 39 10 41 30h6l9 -231l-6 -1c-18 66.667 -33.333 117.667 -46 153
c-5.33301 15.333 -11.833 25.833 -19.5 31.5s-20.167 8.5 -37.5 8.5h-183l-125 -322h123c28 0 51.667 11.167 71 33.5s40 55.5 62 99.5l7 -2l-108 -280l-7 2c12 34.667 18 63 18 85c0 35.333 -15.333 53 -46 53h-123l-127 -332h194c21.333 0 39.166 3.5 53.499 10.5
s32.833 21.167 55.5 42.5c36.667 36 83.334 85 140.001 147l5 -4z" />
    <glyph glyph-name="F" unicode="F" horiz-adv-x="526" 
d="M161 0l-63.002 -0.000976562c-6.66699 0 -16.667 0.5 -30 1.5s-25 1.5 -35 1.5c-9.33301 0 -21.166 -0.5 -35.499 -1.5s-24.833 -1.5 -31.5 -1.5h-28v8h12c18.667 0 33.334 4 44.001 12s20 22.333 28 43l214 556c4.66699 10.667 7 20.667 7 30c0 16 -10.667 24 -32 24
h-19v8h34c6.66699 0 16.667 -0.166992 30 -0.5s25.333 -0.5 36 -0.5c10 0 21.5 0.166992 34.5 0.5s22.833 0.5 29.5 0.5h203c25.333 0 39 10 41 30l6 1l9 -231l-6 -1c-12 48.667 -27.333 99.334 -46 152.001c-5.33301 15.333 -11.833 25.833 -19.5 31.5
s-20.167 8.5 -37.5 8.5h-183l-129 -333h123c28 0 51.667 11.167 71 33.5s40 55.5 62 99.5l7 -2l-108 -280l-7 2c12 34.667 18 63 18 85c0 35.333 -15.333 53 -46 53h-123l-103 -268c-4.66699 -10.667 -7 -20.667 -7 -30c0 -16 10.667 -24 32 -24h48v-8z" />
    <glyph glyph-name="G" unicode="G" horiz-adv-x="624" 
d="M447 -8l-5.99902 2.00098c4.66699 17.333 4.5 33.666 -0.5 48.999s-12.167 26.666 -21.5 33.999c-72.667 -58 -137.667 -87 -195 -87c-52 0 -93 19.333 -123 58s-45 90.334 -45 155.001c0 40 6.33301 82.5 19 127.5s31.5 88.667 56.5 131s53.667 80.666 86 114.999
s70 62 113 83s87.5 31.5 133.5 31.5c16.667 0 37.5 -3.16699 62.5 -9.5s41.167 -9.5 48.5 -9.5c17.333 0 25.333 10.667 24 32l6 1l30 -227l-6 -1l-9.5 35c-1.66699 6 -5.66699 18.333 -12 37s-11.833 32.334 -16.5 41.001s-11.667 20 -21 34s-18.666 24.5 -27.999 31.5
s-20.833 13.333 -34.5 19s-28.167 8.5 -43.5 8.5c-60.667 0 -118.334 -30 -173.001 -90c-53.333 -58.667 -96.833 -135 -130.5 -229s-50.5 -168.333 -50.5 -223c0 -40.667 9.5 -74.167 28.5 -100.5s50.5 -39.5 94.5 -39.5c31.333 0 64.166 9.16699 98.499 27.5
s62.833 37.833 85.5 58.5l59 152c4.66699 13.333 7 23.333 7 30c0 16 -10.667 24 -32 24h-19v8h33c6 0 16.333 -0.5 31 -1.5s27.334 -1.5 38.001 -1.5c9.33301 0 20.666 0.5 33.999 1.5s23.333 1.5 30 1.5h28v-8h-11c-19.333 0 -34.333 -3.83301 -45 -11.5
s-20 -22.167 -28 -43.5z" />
    <glyph glyph-name="H" unicode="H" horiz-adv-x="651" 
d="M526 0h-33.999c-6 0 -15.833 0.5 -29.5 1.5s-25.834 1.5 -36.501 1.5c-10 0 -21.833 -0.5 -35.5 -1.5s-23.834 -1.5 -30.501 -1.5h-28v8h11c19.333 0 34.166 3.83301 44.499 11.5s19.833 22.167 28.5 43.5l108 279h-328l-108 -280c-4.66699 -10.667 -7 -20.667 -7 -30
c0 -16 10.667 -24 32 -24h19v-8h-34c-6.66699 0 -16.667 0.5 -30 1.5s-25.333 1.5 -36 1.5c-10 0 -21.833 -0.5 -35.5 -1.5s-23.834 -1.5 -30.501 -1.5h-28v8h11c19.333 0 34.166 3.83301 44.499 11.5s19.833 22.167 28.5 43.5l214 556c4.66699 10.667 7 20.667 7 30
c0 16 -10.667 24 -32 24h-19v8h34c6.66699 0 16.667 -0.5 30 -1.5s25.333 -1.5 36 -1.5c10 0 21.833 0.5 35.5 1.5s23.834 1.5 30.501 1.5h28v-8h-11c-19.333 0 -34.166 -3.83301 -44.499 -11.5s-19.833 -22.167 -28.5 -43.5l-103 -267h328l103 268
c4.66699 10.667 7 20.667 7 30c0 16 -10.667 24 -32 24h-19v8h34c6.66699 0 16.667 -0.5 30 -1.5s25.333 -1.5 36 -1.5c10 0 21.833 0.5 35.5 1.5s23.834 1.5 30.501 1.5h28v-8h-11c-19.333 0 -34.166 -3.83301 -44.499 -11.5s-19.833 -22.167 -28.5 -43.5l-214 -556
c-4.66699 -10.667 -7 -20.667 -7 -30c0 -16 10.667 -24 32 -24h19v-8z" />
    <glyph glyph-name="I" unicode="I" horiz-adv-x="257" 
d="M132 0h-34c-6.66699 0 -16.667 0.5 -30 1.5s-25.333 1.5 -36 1.5c-10 0 -21.833 -0.5 -35.5 -1.5s-23.834 -1.5 -30.501 -1.5h-28v8h11c19.333 0 34.166 3.83301 44.499 11.5s19.833 22.167 28.5 43.5l214 556c4.66699 10.667 7 20.667 7 30c0 16 -10.667 24 -32 24h-19
v8h34c6.66699 0 16.667 -0.5 30 -1.5s25.333 -1.5 36 -1.5c10 0 21.833 0.5 35.5 1.5s23.834 1.5 30.501 1.5h28v-8h-11c-19.333 0 -34.166 -3.83301 -44.499 -11.5s-19.833 -22.167 -28.5 -43.5l-214 -556c-4.66699 -10.667 -7 -20.667 -7 -30c0 -16 10.667 -24 32 -24h19
v-8z" />
    <glyph glyph-name="J" unicode="J" horiz-adv-x="297" 
d="M-117 -98c-10 0 -18.333 2.50098 -25 7.50098s-10 11.833 -10 20.5c0.666992 19.333 13 29 37 29c6.66699 0 18.5 -3.16699 35.5 -9.5s30.5 -9.5 40.5 -9.5c19.333 0 36.166 8.66699 50.499 26s29.833 48.333 46.5 93l208 560c4.66699 13.333 7 23.333 7 30
c0 16 -10.667 24 -32 24h-19v8h34c6.66699 0 16.667 -0.5 30 -1.5s25.333 -1.5 36 -1.5c10 0 21.833 0.5 35.5 1.5s23.834 1.5 30.501 1.5h28v-8h-11c-19.333 0 -34.333 -3.83301 -45 -11.5s-20 -22.167 -28 -43.5l-158 -428
c-36.667 -98.667 -82.167 -171.334 -136.5 -218.001s-105.833 -70 -154.5 -70z" />
    <glyph glyph-name="K" unicode="K" horiz-adv-x="609" 
d="M511 0l-41.001 0.000976562c-3.33301 0 -11.5 0.5 -24.5 1.5s-24.833 1.5 -35.5 1.5c-10 0 -22.167 -0.5 -36.5 -1.5s-22.833 -1.5 -25.5 -1.5h-34v8h10c36 0 54 11.333 54 34c0 9.33301 -0.666992 18.333 -2 27l-55 293l-173 -144l-60 -156
c-4.66699 -10.667 -7 -20.667 -7 -30c0 -16 10.667 -24 32 -24h19v-8h-34c-6.66699 0 -16.667 0.5 -30 1.5s-25.333 1.5 -36 1.5c-10 0 -21.833 -0.5 -35.5 -1.5s-23.834 -1.5 -30.501 -1.5h-28v8h11c19.333 0 34.166 3.83301 44.499 11.5s19.833 22.167 28.5 43.5l214 556
c4.66699 10.667 7 20.667 7 30c0 16 -10.667 24 -32 24h-19v8h34c6.66699 0 16.667 -0.5 30 -1.5s25.333 -1.5 36 -1.5c10 0 21.833 0.5 35.5 1.5s23.834 1.5 30.501 1.5h28v-8h-11c-19.333 0 -34.166 -3.83301 -44.499 -11.5s-19.833 -22.167 -28.5 -43.5l-148 -384
l165 138l-8 42c4 0 9.33301 -0.333008 16 -1s11.334 -1 14.001 -1c7.33301 0 16.333 0.666992 27 2l207 174c25.333 21.333 38.333 40 39 56c0 8.66699 -3 15.667 -9 21s-14.333 8 -25 8h-10v8h27c5.33301 0 16 -0.5 32 -1.5s26.667 -1.5 32 -1.5
c8.66699 0 20.167 0.5 34.5 1.5s23.5 1.5 27.5 1.5h29v-8h-11c-34 -0.666992 -87.333 -31.334 -160 -92.001l-206 -173l68 -354c3.33301 -17.333 9.5 -29.333 18.5 -36s22.5 -10 40.5 -10h9v-8z" />
    <glyph glyph-name="L" unicode="L" horiz-adv-x="510" 
d="M331 -32l-5.00391 2c6 20 0 30 -18 30h-211c-6.66699 0 -16.5 0.166992 -29.5 0.5s-24.5 0.5 -34.5 0.5c-9.33301 0 -21.166 -0.166992 -35.499 -0.5s-24.833 -0.5 -31.5 -0.5h-28v8h12c18.667 0 33.334 4 44.001 12s20 22.333 28 43l214 556
c4.66699 10.667 7 20.667 7 30c0 16 -10.667 24 -32 24h-19v8h34c6.66699 0 16.667 -0.5 30 -1.5s25.333 -1.5 36 -1.5c10 0 21.833 0.5 35.5 1.5s23.834 1.5 30.501 1.5h28v-8h-11c-19.333 0 -34.166 -3.83301 -44.499 -11.5s-19.833 -22.167 -28.5 -43.5l-234 -609h151
c23.333 0 42.5 3.5 57.5 10.5s33.5 21.833 55.5 44.5c44 44 93.333 96.667 148 158l5 -4z" />
    <glyph glyph-name="M" unicode="M" horiz-adv-x="786" 
d="M661 8l0.00195312 -8h-34c-6.66699 0 -16.834 0.5 -30.501 1.5s-25.5 1.5 -35.5 1.5s-21.833 -0.5 -35.5 -1.5s-23.834 -1.5 -30.501 -1.5h-28v8h11c19.333 0 34.333 3.83301 45 11.5s20 22.167 28 43.5l232 601l-445 -586l4 -78
c-6.66699 0 -12.834 0.166992 -18.501 0.5s-10.167 0.5 -13.5 0.5c-4 0 -8.66699 -0.166992 -14 -0.5s-11 -0.5 -17 -0.5l-33 606l-181 -471c-12 -31.333 -18 -56.333 -18 -75c0 -34.667 16.667 -52 50 -52h9v-8h-35c-2.66699 0 -10.834 0.5 -24.501 1.5
s-25.167 1.5 -34.5 1.5c-10 0 -20.833 -0.5 -32.5 -1.5s-18.834 -1.5 -21.501 -1.5h-33v8h14c45.333 0 84.333 43 117 129l188 488c-1.33301 32 -16.333 48 -45 48h-18v8h31c6.66699 0 15 -0.166992 25 -0.5s17.667 -0.5 23 -0.5c6.66699 0 14.334 0.166992 23.001 0.5
s16 0.5 22 0.5l32 -588l447 588c2.66699 0 8.33398 -0.166992 17.001 -0.5s15 -0.5 19 -0.5c10 0 22 0.166992 36 0.5s24.333 0.5 31 0.5h28v-8h-11c-19.333 0 -34.166 -3.83301 -44.499 -11.5s-19.833 -22.167 -28.5 -43.5l-214 -556c-4.66699 -11.333 -7 -21.333 -7 -30
c0 -16 10.667 -24 32 -24h19z" />
    <glyph glyph-name="N" unicode="N" horiz-adv-x="629" 
d="M456 74l19.0059 -74.001c-6.66699 0 -13 0.166992 -19 0.5s-10.667 0.5 -14 0.5c-4 0 -8.83301 -0.166992 -14.5 -0.5s-11.167 -0.5 -16.5 -0.5l-162 613l-184 -478c-12 -31.333 -18 -56.333 -18 -75c0 -34 16.333 -51.333 49 -52h10v-8h-35
c-2.66699 0 -10.834 0.5 -24.501 1.5s-25.167 1.5 -34.5 1.5c-10 0 -20.833 -0.5 -32.5 -1.5s-18.834 -1.5 -21.501 -1.5h-33v8h14c45.333 0 84.333 43 117 129l188 487c-4 16 -9.5 28.167 -16.5 36.5s-17.5 12.5 -31.5 12.5h-20v8h36c6.66699 0 14.667 -0.166992 24 -0.5
s16.666 -0.5 21.999 -0.5c6.66699 0 13.167 0.166992 19.5 0.5s12.5 0.5 18.5 0.5l156 -592l176 457c12 31.333 18 56.333 18 75c0 34 -16.333 51.333 -49 52h-10v8h35c3.33301 0 11.666 -0.5 24.999 -1.5s25 -1.5 35 -1.5c10.667 0 21.5 0.5 32.5 1.5s18.167 1.5 21.5 1.5
h32v-8h-13c-26.667 0 -49.334 -11.667 -68.001 -35s-35.334 -54.666 -50.001 -93.999z" />
    <glyph glyph-name="O" unicode="O" horiz-adv-x="627" 
d="M226 -10c-49.333 0 -90.001 19.167 -122.001 57.5s-48 89.166 -48 152.499c0 48.667 10 101.167 30 157.5s47 109.5 81 159.5s77.333 91.5 130 124.5s108.334 49.5 167.001 49.5c50 0 91 -19.167 123 -57.5s48 -89.166 48 -152.499c0 -48.667 -10 -101.167 -30 -157.5
s-47 -109.5 -81 -159.5s-77.5 -91.5 -130.5 -124.5s-108.833 -49.5 -167.5 -49.5zM229.999 -2c42 0 82.667 15.167 122 45.5s72.666 68.333 99.999 114s51.333 94.334 72 146.001s36 99.167 46 142.5s15 77.666 15 102.999c0 89.333 -41.333 134 -124 134
c-42 0 -82.667 -15.167 -122 -45.5s-72.666 -68.333 -99.999 -114s-51.333 -94.334 -72 -146.001s-36 -99.167 -46 -142.5s-15 -77.666 -15 -102.999c0 -89.333 41.333 -134 124 -134z" />
    <glyph glyph-name="P" unicode="P" horiz-adv-x="542" 
d="M132 0h-34c-6.66699 0 -16.667 0.5 -30 1.5s-25 1.5 -35 1.5c-9.33301 0 -21.166 -0.5 -35.499 -1.5s-24.833 -1.5 -31.5 -1.5h-28v8h11c19.333 0 34.166 3.83301 44.499 11.5s19.833 22.167 28.5 43.5l214 556c4.66699 13.333 7 23.333 7 30c0 16 -10.667 24 -32 24h-19
v8h34c6.66699 0 16.667 -0.166992 30 -0.5s25.333 -0.5 36 -0.5c10 0 21.5 0.166992 34.5 0.5s22.833 0.5 29.5 0.5h102c48 0 85.833 -11.333 113.5 -34s41.5 -53.667 41.5 -93c0 -60.667 -26.333 -116 -79 -166s-121 -75 -205 -75h-144l-97 -251
c-4.66699 -10.667 -7 -20.667 -7 -30c0 -16 10.667 -24 32 -24h19v-8zM333 322c38.667 0 73.501 11.1689 104.501 33.502s54.5 49.166 70.5 80.499s28 60.166 36 86.499s12 47.5 12 63.5c0 30 -7.33301 51.833 -22 65.5s-41.334 20.5 -80.001 20.5h-131l-134 -350h144z" />
    <glyph glyph-name="Q" unicode="Q" horiz-adv-x="627" 
d="M226 -10h-12.001l-8 1l-141 -106c47.333 22 87.333 33 120 33c26 0 50.333 -10.667 73 -32l40 -38c33.333 -32 63 -48 89 -48c12.667 0 25.834 5.5 39.501 16.5s33.167 30.5 58.5 58.5l6 -5c-38 -40.667 -66.833 -68.334 -86.5 -83.001s-41.834 -22 -66.501 -22
s-52.667 14.333 -84 43l-38 36c-36 33.333 -65 50 -87 50c-16.667 0 -50.667 -12 -102 -36l-5 8l171 127c-40.667 8 -73.667 30.5 -99 67.5s-38 83.5 -38 139.5c0 48.667 10 101.167 30 157.5s47 109.5 81 159.5s77.333 91.5 130 124.5s108.334 49.5 167.001 49.5
c50 0 91 -19.167 123 -57.5s48 -89.166 48 -152.499c0 -48.667 -10 -101.167 -30 -157.5s-47 -109.5 -81 -159.5s-77.5 -91.5 -130.5 -124.5s-108.833 -49.5 -167.5 -49.5zM229.999 -2c42 0 82.667 15.167 122 45.5s72.666 68.333 99.999 114s51.333 94.334 72 146.001
s36 99.167 46 142.5s15 77.666 15 102.999c0 89.333 -41.333 134 -124 134c-42 0 -82.667 -15.167 -122 -45.5s-72.666 -68.333 -99.999 -114s-51.333 -94.334 -72 -146.001s-36 -99.167 -46 -142.5s-15 -77.666 -15 -102.999c0 -89.333 41.333 -134 124 -134z" />
    <glyph glyph-name="R" unicode="R" horiz-adv-x="591" 
d="M610 553c0 -64 -27.5 -118.667 -82.5 -164s-120.5 -68 -196.5 -68h-6c4 -18 9.83301 -30.667 17.5 -38s22.167 -11 43.5 -11l30 -175c6 -38 13.333 -62 22 -72s24 -15.667 46 -17h11v-8h-11c-14 0 -26 0.5 -36 1.5s-21.333 1.5 -34 1.5c-6.66699 0 -14.667 -0.5 -24 -1.5
s-16.333 -1.5 -21 -1.5l-54 321h-126l-101 -259c-4.66699 -10.667 -7 -20.667 -7 -30c0 -16 10.667 -24 32 -24h19v-8h-34c-6.66699 0 -16.667 0.5 -30 1.5s-25.333 1.5 -36 1.5c-9.33301 0 -21 -0.5 -35 -1.5s-24.333 -1.5 -31 -1.5h-28v8h11c19.333 0 34.333 4 45 12
s20 22.333 28 43l214 556c4.66699 10.667 7 20.667 7 30c0 16 -10.667 24 -32 24h-19v8h34c6.66699 0 16.667 -0.166992 30 -0.5s25.333 -0.5 36 -0.5c10 0 21.5 0.166992 34.5 0.5s22.833 0.5 29.5 0.5h114c43.333 0 77.5 -11.5 102.5 -34.5s37.5 -54.167 37.5 -93.5z
M323 672l-130.001 -342.001h129c36 0 68.5 7.33301 97.5 22s51.5 32.334 67.5 53.001s29.333 43.5 40 68.5s17.834 46.5 21.501 64.5s5.5 33 5.5 45c0 31.333 -5.83301 54 -17.5 68s-36.5 21 -74.5 21h-139z" />
    <glyph glyph-name="S" unicode="S" horiz-adv-x="512" 
d="M222 -10c-20.667 0 -48.167 5 -82.5 15s-54.5 15 -60.5 15c-17.333 0 -26 -10 -26 -30l-6 -1l-32 236l6 1c43.333 -152 110.333 -228 201 -228c46 0 82.667 12.833 110 38.5s41 61.5 41 107.5c0 48 -30.333 106 -91 174l-28 32c-47.333 53.333 -71 107 -71 161
c0 50 17.667 92.5 53 127.5s77 52.5 125 52.5c14.667 0 35.5 -3.16699 62.5 -9.5s43.167 -9.5 48.5 -9.5c16.667 0 24.334 10.333 23.001 31l6 1l41 -211l-6 -2c-38.667 128 -97 192 -175 192c-38 0 -69.5 -12 -94.5 -36s-37.5 -53.333 -37.5 -88
c0 -52 24.333 -105.667 73 -161l29 -33c21.333 -24 37.666 -43.5 48.999 -58.5s22 -33.333 32 -55s15 -42.5 15 -62.5c0 -56.667 -20.667 -104 -62 -142s-89 -57 -143 -57z" />
    <glyph glyph-name="T" unicode="T" horiz-adv-x="572" 
d="M286 0h-33.998c-6.66699 0 -16.667 0.5 -30 1.5s-25 1.5 -35 1.5s-22 -0.5 -36 -1.5s-24.333 -1.5 -31 -1.5h-28v8h11c19.333 0 34.166 3.83301 44.499 11.5s19.833 22.167 28.5 43.5l234 609h-82c-18.667 0 -33.167 -2.16699 -43.5 -6.5s-23.166 -15.5 -38.499 -33.5
l-150 -175l-5 4l145 251l5 -2c-6.66699 -19.333 -0.333984 -29 18.999 -29h100c4 0 16.167 -0.166992 36.5 -0.5s36.833 -0.5 49.5 -0.5c12 0 26.667 0.166992 44 0.5s28 0.5 32 0.5h93c26 0 40.667 10 44 30h6l-22 -252h-6c-8.66699 76.667 -17.334 134.667 -26.001 174
c-3.33301 16 -8 26.5 -14 31.5s-17.333 7.5 -34 7.5h-87l-234 -610c-4.66699 -10.667 -7 -20.667 -7 -30c0 -16 10.667 -24 32 -24h19v-8z" />
    <glyph glyph-name="U" unicode="U" horiz-adv-x="593" 
d="M216 -8c-51.333 0 -91.3301 11.6709 -119.997 35.0039s-43 55.666 -43 96.999c0 30.667 10 71.667 30 123l143 372c4.66699 12 7 22 7 30c0 16 -10.667 24 -32 24h-19v8h34c6.66699 0 16.667 -0.5 30 -1.5s25 -1.5 35 -1.5s22 0.5 36 1.5s24.333 1.5 31 1.5h28v-8h-10
c-20 0 -35.333 -3.83301 -46 -11.5s-20 -22.167 -28 -43.5l-142 -369c-22.667 -59.333 -34 -105.333 -34 -138s9.66699 -58.334 29 -77.001s47.666 -28 84.999 -28c52 0 99.333 18.667 142 56s78 91.666 106 162.999l125 321c12 31.333 18 56.333 18 75
c0 34 -16.333 51.333 -49 52h-9v8h34c3.33301 0 11.666 -0.5 24.999 -1.5s25 -1.5 35 -1.5c10.667 0 21.5 0.5 32.5 1.5s17.833 1.5 20.5 1.5h33v-8h-15c-26.667 0 -48.834 -11.833 -66.501 -35.5s-34.167 -54.834 -49.5 -93.501l-125 -323
c-58.667 -152.667 -149 -229 -271 -229z" />
    <glyph glyph-name="V" unicode="V" horiz-adv-x="574" 
d="M255 0c-5.33301 0 -11.001 0.333008 -17.001 1s-11 1 -15 1c-3.33301 0 -8.16602 -0.333008 -14.499 -1s-11.833 -1 -16.5 -1l8 616c0.666992 20 -3.33301 34.5 -12 43.5s-22.334 13.5 -41.001 13.5h-3v8h30c4 0 13.667 -0.5 29 -1.5s27.666 -1.5 36.999 -1.5
c10.667 0 24.334 0.5 41.001 1.5s26.667 1.5 30 1.5h20v-8h-12c-16 -0.666992 -29.333 -6.16699 -40 -16.5s-16.334 -24.5 -17.001 -42.5l-7 -523l340 468c22.667 30 34.334 53.667 35.001 71c0 28.667 -16 43 -48 43h-11v8h24c7.33301 0 19.333 -0.5 36 -1.5
s28.334 -1.5 35.001 -1.5c5.33301 0 17 0.5 35 1.5s29.333 1.5 34 1.5h19v-8h-7c-20.667 0 -42 -9.33301 -64 -28s-48.667 -49 -80 -91l-347 -476z" />
    <glyph glyph-name="W" unicode="W" horiz-adv-x="907" 
d="M601 0c-6 0 -11.9971 0.334961 -17.9971 1.00195s-10.667 1 -14 1c-4 0 -9.16699 -0.333008 -15.5 -1s-11.833 -1 -16.5 -1l19 521l-307 -443l-1 -78c-5.33301 0 -11 0.333008 -17 1s-11 1 -15 1s-9.16699 -0.333008 -15.5 -1s-11.833 -1 -16.5 -1l22 616
c2 38 -15.667 57 -53 57h-3v8h30c4 0 13.333 -0.5 28 -1.5s26.667 -1.5 36 -1.5c10.667 0 24.667 0.5 42 1.5s27.666 1.5 30.999 1.5h20v-8h-11c-16.667 -0.666992 -30.334 -5.83398 -41.001 -15.501s-16.334 -23.834 -17.001 -42.501l-20 -524l308 447l3 78
c2 38 -15.667 57 -53 57h-3v8h30c3.33301 0 12.666 -0.5 27.999 -1.5s27.666 -1.5 36.999 -1.5c11.333 0 25.5 0.5 42.5 1.5s26.833 1.5 29.5 1.5h20v-8h-11c-36.667 -1.33301 -56 -21 -58 -59l-20 -523l319 464c24.667 34 37.334 59 38.001 75c0 28.667 -16 43 -48 43h-11
v8h24c7.33301 0 19.333 -0.5 36 -1.5s28.334 -1.5 35.001 -1.5c5.33301 0 17 0.5 35 1.5s29.333 1.5 34 1.5h19v-8h-7c-41.333 0 -90.333 -41 -147 -123l-326 -472z" />
    <glyph glyph-name="X" unicode="X" horiz-adv-x="590" 
d="M487 0h-40.998c-3.33301 0 -11.5 0.5 -24.5 1.5s-24.833 1.5 -35.5 1.5c-10 0 -21.833 -0.5 -35.5 -1.5s-22.167 -1.5 -25.5 -1.5h-34v8h10c36 0 54 11.333 54 34c0 9.33301 -0.666992 18.333 -2 27l-47 247l-202 -194c-38.667 -36.667 -58 -64.667 -58 -84
c0 -8 2.83301 -15 8.5 -21s14.5 -9 26.5 -9h9v-8h-18c-6 0 -17.667 0.5 -35 1.5s-29.333 1.5 -36 1.5c-4 0 -15.167 -0.5 -33.5 -1.5s-29.833 -1.5 -34.5 -1.5h-25v8h9c16.667 0 36.167 6.66699 58.5 20s41.5 27 57.5 41s37.667 34 65 60l206 198l-57 300
c-3.33301 17.333 -9.5 29.333 -18.5 36s-22.5 10 -40.5 10h-9v8h41c2.66699 0 11 -0.5 25 -1.5s26.333 -1.5 37 -1.5s22.167 0.5 34.5 1.5s20.166 1.5 23.499 1.5h33v-8h-9c-36 0 -54 -11.333 -54 -34c0 -10 0.666992 -19 2 -27l46 -243l184 190l30.5 33
c6.33301 6.66699 12.5 15 18.5 25s9 18.667 9 26c0 8 -2.83301 15 -8.5 21s-14.5 9 -26.5 9h-9v8h18c6 0 17.667 -0.5 35 -1.5s29.333 -1.5 36 -1.5c4 0 15.167 0.5 33.5 1.5s29.833 1.5 34.5 1.5h25v-8h-9c-42 -0.666992 -102.333 -41 -181 -121l-188 -194l58 -304
c3.33301 -17.333 9.66602 -29.333 18.999 -36s23 -10 41 -10h9v-8z" />
    <glyph glyph-name="Y" unicode="Y" horiz-adv-x="561" 
d="M283 0l-33.999 0.000976562c-6 0 -15.667 0.5 -29 1.5s-25.333 1.5 -36 1.5c-10 0 -21.833 -0.5 -35.5 -1.5s-23.834 -1.5 -30.501 -1.5h-28v8h11c19.333 0 34.166 3.83301 44.499 11.5s19.833 22.167 28.5 43.5l100 261l-65 303c-4 17.333 -10.167 29.333 -18.5 36
s-21.166 10 -38.499 10h-10v8h42c2.66699 0 10.667 -0.5 24 -1.5s25.333 -1.5 36 -1.5s22.667 0.5 36 1.5s21.333 1.5 24 1.5h34v-8h-10c-36 0 -54 -11.333 -54 -34c0 -9.33301 1 -18.333 3 -27l59 -280l208 227l30.5 33c6.33301 6.66699 12.5 15 18.5 25s9 18.667 9 26
c0 20 -11.667 30 -35 30h-9v8h18c10.667 0 23.667 -0.5 39 -1.5s26 -1.5 32 -1.5c7.33301 0 19.5 0.5 36.5 1.5s27.5 1.5 31.5 1.5h25v-8h-8c-47.333 -0.666992 -108 -41.334 -182 -122.001l-213 -233l-98 -256c-4.66699 -13.333 -7 -23.333 -7 -30c0 -16 10.667 -24 32 -24
h19v-8z" />
    <glyph glyph-name="Z" unicode="Z" horiz-adv-x="557" 
d="M356 -32l-5 2.00098c6 20 -0.333008 30 -19 30h-390v4l643 669h-186c-21.333 0 -39.5 -3.83301 -54.5 -11.5s-33.833 -22.834 -56.5 -45.501l-138 -144l-5 4l146 237l5 -2c-5.33301 -20 1 -30 19 -30h355v-4l-644 -669h220c21.333 0 39.5 3.66699 54.5 11
s33.5 22 55.5 44c48 48 97.667 101 149 159l5 -4z" />
    <glyph glyph-name="bracketleft" unicode="[" horiz-adv-x="269" 
d="M-73 -173l346 899c34.667 -2 82.667 -3 144 -3v-8c-26 0 -53.833 -0.5 -83.5 -1.5s-47.167 -1.5 -52.5 -1.5c-3.33301 -26 -7 -49.333 -11 -70c-20.667 -112 -56.667 -234 -108 -366c-62 -161.333 -134 -306.333 -216 -435c7.33301 0 24.5 -0.5 51.5 -1.5
s53.5 -1.5 79.5 -1.5v-8c-63.333 0 -113.333 -1 -150 -3z" />
    <glyph glyph-name="backslash" unicode="\" horiz-adv-x="328" 
d="M141 -170l72 893h9l-72 -893h-9z" />
    <glyph glyph-name="bracketright" unicode="]" horiz-adv-x="269" 
d="M373 726l-345.999 -898.999c-34.667 2 -82.667 3 -144 3v8c26.667 0 55.167 0.5 85.5 1.5s47.166 1.5 50.499 1.5c7.33301 49.333 13.333 84.666 18 105.999c20.667 99.333 54.334 209.333 101.001 330c62 161.333 134 306.333 216 435c-1.33301 0 -16.833 0.5 -46.5 1.5
s-57.834 1.5 -84.501 1.5v8c63.333 0 113.333 1 150 3z" />
    <glyph glyph-name="asciicircum" unicode="^" horiz-adv-x="421" 
d="M402 321h-9l-8 367l-295 -374l-7 6l303 385l8 -1z" />
    <glyph glyph-name="underscore" unicode="_" horiz-adv-x="415" 
d="M284 -88h-380v9h380v-9z" />
    <glyph glyph-name="grave" unicode="`" horiz-adv-x="226" 
d="M330 540l-7 -1.99902c-7.33301 26.667 -19.5 56.667 -36.5 90s-25.5 55.666 -25.5 66.999c0 8 2.5 14.667 7.5 20s11.5 8 19.5 8c14.667 0 23.667 -7.66699 27 -23c2.66699 -12 4.5 -34.5 5.5 -67.5s4.16699 -63.833 9.5 -92.5z" />
    <glyph glyph-name="a" unicode="a" horiz-adv-x="502" 
d="M306 -8c-15.333 0 -26.999 4.5 -34.999 13.5s-12 19.833 -12 32.5c0 9.33301 1.5 19.333 4.5 30s7.66699 24 14 40s10.166 25.333 11.499 28l97 255l-179 -269c-30 -45.333 -55.833 -78.333 -77.5 -99s-43.5 -31 -65.5 -31c-16.667 0 -30.834 5.33301 -42.501 16
s-17.5 27.334 -17.5 50.001c0 28.667 8.16699 67.334 24.5 116.001s37.333 97.167 63 145.5s56.667 90.166 93 125.499s71.833 53 106.5 53c40 0 76.333 -25.333 109 -76c24.667 9.33301 42.667 19.166 54 29.499s22.333 25.833 33 46.5l6 -2l-143 -371
c-21.333 -56 -32 -87 -32 -93c0 -12 5.66699 -18 17 -18c19.333 0 57 37 113 111l6 -4c-63.333 -86 -112.666 -129 -147.999 -129zM95.001 14c20.667 0 56 37.666 106 112.999l193 289c-10.667 18.667 -24.5 35.334 -41.5 50.001s-33.5 22 -49.5 22
c-33.333 0 -68.833 -30 -106.5 -90s-67.667 -124.167 -90 -192.5s-33.5 -119.833 -33.5 -154.5c0 -24.667 7.33301 -37 22 -37z" />
    <glyph glyph-name="b" unicode="b" horiz-adv-x="461" 
d="M75 99l178.999 269c30 45.333 55.833 78.333 77.5 99s43.5 31 65.5 31c16.667 0 30.834 -5.33301 42.501 -16s17.5 -27.334 17.5 -50.001c0 -28.667 -8.16699 -67.334 -24.5 -116.001s-37.333 -97.167 -63 -145.5s-56.667 -90.166 -93 -125.499s-71.833 -53 -106.5 -53
c-40 0 -76.333 25.333 -109 76c-22.667 -9.33301 -40 -18.833 -52 -28.5s-23.667 -25.5 -35 -47.5l-6 2l244 632c5.33301 13.333 8 23 8 29c0 12.667 -12 19 -36 19h-34v7h15c23.333 0 41.833 0.5 55.5 1.5s30 4.83301 49 11.5s32.833 16.334 41.5 29.001l5 -2zM365.999 476
c-20.667 0 -56 -37.668 -106 -113.001l-193 -289c11.333 -19.333 25.333 -36.166 42 -50.499s33 -21.5 49 -21.5c33.333 0 68.833 30 106.5 90s67.667 124.167 90 192.5s33.5 119.833 33.5 154.5c0 24.667 -7.33301 37 -22 37z" />
    <glyph glyph-name="c" unicode="c" horiz-adv-x="400" 
d="M113 -8c-26.667 0 -49.3359 11.8301 -68.0029 35.4971s-28 53.834 -28 90.501c0 52.667 13.333 108.5 40 167.5s62.334 109.167 107.001 150.5s90.334 62 137.001 62c28 0 51 -11.333 69 -34s27 -47.667 27 -75c0 -39.333 -10.667 -59 -32 -59
c-7.33301 0 -13.333 2.5 -18 7.5s-7 11.167 -7 18.5c0 6 3 17.333 9 34s9 31.334 9 44.001c0 16.667 -5 30.334 -15 41.001s-23.667 16 -41 16c-34.667 0 -69.167 -19.667 -103.5 -59s-61.666 -86.5 -81.999 -141.5s-30.5 -106.167 -30.5 -153.5
c0 -71.333 20.667 -107 62 -107c48.667 0 106 42.667 172 128l5 -4c-78 -108 -148.667 -162 -212 -162z" />
    <glyph glyph-name="d" unicode="d" horiz-adv-x="499" 
d="M399 424l75.001 201.996c5.33301 13.333 8 23 8 29c0 12.667 -12 19 -36 19h-34v7h15c23.333 0 41.833 0.5 55.5 1.5s30 4.83301 49 11.5s32.833 16.334 41.5 29.001l5 -2l-230 -595c-1.33301 -4 -5.5 -14.167 -12.5 -30.5s-12.167 -29.666 -15.5 -39.999
s-5 -18.166 -5 -23.499c0 -12 5.66699 -18 17 -18c19.333 0 57 37 113 111l6 -4c-63.333 -86 -112.666 -129 -147.999 -129c-14.667 0 -26.167 4.33301 -34.5 13s-12.5 20 -12.5 34c0 6 1.16699 13.333 3.5 22s4.66602 16 6.99902 22l11 28c5 12.667 8.16699 21 9.5 25
l99 255l-179 -269c-30 -45.333 -55.833 -78.333 -77.5 -99s-43.5 -31 -65.5 -31c-16.667 0 -30.834 5.33301 -42.501 16s-17.5 27.334 -17.5 50.001c0 28.667 8.16699 67.334 24.5 116.001s37.333 97.167 63 145.5s56.667 90.166 93 125.499s71.833 53 106.5 53
c36.667 0 72.667 -24.667 108 -74zM95.001 13.9961c20.667 0 56 37.668 106 113.001l193 289c-11.333 19.333 -25.333 36.166 -42 50.499s-33 21.5 -49 21.5c-33.333 0 -68.833 -30 -106.5 -90s-67.667 -124.167 -90 -192.5s-33.5 -119.833 -33.5 -154.5
c0 -24.667 7.33301 -37 22 -37z" />
    <glyph glyph-name="e" unicode="e" horiz-adv-x="398" 
d="M116 -8c-28.667 0 -52.167 11.834 -70.5 35.501s-27.5 53.834 -27.5 90.501c0 55.333 14.333 112.666 43 171.999s66.167 108.833 112.5 148.5s92.833 59.5 139.5 59.5c28 0 51.167 -6 69.5 -18s27.5 -28 27.5 -48c0 -26 -17.167 -53 -51.5 -81s-75 -51 -122 -69
s-90.5 -29 -130.5 -33c-12.667 -42 -19 -80 -19 -114c0 -34.667 5.66699 -60.834 17 -78.501s27 -26.5 47 -26.5c48 0 104.667 42.667 170 128l5 -4c-78.667 -108 -148.667 -162 -210 -162zM353 451.001c0 26.667 -12.667 39.998 -38 39.998c-42 0 -82 -23.167 -120 -69.5
s-67 -101.166 -87 -164.499c66.667 6.66699 124.167 29.334 172.5 68.001s72.5 80.667 72.5 126z" />
    <glyph glyph-name="f" unicode="f" horiz-adv-x="263" 
d="M-259 -236c-10 0 -18.3311 2.5 -24.998 7.5s-10 11.5 -10 19.5c0 18 11.667 27 35 27c7.33301 0 21.666 -2.66699 42.999 -8s37.666 -8 48.999 -8c31.333 0 63.333 22 96 66s61.667 104.333 87 181l120 362c9.33301 27.333 18.666 51 27.999 71h-89v8h93
c33.333 65.333 76.666 116.5 129.999 153.5s109.333 55.5 168 55.5c10 0 18.333 -2.5 25 -7.5s10 -11.5 10 -19.5c0 -18 -11.667 -27 -35 -27c-7.33301 0 -21.666 2.66699 -42.999 8s-37.666 8 -48.999 8c-33.333 0 -59.333 -10.5 -78 -31.5s-41 -64.167 -67 -129.5l-4 -10
h123v-8h-126l-119 -359c-38 -113.333 -92.167 -201.5 -162.5 -264.5s-136.833 -94.5 -199.5 -94.5z" />
    <glyph glyph-name="g" unicode="g" horiz-adv-x="432" 
d="M111 -236c-28 0 -55 1.33008 -81 3.99707s-51.333 6.83398 -76 12.501s-44.5 14 -59.5 25s-22.5 23.833 -22.5 38.5c0 34 54.333 74.333 163 121l45 19l-34 16c-22 10.667 -39 21.167 -51 31.5s-18 23.166 -18 38.499c0 16.667 7.5 31.167 22.5 43.5
s40.5 25.166 76.5 38.499l32 12c-22 20 -33 52 -33 96c0 56.667 21.333 110.5 64 161.5s93 76.5 151 76.5c24.667 0 48.334 -10.667 71.001 -32l5 5c48.667 48.667 88 73 118 73c8.66699 0 16.167 -2.33301 22.5 -7s9.5 -11 9.5 -19s-3 -14.5 -9 -19.5
s-13.667 -7.5 -23 -7.5c-6.66699 0 -15.334 1.83301 -26.001 5.5s-20 5.5 -28 5.5c-14.667 0 -34 -12 -58 -36l-6 -6c16.667 -20.667 25 -50 25 -88c0 -57.333 -21.667 -111.166 -65 -161.499s-93.333 -75.5 -150 -75.5c-19.333 0 -40 8 -62 24l-35 -13
c-39.333 -14.667 -59 -30.334 -59 -47.001c0 -9.33301 4 -17.166 12 -23.499s22.333 -14.166 43 -23.499l148 -68c50 -23.333 84.667 -43.166 104 -59.499s29 -34.166 29 -53.499c0 -35.333 -22.167 -62 -66.5 -80s-103.833 -27 -178.5 -27zM111 -229.003
c65.333 0 114.333 6.83301 147 20.5s49 31.5 49 53.5c0 14.667 -8 27.834 -24 39.501s-45 27.167 -87 46.5l-106 49l-51 -22c-28.667 -12.667 -52.834 -28.334 -72.501 -47.001s-29.5 -39 -29.5 -61c0 -26.667 16.333 -46.5 49 -59.5s74.334 -19.5 125.001 -19.5z
M174 141.997c24 0 49.667 16.668 77 50.001s49.666 73.166 66.999 119.499s26 87.5 26 123.5c0 37.333 -17.333 56 -52 56c-24 0 -49.667 -16.667 -77 -50s-49.666 -72.833 -66.999 -118.5s-26 -86.167 -26 -121.5c0 -39.333 17.333 -59 52 -59z" />
    <glyph glyph-name="h" unicode="h" horiz-adv-x="498" 
d="M296 -8c-15.333 0 -27.0049 4.5 -35.0049 13.5s-12 19.833 -12 32.5c0 20.667 10.667 53 32 97l106 217c26.667 54.667 40 88.667 40 102c0 14.667 -6.33301 22 -19 22c-9.33301 0 -23 -9.66699 -41 -29s-47.667 -57.333 -89 -114l-243 -333
c-3.33301 -0 -8.66602 0.333008 -15.999 1s-12.666 1 -15.999 1s-8.83301 -0.333008 -16.5 -1s-13.167 -1 -16.5 -1l251 626c5.33301 13.333 8 23 8 29c0 12.667 -12 19 -36 19h-34v7h15c24 0 42.833 0.5 56.5 1.5s29.834 4.83301 48.501 11.5s32.334 16.334 41.001 29.001
l5 -2l-278 -692l225 309c46.667 63.333 80.667 105.833 102 127.5s43.666 32.5 66.999 32.5c14.667 0 25.834 -4.66699 33.501 -14s11.5 -20 11.5 -32c0 -22.667 -11.333 -57.334 -34 -104.001l-109 -223c-23.333 -46.667 -35 -77.667 -35 -93c0 -12 5.66699 -18 17 -18
c19.333 0 57 37 113 111l6 -4c-63.333 -86 -112.666 -129 -147.999 -129z" />
    <glyph glyph-name="i" unicode="i" horiz-adv-x="263" 
d="M280 596c-13.333 0 -24.333 4.33301 -33 13s-13 19.667 -13 33s4.33301 24.5 13 33.5s19.667 13.5 33 13.5s24.5 -4.5 33.5 -13.5s13.5 -20.167 13.5 -33.5s-4.5 -24.333 -13.5 -33s-20.167 -13 -33.5 -13zM216 354l-111 -229c-22.667 -45.333 -34 -76.333 -34 -93
c0 -12 5.66699 -18 17 -18c19.333 0 57 37 113 111l6 -4c-63.333 -86 -112.666 -129 -147.999 -129c-15.333 0 -27 4.5 -35 13.5s-12 19.833 -12 32.5c0 21.333 10.667 54 32 98l111 229c22.667 45.333 34 76.333 34 93c0 12 -5.66699 18 -17 18
c-19.333 0 -57 -37 -113 -111l-6 4c63.333 86 112.666 129 147.999 129c15.333 0 27 -4.5 35 -13.5s12 -19.833 12 -32.5c0 -21.333 -10.667 -54 -32 -98z" />
    <glyph glyph-name="j" unicode="j" horiz-adv-x="256" 
d="M-235 -236c-10 0 -18.334 2.5 -25.001 7.5s-10 11.5 -10 19.5c0 18 11.667 27 35 27c7.33301 0 21.666 -2.66699 42.999 -8s37.666 -8 48.999 -8c30.667 0 61.834 21.667 93.501 65s61.5 104 89.5 182l114 316c20.667 54.667 31 85.667 31 93c0 12 -5.66699 18 -17 18
c-20 0 -58 -37 -114 -111l-6 4c62.667 86 112.334 129 149.001 129c15.333 0 27.166 -4.5 35.499 -13.5s12.5 -19.833 12.5 -32.5c0 -15.333 -9.33301 -48 -28 -98l-90 -236c-43.333 -114 -98.666 -201.5 -165.999 -262.5s-132.666 -91.5 -195.999 -91.5zM274.999 596
c-13.333 0 -24.333 4.33301 -33 13s-13 19.667 -13 33s4.33301 24.5 13 33.5s19.667 13.5 33 13.5s24.5 -4.5 33.5 -13.5s13.5 -20.167 13.5 -33.5s-4.5 -24.333 -13.5 -33s-20.167 -13 -33.5 -13z" />
    <glyph glyph-name="k" unicode="k" horiz-adv-x="458" 
d="M281 -8c-18 0 -32.8359 5.49902 -44.5029 16.499s-17.5 27.5 -17.5 49.5c0 8 2.33301 30.667 7 68s7 60.666 7 69.999c0 25.333 -4.33301 43.5 -13 54.5s-28.667 16.5 -60 16.5h-18l-107 -267c-3.33301 0 -8.66602 0.333008 -15.999 1s-12.666 1 -15.999 1
s-8.83301 -0.333008 -16.5 -1s-13.167 -1 -16.5 -1l251 626c5.33301 13.333 8 23 8 29c0 12.667 -12 19 -36 19h-34v7h15c23.333 0 41.666 0.5 54.999 1.5s29.5 4.83301 48.5 11.5s32.833 16.334 41.5 29.001l5 -2l-179 -446h11c58 0 111.333 36.667 160 110
c26.667 40 50.834 68.833 72.501 86.5s47.167 26.5 76.5 26.5c9.33301 0 17.5 -2.16699 24.5 -6.5s10.5 -10.833 10.5 -19.5c0 -18 -10.333 -27 -31 -27c-8 0 -17.667 2 -29 6s-21.333 6 -30 6c-13.333 0 -26 -5.33301 -38 -16s-28 -31 -48 -61
c-42 -63.333 -86 -99.333 -132 -108c68 -4.66699 102 -29 102 -73c0 -13.333 -2.33301 -39.166 -7 -77.499s-7 -62.833 -7 -73.5c0 -23.333 7.33301 -35 22 -35c26.667 0 68 37.333 124 112l6 -4c-63.333 -86 -113.666 -129 -150.999 -129z" />
    <glyph glyph-name="l" unicode="l" horiz-adv-x="239" 
d="M39 -8c-15.333 0 -27.0029 4.49805 -35.0029 13.498s-12 19.833 -12 32.5c0 14 10 46.333 30 97l197 491c5.33301 13.333 8 23 8 29c0 12.667 -12 19 -36 19h-34v7h15c24 0 42.833 0.5 56.5 1.5s29.834 4.83301 48.501 11.5s32.334 16.334 41.001 29.001l5 -2l-239 -595
c-22 -53.333 -33 -84.666 -33 -93.999c0 -12 5.66699 -18 17 -18c19.333 0 57 37 113 111l6 -4c-63.333 -86 -112.666 -129 -147.999 -129z" />
    <glyph glyph-name="m" unicode="m" horiz-adv-x="776" 
d="M574 -8c-15.333 0 -27.0049 4.50195 -35.0049 13.502s-12 19.833 -12 32.5c0 20.667 10.667 53 32 97l106 217c26.667 54.667 40 88.667 40 102c0 14.667 -6.33301 22 -19 22c-19.333 0 -63 -48 -131 -144l-236 -332c-3.33301 0 -8.5 0.333008 -15.5 1s-12.167 1 -15.5 1
s-8.83301 -0.333008 -16.5 -1s-13.167 -1 -16.5 -1l159 352c26.667 58 40 92 40 102c0 14.667 -6.33301 22 -19 22c-20 0 -63.667 -48 -131 -144l-234 -332c-3.33301 0 -8.66602 0.333008 -15.999 1s-12.666 1 -15.999 1s-9 -0.333008 -17 -1s-13.667 -1 -17 -1l152 365
c22.667 54.667 34 85.667 34 93c0 12 -5.33301 18 -16 18c-21.333 0 -59.666 -37 -114.999 -111l-6 4c62.667 86 112.334 129 149.001 129c15.333 0 27 -4.5 35 -13.5s12 -19.833 12 -32.5c0 -18.667 -10 -51.334 -30 -98.001l-136 -323l215 306
c43.333 62 76.666 104.333 99.999 127s46.666 34 69.999 34c14.667 0 25.834 -4.66699 33.501 -14s11.5 -20 11.5 -32c0 -19.333 -11.333 -54 -34 -104l-144 -312l214 301c44 62 77.5 104.333 100.5 127s46.167 34 69.5 34c14.667 0 25.834 -4.66699 33.501 -14
s11.5 -20 11.5 -32c0 -22.667 -11.333 -57.334 -34 -104.001l-109 -223c-23.333 -46.667 -35 -77.667 -35 -93c0 -12 5.66699 -18 17 -18c19.333 0 57 37 113 111l6 -4c-63.333 -86 -112.666 -129 -147.999 -129z" />
    <glyph glyph-name="n" unicode="n" horiz-adv-x="533" 
d="M331 -8c-15.333 0 -27.0059 4.50195 -35.0059 13.502s-12 19.833 -12 32.5c0 20.667 10.667 53 32 97l106 217c26.667 54.667 40 88.667 40 102c0 14.667 -6.33301 22 -19 22c-9.33301 0 -23 -9.66699 -41 -29s-47.667 -57.333 -89 -114l-243 -333
c-3.33301 0 -8.83301 0.333008 -16.5 1s-13.167 1 -16.5 1s-8.83301 -0.333008 -16.5 -1s-13.167 -1 -16.5 -1l152 365c22.667 54.667 34 85.667 34 93c0 12 -5.33301 18 -16 18c-21.333 0 -59.666 -37 -114.999 -111l-6 4c62.667 86 112.334 129 149.001 129
c15.333 0 27 -4.5 35 -13.5s12 -19.833 12 -32.5c0 -18.667 -10 -51.334 -30 -98.001l-137 -324l225 308c46.667 63.333 80.834 105.833 102.501 127.5s43.834 32.5 66.501 32.5c14.667 0 25.834 -4.66699 33.501 -14s11.5 -20 11.5 -32
c0 -22.667 -11.333 -57.334 -34 -104.001l-109 -223c-23.333 -46.667 -35 -77.667 -35 -93c0 -12 5.66699 -18 17 -18c19.333 0 57 37 113 111l6 -4c-63.333 -86 -112.666 -129 -147.999 -129z" />
    <glyph glyph-name="o" unicode="o" horiz-adv-x="442" 
d="M129 -1c46.667 0 93.667 38 141 114c29.333 47.333 53.833 101 73.5 161s29.5 107.667 29.5 143c0 49.333 -20 74 -60 74c-46.667 0 -93.667 -38 -141 -114c-29.333 -47.333 -53.833 -101 -73.5 -161s-29.5 -107.667 -29.5 -143c0 -49.333 20 -74 60 -74zM129 -8
c-26.667 0 -51.834 12.333 -75.501 37s-35.5 59.667 -35.5 105c0 30 7 65.167 21 105.5s33 80 57 119s55.333 72 94 99s79.667 40.5 123 40.5c26.667 0 51.834 -12.333 75.501 -37s35.5 -59.667 35.5 -105c0 -30 -7 -65.167 -21 -105.5s-33 -80 -57 -119
s-55.333 -72 -94 -99s-79.667 -40.5 -123 -40.5z" />
    <glyph glyph-name="p" unicode="p" horiz-adv-x="426" 
d="M68 -226l-42.998 -0.00195312c-10.667 0 -24 0.5 -40 1.5s-31 1.5 -45 1.5c-12.667 0 -27 -0.5 -43 -1.5s-28 -1.5 -36 -1.5h-15v7h16c16 0 28.833 3.33301 38.5 10s18.5 19.334 26.5 38.001l254 634c-40.667 -16.667 -83.334 -48 -128.001 -94l-5 5
c40 44 86 78.333 138 103l38 95c3.33301 0 8.33301 -0.333008 15 -1s11.667 -1 15 -1s8.16602 0.333008 14.499 1s11.166 1 14.499 1l-33 -81c46 4.66699 83.667 -6.66602 113 -33.999s44 -62 44 -104c0 -40.667 -11.667 -81.667 -35 -123s-52.666 -77.666 -87.999 -108.999
s-73 -58.333 -113 -81s-77.667 -38.334 -113 -47.001l-65 -160c-5.33301 -12 -8 -21.667 -8 -29c0 -15.333 13.667 -23 41 -23h42v-7zM344.002 349.998c0 38 -8.66699 68.333 -26 91s-42 34.334 -74 35.001l-182 -474c76 22 142 66.167 198 132.5s84 138.166 84 215.499z
" />
    <glyph glyph-name="q" unicode="q" horiz-adv-x="459" 
d="M265 -226l-9.99902 -0.00195312c-9.33301 0 -20.833 0.5 -34.5 1.5s-26.834 1.5 -39.501 1.5s-27 -0.5 -43 -1.5s-28 -1.5 -36 -1.5h-43v7h44c16 0 28.833 3.33301 38.5 10s18.5 19.334 26.5 38.001l218 562l-179 -269c-29.333 -44.667 -55 -77.5 -77 -98.5
s-44 -31.5 -66 -31.5c-16.667 0 -30.834 5.33301 -42.501 16s-17.5 27.334 -17.5 50.001c0 28.667 8.16699 67.334 24.5 116.001s37.333 97.167 63 145.5s56.667 90.166 93 125.499s71.833 53 106.5 53c40 0 76.333 -25.333 109 -76c24 9.33301 41.833 19 53.5 29
s22.834 25.667 33.501 47l6 -2l-260 -663c-5.33301 -12 -8 -21.667 -8 -29c0 -15.333 10.333 -23 31 -23h9v-7zM95.001 13.998c20.667 0 56 37.668 106 113.001l193 289c-11.333 19.333 -25.333 36.166 -42 50.499s-33 21.5 -49 21.5c-33.333 0 -68.833 -30 -106.5 -90
s-67.667 -124.167 -90 -192.5s-33.5 -119.833 -33.5 -154.5c0 -24.667 7.33301 -37 22 -37z" />
    <glyph glyph-name="r" unicode="r" horiz-adv-x="385" 
d="M80 0c-3.33301 0 -8.83496 0.331055 -16.502 0.998047s-13.167 1 -16.5 1s-8.83301 -0.333008 -16.5 -1s-13.167 -1 -16.5 -1l140 365c20.667 54.667 31 85.667 31 93c0 12 -5.33301 18 -16 18c-21.333 0 -59.666 -37 -114.999 -111l-6 4
c62.667 86 112.334 129 149.001 129c15.333 0 27 -4.5 35 -13.5s12 -19.833 12 -32.5c0 -19.333 -9 -52 -27 -98l-120 -312l134 238c28.667 52 61.667 101.333 99 148s67 70 89 70c8.66699 0 15.5 -2.66699 20.5 -8s7.5 -11.666 7.5 -18.999c0 -14.667 -14 -26.667 -42 -36
c-62.667 -19.333 -118.667 -72.666 -168 -159.999z" />
    <glyph glyph-name="s" unicode="s" horiz-adv-x="362" 
d="M121 -8c-43.333 0 -78 11.3311 -104 33.998s-39 48.667 -39 78c0 8 2.66699 14.5 8 19.5s11.333 7.5 18 7.5c14.667 0 24 -10.333 28 -31c6.66699 -36.667 17 -62.667 31 -78s35 -23 63 -23c30 0 55 10.333 75 31s30 43.334 30 68.001c0 34.667 -15.667 71 -47 109
l-31 38c-36 44.667 -54 82.334 -54 113.001c0 41.333 14 75 42 101s59.333 39 94 39c33.333 0 62.833 -9.16699 88.5 -27.5s38.5 -37.5 38.5 -57.5c0 -7.33301 -2.66699 -13.5 -8 -18.5s-11.333 -7.5 -18 -7.5c-16 0 -26 10.333 -30 31
c-4.66699 25.333 -12.667 43.833 -24 55.5s-27.666 17.5 -48.999 17.5c-24 0 -44.833 -7.66699 -62.5 -23s-26.5 -36.666 -26.5 -63.999c0 -30.667 18.667 -69.334 56 -116.001l35 -42c28 -33.333 42 -68.333 42 -105c0 -43.333 -15.833 -79 -47.5 -107
s-67.834 -42 -108.501 -42z" />
    <glyph glyph-name="t" unicode="t" horiz-adv-x="269" 
d="M51 -8c-15.333 0 -27.001 4.5 -35.001 13.5s-12 19.833 -12 32.5c0 18 10.333 52 31 102l137 342h-69v8h72l25 64c42 10 72.333 35.333 91 76l5 -2l-56 -138h107v-8h-110l-141 -355c-22 -53.333 -33 -85 -33 -95c0 -12 5.66699 -18 17 -18c19.333 0 57 37 113 111l6 -4
c-63.333 -86 -112.666 -129 -147.999 -129z" />
    <glyph glyph-name="u" unicode="u" horiz-adv-x="529" 
d="M327 -8c-15.333 0 -26.9961 4.49707 -34.9961 13.4971s-12 19.833 -12 32.5c0 18.667 10 51.334 30 98.001l137 324l-220 -307c-44 -62 -77.667 -104.333 -101 -127s-46.333 -34 -69 -34c-14.667 0 -25.834 4.66699 -33.501 14s-11.5 20 -11.5 32
c0 22.667 11.333 57.334 34 104.001l109 223c23.333 46.667 35 77.667 35 93c0 12 -5.33301 18 -16 18c-20 0 -58 -37 -114 -111l-6 4c63.333 86 112.666 129 147.999 129c15.333 0 27 -4.5 35 -13.5s12 -19.833 12 -32.5c0 -20.667 -10.667 -53 -32 -97l-104 -212
c-28 -57.333 -42 -93.666 -42 -108.999c0 -13.333 5.66699 -20 17 -20c20 0 64.333 48 133 144l238 332c3.33301 0 8.83301 -0.333008 16.5 -1s13.167 -1 16.5 -1s8.83301 0.333008 16.5 1s13.167 1 16.5 1l-152 -365c-22.667 -54.667 -34 -85.667 -34 -93
c0 -12 5.33301 -18 16 -18c21.333 0 59.666 37 114.999 111l6 -4c-62.667 -86 -112.334 -129 -149.001 -129z" />
    <glyph glyph-name="v" unicode="v" horiz-adv-x="443" 
d="M108 -9c-21.333 0 -38.0039 5.33398 -50.0039 16.001s-18 25.334 -18 44.001c0 22 7.33301 48.833 22 80.5s29.667 59 45 82s35.166 51 59.499 84s38.5 52.5 42.5 58.5l49 73c-8 -6.66699 -21 -10 -39 -10c-11.333 0 -29.166 4 -53.499 12s-40.166 12 -47.499 12
c-11.333 0 -20 -3.5 -26 -10.5s-9 -14.833 -9 -23.5c0 -8 2.5 -19.5 7.5 -34.5s7.5 -25.833 7.5 -32.5c0 -9.33301 -2.66699 -16.333 -8 -21s-11.666 -7 -18.999 -7c-17.333 0 -26 10 -26 30c0 23.333 12 51 36 83c30.667 42.667 58 64 82 64c8 0 23.667 -3.5 47 -10.5
s42.333 -10.5 57 -10.5c8 0 13.833 1.66699 17.5 5s9.83398 11 18.501 23l5 -3l-93 -144c-68 -106.667 -102 -193.334 -102 -260.001c0 -16 4.66699 -29 14 -39s21 -15 35 -15c51.333 0 100.333 29.667 147 89c24.667 30.667 46.334 66 65.001 106s28 76.333 28 109
c0 26 -3.5 51.333 -10.5 76s-10.5 40.667 -10.5 48c0 10 2.5 18 7.5 24s11.5 9 19.5 9c20.667 0 31 -22 31 -66c0 -44.667 -11.833 -96.334 -35.5 -155.001s-53.167 -110.667 -88.5 -156c-32.667 -41.333 -67.5 -73.333 -104.5 -96s-71.167 -34 -102.5 -34z" />
    <glyph glyph-name="w" unicode="w" horiz-adv-x="644" 
d="M322 -9c-38 0 -58.6709 25.001 -62.0039 75.001c-22 -22 -47.333 -40 -76 -54s-55 -21 -79 -21c-18 0 -33.333 5 -46 15s-19 25 -19 45c0 22 7.33301 48.833 22 80.5s30.167 59.5 46.5 83.5l61 86c24.333 33.333 39.5 54.666 45.5 63.999l42 63
c-7.33301 -6 -20.333 -9 -39 -9c-11.333 0 -29 4 -53 12s-39.667 12 -47 12c-11.333 0 -20 -3.5 -26 -10.5s-9 -14.833 -9 -23.5c0 -8 2.33301 -18.833 7 -32.5s7 -23.834 7 -30.501c0 -10 -2.5 -17.833 -7.5 -23.5s-11.167 -8.5 -18.5 -8.5c-17.333 0 -26 11 -26 33
c0 22.667 13.667 51.667 41 87c29.333 38 55 57 77 57c8 0 23.667 -3.5 47 -10.5s42.333 -10.5 57 -10.5c4 0 7.33301 0.333008 10 1s5.33398 2 8.00098 4s4.5 3.5 5.5 4.5s3 4 6 9s5.16699 8.16699 6.5 9.5l5 -3l-86 -133c-72.667 -114.667 -109 -205.334 -109 -272.001
c0 -16 4.66699 -28.833 14 -38.5s21 -14.5 35 -14.5c34.667 0 67 13 97 39c2 45.333 13.833 100.666 35.5 165.999s47.834 123 78.501 173s57.667 75 81 75c16.667 0 25 -11.667 25 -35c0 -37.333 -15.167 -89.166 -45.5 -155.499s-70.166 -126.5 -119.499 -180.5
c2.66699 -31.333 8.5 -53.166 17.5 -65.499s22.5 -18.5 40.5 -18.5c30.667 0 64.5 17.333 101.5 52s67.833 76.167 92.5 124.5s37 90.833 37 127.5c0 26.667 -3.5 52.334 -10.5 77.001s-10.5 40.667 -10.5 48c0 22.667 9 34 27 34c20.667 0 31 -22 31 -66
c0 -58.667 -16.5 -122.5 -49.5 -191.5s-74.667 -127.667 -125 -176s-98.166 -72.833 -143.499 -73.5zM437.996 418.001c0 20 -6.33301 29.999 -19 29.999c-21.333 0 -44.333 -32.667 -69 -98s-37 -137.333 -37 -216v-6c40 44.667 70.833 92.834 92.5 144.501
s32.5 100.167 32.5 145.5z" />
    <glyph glyph-name="x" unicode="x" horiz-adv-x="476" 
d="M245 -8c-21.333 0 -37.6699 6.33105 -49.0029 18.998s-17 29.334 -17 50.001c0 18 4.33301 49.667 13 95c-22 -48.667 -49.833 -88.167 -83.5 -118.5s-64.167 -45.5 -91.5 -45.5c-20.667 0 -36.667 4.83301 -48 14.5s-17 22.834 -17 39.501c0 14 3 27.167 9 39.5
s16.167 25.166 30.5 38.499s25.833 23.333 34.5 30s23.667 17.334 45 32.001l3 -5c-24 -18 -42 -39.5 -54 -64.5s-18 -47.167 -18 -66.5c0 -29.333 10.667 -44 32 -44c25.333 0 56.833 21.667 94.5 65s64.167 95.333 79.5 156l10 39c6 24 12 53.667 18 89s9 59 9 71
c0 32.667 -11.333 49 -34 49c-17.333 0 -38.666 -14.833 -63.999 -44.5s-48.666 -63.167 -69.999 -100.5l-6 4c61.333 108.667 118.666 163 171.999 163c18.667 0 33.5 -6.33301 44.5 -19s16.5 -30 16.5 -52c0 -25.333 -4.33301 -56.333 -13 -93
c22 50 48.167 89.833 78.5 119.5s59.5 44.5 87.5 44.5c17.333 0 31.333 -4.33301 42 -13s16 -21 16 -37c0 -24 -8.66699 -45.333 -26 -64s-43.666 -40.667 -78.999 -66l-3 5c20 14 35.333 32.333 46 55s16 42.667 16 60c0 30.667 -11 46 -33 46s-50.333 -22 -85 -66
s-60 -95.333 -76 -154l-10 -37c-4.66699 -18.667 -10 -47 -16 -85s-9 -63.667 -9 -77c0 -33.333 12.333 -50 37 -50c20 0 42.667 15.167 68 45.5s48.333 62.833 69 97.5l6 -4c-11.333 -19.333 -21.333 -35.5 -30 -48.5s-21.167 -29.5 -37.5 -49.5
s-33.666 -35.5 -51.999 -46.5s-36.833 -16.5 -55.5 -16.5z" />
    <glyph glyph-name="y" unicode="y" horiz-adv-x="428" 
d="M190 0c-3.33301 0 -8.33398 0.332031 -15.001 0.999023s-11.667 1 -15 1c-2.66699 0 -6.33398 -0.333008 -11.001 -1s-8 -1 -10 -1l-21 -22c-55.333 -58.667 -114.666 -109 -177.999 -151s-119.333 -63 -168 -63c-28 0 -42 9 -42 27s11.667 27 35 27
c7.33301 0 19.833 -3 37.5 -9s34.5 -9 50.5 -9c24 0 61.333 18.667 112 56s99.667 80 147 128l17 18c16 128 24 247.333 24 358c0 18.667 -0.166992 32.667 -0.5 42s-1.33301 20 -3 32s-4.83398 20.5 -9.50098 25.5s-10.667 7.5 -18 7.5
c-9.33301 0 -20.833 -8.83301 -34.5 -26.5s-33.5 -47.5 -59.5 -89.5l-6 4l33 53c8.66699 13.333 19.334 27.833 32.001 43.5s24.834 27.334 36.501 35.001s23.167 11.5 34.5 11.5c13.333 0 24 -3.66699 32 -11s13.667 -18.333 17 -33s5.5 -28 6.5 -40s1.5 -27.333 1.5 -46
c0 -86 -5.66699 -183 -17 -291c76.667 88 128.667 154.833 156 200.5s41 88.167 41 127.5c0 4 -0.833008 13.167 -2.5 27.5s-2.5 23.833 -2.5 28.5c0 10.667 2.5 19.5 7.5 26.5s11.833 10.5 20.5 10.5c18.667 0 28 -10.333 28 -31c0 -34.667 -19.5 -86 -58.5 -154
s-102.5 -151 -190.5 -249z" />
    <glyph glyph-name="z" unicode="z" horiz-adv-x="401" 
d="M253 -7c-21.333 0 -46.4971 9.33594 -75.4971 28.0029s-56.167 37.334 -81.5 56.001s-45 28 -59 28c-10.667 0 -19 -3.83301 -25 -11.5s-9 -16.5 -9 -26.5c0 -8 0.166992 -15.333 0.5 -22s0.5 -13 0.5 -19c0 -8.66699 -2.33301 -16.334 -7 -23.001
s-11.334 -10 -20.001 -10c-18 0 -27 9 -27 27c0 10 4 20.667 12 32s16 20.666 24 27.999s20 17.333 36 30l332 268c-19.333 0 -50.333 8.83301 -93 26.5s-77 26.5 -103 26.5c-15.333 0 -27.333 -4.33301 -36 -13s-13 -20.667 -13 -36c0 -24.667 9.66699 -50 29 -76l-6 -4
c-24 34 -36 68.667 -36 104c0 24 6.16699 45.167 18.5 63.5s30.166 27.5 53.499 27.5c19.333 0 41 -9.33301 65 -28s46.667 -37.334 68 -56.001s38.666 -28 51.999 -28c10.667 0 19.167 3.66699 25.5 11s9.5 16 9.5 26c0 8 -0.166992 15.333 -0.5 22s-0.5 13 -0.5 19
c0 10 2.5 18.167 7.5 24.5s11.833 9.5 20.5 9.5c17.333 0 26 -9.33301 26 -28c0 -9.33301 -4.33301 -20 -13 -32s-16.667 -21.333 -24 -28s-19 -16.334 -35 -29.001l-332 -268c26 0 62.667 -8.83301 110 -26.5s84.333 -26.5 111 -26.5c18 0 31.667 4.5 41 13.5
s14 20.5 14 34.5c0 25.333 -9.66699 51 -29 77l6 4c24 -33.333 36 -68.333 36 -105c0 -28 -6.83301 -50 -20.5 -66s-31.167 -24 -52.5 -24z" />
    <glyph glyph-name="braceleft" unicode="{" horiz-adv-x="279" 
d="M48 -62c-8 -21.333 -12.0029 -37.666 -12.0029 -48.999c0 -14 4.5 -25 13.5 -33s24.5 -15.667 46.5 -23l-2 -7c-65.333 20 -98 49 -98 87c0 18.667 5.33301 42 16 70c8.66699 22.667 22.334 54.5 41.001 95.5s30 66.5 34 76.5c12.667 33.333 19 57.666 19 72.999
c0 26.667 -16.333 41 -49 43v7c32 1.33301 56.5 11.5 73.5 30.5s33.167 47.833 48.5 86.5c4.66699 11.333 13.334 37.5 26.001 78.5s23 72.167 31 93.5c18.667 49.333 42.334 84.333 71.001 105s71.667 38 129 52l1 -7c-40 -10 -68.667 -22 -86 -36s-32.333 -37 -45 -69
c-5.33301 -14 -16.5 -47.5 -33.5 -100.5s-28.5 -87.167 -34.5 -102.5c-16.667 -42.667 -36.5 -75.667 -59.5 -99s-56.167 -35.333 -99.5 -36c21.333 -3.33301 38.666 -10.5 51.999 -21.5s20 -25.167 20 -42.5c0 -18 -5.33301 -41 -16 -69
c-5.33301 -13.333 -19.666 -46.833 -42.999 -100.5z" />
    <glyph glyph-name="bar" unicode="|" horiz-adv-x="205" 
d="M-67 -218l-8 3l379 987l8 -3z" />
    <glyph glyph-name="braceright" unicode="}" horiz-adv-x="279" 
d="M263 612c8 21.333 12.0029 37.666 12.0029 48.999c0 14 -4.5 25 -13.5 33s-24.5 15.667 -46.5 23l2 7c65.333 -20 98 -49 98 -87c0 -18.667 -5.33301 -42 -16 -70c-8.66699 -22.667 -22.334 -54.5 -41.001 -95.5s-30 -66.5 -34 -76.5
c-12.667 -33.333 -19 -57.666 -19 -72.999c0 -26.667 16.333 -41 49 -43v-7c-32 -1.33301 -56.5 -11.5 -73.5 -30.5s-33.167 -47.833 -48.5 -86.5c-4.66699 -11.333 -13.334 -37.5 -26.001 -78.5s-23 -72.167 -31 -93.5c-18.667 -49.333 -42.334 -84.333 -71.001 -105
s-71.667 -38 -129 -52l-1 7c40 10 68.667 22 86 36s32.333 37 45 69c5.33301 14 16.5 47.5 33.5 100.5s28.5 87.167 34.5 102.5c16.667 42.667 36.5 75.667 59.5 99s56.167 35.333 99.5 36c-21.333 3.33301 -38.666 10.5 -51.999 21.5s-20 25.167 -20 42.5
c0 18 5.33301 41 16 69c5.33301 13.333 19.666 46.833 42.999 100.5z" />
    <glyph glyph-name="asciitilde" unicode="~" horiz-adv-x="494" 
d="M387 292c40 0 72.667 19.333 98 58l8 -5c-9.33301 -16 -23.333 -30.333 -42 -43s-40 -19 -64 -19c-26 0 -62.5 10.333 -109.5 31s-82.833 31 -107.5 31c-40 0 -73 -19.667 -99 -59l-8 5c10 16 24.333 30.5 43 43.5s40 19.5 64 19.5c26 0 62.5 -10.333 109.5 -31
s82.833 -31 107.5 -31z" />
    <glyph glyph-name="uni00A0" unicode="&#xa0;" horiz-adv-x="165" 
 />
    <glyph glyph-name="exclamdown" unicode="&#xa1;" horiz-adv-x="245" 
d="M130 284l8 -3l-15 -38c-14 -36 -32.333 -92.667 -55 -170c-34.667 -124 -59 -206 -73 -246c-6 -16.667 -17 -25 -33 -25c-8.66699 0 -16.5 2.83301 -23.5 8.5s-10.5 13.5 -10.5 23.5c0 6 2.33301 15.5 7 28.5s11.5 29 20.5 48l26 54.5l30 60.5l26.5 53.5
c34 68 59.667 123.667 77 167zM196 498c14 0 26.167 -5 36.5 -15s15.5 -22.333 15.5 -37s-5.16699 -27 -15.5 -37s-22.5 -15 -36.5 -15s-26.167 5 -36.5 15s-15.5 22.333 -15.5 37s5.16699 27 15.5 37s22.5 15 36.5 15z" />
    <glyph glyph-name="cent" unicode="&#xa2;" horiz-adv-x="466" 
d="M145 -8c-27.333 0 -50.335 7.33301 -69.002 22l-107 -157l-7 5l108 158c-21.333 20 -32 49.333 -32 88c0 53.333 14.333 110.166 43 170.499s67.334 112 116.001 155s98.334 64.5 149.001 64.5c14 0 28.333 -3.33301 43 -10l99 145l7 -5l-98 -144
c17.333 -10 31 -23.667 41 -41s15 -35.333 15 -54c0 -39.333 -10.667 -59 -32 -59c-7.33301 0 -13.333 2.5 -18 7.5s-7 11.167 -7 18.5c0 6 3 17.333 9 34s9 31.334 9 44.001c0 18 -7.33301 32.333 -22 43l-277 -406c12 -28.667 34.333 -43 67 -43
c53.333 0 117.333 43.333 192 130l5 -4c-90.667 -108 -168.667 -162 -234 -162zM106.998 116c0 -14.667 1.33301 -26.333 4 -35l274 401c-13.333 6 -26 9 -38 9c-41.333 0 -81 -21.667 -119 -65s-67.667 -93.833 -89 -151.5s-32 -110.5 -32 -158.5z" />
    <glyph glyph-name="sterling" unicode="&#xa3;" horiz-adv-x="543" 
d="M428 683c-55.333 0 -95.334 -25.5 -120.001 -76.5s-37 -135.833 -37 -254.5c0 -8 -0.666992 -18.667 -2 -32h159v-9h-159c-2 -20 -5.66699 -41.667 -11 -65c-13.333 -59.333 -35.666 -110 -66.999 -152c73.333 -30 125.666 -45 156.999 -45c35.333 0 62 14 80 42
s27 61.667 27 101c0 13.333 -1 28 -3 44l8 1c2 -20 3 -35 3 -45c0 -51.333 -12.667 -97.5 -38 -138.5s-62.333 -61.5 -111 -61.5c-16 0 -33.5 4.33301 -52.5 13s-33.667 16.334 -44 23.001s-27.166 18.667 -50.499 36c-44.667 -48.667 -92.667 -73 -144 -73
c-22.667 0 -41 6.16699 -55 18.5s-21 26.5 -21 42.5c0 25.333 10.167 45.166 30.5 59.499s45.166 21.5 74.499 21.5c30.667 0 72.334 -11 125.001 -33c24.667 43.333 37 89.333 37 138c0 12.667 -0.666992 37 -2 73h-119v9h118c-2.66699 58.667 -4 99.667 -4 123
c0 77.333 20.5 138 61.5 182s94.167 66 159.5 66c40.667 0 77 -14.833 109 -44.5s48 -62.167 48 -97.5c0 -26.667 -11 -40 -33 -40c-8.66699 0 -15.667 3 -21 9s-8 13 -8 21c0 6 0.5 15 1.5 27s1.5 20.667 1.5 26c0 26 -8.33301 47.667 -25 65s-41 26 -73 26zM22.999 -1
c52 0 96.667 23.666 134 70.999c-48 34 -87.333 51 -118 51c-22 0 -41.333 -6.16699 -58 -18.5s-25 -29.166 -25 -50.499c0 -14 6.16699 -26.333 18.5 -37s28.5 -16 48.5 -16z" />
    <glyph glyph-name="currency" unicode="&#xa4;" horiz-adv-x="700" 
d="M552 514l112.999 113l7 -7l-113 -112c42.667 -44 64 -99.333 64 -166c0 -68 -21.333 -123.333 -64 -166l111 -112l-7 -7l-112 112c-43.333 -39.333 -98.666 -59 -165.999 -59c-68 0 -123.667 19.667 -167 59l-111 -110l-7 7l111 110c-42 42 -63 97.333 -63 166
c0 69.333 21.667 125 65 167l-111 113l7 7l112 -113c43.333 39.333 98 59 164 59c67.333 0 123 -20.333 167 -61zM384.999 119c66 0 120.499 20.167 163.499 60.5s64.5 94.5 64.5 162.5c0 67.333 -21.667 121.5 -65 162.5s-97.666 61.5 -162.999 61.5
s-119.5 -20.5 -162.5 -61.5s-64.5 -95.167 -64.5 -162.5c0 -68 21.5 -122.167 64.5 -162.5s97.167 -60.5 162.5 -60.5z" />
    <glyph glyph-name="yen" unicode="&#xa5;" horiz-adv-x="557" 
d="M117 262l-0.00488281 9h140l20 53l-45 303c-4 17.333 -10.167 29.333 -18.5 36s-21.166 10 -38.499 10h-10v8h42c2.66699 0 10.834 -0.5 24.501 -1.5s25.834 -1.5 36.501 -1.5s22.834 0.5 36.501 1.5s21.834 1.5 24.501 1.5h34v-8h-10c-36 0 -54 -11.333 -54 -34
c0 -4.66699 1 -13.667 3 -27l37 -281l188 227l17 20l17 20c3.33301 4 7.33301 9.16699 12 15.5s7.83398 11.833 9.50098 16.5s2.5 9 2.5 13c0 20 -11.667 30 -35 30h-9v8h15c10.667 0 24.334 -0.5 41.001 -1.5s28 -1.5 34 -1.5c4 0 15 0.5 33 1.5s29.333 1.5 34 1.5h25v-8
h-8c-55.333 -1.33301 -116 -42 -182 -122l-193 -233l-18 -47h137v-9h-141l-36 -95h137v-9h-141l-36 -96c-4.66699 -13.333 -7 -23.333 -7 -30c0 -16 10.667 -24 32 -24h19v-8h-34c-6.66699 0 -16.667 0.5 -30 1.5s-25 1.5 -35 1.5s-21.833 -0.5 -35.5 -1.5
s-23.834 -1.5 -30.501 -1.5h-28v8h11c19.333 0 34.166 3.83301 44.499 11.5s19.833 22.167 28.5 43.5l36 95h-136v9h140l36 95h-136z" />
    <glyph glyph-name="brokenbar" unicode="&#xa6;" horiz-adv-x="205" 
d="M148 342l-8 3l164 427l8 -3zM-68 -220l-8 3l164 427l8 -3z" />
    <glyph glyph-name="section" unicode="&#xa7;" horiz-adv-x="474" 
d="M369 174c0 -34 -12.166 -68.001 -36.499 -102.001s-55.166 -62 -92.499 -84c-21.333 -41.333 -53.333 -75.333 -96 -102s-87.334 -40 -134.001 -40c-39.333 0 -59 12 -59 36c0 8.66699 3 16 9 22s14 9 24 9c8.66699 0 23.5 -5 44.5 -15s41.5 -15 61.5 -15
c33.333 0 62.5 12.833 87.5 38.5s37.5 55.834 37.5 90.501c0 30 -7.33301 64 -22 102l-57 147c-16 40.667 -24 74 -24 100c0 34 12.167 68 36.5 102s55.166 62 92.499 84c20.667 41.333 52.5 75.333 95.5 102s87.833 40 134.5 40c39.333 0 59 -12 59 -36
c0 -8.66699 -3 -16 -9 -22s-14 -9 -24 -9c-8.66699 0 -23.5 5 -44.5 15s-41.5 15 -61.5 15c-33.333 0 -62.5 -12.833 -87.5 -38.5s-37.5 -55.834 -37.5 -90.501c0 -30 7.33301 -64 22 -102l57 -147c16 -41.333 24 -74.666 24 -99.999zM219.001 459.999
c0 24.667 5.33301 49.667 16 75c-51.333 -36 -77 -75 -77 -117c0 -26 8.33301 -61 25 -105l60 -155c12.667 -31.333 19 -59 19 -83c0 -25.333 -5.33301 -50.333 -16 -75c51.333 35.333 77 74.333 77 117c0 26 -8.33301 61 -25 105l-60 155c-12.667 31.333 -19 59 -19 83z
" />
    <glyph glyph-name="dieresis" unicode="&#xa8;" horiz-adv-x="377" 
d="M255 586c-12 0 -22 3.83203 -30 11.499s-12 17.834 -12 30.501s4 23 12 31s18 12 30 12s22.167 -4 30.5 -12s12.5 -18.333 12.5 -31c0 -12 -4.16699 -22 -12.5 -30s-18.5 -12 -30.5 -12zM425 585.999c-12 0 -22 3.83203 -30 11.499s-12 17.834 -12 30.501s4 23 12 31
s18 12 30 12s22.167 -4 30.5 -12s12.5 -18.333 12.5 -31c0 -12 -4.16699 -22 -12.5 -30s-18.5 -12 -30.5 -12z" />
    <glyph glyph-name="copyright" unicode="&#xa9;" horiz-adv-x="769" 
d="M70 340c0 104 33.167 188.167 99.5 252.5s148.5 96.5 246.5 96.5c97.333 0 179.333 -32.333 246 -97s100 -148.667 100 -252c0 -104.667 -33.333 -189 -100 -253s-148.667 -96 -246 -96c-98 0 -180.167 32 -246.5 96s-99.5 148.333 -99.5 253zM80 340
c0 -102 31.999 -183.999 95.999 -245.999s144 -93 240 -93c95.333 0 175.166 31.167 239.499 93.5s96.5 144.166 96.5 245.499c0 100.667 -32.167 182.334 -96.5 245.001s-144.166 94 -239.499 94s-175.166 -31.333 -239.499 -94s-96.5 -144.334 -96.5 -245.001z
M519.999 559.001l62.999 -136l-6 -4c-33.333 40 -62.666 69.833 -87.999 89.5s-52.333 29.5 -81 29.5c-34.667 0 -63.5 -13.833 -86.5 -41.5s-34.5 -68.167 -34.5 -121.5c0 -59.333 15.833 -109.5 47.5 -150.5s69.5 -61.5 113.5 -61.5c63.333 0 110.333 26.667 141 80l7 -4
c-15.333 -31.333 -39.5 -57.833 -72.5 -79.5s-68.5 -32.5 -106.5 -32.5c-52 0 -96.667 20.333 -134 61s-56 90 -56 148c0 36 6 68.167 18 96.5s27.333 50.5 46 66.5s38 28 58 36s39.667 12 59 12c14.667 0 31 -1.83301 49 -5.5s29.333 -5.5 34 -5.5
c15.333 0 23 7.66699 23 23h6z" />
    <glyph glyph-name="ordfeminine" unicode="&#xaa;" horiz-adv-x="375" 
d="M333 291h-262v8h262v-8zM322 361c-10.667 0 -18.998 3 -24.998 9s-9 13.667 -9 23c0 8.66699 6.66699 29 20 61l72 169l-126 -185c-34.667 -51.333 -66.334 -77 -95.001 -77c-26 0 -39 14.333 -39 43c0 20 8.5 51.833 25.5 95.5s41.667 86.167 74 127.5
s65.166 62 98.499 62c26.667 0 50.334 -16.333 71.001 -49c16.667 6 29 12.333 37 19s15.333 16.667 22 30l5 -2l-100 -237c-13.333 -30 -20 -49.333 -20 -58s4 -13 12 -13c12 0 35.333 23.333 70 70l5 -4c-40.667 -56 -73.334 -84 -98.001 -84zM183.002 379
c14 0 35.668 21.3311 65.001 63.998l133 194c-16.667 28.667 -35 43 -55 43c-23.333 0 -47.833 -19.667 -73.5 -59s-45.834 -81.166 -60.501 -125.499s-22 -77.166 -22 -98.499c0 -12 4.33301 -18 13 -18z" />
    <glyph glyph-name="guillemotleft" unicode="&#xab;" horiz-adv-x="468" 
d="M328 436l4.00488 -5.00391c-20.667 -17.333 -44.834 -40 -72.501 -68l-76 -79c-23 -24.667 -36.833 -39 -41.5 -43c0.666992 -2.66699 4 -15.167 10 -37.5s12.667 -45.5 20 -69.5s15 -44.667 23 -62l-6 -3c-8.66699 16.667 -23.334 39.834 -44.001 69.501
s-39.334 55.334 -56.001 77.001s-26.334 33.834 -29.001 36.501c4.66699 2.66699 23.5 14.834 56.5 36.501l114.5 77c43.333 29.667 75.666 53.167 96.999 70.5zM469.005 435.996l4.00488 -5.00391c-20.667 -17.333 -44.834 -40 -72.501 -68l-76 -79
c-23 -24.667 -36.833 -39 -41.5 -43c0.666992 -2.66699 4 -15.167 10 -37.5s12.667 -45.5 20 -69.5s15 -44.667 23 -62l-6 -3c-8.66699 16.667 -23.334 39.834 -44.001 69.501s-39.334 55.334 -56.001 77.001s-26.334 33.834 -29.001 36.501
c4.66699 2.66699 23.5 14.834 56.5 36.501l114.5 77c43.333 29.667 75.666 53.167 96.999 70.5z" />
    <glyph glyph-name="logicalnot" unicode="&#xac;" horiz-adv-x="507" 
d="M410 106l-9 3l80 209h-399v9h412z" />
    <glyph glyph-name="uni00AD" unicode="&#xad;" horiz-adv-x="304" 
d="M243 252h-155v39h155v-39z" />
    <glyph glyph-name="registered" unicode="&#xae;" horiz-adv-x="484" 
d="M345 304c-59.333 0 -109.166 19.5 -149.499 58.5s-60.5 89.5 -60.5 151.5s20.167 112.5 60.5 151.5s90.166 58.5 149.499 58.5s109.166 -19.5 149.499 -58.5s60.5 -89.5 60.5 -151.5s-20.167 -112.5 -60.5 -151.5s-90.166 -58.5 -149.499 -58.5zM473 394
c-6 0 -13.1689 0.166992 -21.502 0.5s-15.166 0.5 -20.499 0.5c-2.66699 0 -6.83398 -0.166992 -12.501 -0.5s-9.5 -0.5 -11.5 -0.5l-54 109h-49v-84c0 -7.33301 1.83301 -12.166 5.5 -14.499s11.834 -3.5 24.501 -3.5v-7h-16c-2.66699 0 -7.5 0.166992 -14.5 0.5
s-12.5 0.5 -16.5 0.5s-9.5 -0.166992 -16.5 -0.5s-11.833 -0.5 -14.5 -0.5h-16v7c12.667 0 20.667 1 24 3s5 7 5 15v190c0 7.33301 -1.66699 12 -5 14s-11.333 3 -24 3v7h16c2.66699 0 7.5 -0.166992 14.5 -0.5s12.5 -0.5 16.5 -0.5s9.5 0.166992 16.5 0.5
s11.833 0.5 14.5 0.5h46c26.667 0 47.5 -5.66699 62.5 -17s22.5 -27.333 22.5 -48c0 -18.667 -6.66699 -34.167 -20 -46.5s-34.666 -18.5 -63.999 -18.5h-4c6.66699 -12 17.334 -18 32.001 -18h11l24 -51c7.33301 -14.667 13.666 -23.834 18.999 -27.501s14 -5.5 26 -5.5v-7
zM413.998 568c0 18.667 -3.66699 32.833 -11 42.5s-21 14.5 -41 14.5h-58v-114h60c33.333 0 50 19 50 57zM344.998 313.999c56 0 103.333 18.5 142 55.5s58 85.167 58 144.5s-19.333 107.5 -58 144.5s-86 55.5 -142 55.5s-103.333 -18.5 -142 -55.5s-58 -85.167 -58 -144.5
s19.333 -107.5 58 -144.5s86 -55.5 142 -55.5z" />
    <glyph glyph-name="macron" unicode="&#xaf;" horiz-adv-x="340" 
d="M433 608h-225v22h225v-22z" />
    <glyph glyph-name="degree" unicode="&#xb0;" horiz-adv-x="299" 
d="M390 573c0 -35.333 -11.333 -63.833 -34 -85.5s-50.334 -32.5 -83.001 -32.5s-60.334 10.833 -83.001 32.5s-34 50.167 -34 85.5s11.333 63.833 34 85.5s50.334 32.5 83.001 32.5s60.334 -10.833 83.001 -32.5s34 -50.167 34 -85.5zM380 573
c0 32 -10.5 58.167 -31.5 78.5s-46.167 30.5 -75.5 30.5s-54.5 -10.167 -75.5 -30.5s-31.5 -46.5 -31.5 -78.5s10.5 -58.167 31.5 -78.5s46.167 -30.5 75.5 -30.5s54.5 10.167 75.5 30.5s31.5 46.5 31.5 78.5z" />
    <glyph glyph-name="plusminus" unicode="&#xb1;" horiz-adv-x="493" 
d="M370 544l-63 -164h191v-9h-195l-65 -171l-9 3l64 168h-191v9h195l64 167zM398 112h-396v9h396v-9z" />
    <glyph glyph-name="twosuperior" unicode="&#xb2;" 
d="M371 634c0 -12.667 -3.83398 -25.333 -11.501 -38s-19.167 -25.5 -34.5 -38.5s-29.5 -24.167 -42.5 -33.5s-30.167 -21 -51.5 -35s-36.666 -24.333 -45.999 -31l-31 -22h144l-40 -71l-5 2c2.66699 6 4 11.667 4 17c0 8.66699 -6 13 -18 13h-141v5l82 61
c39.333 28.667 73.333 60.5 102 95.5s43 68.5 43 100.5c0 16 -7.33301 24 -22 24c-20 0 -40 -15.667 -60 -47c-10.667 -16.667 -20.667 -25 -30 -25c-4.66699 0 -9 1.66699 -13 5s-6 7.66602 -6 12.999c0 14.667 12.333 28.334 37 41.001s48.667 19 72 19
c16.667 0 32.167 -5 46.5 -15s21.5 -23.333 21.5 -40z" />
    <glyph glyph-name="threesuperior" unicode="&#xb3;" 
d="M336 510c0 -32 -13.0029 -60.168 -39.0029 -84.501s-57.667 -36.5 -95 -36.5c-23.333 0 -42.166 7 -56.499 21s-21.5 29.333 -21.5 46c0 8.66699 2.33301 16 7 22s11 9 19 9c4.66699 0 8.83398 -1.66699 12.501 -5s5.5 -7.66602 5.5 -12.999
c0 -4 -0.666992 -9.83301 -2 -17.5s-2 -13.834 -2 -18.501c0 -25.333 12.667 -38 38 -38c31.333 0 57.333 27 78 81c9.33301 24.667 14 44 14 58c0 12 -5.66699 18 -17 18c-4.66699 0 -11 -2 -19 -6l-36 -16l-3 6l46 21c24.667 11.333 43 34 55 68c4 12 6 23.667 6 35
c0 15.333 -7.33301 23 -22 23c-19.333 0 -38.666 -14.667 -57.999 -44c-12 -18.667 -22.667 -28 -32 -28c-5.33301 0 -9.83301 1.83301 -13.5 5.5s-5.5 7.5 -5.5 11.5c0 16 12.5 30.167 37.5 42.5s48.5 18.5 70.5 18.5c18 0 34 -5 48 -15s21 -22.333 21 -37
c0 -32 -30.667 -58.333 -92 -79c16 0 29.333 -4.16699 40 -12.5s16 -20.166 16 -35.499z" />
    <glyph glyph-name="acute" unicode="&#xb4;" horiz-adv-x="226" 
d="M146 542l-5 5.00098c22 24 46.333 55.167 73 93.5s44.334 61.833 53.001 70.5c7.33301 8 15.666 12 24.999 12c6.66699 0 12.667 -2.5 18 -7.5s8 -11.5 8 -19.5c0 -8.66699 -3.33301 -16.334 -10 -23.001c-7.33301 -7.33301 -30.5 -25 -69.5 -53s-69.833 -54 -92.5 -78z
" />
    <glyph glyph-name="mu" unicode="&#xb5;" horiz-adv-x="534" 
d="M530 490l-151.996 -365.002c-22.667 -54.667 -34 -85.667 -34 -93c0 -12 5.33301 -18 16 -18c21.333 0 59.666 37 114.999 111l6 -4c-62.667 -86 -112.334 -129 -149.001 -129c-15.333 0 -27 4.5 -35 13.5s-12 19.833 -12 32.5c0 18.667 10 51.334 30 98.001l137 324
l-220 -307c-44 -62 -77.667 -104.333 -101 -127s-46.333 -34 -69 -34c-14.667 0 -25.834 4.83301 -33.501 14.5s-11.5 20.5 -11.5 32.5c-13.333 -40 -26.5 -89 -39.5 -147s-20.833 -91 -23.5 -99c-6.66699 -18.667 -18.334 -28 -35.001 -28c-9.33301 0 -17.333 3 -24 9
s-10 13 -10 21s2 16.333 6 25c2.66699 6 11.834 22.667 27.501 50l53 96.5c19.667 37 36.5 72.5 50.5 106.5c11.333 26.667 57.333 124 138 292c23.333 46.667 35 77.667 35 93c0 12 -5.33301 18 -16 18c-20 0 -58 -37 -114 -111l-6 4c63.333 86 112.666 129 147.999 129
c15.333 0 27 -4.5 35 -13.5s12 -19.833 12 -32.5c0 -20.667 -10.667 -53 -32 -97l-104 -212c-28 -57.333 -42 -93.666 -42 -108.999c0 -13.333 5.66699 -20 17 -20c20 0 64.333 48 133 144l238 332c3.33301 0 8.83301 -0.333008 16.5 -1s13.167 -1 16.5 -1
s8.83301 0.333008 16.5 1s13.167 1 16.5 1z" />
    <glyph glyph-name="paragraph" unicode="&#xb6;" horiz-adv-x="512" 
d="M196 -226l-8.00098 3l85 223h-69c-47.333 -0 -84.166 12.833 -110.499 38.5s-39.5 64.5 -39.5 116.5c0 50.667 9.5 106.167 28.5 166.5s44.667 117.333 77 171s73.5 98.5 123.5 134.5s102.667 54 158 54h185v-9h-86l-254 -663h83v-9h-86zM203.999 9h72l254 663h-72z" />
    <glyph glyph-name="periodcentered" unicode="&#xb7;" horiz-adv-x="245" 
d="M158 295c-13.333 0 -25 4.83301 -35 14.5s-15 21.5 -15 35.5s5 25.833 15 35.5s21.667 14.5 35 14.5s25 -4.83301 35 -14.5s15 -21.5 15 -35.5s-5 -25.833 -15 -35.5s-21.667 -14.5 -35 -14.5z" />
    <glyph glyph-name="cedilla" unicode="&#xb8;" horiz-adv-x="275" 
d="M93 -99c0 -35.333 -24.5 -67.834 -73.5 -97.501s-99.5 -47.5 -151.5 -53.5l-1 7c41.333 4.66699 81.5 18.834 120.5 42.501s58.5 51.167 58.5 82.5c0 18 -11 27 -33 27c-20 0 -38.667 -4 -56 -12l-2 3l115 100h6l-54 -58c6.66699 1.33301 13 2 19 2
c15.333 0 27.833 -4 37.5 -12s14.5 -18.333 14.5 -31z" />
    <glyph glyph-name="onesuperior" unicode="&#xb9;" 
d="M274 397h-10c-6.66699 0 -15.167 0.5 -25.5 1.5s-20.5 1.5 -30.5 1.5c-10.667 0 -21.334 -0.5 -32.001 -1.5s-19.667 -1.5 -27 -1.5h-20v7h20c15.333 0 26.333 3 33 9s14.334 19.667 23.001 41l53 138c2.66699 6 4 11 4 15c0 6 -2.66699 9 -8 9
c-1.33301 0 -15 -5.66699 -41 -17l-3 7l17 8c22.667 10.667 45.167 24.5 67.5 41.5s37.5 31.5 45.5 43.5l5 -2l-93 -243c-6.66699 -18 -10 -29.667 -10 -35c0 -10 8 -15 24 -15h8v-7z" />
    <glyph glyph-name="ordmasculine" unicode="&#xba;" horiz-adv-x="382" 
d="M333 291h-262v8h262v-8zM198 411c0 -30 12.668 -44.998 38.001 -44.998c27.333 0 55.666 25 84.999 75c18 31.333 32.833 66.166 44.5 104.499s17.5 68.5 17.5 90.5c0 30.667 -12.667 46 -38 46c-40 0 -78.667 -47.667 -116 -143
c-20.667 -54.667 -31 -97.334 -31 -128.001zM423.001 587.002c0 -52.667 -18.832 -103.834 -56.499 -153.501s-80.834 -74.5 -129.501 -74.5c-22.667 0 -41.667 9.5 -57 28.5s-23 43.5 -23 73.5c0 52.667 19 103.834 57 153.501s81.333 74.5 130 74.5
c22.667 0 41.5 -9.5 56.5 -28.5s22.5 -43.5 22.5 -73.5z" />
    <glyph glyph-name="guillemotright" unicode="&#xbb;" horiz-adv-x="468" 
d="M154 69l-4.00488 5.00391c20.667 17.333 44.834 40 72.501 68l76 79c23 24.667 36.833 39 41.5 43c-0.666992 2.66699 -4 15.167 -10 37.5s-12.667 45.5 -20 69.5s-15 44.667 -23 62l6 3c8.66699 -16.667 23.334 -39.834 44.001 -69.501s39.334 -55.334 56.001 -77.001
s26.334 -33.834 29.001 -36.501c-4.66699 -2.66699 -23.5 -14.834 -56.5 -36.501l-114.5 -77c-43.333 -29.667 -75.666 -53.167 -96.999 -70.5zM12.9951 69.0039l-4.00488 5.00391c20.667 17.333 44.834 40 72.501 68l76 79c23 24.667 36.833 39 41.5 43
c-0.666992 2.66699 -4 15.167 -10 37.5s-12.667 45.5 -20 69.5s-15 44.667 -23 62l6 3c8.66699 -16.667 23.334 -39.834 44.001 -69.501s39.334 -55.334 56.001 -77.001s26.334 -33.834 29.001 -36.501c-4.66699 -2.66699 -23.5 -14.834 -56.5 -36.501l-114.5 -77
c-43.333 -29.667 -75.666 -53.167 -96.999 -70.5z" />
    <glyph glyph-name="onequarter" unicode="&#xbc;" horiz-adv-x="367" 
d="M88 345h271v-8h-271v8zM307 397h-10c-6.66699 0 -15.167 0.5 -25.5 1.5s-20.5 1.5 -30.5 1.5c-10.667 0 -21.334 -0.5 -32.001 -1.5s-19.667 -1.5 -27 -1.5h-20v7h20c15.333 0 26.333 3 33 9s14.334 19.667 23.001 41l53 138c2.66699 6 4 11 4 15c0 6 -2.66699 9 -8 9
c-1.33301 0 -15 -5.66699 -41 -17l-3 7l17 8c22.667 10.667 45.167 24.5 67.5 41.5s37.5 31.5 45.5 43.5l5 -2l-93 -243c-6.66699 -18 -10 -29.667 -10 -35c0 -10 8 -15 24 -15h8v-7zM185 0l-14.0029 0.000976562c-3.33301 0 -10.166 0.5 -20.499 1.5
s-21.166 1.5 -32.499 1.5c-10.667 0 -21 -0.5 -31 -1.5s-16.667 -1.5 -20 -1.5h-18v7h13c14 0 24.5 3.16699 31.5 9.5s14.5 19.833 22.5 40.5l8 20h-117v5l201 202c2.66699 0 6.33398 -0.166992 11.001 -0.5s8 -0.5 10 -0.5c2.66699 0 6.16699 0.166992 10.5 0.5
s7.83301 0.5 10.5 0.5l-77 -200h2c15.333 0 43.333 22.667 84 68l4 -3l-42 -72h-50l-8 -20c-6.66699 -18.667 -10 -30.334 -10 -35.001c0 -10 7.66699 -15 23 -15h9v-7zM125.997 84.001l67 175l-173 -175h106z" />
    <glyph glyph-name="onehalf" unicode="&#xbd;" horiz-adv-x="367" 
d="M88 345h271v-8h-271v8zM307 397h-10c-6.66699 0 -15.167 0.5 -25.5 1.5s-20.5 1.5 -30.5 1.5c-10.667 0 -21.334 -0.5 -32.001 -1.5s-19.667 -1.5 -27 -1.5h-20v7h20c15.333 0 26.333 3 33 9s14.334 19.667 23.001 41l53 138c2.66699 6 4 11 4 15c0 6 -2.66699 9 -8 9
c-1.33301 0 -15 -5.66699 -41 -17l-3 7l17 8c22.667 10.667 45.167 24.5 67.5 41.5s37.5 31.5 45.5 43.5l5 -2l-93 -243c-6.66699 -18 -10 -29.667 -10 -35c0 -10 8 -15 24 -15h8v-7zM261 237c0 -12.667 -3.83398 -25.333 -11.501 -38s-19.167 -25.5 -34.5 -38.5
s-29.5 -24.167 -42.5 -33.5s-30.167 -21 -51.5 -35s-36.666 -24.333 -45.999 -31l-31 -22h144l-40 -71l-5 2c2.66699 6 4 11.667 4 17c0 8.66699 -6 13 -18 13h-141v5l82 61c39.333 28.667 73.333 60.5 102 95.5s43 68.5 43 100.5c0 16 -7.33301 24 -22 24
c-20 0 -40 -15.667 -60 -47c-10.667 -16.667 -20.667 -25 -30 -25c-4.66699 0 -9 1.66699 -13 5s-6 7.66602 -6 12.999c0 14.667 12.333 28.334 37 41.001s48.667 19 72 19c16.667 0 32.167 -5 46.5 -15s21.5 -23.333 21.5 -40z" />
    <glyph glyph-name="threequarters" unicode="&#xbe;" horiz-adv-x="367" 
d="M88 345h271v-8h-271v8zM185 0l-14.0029 0.000976562c-3.33301 0 -10.166 0.5 -20.499 1.5s-21.166 1.5 -32.499 1.5c-10.667 0 -21 -0.5 -31 -1.5s-16.667 -1.5 -20 -1.5h-18v7h13c14 0 24.5 3.16699 31.5 9.5s14.5 19.833 22.5 40.5l8 20h-117v5l201 202
c2.66699 0 6.33398 -0.166992 11.001 -0.5s8 -0.5 10 -0.5c2.66699 0 6.16699 0.166992 10.5 0.5s7.83301 0.5 10.5 0.5l-77 -200h2c15.333 0 43.333 22.667 84 68l4 -3l-42 -72h-50l-8 -20c-6.66699 -18.667 -10 -30.334 -10 -35.001c0 -10 7.66699 -15 23 -15h9v-7z
M125.997 84.001l67 175l-173 -175h106zM374.997 510.001c0 -32 -13.0039 -60.168 -39.0039 -84.501s-57.667 -36.5 -95 -36.5c-23.333 0 -42.166 7 -56.499 21s-21.5 29.333 -21.5 46c0 8.66699 2.33301 16 7 22s11 9 19 9c4.66699 0 8.83398 -1.66699 12.501 -5
s5.5 -7.66602 5.5 -12.999c0 -4 -0.666992 -9.83301 -2 -17.5s-2 -13.834 -2 -18.501c0 -25.333 12.667 -38 38 -38c31.333 0 57.333 27 78 81c9.33301 24.667 14 44 14 58c0 12 -5.66699 18 -17 18c-4.66699 0 -11 -2 -19 -6l-36 -16l-3 6l46 21c24.667 11.333 43 34 55 68
c4 12 6 23.667 6 35c0 15.333 -7.33301 23 -22 23c-19.333 0 -38.666 -14.667 -57.999 -44c-12 -18.667 -22.667 -28 -32 -28c-5.33301 0 -9.83301 1.83301 -13.5 5.5s-5.5 7.5 -5.5 11.5c0 16 12.333 30.167 37 42.5s48.334 18.5 71.001 18.5c18 0 34 -5 48 -15
s21 -22.333 21 -37c0 -32 -30.667 -58.333 -92 -79c16 0 29.333 -4.16699 40 -12.5s16 -20.166 16 -35.499z" />
    <glyph glyph-name="questiondown" unicode="&#xbf;" horiz-adv-x="326" 
d="M197 284l8.00195 -2.99902l-77 -202c-128.667 -50.667 -193 -105.667 -193 -165c0 -18 5.83301 -32.167 17.5 -42.5s27.5 -15.5 47.5 -15.5c14 0 29.167 2.16699 45.5 6.5s27.166 6.5 32.499 6.5c9.33301 0 17 -2.66699 23 -8s9 -12.333 9 -21c0 -25.333 -23 -38 -69 -38
c-32.667 0 -59.834 10 -81.501 30s-32.5 47 -32.5 81c0 95.333 74.667 178.666 224 249.999zM266.002 498.001c14 0 26.167 -5 36.5 -15s15.5 -22.333 15.5 -37s-5.16699 -27 -15.5 -37s-22.5 -15 -36.5 -15s-26.167 5 -36.5 15s-15.5 22.333 -15.5 37s5.16699 27 15.5 37
s22.5 15 36.5 15z" />
    <glyph glyph-name="Agrave" unicode="&#xc0;" horiz-adv-x="592" 
d="M512 0l-29.999 0.00195312c-4 0 -13 0.5 -27 1.5s-26 1.5 -36 1.5c-11.333 0 -25.666 -0.5 -42.999 -1.5s-27.333 -1.5 -30 -1.5h-20v8h11c16.667 0.666992 30.167 6.16699 40.5 16.5s15.833 24.166 16.5 41.499l2 123h-297l-50 -67
c-22.667 -30 -34.334 -53.667 -35.001 -71c0 -28.667 16 -43 48 -43h11v-8h-24c-7.33301 0 -19.333 0.5 -36 1.5s-28.334 1.5 -35.001 1.5c-4.66699 0 -16.167 -0.5 -34.5 -1.5s-29.833 -1.5 -34.5 -1.5h-19v8h7c20.667 0 42 9.33301 64 28s48.667 49 80 91l358 476l-2 78
c5.33301 0 11.5 -0.333008 18.5 -1s12.5 -1 16.5 -1s9.16699 0.333008 15.5 1s11.833 1 16.5 1l-7 -616c0 -20.667 4 -35.334 12 -44.001s21.333 -13 40 -13h3v-8zM396.001 198.002l4 392l-294 -392h290zM480.001 729.002l-7 -1.99902
c-7.33301 26.667 -19.5 56.667 -36.5 90s-25.5 55.666 -25.5 66.999c0 8 2.5 14.667 7.5 20s11.5 8 19.5 8c14.667 0 23.667 -7.66699 27 -23c2.66699 -12 4.5 -34.5 5.5 -67.5s4.16699 -63.833 9.5 -92.5z" />
    <glyph glyph-name="Aacute" unicode="&#xc1;" horiz-adv-x="592" 
d="M512 0l-29.999 0.00195312c-4 0 -13 0.5 -27 1.5s-26 1.5 -36 1.5c-11.333 0 -25.666 -0.5 -42.999 -1.5s-27.333 -1.5 -30 -1.5h-20v8h11c16.667 0.666992 30.167 6.16699 40.5 16.5s15.833 24.166 16.5 41.499l2 123h-297l-50 -67
c-22.667 -30 -34.334 -53.667 -35.001 -71c0 -28.667 16 -43 48 -43h11v-8h-24c-7.33301 0 -19.333 0.5 -36 1.5s-28.334 1.5 -35.001 1.5c-4.66699 0 -16.167 -0.5 -34.5 -1.5s-29.833 -1.5 -34.5 -1.5h-19v8h7c20.667 0 42 9.33301 64 28s48.667 49 80 91l358 476l-2 78
c5.33301 0 11.5 -0.333008 18.5 -1s12.5 -1 16.5 -1s9.16699 0.333008 15.5 1s11.833 1 16.5 1l-7 -616c0 -20.667 4 -35.334 12 -44.001s21.333 -13 40 -13h3v-8zM396.001 198.002l4 392l-294 -392h290zM407.001 731.002l-5 5.00098c22 24 46.333 55.167 73 93.5
s44.334 61.833 53.001 70.5c7.33301 8 15.666 12 24.999 12c6.66699 0 12.667 -2.5 18 -7.5s8 -11.5 8 -19.5c0 -8.66699 -3.33301 -16.334 -10 -23.001c-7.33301 -7.33301 -30.5 -25 -69.5 -53s-69.833 -54 -92.5 -78z" />
    <glyph glyph-name="Acircumflex" unicode="&#xc2;" horiz-adv-x="592" 
d="M512 0l-29.999 0.00195312c-4 0 -13 0.5 -27 1.5s-26 1.5 -36 1.5c-11.333 0 -25.666 -0.5 -42.999 -1.5s-27.333 -1.5 -30 -1.5h-20v8h11c16.667 0.666992 30.167 6.16699 40.5 16.5s15.833 24.166 16.5 41.499l2 123h-297l-50 -67
c-22.667 -30 -34.334 -53.667 -35.001 -71c0 -28.667 16 -43 48 -43h11v-8h-24c-7.33301 0 -19.333 0.5 -36 1.5s-28.334 1.5 -35.001 1.5c-4.66699 0 -16.167 -0.5 -34.5 -1.5s-29.833 -1.5 -34.5 -1.5h-19v8h7c20.667 0 42 9.33301 64 28s48.667 49 80 91l358 476l-2 78
c5.33301 0 11.5 -0.333008 18.5 -1s12.5 -1 16.5 -1s9.16699 0.333008 15.5 1s11.833 1 16.5 1l-7 -616c0 -20.667 4 -35.334 12 -44.001s21.333 -13 40 -13h3v-8zM396.001 198.002l4 392l-294 -392h290zM536.001 732.002l-6.00195 -1.99902
c-10 32.667 -25.667 71.667 -47 117c-7.33301 -6 -21.5 -16.833 -42.5 -32.5l-57 -43.5c-17 -13.333 -32.5 -27 -46.5 -41l-5 5c20.667 20.667 62.334 68.667 125.001 144c18.667 21.333 32 32 40 32c14.667 0 23 -10.667 25 -32
c0.666992 -8.66699 1.66699 -23.334 3 -44.001s2.83301 -39.5 4.5 -56.5s3.83398 -32.5 6.50098 -46.5z" />
    <glyph glyph-name="Atilde" unicode="&#xc3;" horiz-adv-x="592" 
d="M512 0l-29.999 0.00195312c-4 0 -13 0.5 -27 1.5s-26 1.5 -36 1.5c-11.333 0 -25.666 -0.5 -42.999 -1.5s-27.333 -1.5 -30 -1.5h-20v8h11c16.667 0.666992 30.167 6.16699 40.5 16.5s15.833 24.166 16.5 41.499l2 123h-297l-50 -67
c-22.667 -30 -34.334 -53.667 -35.001 -71c0 -28.667 16 -43 48 -43h11v-8h-24c-7.33301 0 -19.333 0.5 -36 1.5s-28.334 1.5 -35.001 1.5c-4.66699 0 -16.167 -0.5 -34.5 -1.5s-29.833 -1.5 -34.5 -1.5h-19v8h7c20.667 0 42 9.33301 64 28s48.667 49 80 91l358 476l-2 78
c5.33301 0 11.5 -0.333008 18.5 -1s12.5 -1 16.5 -1s9.16699 0.333008 15.5 1s11.833 1 16.5 1l-7 -616c0 -20.667 4 -35.334 12 -44.001s21.333 -13 40 -13h3v-8zM396.001 198.002l4 392l-294 -392h290zM512.001 777.002c-13.333 0 -31.666 7.16699 -54.999 21.5
s-43.666 21.5 -60.999 21.5c-16.667 0 -36.334 -18.667 -59.001 -56l-6 4c0.666992 0.666992 4.16699 6.5 10.5 17.5s10.833 18.167 13.5 21.5l14.5 18.5c7 9 13.167 15.333 18.5 19s12 7.33398 20 11.001s16 5.5 24 5.5c13.333 0 31.666 -7.16699 54.999 -21.5
s43.666 -21.5 60.999 -21.5c16.667 0 36.334 18.667 59.001 56l6 -4c-0.666992 -0.666992 -4.16699 -6.5 -10.5 -17.5s-10.833 -18.167 -13.5 -21.5l-14.5 -18.5c-7 -9 -13.167 -15.333 -18.5 -19s-12 -7.33398 -20 -11.001s-16 -5.5 -24 -5.5z" />
    <glyph glyph-name="Adieresis" unicode="&#xc4;" horiz-adv-x="592" 
d="M512 0l-29.999 0.00195312c-4 0 -13 0.5 -27 1.5s-26 1.5 -36 1.5c-11.333 0 -25.666 -0.5 -42.999 -1.5s-27.333 -1.5 -30 -1.5h-20v8h11c16.667 0.666992 30.167 6.16699 40.5 16.5s15.833 24.166 16.5 41.499l2 123h-297l-50 -67
c-22.667 -30 -34.334 -53.667 -35.001 -71c0 -28.667 16 -43 48 -43h11v-8h-24c-7.33301 0 -19.333 0.5 -36 1.5s-28.334 1.5 -35.001 1.5c-4.66699 0 -16.167 -0.5 -34.5 -1.5s-29.833 -1.5 -34.5 -1.5h-19v8h7c20.667 0 42 9.33301 64 28s48.667 49 80 91l358 476l-2 78
c5.33301 0 11.5 -0.333008 18.5 -1s12.5 -1 16.5 -1s9.16699 0.333008 15.5 1s11.833 1 16.5 1l-7 -616c0 -20.667 4 -35.334 12 -44.001s21.333 -13 40 -13h3v-8zM396.001 198.002l4 392l-294 -392h290zM380.001 765.002c-12 0 -22 3.83203 -30 11.499
s-12 17.834 -12 30.501s4 23 12 31s18 12 30 12s22.167 -4 30.5 -12s12.5 -18.333 12.5 -31c0 -12 -4.16699 -22 -12.5 -30s-18.5 -12 -30.5 -12zM550.001 765.001c-12 0 -22 3.83203 -30 11.499s-12 17.834 -12 30.501s4 23 12 31s18 12 30 12s22.167 -4 30.5 -12
s12.5 -18.333 12.5 -31c0 -12 -4.16699 -22 -12.5 -30s-18.5 -12 -30.5 -12z" />
    <glyph glyph-name="Aring" unicode="&#xc5;" horiz-adv-x="592" 
d="M512 0l-29.999 0.00195312c-4 0 -13 0.5 -27 1.5s-26 1.5 -36 1.5c-11.333 0 -25.666 -0.5 -42.999 -1.5s-27.333 -1.5 -30 -1.5h-20v8h11c16.667 0.666992 30.167 6.16699 40.5 16.5s15.833 24.166 16.5 41.499l2 123h-297l-50 -67
c-22.667 -30 -34.334 -53.667 -35.001 -71c0 -28.667 16 -43 48 -43h11v-8h-24c-7.33301 0 -19.333 0.5 -36 1.5s-28.334 1.5 -35.001 1.5c-4.66699 0 -16.167 -0.5 -34.5 -1.5s-29.833 -1.5 -34.5 -1.5h-19v8h7c20.667 0 42 9.33301 64 28s48.667 49 80 91l358 476l-2 78
c5.33301 0 11.5 -0.333008 18.5 -1s12.5 -1 16.5 -1s9.16699 0.333008 15.5 1s11.833 1 16.5 1l-7 -616c0 -20.667 4 -35.334 12 -44.001s21.333 -13 40 -13h3v-8zM396.001 198.002l4 392l-294 -392h290zM558.001 828.002c0 -24 -8 -44.333 -24 -61s-36 -25 -60 -25
s-44 8.33301 -60 25s-24 37 -24 61s8 44.333 24 61s36 25 60 25s44 -8.33301 60 -25s24 -37 24 -61zM549.001 828.002c0 21.333 -7.16699 39.5 -21.5 54.5s-32.166 22.5 -53.499 22.5s-39.166 -7.5 -53.499 -22.5s-21.5 -33.167 -21.5 -54.5s7.16699 -39.5 21.5 -54.5
s32.166 -22.5 53.499 -22.5s39.166 7.5 53.499 22.5s21.5 33.167 21.5 54.5z" />
    <glyph glyph-name="AE" unicode="&#xc6;" horiz-adv-x="939" 
d="M723 681h202.999c25.333 0 39 10 41 30h6l9 -231l-6 -1c-18 66.667 -33.333 117.667 -46 153c-5.33301 15.333 -11.833 25.833 -19.5 31.5s-20.167 8.5 -37.5 8.5h-183l-125 -322h123c28 0 51.667 11.167 71 33.5s40 55.5 62 99.5l7 -2l-108 -280l-7 2
c12 34.667 18 63 18 85c0 35.333 -15.333 53 -46 53h-123l-127 -332h194c21.333 0 39.166 3.5 53.499 10.5s32.833 21.167 55.5 42.5c36.667 36 83.334 85 140.001 147l5 -4l-145 -237l-6 2c4 8 4.5 15 1.5 21s-9.16699 9 -18.5 9h-251c-6.66699 0 -16.5 0.166992 -29.5 0.5
s-24.5 0.5 -34.5 0.5c-9.33301 0 -21.166 -0.166992 -35.499 -0.5s-24.833 -0.5 -31.5 -0.5h-28v8h11c19.333 0 34.333 3.83301 45 11.5s20 22.167 28 43.5l48 126h-304l-81 -77c-34.667 -32.667 -52 -57.667 -52 -75c0 -19.333 13.667 -29 41 -29h3v-8h-14
c-7.33301 0 -20.5 0.5 -39.5 1.5s-32.5 1.5 -40.5 1.5c-5.33301 0 -17.333 -0.5 -36 -1.5s-30.667 -1.5 -36 -1.5h-23v8h4c44.667 0 106.667 37 186 111l545 507c12.667 12 19 22 19 30c0 11.333 -10.333 17 -31 17h-19v8h35c6.66699 0 16.667 -0.166992 30 -0.5
s25 -0.5 35 -0.5s21.5 0.166992 34.5 0.5s22.833 0.5 29.5 0.5zM440.999 198l165 429l-464 -429h299z" />
    <glyph glyph-name="Ccedilla" unicode="&#xc7;" horiz-adv-x="579" 
d="M241 -99c0 -35.333 -24.502 -67.834 -73.502 -97.501s-99.5 -47.5 -151.5 -53.5l-1 7c41.333 4.66699 81.5 18.834 120.5 42.501s58.5 51.167 58.5 82.5c0 18 -11 27 -33 27c-20 0 -38.667 -4 -56 -12l-2 3l104 91c-44 6 -80.167 27.167 -108.5 63.5
s-42.5 84.166 -42.5 143.499c0 75.333 18.333 151.333 55 228s85.5 140 146.5 190s123.5 75 187.5 75c18 0 40.333 -3.16699 67 -9.5s43 -9.5 49 -9.5c18.667 0 27.334 10.667 26.001 32l6 1l30 -227l-6 -1l-17.5 57.5c-4.33301 13.667 -11.5 31.334 -21.5 53.001
s-20.167 38.334 -30.5 50.001s-24 22 -41 31s-35.833 13.5 -56.5 13.5c-53.333 0 -105.166 -23.667 -155.499 -71s-90.333 -107 -120 -179s-44.5 -143.667 -44.5 -215c0 -58.667 12.167 -103.834 36.5 -135.501s59.5 -47.5 105.5 -47.5c34.667 0 72 12 112 36
s78.667 61.333 116 112l6 -5c-40 -56.667 -85 -102 -135 -136s-97.667 -51 -143 -51h-13l-45 -48c6.66699 1.33301 13 2 19 2c15.333 0 27.833 -4 37.5 -12s14.5 -18.333 14.5 -31z" />
    <glyph glyph-name="Egrave" unicode="&#xc8;" horiz-adv-x="572" 
d="M371 -32l-6.00098 2c4 8 4.5 15 1.5 21s-9.16699 9 -18.5 9h-251c-6.66699 0 -16.5 0.166992 -29.5 0.5s-24.5 0.5 -34.5 0.5c-9.33301 0 -21.166 -0.166992 -35.499 -0.5s-24.833 -0.5 -31.5 -0.5h-28v8h11c19.333 0 34.333 3.83301 45 11.5s20 22.167 28 43.5l214 556
c4.66699 10.667 7 20.667 7 30c0 16 -10.667 24 -32 24h-19v8h35c6 0 15.667 -0.166992 29 -0.5s25.333 -0.5 36 -0.5c10 0 21.5 0.166992 34.5 0.5s22.833 0.5 29.5 0.5h203c25.333 0 39 10 41 30h6l9 -231l-6 -1c-18 66.667 -33.333 117.667 -46 153
c-5.33301 15.333 -11.833 25.833 -19.5 31.5s-20.167 8.5 -37.5 8.5h-183l-125 -322h123c28 0 51.667 11.167 71 33.5s40 55.5 62 99.5l7 -2l-108 -280l-7 2c12 34.667 18 63 18 85c0 35.333 -15.333 53 -46 53h-123l-127 -332h194c21.333 0 39.166 3.5 53.499 10.5
s32.833 21.167 55.5 42.5c36.667 36 83.334 85 140.001 147l5 -4zM463.999 729l-7 -1.99902c-7.33301 26.667 -19.5 56.667 -36.5 90s-25.5 55.666 -25.5 66.999c0 8 2.5 14.667 7.5 20s11.5 8 19.5 8c14.667 0 23.667 -7.66699 27 -23c2.66699 -12 4.5 -34.5 5.5 -67.5
s4.16699 -63.833 9.5 -92.5z" />
    <glyph glyph-name="Eacute" unicode="&#xc9;" horiz-adv-x="572" 
d="M371 -32l-6.00098 2c4 8 4.5 15 1.5 21s-9.16699 9 -18.5 9h-251c-6.66699 0 -16.5 0.166992 -29.5 0.5s-24.5 0.5 -34.5 0.5c-9.33301 0 -21.166 -0.166992 -35.499 -0.5s-24.833 -0.5 -31.5 -0.5h-28v8h11c19.333 0 34.333 3.83301 45 11.5s20 22.167 28 43.5l214 556
c4.66699 10.667 7 20.667 7 30c0 16 -10.667 24 -32 24h-19v8h35c6 0 15.667 -0.166992 29 -0.5s25.333 -0.5 36 -0.5c10 0 21.5 0.166992 34.5 0.5s22.833 0.5 29.5 0.5h203c25.333 0 39 10 41 30h6l9 -231l-6 -1c-18 66.667 -33.333 117.667 -46 153
c-5.33301 15.333 -11.833 25.833 -19.5 31.5s-20.167 8.5 -37.5 8.5h-183l-125 -322h123c28 0 51.667 11.167 71 33.5s40 55.5 62 99.5l7 -2l-108 -280l-7 2c12 34.667 18 63 18 85c0 35.333 -15.333 53 -46 53h-123l-127 -332h194c21.333 0 39.166 3.5 53.499 10.5
s32.833 21.167 55.5 42.5c36.667 36 83.334 85 140.001 147l5 -4zM390.999 731l-5 5.00098c22 24 46.333 55.167 73 93.5s44.334 61.833 53.001 70.5c7.33301 8 15.666 12 24.999 12c6.66699 0 12.667 -2.5 18 -7.5s8 -11.5 8 -19.5
c0 -8.66699 -3.33301 -16.334 -10 -23.001c-7.33301 -7.33301 -30.5 -25 -69.5 -53s-69.833 -54 -92.5 -78z" />
    <glyph glyph-name="Ecircumflex" unicode="&#xca;" horiz-adv-x="572" 
d="M371 -32l-6.00098 2c4 8 4.5 15 1.5 21s-9.16699 9 -18.5 9h-251c-6.66699 0 -16.5 0.166992 -29.5 0.5s-24.5 0.5 -34.5 0.5c-9.33301 0 -21.166 -0.166992 -35.499 -0.5s-24.833 -0.5 -31.5 -0.5h-28v8h11c19.333 0 34.333 3.83301 45 11.5s20 22.167 28 43.5l214 556
c4.66699 10.667 7 20.667 7 30c0 16 -10.667 24 -32 24h-19v8h35c6 0 15.667 -0.166992 29 -0.5s25.333 -0.5 36 -0.5c10 0 21.5 0.166992 34.5 0.5s22.833 0.5 29.5 0.5h203c25.333 0 39 10 41 30h6l9 -231l-6 -1c-18 66.667 -33.333 117.667 -46 153
c-5.33301 15.333 -11.833 25.833 -19.5 31.5s-20.167 8.5 -37.5 8.5h-183l-125 -322h123c28 0 51.667 11.167 71 33.5s40 55.5 62 99.5l7 -2l-108 -280l-7 2c12 34.667 18 63 18 85c0 35.333 -15.333 53 -46 53h-123l-127 -332h194c21.333 0 39.166 3.5 53.499 10.5
s32.833 21.167 55.5 42.5c36.667 36 83.334 85 140.001 147l5 -4zM519.999 732l-6.00195 -1.99902c-10 32.667 -25.667 71.667 -47 117c-7.33301 -6 -21.5 -16.833 -42.5 -32.5l-57 -43.5c-17 -13.333 -32.5 -27 -46.5 -41l-5 5c20.667 20.667 62.334 68.667 125.001 144
c18.667 21.333 32 32 40 32c14.667 0 23 -10.667 25 -32c0.666992 -8.66699 1.66699 -23.334 3 -44.001s2.83301 -39.5 4.5 -56.5s3.83398 -32.5 6.50098 -46.5z" />
    <glyph glyph-name="Edieresis" unicode="&#xcb;" horiz-adv-x="572" 
d="M371 -32l-6.00098 2c4 8 4.5 15 1.5 21s-9.16699 9 -18.5 9h-251c-6.66699 0 -16.5 0.166992 -29.5 0.5s-24.5 0.5 -34.5 0.5c-9.33301 0 -21.166 -0.166992 -35.499 -0.5s-24.833 -0.5 -31.5 -0.5h-28v8h11c19.333 0 34.333 3.83301 45 11.5s20 22.167 28 43.5l214 556
c4.66699 10.667 7 20.667 7 30c0 16 -10.667 24 -32 24h-19v8h35c6 0 15.667 -0.166992 29 -0.5s25.333 -0.5 36 -0.5c10 0 21.5 0.166992 34.5 0.5s22.833 0.5 29.5 0.5h203c25.333 0 39 10 41 30h6l9 -231l-6 -1c-18 66.667 -33.333 117.667 -46 153
c-5.33301 15.333 -11.833 25.833 -19.5 31.5s-20.167 8.5 -37.5 8.5h-183l-125 -322h123c28 0 51.667 11.167 71 33.5s40 55.5 62 99.5l7 -2l-108 -280l-7 2c12 34.667 18 63 18 85c0 35.333 -15.333 53 -46 53h-123l-127 -332h194c21.333 0 39.166 3.5 53.499 10.5
s32.833 21.167 55.5 42.5c36.667 36 83.334 85 140.001 147l5 -4zM363.999 765c-12 0 -22 3.83203 -30 11.499s-12 17.834 -12 30.501s4 23 12 31s18 12 30 12s22.167 -4 30.5 -12s12.5 -18.333 12.5 -31c0 -12 -4.16699 -22 -12.5 -30s-18.5 -12 -30.5 -12z
M533.999 764.999c-12 0 -22 3.83203 -30 11.499s-12 17.834 -12 30.501s4 23 12 31s18 12 30 12s22.167 -4 30.5 -12s12.5 -18.333 12.5 -31c0 -12 -4.16699 -22 -12.5 -30s-18.5 -12 -30.5 -12z" />
    <glyph glyph-name="Igrave" unicode="&#xcc;" horiz-adv-x="257" 
d="M132 0h-34c-6.66699 0 -16.667 0.5 -30 1.5s-25.333 1.5 -36 1.5c-10 0 -21.833 -0.5 -35.5 -1.5s-23.834 -1.5 -30.501 -1.5h-28v8h11c19.333 0 34.166 3.83301 44.499 11.5s19.833 22.167 28.5 43.5l214 556c4.66699 10.667 7 20.667 7 30c0 16 -10.667 24 -32 24h-19
v8h34c6.66699 0 16.667 -0.5 30 -1.5s25.333 -1.5 36 -1.5c10 0 21.833 0.5 35.5 1.5s23.834 1.5 30.501 1.5h28v-8h-11c-19.333 0 -34.166 -3.83301 -44.499 -11.5s-19.833 -22.167 -28.5 -43.5l-214 -556c-4.66699 -10.667 -7 -20.667 -7 -30c0 -16 10.667 -24 32 -24h19
v-8zM354 729l-7 -1.99902c-7.33301 26.667 -19.5 56.667 -36.5 90s-25.5 55.666 -25.5 66.999c0 8 2.5 14.667 7.5 20s11.5 8 19.5 8c14.667 0 23.667 -7.66699 27 -23c2.66699 -12 4.5 -34.5 5.5 -67.5s4.16699 -63.833 9.5 -92.5z" />
    <glyph glyph-name="Iacute" unicode="&#xcd;" horiz-adv-x="257" 
d="M132 0h-34c-6.66699 0 -16.667 0.5 -30 1.5s-25.333 1.5 -36 1.5c-10 0 -21.833 -0.5 -35.5 -1.5s-23.834 -1.5 -30.501 -1.5h-28v8h11c19.333 0 34.166 3.83301 44.499 11.5s19.833 22.167 28.5 43.5l214 556c4.66699 10.667 7 20.667 7 30c0 16 -10.667 24 -32 24h-19
v8h34c6.66699 0 16.667 -0.5 30 -1.5s25.333 -1.5 36 -1.5c10 0 21.833 0.5 35.5 1.5s23.834 1.5 30.501 1.5h28v-8h-11c-19.333 0 -34.166 -3.83301 -44.499 -11.5s-19.833 -22.167 -28.5 -43.5l-214 -556c-4.66699 -10.667 -7 -20.667 -7 -30c0 -16 10.667 -24 32 -24h19
v-8zM281 731l-5 5.00098c22 24 46.333 55.167 73 93.5s44.334 61.833 53.001 70.5c7.33301 8 15.666 12 24.999 12c6.66699 0 12.667 -2.5 18 -7.5s8 -11.5 8 -19.5c0 -8.66699 -3.33301 -16.334 -10 -23.001c-7.33301 -7.33301 -30.5 -25 -69.5 -53s-69.833 -54 -92.5 -78z
" />
    <glyph glyph-name="Icircumflex" unicode="&#xce;" horiz-adv-x="257" 
d="M132 0h-34c-6.66699 0 -16.667 0.5 -30 1.5s-25.333 1.5 -36 1.5c-10 0 -21.833 -0.5 -35.5 -1.5s-23.834 -1.5 -30.501 -1.5h-28v8h11c19.333 0 34.166 3.83301 44.499 11.5s19.833 22.167 28.5 43.5l214 556c4.66699 10.667 7 20.667 7 30c0 16 -10.667 24 -32 24h-19
v8h34c6.66699 0 16.667 -0.5 30 -1.5s25.333 -1.5 36 -1.5c10 0 21.833 0.5 35.5 1.5s23.834 1.5 30.501 1.5h28v-8h-11c-19.333 0 -34.166 -3.83301 -44.499 -11.5s-19.833 -22.167 -28.5 -43.5l-214 -556c-4.66699 -10.667 -7 -20.667 -7 -30c0 -16 10.667 -24 32 -24h19
v-8zM410 732l-6.00195 -1.99902c-10 32.667 -25.667 71.667 -47 117c-7.33301 -6 -21.5 -16.833 -42.5 -32.5l-57 -43.5c-17 -13.333 -32.5 -27 -46.5 -41l-5 5c20.667 20.667 62.334 68.667 125.001 144c18.667 21.333 32 32 40 32c14.667 0 23 -10.667 25 -32
c0.666992 -8.66699 1.66699 -23.334 3 -44.001s2.83301 -39.5 4.5 -56.5s3.83398 -32.5 6.50098 -46.5z" />
    <glyph glyph-name="Idieresis" unicode="&#xcf;" horiz-adv-x="257" 
d="M132 0h-34c-6.66699 0 -16.667 0.5 -30 1.5s-25.333 1.5 -36 1.5c-10 0 -21.833 -0.5 -35.5 -1.5s-23.834 -1.5 -30.501 -1.5h-28v8h11c19.333 0 34.166 3.83301 44.499 11.5s19.833 22.167 28.5 43.5l214 556c4.66699 10.667 7 20.667 7 30c0 16 -10.667 24 -32 24h-19
v8h34c6.66699 0 16.667 -0.5 30 -1.5s25.333 -1.5 36 -1.5c10 0 21.833 0.5 35.5 1.5s23.834 1.5 30.501 1.5h28v-8h-11c-19.333 0 -34.166 -3.83301 -44.499 -11.5s-19.833 -22.167 -28.5 -43.5l-214 -556c-4.66699 -10.667 -7 -20.667 -7 -30c0 -16 10.667 -24 32 -24h19
v-8zM252 765c-12 0 -22 3.83203 -30 11.499s-12 17.834 -12 30.501s4 23 12 31s18 12 30 12s22.167 -4 30.5 -12s12.5 -18.333 12.5 -31c0 -12 -4.16699 -22 -12.5 -30s-18.5 -12 -30.5 -12zM422 764.999c-12 0 -22 3.83203 -30 11.499s-12 17.834 -12 30.501s4 23 12 31
s18 12 30 12s22.167 -4 30.5 -12s12.5 -18.333 12.5 -31c0 -12 -4.16699 -22 -12.5 -30s-18.5 -12 -30.5 -12z" />
    <glyph glyph-name="Eth" unicode="&#xd0;" horiz-adv-x="620" 
d="M627 478c0 -31.333 -4.83105 -66.6689 -14.498 -106.002s-25.667 -81.166 -48 -125.499s-49.333 -84.666 -81 -120.999s-72.334 -66.333 -122.001 -90s-103.834 -35.5 -162.501 -35.5h-95c-6.66699 0 -16.5 0.5 -29.5 1.5s-24.5 1.5 -34.5 1.5
c-9.33301 0 -21 -0.5 -35 -1.5s-24.333 -1.5 -31 -1.5h-28v8h10c19.333 0 34.5 4 45.5 12s20.5 22.333 28.5 43l107 280h-66v9h70l103 267c4.66699 10.667 7 20.667 7 30c0 16 -10.667 24 -32 24h-19v8h33c6 0 15.667 -0.166992 29 -0.5s25.333 -0.5 36 -0.5
c10 0 21.5 0.166992 34.5 0.5s22.833 0.5 29.5 0.5h58c138 0 207 -67.667 207 -203zM206.002 8.99707c48.667 0 94.5 15.498 137.5 46.498s78.167 69 105.5 114s51 93.333 71 145s34.333 97.334 43 137.001s13 70.167 13 91.5c0 48.667 -13.333 82.334 -40 101.001
s-67.667 28 -123 28h-83l-122 -320h126v-9h-130l-128 -334h130z" />
    <glyph glyph-name="Ntilde" unicode="&#xd1;" horiz-adv-x="629" 
d="M456 74l19.0059 -74.001c-6.66699 0 -13 0.166992 -19 0.5s-10.667 0.5 -14 0.5c-4 0 -8.83301 -0.166992 -14.5 -0.5s-11.167 -0.5 -16.5 -0.5l-162 613l-184 -478c-12 -31.333 -18 -56.333 -18 -75c0 -34 16.333 -51.333 49 -52h10v-8h-35
c-2.66699 0 -10.834 0.5 -24.501 1.5s-25.167 1.5 -34.5 1.5c-10 0 -20.833 -0.5 -32.5 -1.5s-18.834 -1.5 -21.501 -1.5h-33v8h14c45.333 0 84.333 43 117 129l188 487c-4 16 -9.5 28.167 -16.5 36.5s-17.5 12.5 -31.5 12.5h-20v8h36c6.66699 0 14.667 -0.166992 24 -0.5
s16.666 -0.5 21.999 -0.5c6.66699 0 13.167 0.166992 19.5 0.5s12.5 0.5 18.5 0.5l156 -592l176 457c12 31.333 18 56.333 18 75c0 34 -16.333 51.333 -49 52h-10v8h35c3.33301 0 11.666 -0.5 24.999 -1.5s25 -1.5 35 -1.5c10.667 0 21.5 0.5 32.5 1.5s18.167 1.5 21.5 1.5
h32v-8h-13c-26.667 0 -49.334 -11.667 -68.001 -35s-35.334 -54.666 -50.001 -93.999zM546.006 776.999c-13.333 0 -31.498 7.16699 -54.498 21.5s-43.5 21.5 -61.5 21.5c-16.667 0 -36.334 -18.667 -59.001 -56l-6 4c0.666992 0.666992 4.16699 6.5 10.5 17.5
s10.833 18.167 13.5 21.5l14.5 18.5c7 9 13.167 15.333 18.5 19s12 7.33398 20 11.001s16 5.5 24 5.5c13.333 0 31.666 -7.16699 54.999 -21.5s43.666 -21.5 60.999 -21.5c16.667 0 36.334 18.667 59.001 56l6 -4c-0.666992 -0.666992 -4.16699 -6.5 -10.5 -17.5
s-10.833 -18.167 -13.5 -21.5l-14.5 -18.5c-7 -9 -13.167 -15.333 -18.5 -19s-12 -7.33398 -20 -11.001s-16 -5.5 -24 -5.5z" />
    <glyph glyph-name="Ograve" unicode="&#xd2;" horiz-adv-x="627" 
d="M226 -10c-49.333 0 -90.001 19.167 -122.001 57.5s-48 89.166 -48 152.499c0 48.667 10 101.167 30 157.5s47 109.5 81 159.5s77.333 91.5 130 124.5s108.334 49.5 167.001 49.5c50 0 91 -19.167 123 -57.5s48 -89.166 48 -152.499c0 -48.667 -10 -101.167 -30 -157.5
s-47 -109.5 -81 -159.5s-77.5 -91.5 -130.5 -124.5s-108.833 -49.5 -167.5 -49.5zM229.999 -2c42 0 82.667 15.167 122 45.5s72.666 68.333 99.999 114s51.333 94.334 72 146.001s36 99.167 46 142.5s15 77.666 15 102.999c0 89.333 -41.333 134 -124 134
c-42 0 -82.667 -15.167 -122 -45.5s-72.666 -68.333 -99.999 -114s-51.333 -94.334 -72 -146.001s-36 -99.167 -46 -142.5s-15 -77.666 -15 -102.999c0 -89.333 41.333 -134 124 -134zM528.999 729l-7 -1.99902c-7.33301 26.667 -19.5 56.667 -36.5 90
s-25.5 55.666 -25.5 66.999c0 8 2.5 14.667 7.5 20s11.5 8 19.5 8c14.667 0 23.667 -7.66699 27 -23c2.66699 -12 4.5 -34.5 5.5 -67.5s4.16699 -63.833 9.5 -92.5z" />
    <glyph glyph-name="Oacute" unicode="&#xd3;" horiz-adv-x="627" 
d="M226 -10c-49.333 0 -90.001 19.167 -122.001 57.5s-48 89.166 -48 152.499c0 48.667 10 101.167 30 157.5s47 109.5 81 159.5s77.333 91.5 130 124.5s108.334 49.5 167.001 49.5c50 0 91 -19.167 123 -57.5s48 -89.166 48 -152.499c0 -48.667 -10 -101.167 -30 -157.5
s-47 -109.5 -81 -159.5s-77.5 -91.5 -130.5 -124.5s-108.833 -49.5 -167.5 -49.5zM229.999 -2c42 0 82.667 15.167 122 45.5s72.666 68.333 99.999 114s51.333 94.334 72 146.001s36 99.167 46 142.5s15 77.666 15 102.999c0 89.333 -41.333 134 -124 134
c-42 0 -82.667 -15.167 -122 -45.5s-72.666 -68.333 -99.999 -114s-51.333 -94.334 -72 -146.001s-36 -99.167 -46 -142.5s-15 -77.666 -15 -102.999c0 -89.333 41.333 -134 124 -134zM455.999 731l-5 5.00098c22 24 46.333 55.167 73 93.5s44.334 61.833 53.001 70.5
c7.33301 8 15.666 12 24.999 12c6.66699 0 12.667 -2.5 18 -7.5s8 -11.5 8 -19.5c0 -8.66699 -3.33301 -16.334 -10 -23.001c-7.33301 -7.33301 -30.5 -25 -69.5 -53s-69.833 -54 -92.5 -78z" />
    <glyph glyph-name="Ocircumflex" unicode="&#xd4;" horiz-adv-x="627" 
d="M226 -10c-49.333 0 -90.001 19.167 -122.001 57.5s-48 89.166 -48 152.499c0 48.667 10 101.167 30 157.5s47 109.5 81 159.5s77.333 91.5 130 124.5s108.334 49.5 167.001 49.5c50 0 91 -19.167 123 -57.5s48 -89.166 48 -152.499c0 -48.667 -10 -101.167 -30 -157.5
s-47 -109.5 -81 -159.5s-77.5 -91.5 -130.5 -124.5s-108.833 -49.5 -167.5 -49.5zM229.999 -2c42 0 82.667 15.167 122 45.5s72.666 68.333 99.999 114s51.333 94.334 72 146.001s36 99.167 46 142.5s15 77.666 15 102.999c0 89.333 -41.333 134 -124 134
c-42 0 -82.667 -15.167 -122 -45.5s-72.666 -68.333 -99.999 -114s-51.333 -94.334 -72 -146.001s-36 -99.167 -46 -142.5s-15 -77.666 -15 -102.999c0 -89.333 41.333 -134 124 -134zM584.999 732l-6.00195 -1.99902c-10 32.667 -25.667 71.667 -47 117
c-7.33301 -6 -21.5 -16.833 -42.5 -32.5l-57 -43.5c-17 -13.333 -32.5 -27 -46.5 -41l-5 5c20.667 20.667 62.334 68.667 125.001 144c18.667 21.333 32 32 40 32c14.667 0 23 -10.667 25 -32c0.666992 -8.66699 1.66699 -23.334 3 -44.001s2.83301 -39.5 4.5 -56.5
s3.83398 -32.5 6.50098 -46.5z" />
    <glyph glyph-name="Otilde" unicode="&#xd5;" horiz-adv-x="627" 
d="M226 -10c-49.333 0 -90.001 19.167 -122.001 57.5s-48 89.166 -48 152.499c0 48.667 10 101.167 30 157.5s47 109.5 81 159.5s77.333 91.5 130 124.5s108.334 49.5 167.001 49.5c50 0 91 -19.167 123 -57.5s48 -89.166 48 -152.499c0 -48.667 -10 -101.167 -30 -157.5
s-47 -109.5 -81 -159.5s-77.5 -91.5 -130.5 -124.5s-108.833 -49.5 -167.5 -49.5zM229.999 -2c42 0 82.667 15.167 122 45.5s72.666 68.333 99.999 114s51.333 94.334 72 146.001s36 99.167 46 142.5s15 77.666 15 102.999c0 89.333 -41.333 134 -124 134
c-42 0 -82.667 -15.167 -122 -45.5s-72.666 -68.333 -99.999 -114s-51.333 -94.334 -72 -146.001s-36 -99.167 -46 -142.5s-15 -77.666 -15 -102.999c0 -89.333 41.333 -134 124 -134zM560.999 777c-14 0 -32.333 7.16699 -55 21.5s-43 21.5 -61 21.5
c-16.667 0 -36.334 -18.667 -59.001 -56l-6 4c0.666992 0.666992 4.16699 6.5 10.5 17.5s10.833 18.167 13.5 21.5l14.5 18.5c7 9 13.167 15.333 18.5 19s12 7.33398 20 11.001s16 5.5 24 5.5c13.333 0 31.5 -7.16699 54.5 -21.5s43.5 -21.5 61.5 -21.5
c16.667 0 36.334 18.667 59.001 56l6 -4c-0.666992 -0.666992 -4.16699 -6.5 -10.5 -17.5s-10.833 -18.167 -13.5 -21.5l-14.5 -18.5c-7 -9 -13.167 -15.333 -18.5 -19s-12 -7.33398 -20 -11.001s-16 -5.5 -24 -5.5z" />
    <glyph glyph-name="Odieresis" unicode="&#xd6;" horiz-adv-x="627" 
d="M226 -10c-49.333 0 -90.001 19.167 -122.001 57.5s-48 89.166 -48 152.499c0 48.667 10 101.167 30 157.5s47 109.5 81 159.5s77.333 91.5 130 124.5s108.334 49.5 167.001 49.5c50 0 91 -19.167 123 -57.5s48 -89.166 48 -152.499c0 -48.667 -10 -101.167 -30 -157.5
s-47 -109.5 -81 -159.5s-77.5 -91.5 -130.5 -124.5s-108.833 -49.5 -167.5 -49.5zM229.999 -2c42 0 82.667 15.167 122 45.5s72.666 68.333 99.999 114s51.333 94.334 72 146.001s36 99.167 46 142.5s15 77.666 15 102.999c0 89.333 -41.333 134 -124 134
c-42 0 -82.667 -15.167 -122 -45.5s-72.666 -68.333 -99.999 -114s-51.333 -94.334 -72 -146.001s-36 -99.167 -46 -142.5s-15 -77.666 -15 -102.999c0 -89.333 41.333 -134 124 -134zM428.999 765c-12 0 -22 3.83203 -30 11.499s-12 17.834 -12 30.501s4 23 12 31
s18 12 30 12s22.167 -4 30.5 -12s12.5 -18.333 12.5 -31c0 -12 -4.16699 -22 -12.5 -30s-18.5 -12 -30.5 -12zM598.999 764.999c-12 0 -22 3.83203 -30 11.499s-12 17.834 -12 30.501s4 23 12 31s18 12 30 12s22.167 -4 30.5 -12s12.5 -18.333 12.5 -31
c0 -12 -4.16699 -22 -12.5 -30s-18.5 -12 -30.5 -12z" />
    <glyph glyph-name="multiply" unicode="&#xd7;" horiz-adv-x="382" 
d="M315 157l-8 -4l-85 163l-209 -163l-6 7l211 164l-84 163l8 4l84 -161l208 162l6 -7l-210 -164z" />
    <glyph glyph-name="Oslash" unicode="&#xd8;" horiz-adv-x="627" 
d="M226 -10c-59.333 0 -104.668 25.667 -136.001 77l-117 -122l-6 6l118 123c-19.333 34.667 -29 76.667 -29 126c0 48.667 10 101.167 30 157.5s47 109.5 81 159.5s77.333 91.5 130 124.5s108.334 49.5 167.001 49.5c60.667 0 106.667 -26.667 138 -80l120 125l6 -6
l-122 -126c19.333 -35.333 29 -76.333 29 -123c0 -48.667 -10 -101.167 -30 -157.5s-47 -109.5 -81 -159.5s-77.5 -91.5 -130.5 -124.5s-108.833 -49.5 -167.5 -49.5zM105.998 132c0 -16 0.666016 -27.333 1.99902 -34l473 492c-11.333 62 -51.333 93 -120 93
c-42 0 -82.667 -15.167 -122 -45.5s-72.666 -68.333 -99.999 -114s-51.333 -94.334 -72 -146.001s-36 -99.167 -46 -142.5s-15 -77.666 -15 -102.999zM229.997 -2c42 0 82.668 15.167 122.001 45.5s72.666 68.333 99.999 114s51.333 94.334 72 146.001s36 99.167 46 142.5
s15 77.666 15 102.999c0 8 -0.666992 18 -2 30l-473 -491c12.667 -60 52.667 -90 120 -90z" />
    <glyph glyph-name="Ugrave" unicode="&#xd9;" horiz-adv-x="593" 
d="M216 -8c-51.333 0 -91.3301 11.6709 -119.997 35.0039s-43 55.666 -43 96.999c0 30.667 10 71.667 30 123l143 372c4.66699 12 7 22 7 30c0 16 -10.667 24 -32 24h-19v8h34c6.66699 0 16.667 -0.5 30 -1.5s25 -1.5 35 -1.5s22 0.5 36 1.5s24.333 1.5 31 1.5h28v-8h-10
c-20 0 -35.333 -3.83301 -46 -11.5s-20 -22.167 -28 -43.5l-142 -369c-22.667 -59.333 -34 -105.333 -34 -138s9.66699 -58.334 29 -77.001s47.666 -28 84.999 -28c52 0 99.333 18.667 142 56s78 91.666 106 162.999l125 321c12 31.333 18 56.333 18 75
c0 34 -16.333 51.333 -49 52h-9v8h34c3.33301 0 11.666 -0.5 24.999 -1.5s25 -1.5 35 -1.5c10.667 0 21.5 0.5 32.5 1.5s17.833 1.5 20.5 1.5h33v-8h-15c-26.667 0 -48.834 -11.833 -66.501 -35.5s-34.167 -54.834 -49.5 -93.501l-125 -323
c-58.667 -152.667 -149 -229 -271 -229zM517.003 729.004l-7 -1.99902c-7.33301 26.667 -19.5 56.667 -36.5 90s-25.5 55.666 -25.5 66.999c0 8 2.5 14.667 7.5 20s11.5 8 19.5 8c14.667 0 23.667 -7.66699 27 -23c2.66699 -12 4.5 -34.5 5.5 -67.5
s4.16699 -63.833 9.5 -92.5z" />
    <glyph glyph-name="Uacute" unicode="&#xda;" horiz-adv-x="593" 
d="M216 -8c-51.333 0 -91.3301 11.6709 -119.997 35.0039s-43 55.666 -43 96.999c0 30.667 10 71.667 30 123l143 372c4.66699 12 7 22 7 30c0 16 -10.667 24 -32 24h-19v8h34c6.66699 0 16.667 -0.5 30 -1.5s25 -1.5 35 -1.5s22 0.5 36 1.5s24.333 1.5 31 1.5h28v-8h-10
c-20 0 -35.333 -3.83301 -46 -11.5s-20 -22.167 -28 -43.5l-142 -369c-22.667 -59.333 -34 -105.333 -34 -138s9.66699 -58.334 29 -77.001s47.666 -28 84.999 -28c52 0 99.333 18.667 142 56s78 91.666 106 162.999l125 321c12 31.333 18 56.333 18 75
c0 34 -16.333 51.333 -49 52h-9v8h34c3.33301 0 11.666 -0.5 24.999 -1.5s25 -1.5 35 -1.5c10.667 0 21.5 0.5 32.5 1.5s17.833 1.5 20.5 1.5h33v-8h-15c-26.667 0 -48.834 -11.833 -66.501 -35.5s-34.167 -54.834 -49.5 -93.501l-125 -323
c-58.667 -152.667 -149 -229 -271 -229zM444.003 731.004l-5 5.00098c22 24 46.333 55.167 73 93.5s44.334 61.833 53.001 70.5c7.33301 8 15.666 12 24.999 12c6.66699 0 12.667 -2.5 18 -7.5s8 -11.5 8 -19.5c0 -8.66699 -3.33301 -16.334 -10 -23.001
c-7.33301 -7.33301 -30.5 -25 -69.5 -53s-69.833 -54 -92.5 -78z" />
    <glyph glyph-name="Ucircumflex" unicode="&#xdb;" horiz-adv-x="593" 
d="M216 -8c-51.333 0 -91.3301 11.6709 -119.997 35.0039s-43 55.666 -43 96.999c0 30.667 10 71.667 30 123l143 372c4.66699 12 7 22 7 30c0 16 -10.667 24 -32 24h-19v8h34c6.66699 0 16.667 -0.5 30 -1.5s25 -1.5 35 -1.5s22 0.5 36 1.5s24.333 1.5 31 1.5h28v-8h-10
c-20 0 -35.333 -3.83301 -46 -11.5s-20 -22.167 -28 -43.5l-142 -369c-22.667 -59.333 -34 -105.333 -34 -138s9.66699 -58.334 29 -77.001s47.666 -28 84.999 -28c52 0 99.333 18.667 142 56s78 91.666 106 162.999l125 321c12 31.333 18 56.333 18 75
c0 34 -16.333 51.333 -49 52h-9v8h34c3.33301 0 11.666 -0.5 24.999 -1.5s25 -1.5 35 -1.5c10.667 0 21.5 0.5 32.5 1.5s17.833 1.5 20.5 1.5h33v-8h-15c-26.667 0 -48.834 -11.833 -66.501 -35.5s-34.167 -54.834 -49.5 -93.501l-125 -323
c-58.667 -152.667 -149 -229 -271 -229zM573.003 732.004l-6.00195 -1.99902c-10 32.667 -25.667 71.667 -47 117c-7.33301 -6 -21.5 -16.833 -42.5 -32.5l-57 -43.5c-17 -13.333 -32.5 -27 -46.5 -41l-5 5c20.667 20.667 62.334 68.667 125.001 144
c18.667 21.333 32 32 40 32c14.667 0 23 -10.667 25 -32c0.666992 -8.66699 1.66699 -23.334 3 -44.001s2.83301 -39.5 4.5 -56.5s3.83398 -32.5 6.50098 -46.5z" />
    <glyph glyph-name="Udieresis" unicode="&#xdc;" horiz-adv-x="593" 
d="M216 -8c-51.333 0 -91.3301 11.6709 -119.997 35.0039s-43 55.666 -43 96.999c0 30.667 10 71.667 30 123l143 372c4.66699 12 7 22 7 30c0 16 -10.667 24 -32 24h-19v8h34c6.66699 0 16.667 -0.5 30 -1.5s25 -1.5 35 -1.5s22 0.5 36 1.5s24.333 1.5 31 1.5h28v-8h-10
c-20 0 -35.333 -3.83301 -46 -11.5s-20 -22.167 -28 -43.5l-142 -369c-22.667 -59.333 -34 -105.333 -34 -138s9.66699 -58.334 29 -77.001s47.666 -28 84.999 -28c52 0 99.333 18.667 142 56s78 91.666 106 162.999l125 321c12 31.333 18 56.333 18 75
c0 34 -16.333 51.333 -49 52h-9v8h34c3.33301 0 11.666 -0.5 24.999 -1.5s25 -1.5 35 -1.5c10.667 0 21.5 0.5 32.5 1.5s17.833 1.5 20.5 1.5h33v-8h-15c-26.667 0 -48.834 -11.833 -66.501 -35.5s-34.167 -54.834 -49.5 -93.501l-125 -323
c-58.667 -152.667 -149 -229 -271 -229zM417.003 765.004c-12 0 -22 3.83203 -30 11.499s-12 17.834 -12 30.501s4 23 12 31s18 12 30 12s22.167 -4 30.5 -12s12.5 -18.333 12.5 -31c0 -12 -4.16699 -22 -12.5 -30s-18.5 -12 -30.5 -12zM587.003 765.003
c-12 0 -22 3.83203 -30 11.499s-12 17.834 -12 30.501s4 23 12 31s18 12 30 12s22.167 -4 30.5 -12s12.5 -18.333 12.5 -31c0 -12 -4.16699 -22 -12.5 -30s-18.5 -12 -30.5 -12z" />
    <glyph glyph-name="Yacute" unicode="&#xdd;" horiz-adv-x="561" 
d="M283 0l-33.999 0.000976562c-6 0 -15.667 0.5 -29 1.5s-25.333 1.5 -36 1.5c-10 0 -21.833 -0.5 -35.5 -1.5s-23.834 -1.5 -30.501 -1.5h-28v8h11c19.333 0 34.166 3.83301 44.499 11.5s19.833 22.167 28.5 43.5l100 261l-65 303c-4 17.333 -10.167 29.333 -18.5 36
s-21.166 10 -38.499 10h-10v8h42c2.66699 0 10.667 -0.5 24 -1.5s25.333 -1.5 36 -1.5s22.667 0.5 36 1.5s21.333 1.5 24 1.5h34v-8h-10c-36 0 -54 -11.333 -54 -34c0 -9.33301 1 -18.333 3 -27l59 -280l208 227l30.5 33c6.33301 6.66699 12.5 15 18.5 25s9 18.667 9 26
c0 20 -11.667 30 -35 30h-9v8h18c10.667 0 23.667 -0.5 39 -1.5s26 -1.5 32 -1.5c7.33301 0 19.5 0.5 36.5 1.5s27.5 1.5 31.5 1.5h25v-8h-8c-47.333 -0.666992 -108 -41.334 -182 -122.001l-213 -233l-98 -256c-4.66699 -13.333 -7 -23.333 -7 -30c0 -16 10.667 -24 32 -24
h19v-8zM426.001 731.001l-5 5.00098c22 24 46.333 55.167 73 93.5s44.334 61.833 53.001 70.5c7.33301 8 15.666 12 24.999 12c6.66699 0 12.667 -2.5 18 -7.5s8 -11.5 8 -19.5c0 -8.66699 -3.33301 -16.334 -10 -23.001c-7.33301 -7.33301 -30.5 -25 -69.5 -53
s-69.833 -54 -92.5 -78z" />
    <glyph glyph-name="Thorn" unicode="&#xde;" horiz-adv-x="542" 
d="M132 0h-34c-6.66699 0 -16.667 0.5 -30 1.5s-25.333 1.5 -36 1.5c-10 0 -21.833 -0.5 -35.5 -1.5s-23.834 -1.5 -30.501 -1.5h-28v8h11c19.333 0 34.166 3.83301 44.499 11.5s19.833 22.167 28.5 43.5l214 556c4.66699 10.667 7 20.667 7 30c0 16 -10.667 24 -32 24h-19
v8h34c6.66699 0 16.667 -0.5 30 -1.5s25.333 -1.5 36 -1.5c10 0 21.833 0.5 35.5 1.5s23.834 1.5 30.501 1.5h28v-8h-11c-19.333 0 -34.166 -3.83301 -44.499 -11.5s-19.833 -22.167 -28.5 -43.5l-30 -77h132c48 0 85.833 -11.333 113.5 -34s41.5 -53.667 41.5 -93
c0 -60.667 -26.333 -116 -79 -166s-121 -75 -205 -75h-145l-42 -111c-4.66699 -10.667 -7 -20.667 -7 -30c0 -16 10.667 -24 32 -24h19v-8zM400 532l-130.999 0.00195312l-135 -350h145c38.667 0 73.5 11.167 104.5 33.5s54.5 49.166 70.5 80.499s28 60.166 36 86.499
s12 47.5 12 63.5c0 30 -7.33301 51.833 -22 65.5s-41.334 20.5 -80.001 20.5z" />
    <glyph glyph-name="germandbls" unicode="&#xdf;" horiz-adv-x="503" 
d="M231 506l-127.999 -382.994c-38 -113.333 -92.167 -201.5 -162.5 -264.5s-136.833 -94.5 -199.5 -94.5c-10 0 -18.333 2.5 -25 7.5s-10 11.5 -10 19.5c0 18 11.667 27 35 27c7.33301 0 21.666 -2.66699 42.999 -8s37.666 -8 48.999 -8c31.333 0 63.333 22 96 66
s61.667 104.333 87 181l117 353l28 80h-86v8h89c26.667 62 60.834 110.833 102.501 146.5s88.834 53.5 141.501 53.5c34 0 63.333 -7.5 88 -22.5s37 -34.167 37 -57.5c0 -12 -2.83301 -23.333 -8.5 -34s-14.334 -20.834 -26.001 -30.501s-22.667 -17.834 -33 -24.501
s-23.666 -14.834 -39.999 -24.501s-28.5 -17.167 -36.5 -22.5c-18 -12.667 -31 -24.167 -39 -34.5s-12 -22.833 -12 -37.5c0 -6 1.16699 -12.333 3.5 -19s4.66602 -11.834 6.99902 -15.501l13 -19.5c6.33301 -9.33301 10.5 -15.333 12.5 -18l31 -47
c30 -44.667 45 -88 45 -130c0 -50 -15.667 -89.333 -47 -118s-68.333 -43 -111 -43c-42 0 -76.167 11.667 -102.5 35s-39.5 49 -39.5 77c0 7.33301 2.5 13.666 7.5 18.999s11.167 8 18.5 8c14 0 23 -9.33301 27 -28c7.33301 -35.333 17.333 -61.5 30 -78.5
s33.334 -25.5 62.001 -25.5c31.333 0 57.666 10.333 78.999 31s32 49.334 32 86.001c0 32 -18 75 -54 129l-33 49c-20 29.333 -30 53.666 -30 72.999c0 14.667 5.83301 29.834 17.5 45.501s22.5 27.5 32.5 35.5s24.667 19 44 33c30.667 21.333 54.667 42.166 72 62.499
s26 43.166 26 68.499c0 20.667 -6.16699 37.5 -18.5 50.5s-30.5 19.5 -54.5 19.5c-45.333 0 -81 -13.667 -107 -41s-49.333 -72.333 -70 -135z" />
    <glyph glyph-name="agrave" unicode="&#xe0;" horiz-adv-x="502" 
d="M306 -8c-15.333 0 -26.999 4.5 -34.999 13.5s-12 19.833 -12 32.5c0 9.33301 1.5 19.333 4.5 30s7.66699 24 14 40s10.166 25.333 11.499 28l97 255l-179 -269c-30 -45.333 -55.833 -78.333 -77.5 -99s-43.5 -31 -65.5 -31c-16.667 0 -30.834 5.33301 -42.501 16
s-17.5 27.334 -17.5 50.001c0 28.667 8.16699 67.334 24.5 116.001s37.333 97.167 63 145.5s56.667 90.166 93 125.499s71.833 53 106.5 53c40 0 76.333 -25.333 109 -76c24.667 9.33301 42.667 19.166 54 29.499s22.333 25.833 33 46.5l6 -2l-143 -371
c-21.333 -56 -32 -87 -32 -93c0 -12 5.66699 -18 17 -18c19.333 0 57 37 113 111l6 -4c-63.333 -86 -112.666 -129 -147.999 -129zM95.001 14c20.667 0 56 37.666 106 112.999l193 289c-10.667 18.667 -24.5 35.334 -41.5 50.001s-33.5 22 -49.5 22
c-33.333 0 -68.833 -30 -106.5 -90s-67.667 -124.167 -90 -192.5s-33.5 -119.833 -33.5 -154.5c0 -24.667 7.33301 -37 22 -37zM395.001 539.999l-7 -1.99902c-7.33301 26.667 -19.5 56.667 -36.5 90s-25.5 55.666 -25.5 66.999c0 8 2.5 14.667 7.5 20s11.5 8 19.5 8
c14.667 0 23.667 -7.66699 27 -23c2.66699 -12 4.5 -34.5 5.5 -67.5s4.16699 -63.833 9.5 -92.5z" />
    <glyph glyph-name="aacute" unicode="&#xe1;" horiz-adv-x="502" 
d="M306 -8c-15.333 0 -26.999 4.5 -34.999 13.5s-12 19.833 -12 32.5c0 9.33301 1.5 19.333 4.5 30s7.66699 24 14 40s10.166 25.333 11.499 28l97 255l-179 -269c-30 -45.333 -55.833 -78.333 -77.5 -99s-43.5 -31 -65.5 -31c-16.667 0 -30.834 5.33301 -42.501 16
s-17.5 27.334 -17.5 50.001c0 28.667 8.16699 67.334 24.5 116.001s37.333 97.167 63 145.5s56.667 90.166 93 125.499s71.833 53 106.5 53c40 0 76.333 -25.333 109 -76c24.667 9.33301 42.667 19.166 54 29.499s22.333 25.833 33 46.5l6 -2l-143 -371
c-21.333 -56 -32 -87 -32 -93c0 -12 5.66699 -18 17 -18c19.333 0 57 37 113 111l6 -4c-63.333 -86 -112.666 -129 -147.999 -129zM95.001 14c20.667 0 56 37.666 106 112.999l193 289c-10.667 18.667 -24.5 35.334 -41.5 50.001s-33.5 22 -49.5 22
c-33.333 0 -68.833 -30 -106.5 -90s-67.667 -124.167 -90 -192.5s-33.5 -119.833 -33.5 -154.5c0 -24.667 7.33301 -37 22 -37zM322.001 541.999l-5 5.00098c22 24 46.333 55.167 73 93.5s44.334 61.833 53.001 70.5c7.33301 8 15.666 12 24.999 12
c6.66699 0 12.667 -2.5 18 -7.5s8 -11.5 8 -19.5c0 -8.66699 -3.33301 -16.334 -10 -23.001c-7.33301 -7.33301 -30.5 -25 -69.5 -53s-69.833 -54 -92.5 -78z" />
    <glyph glyph-name="acircumflex" unicode="&#xe2;" horiz-adv-x="502" 
d="M306 -8c-15.333 0 -26.999 4.5 -34.999 13.5s-12 19.833 -12 32.5c0 9.33301 1.5 19.333 4.5 30s7.66699 24 14 40s10.166 25.333 11.499 28l97 255l-179 -269c-30 -45.333 -55.833 -78.333 -77.5 -99s-43.5 -31 -65.5 -31c-16.667 0 -30.834 5.33301 -42.501 16
s-17.5 27.334 -17.5 50.001c0 28.667 8.16699 67.334 24.5 116.001s37.333 97.167 63 145.5s56.667 90.166 93 125.499s71.833 53 106.5 53c40 0 76.333 -25.333 109 -76c24.667 9.33301 42.667 19.166 54 29.499s22.333 25.833 33 46.5l6 -2l-143 -371
c-21.333 -56 -32 -87 -32 -93c0 -12 5.66699 -18 17 -18c19.333 0 57 37 113 111l6 -4c-63.333 -86 -112.666 -129 -147.999 -129zM95.001 14c20.667 0 56 37.666 106 112.999l193 289c-10.667 18.667 -24.5 35.334 -41.5 50.001s-33.5 22 -49.5 22
c-33.333 0 -68.833 -30 -106.5 -90s-67.667 -124.167 -90 -192.5s-33.5 -119.833 -33.5 -154.5c0 -24.667 7.33301 -37 22 -37zM451.001 542.999l-6.00195 -1.99902c-10 32.667 -25.667 71.667 -47 117c-7.33301 -6 -21.5 -16.833 -42.5 -32.5l-57 -43.5
c-17 -13.333 -32.5 -27 -46.5 -41l-5 5c20.667 20.667 62.334 68.667 125.001 144c18.667 21.333 32 32 40 32c14.667 0 23 -10.667 25 -32c0.666992 -8.66699 1.66699 -23.334 3 -44.001s2.83301 -39.5 4.5 -56.5s3.83398 -32.5 6.50098 -46.5z" />
    <glyph glyph-name="atilde" unicode="&#xe3;" horiz-adv-x="502" 
d="M306 -8c-15.333 0 -26.999 4.5 -34.999 13.5s-12 19.833 -12 32.5c0 9.33301 1.5 19.333 4.5 30s7.66699 24 14 40s10.166 25.333 11.499 28l97 255l-179 -269c-30 -45.333 -55.833 -78.333 -77.5 -99s-43.5 -31 -65.5 -31c-16.667 0 -30.834 5.33301 -42.501 16
s-17.5 27.334 -17.5 50.001c0 28.667 8.16699 67.334 24.5 116.001s37.333 97.167 63 145.5s56.667 90.166 93 125.499s71.833 53 106.5 53c40 0 76.333 -25.333 109 -76c24.667 9.33301 42.667 19.166 54 29.499s22.333 25.833 33 46.5l6 -2l-143 -371
c-21.333 -56 -32 -87 -32 -93c0 -12 5.66699 -18 17 -18c19.333 0 57 37 113 111l6 -4c-63.333 -86 -112.666 -129 -147.999 -129zM95.001 14c20.667 0 56 37.666 106 112.999l193 289c-10.667 18.667 -24.5 35.334 -41.5 50.001s-33.5 22 -49.5 22
c-33.333 0 -68.833 -30 -106.5 -90s-67.667 -124.167 -90 -192.5s-33.5 -119.833 -33.5 -154.5c0 -24.667 7.33301 -37 22 -37zM427.001 587.999c-14 0 -32.333 7.16699 -55 21.5s-43 21.5 -61 21.5c-16.667 0 -36.334 -18.667 -59.001 -56l-6 4
c0.666992 0.666992 4.16699 6.5 10.5 17.5s10.833 18.167 13.5 21.5l14.5 18.5c7 9 13.167 15.333 18.5 19s12 7.33398 20 11.001s16 5.5 24 5.5c14 0 32.333 -7.16699 55 -21.5s43 -21.5 61 -21.5c16.667 0 36.334 18.667 59.001 56l6 -4
c-0.666992 -0.666992 -4.16699 -6.5 -10.5 -17.5s-10.833 -18.167 -13.5 -21.5l-14.5 -18.5c-7 -9 -13.167 -15.333 -18.5 -19s-12 -7.33398 -20 -11.001s-16 -5.5 -24 -5.5z" />
    <glyph glyph-name="adieresis" unicode="&#xe4;" horiz-adv-x="502" 
d="M306 -8c-15.333 0 -26.999 4.5 -34.999 13.5s-12 19.833 -12 32.5c0 9.33301 1.5 19.333 4.5 30s7.66699 24 14 40s10.166 25.333 11.499 28l97 255l-179 -269c-30 -45.333 -55.833 -78.333 -77.5 -99s-43.5 -31 -65.5 -31c-16.667 0 -30.834 5.33301 -42.501 16
s-17.5 27.334 -17.5 50.001c0 28.667 8.16699 67.334 24.5 116.001s37.333 97.167 63 145.5s56.667 90.166 93 125.499s71.833 53 106.5 53c40 0 76.333 -25.333 109 -76c24.667 9.33301 42.667 19.166 54 29.499s22.333 25.833 33 46.5l6 -2l-143 -371
c-21.333 -56 -32 -87 -32 -93c0 -12 5.66699 -18 17 -18c19.333 0 57 37 113 111l6 -4c-63.333 -86 -112.666 -129 -147.999 -129zM95.001 14c20.667 0 56 37.666 106 112.999l193 289c-10.667 18.667 -24.5 35.334 -41.5 50.001s-33.5 22 -49.5 22
c-33.333 0 -68.833 -30 -106.5 -90s-67.667 -124.167 -90 -192.5s-33.5 -119.833 -33.5 -154.5c0 -24.667 7.33301 -37 22 -37zM299.001 585.999c-12 0 -22 3.83203 -30 11.499s-12 17.834 -12 30.501s4 23 12 31s18 12 30 12s22.167 -4 30.5 -12s12.5 -18.333 12.5 -31
c0 -12 -4.16699 -22 -12.5 -30s-18.5 -12 -30.5 -12zM469.001 585.998c-12 0 -22 3.83203 -30 11.499s-12 17.834 -12 30.501s4 23 12 31s18 12 30 12s22.167 -4 30.5 -12s12.5 -18.333 12.5 -31c0 -12 -4.16699 -22 -12.5 -30s-18.5 -12 -30.5 -12z" />
    <glyph glyph-name="aring" unicode="&#xe5;" horiz-adv-x="502" 
d="M306 -8c-15.333 0 -26.999 4.5 -34.999 13.5s-12 19.833 -12 32.5c0 9.33301 1.5 19.333 4.5 30s7.66699 24 14 40s10.166 25.333 11.499 28l97 255l-179 -269c-30 -45.333 -55.833 -78.333 -77.5 -99s-43.5 -31 -65.5 -31c-16.667 0 -30.834 5.33301 -42.501 16
s-17.5 27.334 -17.5 50.001c0 28.667 8.16699 67.334 24.5 116.001s37.333 97.167 63 145.5s56.667 90.166 93 125.499s71.833 53 106.5 53c40 0 76.333 -25.333 109 -76c24.667 9.33301 42.667 19.166 54 29.499s22.333 25.833 33 46.5l6 -2l-143 -371
c-21.333 -56 -32 -87 -32 -93c0 -12 5.66699 -18 17 -18c19.333 0 57 37 113 111l6 -4c-63.333 -86 -112.666 -129 -147.999 -129zM95.001 14c20.667 0 56 37.666 106 112.999l193 289c-10.667 18.667 -24.5 35.334 -41.5 50.001s-33.5 22 -49.5 22
c-33.333 0 -68.833 -30 -106.5 -90s-67.667 -124.167 -90 -192.5s-33.5 -119.833 -33.5 -154.5c0 -24.667 7.33301 -37 22 -37zM473.001 638.999c0 -24 -8 -44.333 -24 -61s-36 -25 -60 -25s-44 8.33301 -60 25s-24 37 -24 61s8 44.333 24 61s36 25 60 25
s44 -8.33301 60 -25s24 -37 24 -61zM464.001 638.999c0 21.333 -7.16699 39.5 -21.5 54.5s-32.166 22.5 -53.499 22.5s-39.166 -7.5 -53.499 -22.5s-21.5 -33.167 -21.5 -54.5s7.16699 -39.5 21.5 -54.5s32.166 -22.5 53.499 -22.5s39.166 7.5 53.499 22.5
s21.5 33.167 21.5 54.5z" />
    <glyph glyph-name="ae" unicode="&#xe6;" horiz-adv-x="657" 
d="M292 498c22.667 0 45.3311 -8.16797 67.998 -24.501s40 -35.166 52 -56.499c52.667 54 106 81 160 81c28 0 51.167 -6 69.5 -18s27.5 -28 27.5 -48c0 -26 -17 -53 -51 -81s-74.167 -51 -120.5 -69s-89.5 -29 -129.5 -33c-12 -40 -18 -78 -18 -114
c0 -34.667 5.66699 -60.834 17 -78.501s27 -26.5 47 -26.5c48 0 104.667 42.667 170 128l5 -4c-78.667 -108 -148.667 -162 -210 -162c-28.667 0 -52.167 11.833 -70.5 35.5s-27.5 53.834 -27.5 90.501c0 49.333 13.333 104 40 164l-121 -171
c-31.333 -44 -57.333 -74.833 -78 -92.5s-39.667 -26.5 -57 -26.5c-18.667 0 -33.5 5.83301 -44.5 17.5s-16.5 27.167 -16.5 46.5c0 30 8.16699 69.5 24.5 118.5s37.333 97.667 63 146s56.834 90 93.501 125s72.334 52.5 107.001 52.5zM193.997 115.999l161.999 230
c20.667 30 37.334 51.667 50.001 65c-10 18.667 -25.5 36.167 -46.5 52.5s-39.833 24.5 -56.5 24.5c-34 0 -69.833 -30.5 -107.5 -91.5s-67.5 -125.667 -89.5 -194s-33 -118.833 -33 -151.5c0 -24.667 7.33301 -37 22 -37c18 0 51 34 99 102zM573.996 490.999
c-41.333 0 -80.668 -23.1689 -118.001 -69.502s-65.666 -101.166 -84.999 -164.499c65.333 6.66699 121.833 29.334 169.5 68.001s71.5 80.667 71.5 126c0 26.667 -12.667 40 -38 40z" />
    <glyph glyph-name="ccedilla" unicode="&#xe7;" horiz-adv-x="400" 
d="M135 -99c0 -35.333 -24.5029 -67.8359 -73.5029 -97.5029s-99.5 -47.5 -151.5 -53.5l-1 7c41.333 4.66699 81.5 18.834 120.5 42.501s58.5 51.167 58.5 82.5c0 18 -11 27 -33 27c-20 0 -38.667 -4 -56 -12l-2 3l106 93c-24.667 2.66699 -45.167 15.5 -61.5 38.5
s-24.5 51.833 -24.5 86.5c0 52.667 13.333 108.5 40 167.5s62.334 109.167 107.001 150.5s90.334 62 137.001 62c28 0 51 -11.333 69 -34s27 -47.667 27 -75c0 -39.333 -10.667 -59 -32 -59c-7.33301 0 -13.333 2.5 -18 7.5s-7 11.167 -7 18.5c0 6 3 17.333 9 34
s9 31.334 9 44.001c0 16.667 -5 30.334 -15 41.001s-23.667 16 -41 16c-34.667 0 -69.167 -19.667 -103.5 -59s-61.666 -86.5 -81.999 -141.5s-30.5 -106.167 -30.5 -153.5c0 -71.333 20.667 -107 62 -107c48.667 0 106 42.667 172 128l5 -4
c-78 -108 -148.667 -162 -212 -162h-3l-46 -50c6.66699 1.33301 13 2 19 2c15.333 0 27.833 -4 37.5 -12s14.5 -18.333 14.5 -31z" />
    <glyph glyph-name="egrave" unicode="&#xe8;" horiz-adv-x="398" 
d="M116 -8c-28.667 0 -52.167 11.834 -70.5 35.501s-27.5 53.834 -27.5 90.501c0 55.333 14.333 112.666 43 171.999s66.167 108.833 112.5 148.5s92.833 59.5 139.5 59.5c28 0 51.167 -6 69.5 -18s27.5 -28 27.5 -48c0 -26 -17.167 -53 -51.5 -81s-75 -51 -122 -69
s-90.5 -29 -130.5 -33c-12.667 -42 -19 -80 -19 -114c0 -34.667 5.66699 -60.834 17 -78.501s27 -26.5 47 -26.5c48 0 104.667 42.667 170 128l5 -4c-78.667 -108 -148.667 -162 -210 -162zM353 451.001c0 26.667 -12.667 39.998 -38 39.998c-42 0 -82 -23.167 -120 -69.5
s-67 -101.166 -87 -164.499c66.667 6.66699 124.167 29.334 172.5 68.001s72.5 80.667 72.5 126zM366 539.999l-7 -1.99902c-7.33301 26.667 -19.5 56.667 -36.5 90s-25.5 55.666 -25.5 66.999c0 8 2.5 14.667 7.5 20s11.5 8 19.5 8c14.667 0 23.667 -7.66699 27 -23
c2.66699 -12 4.5 -34.5 5.5 -67.5s4.16699 -63.833 9.5 -92.5z" />
    <glyph glyph-name="eacute" unicode="&#xe9;" horiz-adv-x="398" 
d="M116 -8c-28.667 0 -52.167 11.834 -70.5 35.501s-27.5 53.834 -27.5 90.501c0 55.333 14.333 112.666 43 171.999s66.167 108.833 112.5 148.5s92.833 59.5 139.5 59.5c28 0 51.167 -6 69.5 -18s27.5 -28 27.5 -48c0 -26 -17.167 -53 -51.5 -81s-75 -51 -122 -69
s-90.5 -29 -130.5 -33c-12.667 -42 -19 -80 -19 -114c0 -34.667 5.66699 -60.834 17 -78.501s27 -26.5 47 -26.5c48 0 104.667 42.667 170 128l5 -4c-78.667 -108 -148.667 -162 -210 -162zM353 451.001c0 26.667 -12.667 39.998 -38 39.998c-42 0 -82 -23.167 -120 -69.5
s-67 -101.166 -87 -164.499c66.667 6.66699 124.167 29.334 172.5 68.001s72.5 80.667 72.5 126zM293 541.999l-5 5.00098c22 24 46.333 55.167 73 93.5s44.334 61.833 53.001 70.5c7.33301 8 15.666 12 24.999 12c6.66699 0 12.667 -2.5 18 -7.5s8 -11.5 8 -19.5
c0 -8.66699 -3.33301 -16.334 -10 -23.001c-7.33301 -7.33301 -30.5 -25 -69.5 -53s-69.833 -54 -92.5 -78z" />
    <glyph glyph-name="ecircumflex" unicode="&#xea;" horiz-adv-x="398" 
d="M116 -8c-28.667 0 -52.167 11.834 -70.5 35.501s-27.5 53.834 -27.5 90.501c0 55.333 14.333 112.666 43 171.999s66.167 108.833 112.5 148.5s92.833 59.5 139.5 59.5c28 0 51.167 -6 69.5 -18s27.5 -28 27.5 -48c0 -26 -17.167 -53 -51.5 -81s-75 -51 -122 -69
s-90.5 -29 -130.5 -33c-12.667 -42 -19 -80 -19 -114c0 -34.667 5.66699 -60.834 17 -78.501s27 -26.5 47 -26.5c48 0 104.667 42.667 170 128l5 -4c-78.667 -108 -148.667 -162 -210 -162zM353 451.001c0 26.667 -12.667 39.998 -38 39.998c-42 0 -82 -23.167 -120 -69.5
s-67 -101.166 -87 -164.499c66.667 6.66699 124.167 29.334 172.5 68.001s72.5 80.667 72.5 126zM422 542.999l-6.00195 -1.99902c-10 32.667 -25.667 71.667 -47 117c-7.33301 -6 -21.5 -16.833 -42.5 -32.5l-57 -43.5c-17 -13.333 -32.5 -27 -46.5 -41l-5 5
c20.667 20.667 62.334 68.667 125.001 144c18.667 21.333 32 32 40 32c14.667 0 23 -10.667 25 -32c0.666992 -8.66699 1.66699 -23.334 3 -44.001s2.83301 -39.5 4.5 -56.5s3.83398 -32.5 6.50098 -46.5z" />
    <glyph glyph-name="edieresis" unicode="&#xeb;" horiz-adv-x="398" 
d="M116 -8c-28.667 0 -52.167 11.834 -70.5 35.501s-27.5 53.834 -27.5 90.501c0 55.333 14.333 112.666 43 171.999s66.167 108.833 112.5 148.5s92.833 59.5 139.5 59.5c28 0 51.167 -6 69.5 -18s27.5 -28 27.5 -48c0 -26 -17.167 -53 -51.5 -81s-75 -51 -122 -69
s-90.5 -29 -130.5 -33c-12.667 -42 -19 -80 -19 -114c0 -34.667 5.66699 -60.834 17 -78.501s27 -26.5 47 -26.5c48 0 104.667 42.667 170 128l5 -4c-78.667 -108 -148.667 -162 -210 -162zM353 451.001c0 26.667 -12.667 39.998 -38 39.998c-42 0 -82 -23.167 -120 -69.5
s-67 -101.166 -87 -164.499c66.667 6.66699 124.167 29.334 172.5 68.001s72.5 80.667 72.5 126zM270 585.999c-12 0 -22 3.83203 -30 11.499s-12 17.834 -12 30.501s4 23 12 31s18 12 30 12s22.167 -4 30.5 -12s12.5 -18.333 12.5 -31c0 -12 -4.16699 -22 -12.5 -30
s-18.5 -12 -30.5 -12zM440 585.998c-12 0 -22 3.83203 -30 11.499s-12 17.834 -12 30.501s4 23 12 31s18 12 30 12s22.167 -4 30.5 -12s12.5 -18.333 12.5 -31c0 -12 -4.16699 -22 -12.5 -30s-18.5 -12 -30.5 -12z" />
    <glyph glyph-name="igrave" unicode="&#xec;" horiz-adv-x="263" 
d="M216 354l-111 -229c-22.667 -45.333 -34 -76.333 -34 -93c0 -12 5.66699 -18 17 -18c19.333 0 57 37 113 111l6 -4c-63.333 -86 -112.666 -129 -147.999 -129c-15.333 0 -27 4.5 -35 13.5s-12 19.833 -12 32.5c0 21.333 10.667 54 32 98l111 229
c22.667 45.333 34 76.333 34 93c0 12 -5.66699 18 -17 18c-19.333 0 -57 -37 -113 -111l-6 4c63.333 86 112.666 129 147.999 129c15.333 0 27 -4.5 35 -13.5s12 -19.833 12 -32.5c0 -21.333 -10.667 -54 -32 -98zM275 540l-7 -1.99902
c-7.33301 26.667 -19.5 56.667 -36.5 90s-25.5 55.666 -25.5 66.999c0 8 2.5 14.667 7.5 20s11.5 8 19.5 8c14.667 0 23.667 -7.66699 27 -23c2.66699 -12 4.5 -34.5 5.5 -67.5s4.16699 -63.833 9.5 -92.5z" />
    <glyph glyph-name="iacute" unicode="&#xed;" horiz-adv-x="263" 
d="M216 354l-111 -229c-22.667 -45.333 -34 -76.333 -34 -93c0 -12 5.66699 -18 17 -18c19.333 0 57 37 113 111l6 -4c-63.333 -86 -112.666 -129 -147.999 -129c-15.333 0 -27 4.5 -35 13.5s-12 19.833 -12 32.5c0 21.333 10.667 54 32 98l111 229
c22.667 45.333 34 76.333 34 93c0 12 -5.66699 18 -17 18c-19.333 0 -57 -37 -113 -111l-6 4c63.333 86 112.666 129 147.999 129c15.333 0 27 -4.5 35 -13.5s12 -19.833 12 -32.5c0 -21.333 -10.667 -54 -32 -98zM202 542l-5 5.00098c22 24 46.333 55.167 73 93.5
s44.334 61.833 53.001 70.5c7.33301 8 15.666 12 24.999 12c6.66699 0 12.667 -2.5 18 -7.5s8 -11.5 8 -19.5c0 -8.66699 -3.33301 -16.334 -10 -23.001c-7.33301 -7.33301 -30.5 -25 -69.5 -53s-69.833 -54 -92.5 -78z" />
    <glyph glyph-name="icircumflex" unicode="&#xee;" horiz-adv-x="263" 
d="M216 354l-111 -229c-22.667 -45.333 -34 -76.333 -34 -93c0 -12 5.66699 -18 17 -18c19.333 0 57 37 113 111l6 -4c-63.333 -86 -112.666 -129 -147.999 -129c-15.333 0 -27 4.5 -35 13.5s-12 19.833 -12 32.5c0 21.333 10.667 54 32 98l111 229
c22.667 45.333 34 76.333 34 93c0 12 -5.66699 18 -17 18c-19.333 0 -57 -37 -113 -111l-6 4c63.333 86 112.666 129 147.999 129c15.333 0 27 -4.5 35 -13.5s12 -19.833 12 -32.5c0 -21.333 -10.667 -54 -32 -98zM331 543l-6.00195 -1.99902
c-10 32.667 -25.667 71.667 -47 117c-7.33301 -6 -21.5 -16.833 -42.5 -32.5l-57 -43.5c-17 -13.333 -32.5 -27 -46.5 -41l-5 5c20.667 20.667 62.334 68.667 125.001 144c18.667 21.333 32 32 40 32c14.667 0 23 -10.667 25 -32
c0.666992 -8.66699 1.66699 -23.334 3 -44.001s2.83301 -39.5 4.5 -56.5s3.83398 -32.5 6.50098 -46.5z" />
    <glyph glyph-name="idieresis" unicode="&#xef;" horiz-adv-x="263" 
d="M216 354l-111 -229c-22.667 -45.333 -34 -76.333 -34 -93c0 -12 5.66699 -18 17 -18c19.333 0 57 37 113 111l6 -4c-63.333 -86 -112.666 -129 -147.999 -129c-15.333 0 -27 4.5 -35 13.5s-12 19.833 -12 32.5c0 21.333 10.667 54 32 98l111 229
c22.667 45.333 34 76.333 34 93c0 12 -5.66699 18 -17 18c-19.333 0 -57 -37 -113 -111l-6 4c63.333 86 112.666 129 147.999 129c15.333 0 27 -4.5 35 -13.5s12 -19.833 12 -32.5c0 -21.333 -10.667 -54 -32 -98zM179 586c-12 0 -22 3.83203 -30 11.499
s-12 17.834 -12 30.501s4 23 12 31s18 12 30 12s22.167 -4 30.5 -12s12.5 -18.333 12.5 -31c0 -12 -4.16699 -22 -12.5 -30s-18.5 -12 -30.5 -12zM349 585.999c-12 0 -22 3.83203 -30 11.499s-12 17.834 -12 30.501s4 23 12 31s18 12 30 12s22.167 -4 30.5 -12
s12.5 -18.333 12.5 -31c0 -12 -4.16699 -22 -12.5 -30s-18.5 -12 -30.5 -12z" />
    <glyph glyph-name="eth" unicode="&#xf0;" horiz-adv-x="450" 
d="M127 -8c-28 0 -53.166 13.001 -75.499 39.001s-33.5 59.667 -33.5 101c0 31.333 7 67.5 21 108.5s33.167 80.833 57.5 119.5s55.5 71.334 93.5 98.001s78 40 120 40c28 0 50.333 -10 67 -30c0.666992 7.33301 1 16.666 1 27.999c0 40.667 -8.33301 77.334 -25 110.001
l-102 -56l-4 7l102 56c-20 35.333 -49 59.666 -87 72.999l2 7c40 -12.667 74 -36 102 -70l93 51l4 -7l-92 -51c40 -51.333 60 -116 60 -194c0 -64.667 -12.833 -129.834 -38.5 -195.501s-62.334 -121.167 -110.001 -166.5s-99.5 -68 -155.5 -68zM128.001 -0.999023
c46.667 0 94 39.332 142 117.999c30.667 50.667 56 107.834 76 171.501s30 120.167 30 169.5c-17.333 22 -39 33 -65 33c-56 0 -110.667 -51.333 -164 -154c-24 -45.333 -43.333 -93 -58 -143s-22 -90.333 -22 -121c0 -49.333 20.333 -74 61 -74z" />
    <glyph glyph-name="ntilde" unicode="&#xf1;" horiz-adv-x="533" 
d="M331 -8c-15.333 0 -27.0059 4.50195 -35.0059 13.502s-12 19.833 -12 32.5c0 20.667 10.667 53 32 97l106 217c26.667 54.667 40 88.667 40 102c0 14.667 -6.33301 22 -19 22c-9.33301 0 -23 -9.66699 -41 -29s-47.667 -57.333 -89 -114l-243 -333
c-3.33301 0 -8.83301 0.333008 -16.5 1s-13.167 1 -16.5 1s-8.83301 -0.333008 -16.5 -1s-13.167 -1 -16.5 -1l152 365c22.667 54.667 34 85.667 34 93c0 12 -5.33301 18 -16 18c-21.333 0 -59.666 -37 -114.999 -111l-6 4c62.667 86 112.334 129 149.001 129
c15.333 0 27 -4.5 35 -13.5s12 -19.833 12 -32.5c0 -18.667 -10 -51.334 -30 -98.001l-137 -324l225 308c46.667 63.333 80.834 105.833 102.501 127.5s43.834 32.5 66.501 32.5c14.667 0 25.834 -4.66699 33.501 -14s11.5 -20 11.5 -32
c0 -22.667 -11.333 -57.334 -34 -104.001l-109 -223c-23.333 -46.667 -35 -77.667 -35 -93c0 -12 5.66699 -18 17 -18c19.333 0 57 37 113 111l6 -4c-63.333 -86 -112.666 -129 -147.999 -129zM438.994 588.002c-14 0 -32.333 7.16699 -55 21.5s-43 21.5 -61 21.5
c-16.667 0 -36.334 -18.667 -59.001 -56l-6 4c0.666992 0.666992 4.16699 6.5 10.5 17.5s10.833 18.167 13.5 21.5l14.5 18.5c7 9 13.167 15.333 18.5 19s12 7.33398 20 11.001s16 5.5 24 5.5c14 0 32.5 -7.16699 55.5 -21.5s43.167 -21.5 60.5 -21.5
c16.667 0 36.334 18.667 59.001 56l6 -4c-0.666992 -0.666992 -4.16699 -6.5 -10.5 -17.5s-10.833 -18.167 -13.5 -21.5l-14.5 -18.5c-7 -9 -13.167 -15.333 -18.5 -19s-12 -7.33398 -20 -11.001s-16 -5.5 -24 -5.5z" />
    <glyph glyph-name="ograve" unicode="&#xf2;" horiz-adv-x="442" 
d="M129 -1c46.667 0 93.667 38 141 114c29.333 47.333 53.833 101 73.5 161s29.5 107.667 29.5 143c0 49.333 -20 74 -60 74c-46.667 0 -93.667 -38 -141 -114c-29.333 -47.333 -53.833 -101 -73.5 -161s-29.5 -107.667 -29.5 -143c0 -49.333 20 -74 60 -74zM129 -8
c-26.667 0 -51.834 12.333 -75.501 37s-35.5 59.667 -35.5 105c0 30 7 65.167 21 105.5s33 80 57 119s55.333 72 94 99s79.667 40.5 123 40.5c26.667 0 51.834 -12.333 75.501 -37s35.5 -59.667 35.5 -105c0 -30 -7 -65.167 -21 -105.5s-33 -80 -57 -119
s-55.333 -72 -94 -99s-79.667 -40.5 -123 -40.5zM378 540l-7 -1.99902c-7.33301 26.667 -19.5 56.667 -36.5 90s-25.5 55.666 -25.5 66.999c0 8 2.5 14.667 7.5 20s11.5 8 19.5 8c14.667 0 23.667 -7.66699 27 -23c2.66699 -12 4.5 -34.5 5.5 -67.5
s4.16699 -63.833 9.5 -92.5z" />
    <glyph glyph-name="oacute" unicode="&#xf3;" horiz-adv-x="442" 
d="M129 -1c46.667 0 93.667 38 141 114c29.333 47.333 53.833 101 73.5 161s29.5 107.667 29.5 143c0 49.333 -20 74 -60 74c-46.667 0 -93.667 -38 -141 -114c-29.333 -47.333 -53.833 -101 -73.5 -161s-29.5 -107.667 -29.5 -143c0 -49.333 20 -74 60 -74zM129 -8
c-26.667 0 -51.834 12.333 -75.501 37s-35.5 59.667 -35.5 105c0 30 7 65.167 21 105.5s33 80 57 119s55.333 72 94 99s79.667 40.5 123 40.5c26.667 0 51.834 -12.333 75.501 -37s35.5 -59.667 35.5 -105c0 -30 -7 -65.167 -21 -105.5s-33 -80 -57 -119
s-55.333 -72 -94 -99s-79.667 -40.5 -123 -40.5zM305 542l-5 5.00098c22 24 46.333 55.167 73 93.5s44.334 61.833 53.001 70.5c7.33301 8 15.666 12 24.999 12c6.66699 0 12.667 -2.5 18 -7.5s8 -11.5 8 -19.5c0 -8.66699 -3.33301 -16.334 -10 -23.001
c-7.33301 -7.33301 -30.5 -25 -69.5 -53s-69.833 -54 -92.5 -78z" />
    <glyph glyph-name="ocircumflex" unicode="&#xf4;" horiz-adv-x="442" 
d="M129 -1c46.667 0 93.667 38 141 114c29.333 47.333 53.833 101 73.5 161s29.5 107.667 29.5 143c0 49.333 -20 74 -60 74c-46.667 0 -93.667 -38 -141 -114c-29.333 -47.333 -53.833 -101 -73.5 -161s-29.5 -107.667 -29.5 -143c0 -49.333 20 -74 60 -74zM129 -8
c-26.667 0 -51.834 12.333 -75.501 37s-35.5 59.667 -35.5 105c0 30 7 65.167 21 105.5s33 80 57 119s55.333 72 94 99s79.667 40.5 123 40.5c26.667 0 51.834 -12.333 75.501 -37s35.5 -59.667 35.5 -105c0 -30 -7 -65.167 -21 -105.5s-33 -80 -57 -119
s-55.333 -72 -94 -99s-79.667 -40.5 -123 -40.5zM434 543l-6.00195 -1.99902c-10 32.667 -25.667 71.667 -47 117c-7.33301 -6 -21.5 -16.833 -42.5 -32.5l-57 -43.5c-17 -13.333 -32.5 -27 -46.5 -41l-5 5c20.667 20.667 62.334 68.667 125.001 144
c18.667 21.333 32 32 40 32c14.667 0 23 -10.667 25 -32c0.666992 -8.66699 1.66699 -23.334 3 -44.001s2.83301 -39.5 4.5 -56.5s3.83398 -32.5 6.50098 -46.5z" />
    <glyph glyph-name="otilde" unicode="&#xf5;" horiz-adv-x="442" 
d="M129 -1c46.667 0 93.667 38 141 114c29.333 47.333 53.833 101 73.5 161s29.5 107.667 29.5 143c0 49.333 -20 74 -60 74c-46.667 0 -93.667 -38 -141 -114c-29.333 -47.333 -53.833 -101 -73.5 -161s-29.5 -107.667 -29.5 -143c0 -49.333 20 -74 60 -74zM129 -8
c-26.667 0 -51.834 12.333 -75.501 37s-35.5 59.667 -35.5 105c0 30 7 65.167 21 105.5s33 80 57 119s55.333 72 94 99s79.667 40.5 123 40.5c26.667 0 51.834 -12.333 75.501 -37s35.5 -59.667 35.5 -105c0 -30 -7 -65.167 -21 -105.5s-33 -80 -57 -119
s-55.333 -72 -94 -99s-79.667 -40.5 -123 -40.5zM410 588c-13.333 0 -31.666 7.16699 -54.999 21.5s-43.666 21.5 -60.999 21.5c-16.667 0 -36.334 -18.667 -59.001 -56l-6 4c0.666992 0.666992 4.16699 6.5 10.5 17.5s10.833 18.167 13.5 21.5l14.5 18.5
c7 9 13.167 15.333 18.5 19s12 7.33398 20 11.001s16 5.5 24 5.5c13.333 0 31.666 -7.16699 54.999 -21.5s43.666 -21.5 60.999 -21.5c16.667 0 36.334 18.667 59.001 56l6 -4c-0.666992 -0.666992 -4.16699 -6.5 -10.5 -17.5s-10.833 -18.167 -13.5 -21.5l-14.5 -18.5
c-7 -9 -13.167 -15.333 -18.5 -19s-12 -7.33398 -20 -11.001s-16 -5.5 -24 -5.5z" />
    <glyph glyph-name="odieresis" unicode="&#xf6;" horiz-adv-x="442" 
d="M129 -1c46.667 0 93.667 38 141 114c29.333 47.333 53.833 101 73.5 161s29.5 107.667 29.5 143c0 49.333 -20 74 -60 74c-46.667 0 -93.667 -38 -141 -114c-29.333 -47.333 -53.833 -101 -73.5 -161s-29.5 -107.667 -29.5 -143c0 -49.333 20 -74 60 -74zM129 -8
c-26.667 0 -51.834 12.333 -75.501 37s-35.5 59.667 -35.5 105c0 30 7 65.167 21 105.5s33 80 57 119s55.333 72 94 99s79.667 40.5 123 40.5c26.667 0 51.834 -12.333 75.501 -37s35.5 -59.667 35.5 -105c0 -30 -7 -65.167 -21 -105.5s-33 -80 -57 -119
s-55.333 -72 -94 -99s-79.667 -40.5 -123 -40.5zM282 586c-12 0 -22 3.83203 -30 11.499s-12 17.834 -12 30.501s4 23 12 31s18 12 30 12s22.167 -4 30.5 -12s12.5 -18.333 12.5 -31c0 -12 -4.16699 -22 -12.5 -30s-18.5 -12 -30.5 -12zM452 585.999
c-12 0 -22 3.83203 -30 11.499s-12 17.834 -12 30.501s4 23 12 31s18 12 30 12s22.167 -4 30.5 -12s12.5 -18.333 12.5 -31c0 -12 -4.16699 -22 -12.5 -30s-18.5 -12 -30.5 -12z" />
    <glyph glyph-name="divide" unicode="&#xf7;" horiz-adv-x="493" 
d="M284 474c0 14 4.66699 25.667 14 35s20.666 14 33.999 14s24.833 -4.66699 34.5 -14s14.5 -21 14.5 -35s-4.66699 -25.5 -14 -34.5s-21 -13.5 -35 -13.5c-13.333 0 -24.666 4.5 -33.999 13.5s-14 20.5 -14 34.5zM168 170c0 14 4.66699 25.667 14 35s20.666 14 33.999 14
s24.833 -4.66699 34.5 -14s14.5 -21 14.5 -35s-4.66699 -25.5 -14 -34.5s-21 -13.5 -35 -13.5c-13.333 0 -24.666 4.5 -33.999 13.5s-14 20.5 -14 34.5zM81 318v9h396v-9h-396z" />
    <glyph glyph-name="oslash" unicode="&#xf8;" horiz-adv-x="442" 
d="M506 536l-99.001 -102.997c11.333 -22.667 17 -48.334 17 -77.001c0 -30 -7 -65.167 -21 -105.5s-33 -80 -57 -119s-55.333 -72 -94 -99s-79.667 -40.5 -123 -40.5c-38.667 0 -69 19.333 -91 58l-96 -100l-6 6l98 102c-10.667 21.333 -16 46.666 -16 75.999
c0 30 7 65.167 21 105.5s33 80 57 119s55.333 72 94 99s79.667 40.5 123 40.5c16 0 32.333 -4.83301 49 -14.5s30.334 -23.834 41.001 -42.501l97 101zM128.999 -0.99707c31.333 0 62 16.333 92 49s57.333 74.667 82 126c40 82.667 63 156.667 69 222l-303 -314v-9
c0 -49.333 20 -74 60 -74zM312.999 491.003c-40 0 -80.667 -28.667 -122 -86c-30.667 -42.667 -57.5 -94.167 -80.5 -154.5s-36.5 -111.833 -40.5 -154.5l303 314v7c0 49.333 -20 74 -60 74z" />
    <glyph glyph-name="ugrave" unicode="&#xf9;" horiz-adv-x="529" 
d="M327 -8c-15.333 0 -26.9961 4.49707 -34.9961 13.4971s-12 19.833 -12 32.5c0 18.667 10 51.334 30 98.001l137 324l-220 -307c-44 -62 -77.667 -104.333 -101 -127s-46.333 -34 -69 -34c-14.667 0 -25.834 4.66699 -33.501 14s-11.5 20 -11.5 32
c0 22.667 11.333 57.334 34 104.001l109 223c23.333 46.667 35 77.667 35 93c0 12 -5.33301 18 -16 18c-20 0 -58 -37 -114 -111l-6 4c63.333 86 112.666 129 147.999 129c15.333 0 27 -4.5 35 -13.5s12 -19.833 12 -32.5c0 -20.667 -10.667 -53 -32 -97l-104 -212
c-28 -57.333 -42 -93.666 -42 -108.999c0 -13.333 5.66699 -20 17 -20c20 0 64.333 48 133 144l238 332c3.33301 0 8.83301 -0.333008 16.5 -1s13.167 -1 16.5 -1s8.83301 0.333008 16.5 1s13.167 1 16.5 1l-152 -365c-22.667 -54.667 -34 -85.667 -34 -93
c0 -12 5.33301 -18 16 -18c21.333 0 59.666 37 114.999 111l6 -4c-62.667 -86 -112.334 -129 -149.001 -129zM394.004 539.997l-7 -1.99902c-7.33301 26.667 -19.5 56.667 -36.5 90s-25.5 55.666 -25.5 66.999c0 8 2.5 14.667 7.5 20s11.5 8 19.5 8
c14.667 0 23.667 -7.66699 27 -23c2.66699 -12 4.5 -34.5 5.5 -67.5s4.16699 -63.833 9.5 -92.5z" />
    <glyph glyph-name="uacute" unicode="&#xfa;" horiz-adv-x="529" 
d="M327 -8c-15.333 0 -26.9961 4.49707 -34.9961 13.4971s-12 19.833 -12 32.5c0 18.667 10 51.334 30 98.001l137 324l-220 -307c-44 -62 -77.667 -104.333 -101 -127s-46.333 -34 -69 -34c-14.667 0 -25.834 4.66699 -33.501 14s-11.5 20 -11.5 32
c0 22.667 11.333 57.334 34 104.001l109 223c23.333 46.667 35 77.667 35 93c0 12 -5.33301 18 -16 18c-20 0 -58 -37 -114 -111l-6 4c63.333 86 112.666 129 147.999 129c15.333 0 27 -4.5 35 -13.5s12 -19.833 12 -32.5c0 -20.667 -10.667 -53 -32 -97l-104 -212
c-28 -57.333 -42 -93.666 -42 -108.999c0 -13.333 5.66699 -20 17 -20c20 0 64.333 48 133 144l238 332c3.33301 0 8.83301 -0.333008 16.5 -1s13.167 -1 16.5 -1s8.83301 0.333008 16.5 1s13.167 1 16.5 1l-152 -365c-22.667 -54.667 -34 -85.667 -34 -93
c0 -12 5.33301 -18 16 -18c21.333 0 59.666 37 114.999 111l6 -4c-62.667 -86 -112.334 -129 -149.001 -129zM321.004 541.997l-5 5.00098c22 24 46.333 55.167 73 93.5s44.334 61.833 53.001 70.5c7.33301 8 15.666 12 24.999 12c6.66699 0 12.667 -2.5 18 -7.5
s8 -11.5 8 -19.5c0 -8.66699 -3.33301 -16.334 -10 -23.001c-7.33301 -7.33301 -30.5 -25 -69.5 -53s-69.833 -54 -92.5 -78z" />
    <glyph glyph-name="ucircumflex" unicode="&#xfb;" horiz-adv-x="529" 
d="M327 -8c-15.333 0 -26.9961 4.49707 -34.9961 13.4971s-12 19.833 -12 32.5c0 18.667 10 51.334 30 98.001l137 324l-220 -307c-44 -62 -77.667 -104.333 -101 -127s-46.333 -34 -69 -34c-14.667 0 -25.834 4.66699 -33.501 14s-11.5 20 -11.5 32
c0 22.667 11.333 57.334 34 104.001l109 223c23.333 46.667 35 77.667 35 93c0 12 -5.33301 18 -16 18c-20 0 -58 -37 -114 -111l-6 4c63.333 86 112.666 129 147.999 129c15.333 0 27 -4.5 35 -13.5s12 -19.833 12 -32.5c0 -20.667 -10.667 -53 -32 -97l-104 -212
c-28 -57.333 -42 -93.666 -42 -108.999c0 -13.333 5.66699 -20 17 -20c20 0 64.333 48 133 144l238 332c3.33301 0 8.83301 -0.333008 16.5 -1s13.167 -1 16.5 -1s8.83301 0.333008 16.5 1s13.167 1 16.5 1l-152 -365c-22.667 -54.667 -34 -85.667 -34 -93
c0 -12 5.33301 -18 16 -18c21.333 0 59.666 37 114.999 111l6 -4c-62.667 -86 -112.334 -129 -149.001 -129zM450.004 542.997l-6.00195 -1.99902c-10 32.667 -25.667 71.667 -47 117c-7.33301 -6 -21.5 -16.833 -42.5 -32.5l-57 -43.5c-17 -13.333 -32.5 -27 -46.5 -41
l-5 5c20.667 20.667 62.334 68.667 125.001 144c18.667 21.333 32 32 40 32c14.667 0 23 -10.667 25 -32c0.666992 -8.66699 1.66699 -23.334 3 -44.001s2.83301 -39.5 4.5 -56.5s3.83398 -32.5 6.50098 -46.5z" />
    <glyph glyph-name="udieresis" unicode="&#xfc;" horiz-adv-x="529" 
d="M327 -8c-15.333 0 -26.9961 4.49707 -34.9961 13.4971s-12 19.833 -12 32.5c0 18.667 10 51.334 30 98.001l137 324l-220 -307c-44 -62 -77.667 -104.333 -101 -127s-46.333 -34 -69 -34c-14.667 0 -25.834 4.66699 -33.501 14s-11.5 20 -11.5 32
c0 22.667 11.333 57.334 34 104.001l109 223c23.333 46.667 35 77.667 35 93c0 12 -5.33301 18 -16 18c-20 0 -58 -37 -114 -111l-6 4c63.333 86 112.666 129 147.999 129c15.333 0 27 -4.5 35 -13.5s12 -19.833 12 -32.5c0 -20.667 -10.667 -53 -32 -97l-104 -212
c-28 -57.333 -42 -93.666 -42 -108.999c0 -13.333 5.66699 -20 17 -20c20 0 64.333 48 133 144l238 332c3.33301 0 8.83301 -0.333008 16.5 -1s13.167 -1 16.5 -1s8.83301 0.333008 16.5 1s13.167 1 16.5 1l-152 -365c-22.667 -54.667 -34 -85.667 -34 -93
c0 -12 5.33301 -18 16 -18c21.333 0 59.666 37 114.999 111l6 -4c-62.667 -86 -112.334 -129 -149.001 -129zM298.004 585.997c-12 0 -22 3.83203 -30 11.499s-12 17.834 -12 30.501s4 23 12 31s18 12 30 12s22.167 -4 30.5 -12s12.5 -18.333 12.5 -31
c0 -12 -4.16699 -22 -12.5 -30s-18.5 -12 -30.5 -12zM468.004 585.996c-12 0 -22 3.83203 -30 11.499s-12 17.834 -12 30.501s4 23 12 31s18 12 30 12s22.167 -4 30.5 -12s12.5 -18.333 12.5 -31c0 -12 -4.16699 -22 -12.5 -30s-18.5 -12 -30.5 -12z" />
    <glyph glyph-name="yacute" unicode="&#xfd;" horiz-adv-x="428" 
d="M190 0c-3.33301 0 -8.33398 0.332031 -15.001 0.999023s-11.667 1 -15 1c-2.66699 0 -6.33398 -0.333008 -11.001 -1s-8 -1 -10 -1l-21 -22c-55.333 -58.667 -114.666 -109 -177.999 -151s-119.333 -63 -168 -63c-28 0 -42 9 -42 27s11.667 27 35 27
c7.33301 0 19.833 -3 37.5 -9s34.5 -9 50.5 -9c24 0 61.333 18.667 112 56s99.667 80 147 128l17 18c16 128 24 247.333 24 358c0 18.667 -0.166992 32.667 -0.5 42s-1.33301 20 -3 32s-4.83398 20.5 -9.50098 25.5s-10.667 7.5 -18 7.5
c-9.33301 0 -20.833 -8.83301 -34.5 -26.5s-33.5 -47.5 -59.5 -89.5l-6 4l33 53c8.66699 13.333 19.334 27.833 32.001 43.5s24.834 27.334 36.501 35.001s23.167 11.5 34.5 11.5c13.333 0 24 -3.66699 32 -11s13.667 -18.333 17 -33s5.5 -28 6.5 -40s1.5 -27.333 1.5 -46
c0 -86 -5.66699 -183 -17 -291c76.667 88 128.667 154.833 156 200.5s41 88.167 41 127.5c0 4 -0.833008 13.167 -2.5 27.5s-2.5 23.833 -2.5 28.5c0 10.667 2.5 19.5 7.5 26.5s11.833 10.5 20.5 10.5c18.667 0 28 -10.333 28 -31c0 -34.667 -19.5 -86 -58.5 -154
s-102.5 -151 -190.5 -249zM266.999 541.999l-5 5.00098c22 24 46.333 55.167 73 93.5s44.334 61.833 53.001 70.5c7.33301 8 15.666 12 24.999 12c6.66699 0 12.667 -2.5 18 -7.5s8 -11.5 8 -19.5c0 -8.66699 -3.33301 -16.334 -10 -23.001
c-7.33301 -7.33301 -30.5 -25 -69.5 -53s-69.833 -54 -92.5 -78z" />
    <glyph glyph-name="thorn" unicode="&#xfe;" horiz-adv-x="472" 
d="M62 68l-95.0029 -235.002c-5.33301 -12 -8 -21.667 -8 -29c0 -15.333 13.667 -23 41 -23h42v-7h-43c-10.667 0 -24 0.5 -40 1.5s-31 1.5 -45 1.5c-12.667 0 -27 -0.5 -43 -1.5s-28 -1.5 -36 -1.5h-15v7h16c16 0 28.833 3.33301 38.5 10s18.5 19.334 26.5 38.001l321 797
c5.33301 13.333 8 23 8 29c0 12.667 -12 19 -36 19h-34v7h15c23.333 0 41.833 0.5 55.5 1.5s30 4.83301 49 11.5s32.833 16.334 41.5 29.001l5 -2l-250 -622l189 269c32.667 46 59.334 79.167 80.001 99.5s41.667 30.5 63 30.5c16.667 0 30.834 -5.33301 42.501 -16
s17.5 -27.334 17.5 -50.001c0 -39.333 -14 -93.166 -42 -161.499s-66.167 -131.833 -114.5 -190.5s-95.166 -88 -140.499 -88c-40 0 -76.333 25.333 -109 76zM376.997 475.998c-18.667 0 -53.999 -37.668 -105.999 -113.001l-203 -289
c11.333 -19.333 25.333 -36.166 42 -50.499s33 -21.5 49 -21.5c33.333 0 69.666 30 108.999 90s71 124.333 95 193s36 120 36 154c0 24.667 -7.33301 37 -22 37z" />
    <glyph glyph-name="ydieresis" unicode="&#xff;" horiz-adv-x="428" 
d="M190 0c-3.33301 0 -8.33398 0.332031 -15.001 0.999023s-11.667 1 -15 1c-2.66699 0 -6.33398 -0.333008 -11.001 -1s-8 -1 -10 -1l-21 -22c-55.333 -58.667 -114.666 -109 -177.999 -151s-119.333 -63 -168 -63c-28 0 -42 9 -42 27s11.667 27 35 27
c7.33301 0 19.833 -3 37.5 -9s34.5 -9 50.5 -9c24 0 61.333 18.667 112 56s99.667 80 147 128l17 18c16 128 24 247.333 24 358c0 18.667 -0.166992 32.667 -0.5 42s-1.33301 20 -3 32s-4.83398 20.5 -9.50098 25.5s-10.667 7.5 -18 7.5
c-9.33301 0 -20.833 -8.83301 -34.5 -26.5s-33.5 -47.5 -59.5 -89.5l-6 4l33 53c8.66699 13.333 19.334 27.833 32.001 43.5s24.834 27.334 36.501 35.001s23.167 11.5 34.5 11.5c13.333 0 24 -3.66699 32 -11s13.667 -18.333 17 -33s5.5 -28 6.5 -40s1.5 -27.333 1.5 -46
c0 -86 -5.66699 -183 -17 -291c76.667 88 128.667 154.833 156 200.5s41 88.167 41 127.5c0 4 -0.833008 13.167 -2.5 27.5s-2.5 23.833 -2.5 28.5c0 10.667 2.5 19.5 7.5 26.5s11.833 10.5 20.5 10.5c18.667 0 28 -10.333 28 -31c0 -34.667 -19.5 -86 -58.5 -154
s-102.5 -151 -190.5 -249zM243.999 585.999c-12 0 -22 3.83203 -30 11.499s-12 17.834 -12 30.501s4 23 12 31s18 12 30 12s22.167 -4 30.5 -12s12.5 -18.333 12.5 -31c0 -12 -4.16699 -22 -12.5 -30s-18.5 -12 -30.5 -12zM413.999 585.998c-12 0 -22 3.83203 -30 11.499
s-12 17.834 -12 30.501s4 23 12 31s18 12 30 12s22.167 -4 30.5 -12s12.5 -18.333 12.5 -31c0 -12 -4.16699 -22 -12.5 -30s-18.5 -12 -30.5 -12z" />
    <glyph glyph-name="Amacron" unicode="&#x100;" horiz-adv-x="592" 
d="M512 0l-29.999 0.00195312c-4 0 -13 0.5 -27 1.5s-26 1.5 -36 1.5c-11.333 0 -25.666 -0.5 -42.999 -1.5s-27.333 -1.5 -30 -1.5h-20v8h11c16.667 0.666992 30.167 6.16699 40.5 16.5s15.833 24.166 16.5 41.499l2 123h-297l-50 -67
c-22.667 -30 -34.334 -53.667 -35.001 -71c0 -28.667 16 -43 48 -43h11v-8h-24c-7.33301 0 -19.333 0.5 -36 1.5s-28.334 1.5 -35.001 1.5c-4.66699 0 -16.167 -0.5 -34.5 -1.5s-29.833 -1.5 -34.5 -1.5h-19v8h7c20.667 0 42 9.33301 64 28s48.667 49 80 91l358 476l-2 78
c5.33301 0 11.5 -0.333008 18.5 -1s12.5 -1 16.5 -1s9.16699 0.333008 15.5 1s11.833 1 16.5 1l-7 -616c0 -20.667 4 -35.334 12 -44.001s21.333 -13 40 -13h3v-8zM396.001 198.002l4 392l-294 -392h290zM579.001 797.002h-225v22h225v-22z" />
    <glyph glyph-name="amacron" unicode="&#x101;" horiz-adv-x="502" 
d="M306 -8c-15.333 0 -26.999 4.5 -34.999 13.5s-12 19.833 -12 32.5c0 9.33301 1.5 19.333 4.5 30s7.66699 24 14 40s10.166 25.333 11.499 28l97 255l-179 -269c-30 -45.333 -55.833 -78.333 -77.5 -99s-43.5 -31 -65.5 -31c-16.667 0 -30.834 5.33301 -42.501 16
s-17.5 27.334 -17.5 50.001c0 28.667 8.16699 67.334 24.5 116.001s37.333 97.167 63 145.5s56.667 90.166 93 125.499s71.833 53 106.5 53c40 0 76.333 -25.333 109 -76c24.667 9.33301 42.667 19.166 54 29.499s22.333 25.833 33 46.5l6 -2l-143 -371
c-21.333 -56 -32 -87 -32 -93c0 -12 5.66699 -18 17 -18c19.333 0 57 37 113 111l6 -4c-63.333 -86 -112.666 -129 -147.999 -129zM95.001 14c20.667 0 56 37.666 106 112.999l193 289c-10.667 18.667 -24.5 35.334 -41.5 50.001s-33.5 22 -49.5 22
c-33.333 0 -68.833 -30 -106.5 -90s-67.667 -124.167 -90 -192.5s-33.5 -119.833 -33.5 -154.5c0 -24.667 7.33301 -37 22 -37zM494.001 607.999h-225v22h225v-22z" />
    <glyph glyph-name="Abreve" unicode="&#x102;" horiz-adv-x="592" 
d="M512 0l-29.999 0.00195312c-4 0 -13 0.5 -27 1.5s-26 1.5 -36 1.5c-11.333 0 -25.666 -0.5 -42.999 -1.5s-27.333 -1.5 -30 -1.5h-20v8h11c16.667 0.666992 30.167 6.16699 40.5 16.5s15.833 24.166 16.5 41.499l2 123h-297l-50 -67
c-22.667 -30 -34.334 -53.667 -35.001 -71c0 -28.667 16 -43 48 -43h11v-8h-24c-7.33301 0 -19.333 0.5 -36 1.5s-28.334 1.5 -35.001 1.5c-4.66699 0 -16.167 -0.5 -34.5 -1.5s-29.833 -1.5 -34.5 -1.5h-19v8h7c20.667 0 42 9.33301 64 28s48.667 49 80 91l358 476l-2 78
c5.33301 0 11.5 -0.333008 18.5 -1s12.5 -1 16.5 -1s9.16699 0.333008 15.5 1s11.833 1 16.5 1l-7 -616c0 -20.667 4 -35.334 12 -44.001s21.333 -13 40 -13h3v-8zM396.001 198.002l4 392l-294 -392h290zM450.001 758.002c-24.667 0 -43.165 11.832 -55.498 35.499
s-18.5 50.834 -18.5 81.501l6 1c3.33301 -44.667 31.666 -67 84.999 -67c56.667 0 102 22.667 136 68l5 -4c-56.667 -76.667 -109.334 -115 -158.001 -115z" />
    <glyph glyph-name="abreve" unicode="&#x103;" horiz-adv-x="502" 
d="M306 -8c-15.333 0 -26.999 4.5 -34.999 13.5s-12 19.833 -12 32.5c0 9.33301 1.5 19.333 4.5 30s7.66699 24 14 40s10.166 25.333 11.499 28l97 255l-179 -269c-30 -45.333 -55.833 -78.333 -77.5 -99s-43.5 -31 -65.5 -31c-16.667 0 -30.834 5.33301 -42.501 16
s-17.5 27.334 -17.5 50.001c0 28.667 8.16699 67.334 24.5 116.001s37.333 97.167 63 145.5s56.667 90.166 93 125.499s71.833 53 106.5 53c40 0 76.333 -25.333 109 -76c24.667 9.33301 42.667 19.166 54 29.499s22.333 25.833 33 46.5l6 -2l-143 -371
c-21.333 -56 -32 -87 -32 -93c0 -12 5.66699 -18 17 -18c19.333 0 57 37 113 111l6 -4c-63.333 -86 -112.666 -129 -147.999 -129zM95.001 14c20.667 0 56 37.666 106 112.999l193 289c-10.667 18.667 -24.5 35.334 -41.5 50.001s-33.5 22 -49.5 22
c-33.333 0 -68.833 -30 -106.5 -90s-67.667 -124.167 -90 -192.5s-33.5 -119.833 -33.5 -154.5c0 -24.667 7.33301 -37 22 -37zM365.001 568.999c-24.667 0 -43.165 11.832 -55.498 35.499s-18.5 50.834 -18.5 81.501l6 1c3.33301 -44.667 31.666 -67 84.999 -67
c56.667 0 102 22.667 136 68l5 -4c-56.667 -76.667 -109.334 -115 -158.001 -115z" />
    <glyph glyph-name="Aogonek" unicode="&#x104;" horiz-adv-x="592" 
d="M280 -178c-17.333 0 -30.8311 4.16797 -40.498 12.501s-14.5 19.166 -14.5 32.499c0 42.667 56 88.334 168 137.001l3 185h-297l-50 -67c-22.667 -30 -34.334 -53.667 -35.001 -71c0 -28.667 16 -43 48 -43h11v-8h-24c-7.33301 0 -19.333 0.5 -36 1.5
s-28.334 1.5 -35.001 1.5c-4.66699 0 -16.167 -0.5 -34.5 -1.5s-29.833 -1.5 -34.5 -1.5h-19v8h7c20.667 0 42 9.33301 64 28s48.667 49 80 91l358 476l-2 78c5.33301 0 11.5 -0.333008 18.5 -1s12.5 -1 16.5 -1s9.16699 0.333008 15.5 1s11.833 1 16.5 1l-7 -616
c0 -20.667 4 -35.334 12 -44.001s21.333 -13 40 -13h3v-8h-30c-3.33301 0 -12 0.166992 -26 0.5s-26 0.5 -36 0.5h-17c-80 -38 -120 -77 -120 -117c0 -11.333 3.33301 -20.5 10 -27.5s16 -10.5 28 -10.5c24 0 51.333 13.333 82 40l4 -5c-42.667 -39.333 -85 -59 -127 -59z
M396.002 198.001l4 392l-294 -392h290z" />
    <glyph glyph-name="aogonek" unicode="&#x105;" horiz-adv-x="502" 
d="M306 -8c-15.333 0 -26.999 4.49902 -34.999 13.499s-12 19.833 -12 32.5c0 14.667 10 47.334 30 98.001l97 255l-179 -269c-30 -45.333 -55.833 -78.333 -77.5 -99s-43.5 -31 -65.5 -31c-16.667 0 -30.834 5.33301 -42.501 16s-17.5 27.334 -17.5 50.001
c0 28.667 8.16699 67.334 24.5 116.001s37.333 97.167 63 145.5s56.667 90.166 93 125.499s71.833 53 106.5 53c40 0 76.333 -25.333 109 -76c24.667 9.33301 42.667 19.166 54 29.499s22.333 25.833 33 46.5l6 -2l-143 -371c-21.333 -56 -32 -87 -32 -93
c0 -12 5.66699 -18 17 -18c19.333 0 57 37 113 111l6 -4c-48 -65.333 -87.667 -105.666 -119 -120.999c-75.333 -37.333 -113 -76 -113 -116c0 -11.333 3.33301 -20.5 10 -27.5s16 -10.5 28 -10.5c24 0 51.333 13.333 82 40l4 -5c-42.667 -39.333 -85 -59 -127 -59
c-17.333 0 -30.833 4.16699 -40.5 12.5s-14.5 19.166 -14.5 32.499c0 41.333 47.333 83 142 125zM95.001 13.999c20.667 0 56 37.668 106 113.001l193 289c-11.333 19.333 -25.333 36.166 -42 50.499s-33 21.5 -49 21.5c-33.333 0 -68.833 -30 -106.5 -90
s-67.667 -124.167 -90 -192.5s-33.5 -119.833 -33.5 -154.5c0 -24.667 7.33301 -37 22 -37z" />
    <glyph glyph-name="Cacute" unicode="&#x106;" horiz-adv-x="579" 
d="M228 -10c-48.667 0 -89.502 18.666 -122.502 55.999s-49.5 88 -49.5 152c0 75.333 18.333 151.333 55 228s85.5 140 146.5 190s123.5 75 187.5 75c18 0 40.333 -3.16699 67 -9.5s43 -9.5 49 -9.5c18.667 0 27.334 10.667 26.001 32l6 1l30 -227l-6 -1l-17.5 57.5
c-4.33301 13.667 -11.5 31.334 -21.5 53.001s-20.167 38.334 -30.5 50.001s-24 22 -41 31s-35.833 13.5 -56.5 13.5c-53.333 0 -105.166 -23.667 -155.499 -71s-90.333 -107 -120 -179s-44.5 -143.667 -44.5 -215c0 -58.667 12.167 -103.834 36.5 -135.501
s59.5 -47.5 105.5 -47.5c34.667 0 72 12 112 36s78.667 61.333 116 112l6 -5c-40 -56.667 -85 -102 -135 -136s-97.667 -51 -143 -51zM437.998 730.999l-5 5.00098c22 24 46.333 55.167 73 93.5s44.334 61.833 53.001 70.5c7.33301 8 15.666 12 24.999 12
c6.66699 0 12.667 -2.5 18 -7.5s8 -11.5 8 -19.5c0 -8.66699 -3.33301 -16.334 -10 -23.001c-7.33301 -7.33301 -30.5 -25 -69.5 -53s-69.833 -54 -92.5 -78z" />
    <glyph glyph-name="cacute" unicode="&#x107;" horiz-adv-x="400" 
d="M113 -8c-26.667 0 -49.3359 11.8301 -68.0029 35.4971s-28 53.834 -28 90.501c0 52.667 13.333 108.5 40 167.5s62.334 109.167 107.001 150.5s90.334 62 137.001 62c28 0 51 -11.333 69 -34s27 -47.667 27 -75c0 -39.333 -10.667 -59 -32 -59
c-7.33301 0 -13.333 2.5 -18 7.5s-7 11.167 -7 18.5c0 6 3 17.333 9 34s9 31.334 9 44.001c0 16.667 -5 30.334 -15 41.001s-23.667 16 -41 16c-34.667 0 -69.167 -19.667 -103.5 -59s-61.666 -86.5 -81.999 -141.5s-30.5 -106.167 -30.5 -153.5
c0 -71.333 20.667 -107 62 -107c48.667 0 106 42.667 172 128l5 -4c-78 -108 -148.667 -162 -212 -162zM280.998 541.997l-5 5.00098c22 24 46.333 55.167 73 93.5s44.334 61.833 53.001 70.5c7.33301 8 15.666 12 24.999 12c6.66699 0 12.667 -2.5 18 -7.5s8 -11.5 8 -19.5
c0 -8.66699 -3.33301 -16.334 -10 -23.001c-7.33301 -7.33301 -30.5 -25 -69.5 -53s-69.833 -54 -92.5 -78z" />
    <glyph glyph-name="Ccircumflex" unicode="&#x108;" horiz-adv-x="579" 
d="M228 -10c-48.667 0 -89.502 18.666 -122.502 55.999s-49.5 88 -49.5 152c0 75.333 18.333 151.333 55 228s85.5 140 146.5 190s123.5 75 187.5 75c18 0 40.333 -3.16699 67 -9.5s43 -9.5 49 -9.5c18.667 0 27.334 10.667 26.001 32l6 1l30 -227l-6 -1l-17.5 57.5
c-4.33301 13.667 -11.5 31.334 -21.5 53.001s-20.167 38.334 -30.5 50.001s-24 22 -41 31s-35.833 13.5 -56.5 13.5c-53.333 0 -105.166 -23.667 -155.499 -71s-90.333 -107 -120 -179s-44.5 -143.667 -44.5 -215c0 -58.667 12.167 -103.834 36.5 -135.501
s59.5 -47.5 105.5 -47.5c34.667 0 72 12 112 36s78.667 61.333 116 112l6 -5c-40 -56.667 -85 -102 -135 -136s-97.667 -51 -143 -51zM566.998 731.999l-6.00195 -1.99902c-10 32.667 -25.667 71.667 -47 117c-7.33301 -6 -21.5 -16.833 -42.5 -32.5l-57 -43.5
c-17 -13.333 -32.5 -27 -46.5 -41l-5 5c20.667 20.667 62.334 68.667 125.001 144c18.667 21.333 32 32 40 32c14.667 0 23 -10.667 25 -32c0.666992 -8.66699 1.66699 -23.334 3 -44.001s2.83301 -39.5 4.5 -56.5s3.83398 -32.5 6.50098 -46.5z" />
    <glyph glyph-name="ccircumflex" unicode="&#x109;" horiz-adv-x="400" 
d="M113 -8c-26.667 0 -49.3359 11.8301 -68.0029 35.4971s-28 53.834 -28 90.501c0 52.667 13.333 108.5 40 167.5s62.334 109.167 107.001 150.5s90.334 62 137.001 62c28 0 51 -11.333 69 -34s27 -47.667 27 -75c0 -39.333 -10.667 -59 -32 -59
c-7.33301 0 -13.333 2.5 -18 7.5s-7 11.167 -7 18.5c0 6 3 17.333 9 34s9 31.334 9 44.001c0 16.667 -5 30.334 -15 41.001s-23.667 16 -41 16c-34.667 0 -69.167 -19.667 -103.5 -59s-61.666 -86.5 -81.999 -141.5s-30.5 -106.167 -30.5 -153.5
c0 -71.333 20.667 -107 62 -107c48.667 0 106 42.667 172 128l5 -4c-78 -108 -148.667 -162 -212 -162zM409.998 542.997l-6.00195 -1.99902c-10 32.667 -25.667 71.667 -47 117c-7.33301 -6 -21.5 -16.833 -42.5 -32.5l-57 -43.5c-17 -13.333 -32.5 -27 -46.5 -41l-5 5
c20.667 20.667 62.334 68.667 125.001 144c18.667 21.333 32 32 40 32c14.667 0 23 -10.667 25 -32c0.666992 -8.66699 1.66699 -23.334 3 -44.001s2.83301 -39.5 4.5 -56.5s3.83398 -32.5 6.50098 -46.5z" />
    <glyph glyph-name="Cdotaccent" unicode="&#x10a;" horiz-adv-x="579" 
d="M228 -10c-48.667 0 -89.502 18.666 -122.502 55.999s-49.5 88 -49.5 152c0 75.333 18.333 151.333 55 228s85.5 140 146.5 190s123.5 75 187.5 75c18 0 40.333 -3.16699 67 -9.5s43 -9.5 49 -9.5c18.667 0 27.334 10.667 26.001 32l6 1l30 -227l-6 -1l-17.5 57.5
c-4.33301 13.667 -11.5 31.334 -21.5 53.001s-20.167 38.334 -30.5 50.001s-24 22 -41 31s-35.833 13.5 -56.5 13.5c-53.333 0 -105.166 -23.667 -155.499 -71s-90.333 -107 -120 -179s-44.5 -143.667 -44.5 -215c0 -58.667 12.167 -103.834 36.5 -135.501
s59.5 -47.5 105.5 -47.5c34.667 0 72 12 112 36s78.667 61.333 116 112l6 -5c-40 -56.667 -85 -102 -135 -136s-97.667 -51 -143 -51zM449.998 802.999c0 14 4.66699 25.667 14 35s20.666 14 33.999 14s24.833 -4.66699 34.5 -14s14.5 -21 14.5 -35
s-4.66699 -25.5 -14 -34.5s-21 -13.5 -35 -13.5c-13.333 0 -24.666 4.5 -33.999 13.5s-14 20.5 -14 34.5z" />
    <glyph glyph-name="cdotaccent" unicode="&#x10b;" horiz-adv-x="400" 
d="M113 -8c-26.667 0 -49.3359 11.8301 -68.0029 35.4971s-28 53.834 -28 90.501c0 52.667 13.333 108.5 40 167.5s62.334 109.167 107.001 150.5s90.334 62 137.001 62c28 0 51 -11.333 69 -34s27 -47.667 27 -75c0 -39.333 -10.667 -59 -32 -59
c-7.33301 0 -13.333 2.5 -18 7.5s-7 11.167 -7 18.5c0 6 3 17.333 9 34s9 31.334 9 44.001c0 16.667 -5 30.334 -15 41.001s-23.667 16 -41 16c-34.667 0 -69.167 -19.667 -103.5 -59s-61.666 -86.5 -81.999 -141.5s-30.5 -106.167 -30.5 -153.5
c0 -71.333 20.667 -107 62 -107c48.667 0 106 42.667 172 128l5 -4c-78 -108 -148.667 -162 -212 -162zM296.998 623.997c0 14 4.66699 25.667 14 35s20.666 14 33.999 14s24.833 -4.66699 34.5 -14s14.5 -21 14.5 -35s-4.66699 -25.5 -14 -34.5s-21 -13.5 -35 -13.5
c-13.333 0 -24.666 4.5 -33.999 13.5s-14 20.5 -14 34.5z" />
    <glyph glyph-name="Ccaron" unicode="&#x10c;" horiz-adv-x="579" 
d="M228 -10c-48.667 0 -89.502 18.666 -122.502 55.999s-49.5 88 -49.5 152c0 75.333 18.333 151.333 55 228s85.5 140 146.5 190s123.5 75 187.5 75c18 0 40.333 -3.16699 67 -9.5s43 -9.5 49 -9.5c18.667 0 27.334 10.667 26.001 32l6 1l30 -227l-6 -1l-17.5 57.5
c-4.33301 13.667 -11.5 31.334 -21.5 53.001s-20.167 38.334 -30.5 50.001s-24 22 -41 31s-35.833 13.5 -56.5 13.5c-53.333 0 -105.166 -23.667 -155.499 -71s-90.333 -107 -120 -179s-44.5 -143.667 -44.5 -215c0 -58.667 12.167 -103.834 36.5 -135.501
s59.5 -47.5 105.5 -47.5c34.667 0 72 12 112 36s78.667 61.333 116 112l6 -5c-40 -56.667 -85 -102 -135 -136s-97.667 -51 -143 -51zM440.998 911.999l6.00195 1.99902c10 -32.667 25.667 -71.667 47 -117c7.33301 6 21.5 16.833 42.5 32.5l57 43.5
c17 13.333 32.5 27 46.5 41l5 -5c-20.667 -20.667 -62.334 -68.667 -125.001 -144c-18.667 -21.333 -32 -32 -40 -32c-14.667 0 -23 10.667 -25 32c-0.666992 8.66699 -1.66699 23.334 -3 44.001s-2.83301 39.5 -4.5 56.5s-3.83398 32.5 -6.50098 46.5z" />
    <glyph glyph-name="ccaron" unicode="&#x10d;" horiz-adv-x="400" 
d="M113 -8c-26.667 0 -49.3359 11.8301 -68.0029 35.4971s-28 53.834 -28 90.501c0 52.667 13.333 108.5 40 167.5s62.334 109.167 107.001 150.5s90.334 62 137.001 62c28 0 51 -11.333 69 -34s27 -47.667 27 -75c0 -39.333 -10.667 -59 -32 -59
c-7.33301 0 -13.333 2.5 -18 7.5s-7 11.167 -7 18.5c0 6 3 17.333 9 34s9 31.334 9 44.001c0 16.667 -5 30.334 -15 41.001s-23.667 16 -41 16c-34.667 0 -69.167 -19.667 -103.5 -59s-61.666 -86.5 -81.999 -141.5s-30.5 -106.167 -30.5 -153.5
c0 -71.333 20.667 -107 62 -107c48.667 0 106 42.667 172 128l5 -4c-78 -108 -148.667 -162 -212 -162zM283.998 722.997l6.00195 1.99902c10 -32.667 25.667 -71.667 47 -117c7.33301 6 21.5 16.833 42.5 32.5l57 43.5c17 13.333 32.5 27 46.5 41l5 -5
c-20.667 -20.667 -62.334 -68.667 -125.001 -144c-18.667 -21.333 -32 -32 -40 -32c-14.667 0 -23 10.667 -25 32c-0.666992 8.66699 -1.66699 23.334 -3 44.001s-2.83301 39.5 -4.5 56.5s-3.83398 32.5 -6.50098 46.5z" />
    <glyph glyph-name="Dcaron" unicode="&#x10e;" horiz-adv-x="612" 
d="M192 0l-96 0.00195312c-6.66699 0 -16.5 0.166992 -29.5 0.5s-24.5 0.5 -34.5 0.5c-9.33301 0 -21 -0.166992 -35 -0.5s-24.333 -0.5 -31 -0.5h-28v8h10c19.333 0 34.5 4 45.5 12s20.5 22.333 28.5 43l214 556c4.66699 10.667 7 20.667 7 30c0 16 -10.667 24 -32 24h-19
v8h34c6.66699 0 16.667 -0.166992 30 -0.5s25 -0.5 35 -0.5s21.5 0.166992 34.5 0.5s22.833 0.5 29.5 0.5h59c61.333 0 110.833 -15.667 148.5 -47s56.5 -83.333 56.5 -156c0 -26 -3.5 -55 -10.5 -87s-17.5 -66.167 -31.5 -102.5s-32.833 -71.333 -56.5 -105
s-50.667 -64.334 -81 -92.001s-66.833 -49.834 -109.5 -66.501s-88.667 -25 -138 -25zM199 9.00195c40.667 0 79.5 10.999 116.5 32.999s68.333 50.333 94 85s49 72.5 70 113.5s37.833 81.833 50.5 122.5s22.167 76.5 28.5 107.5s9.5 55.167 9.5 72.5
c0 48.667 -13.167 82.334 -39.5 101.001s-66.833 28 -121.5 28h-85l-254 -663h131zM397 912.001l6.00195 1.99902c10 -32.667 25.667 -71.667 47 -117c7.33301 6 21.5 16.833 42.5 32.5l57 43.5c17 13.333 32.5 27 46.5 41l5 -5
c-20.667 -20.667 -62.334 -68.667 -125.001 -144c-18.667 -21.333 -32 -32 -40 -32c-14.667 0 -23 10.667 -25 32c-0.666992 8.66699 -1.66699 23.334 -3 44.001s-2.83301 39.5 -4.5 56.5s-3.83398 32.5 -6.50098 46.5z" />
    </font>
</defs>
</svg>
