<?xml version="1.0" standalone="no"?>
<!DOCTYPE svg PUBLIC "-//W3C//DTD SVG 1.1//EN" "http://www.w3.org/Graphics/SVG/1.1/DTD/svg11.dtd" >
<svg>
<metadata>
Created by FontForge 20090914 at Tue Aug 31 19:08:24 2021
 By www-data
Copyright &#194;&#169; 2013 Schick Toikka. All rights reserved. Saol is a trademark of Schick Toikka. Unauthorised copying or modification of any of its data is illegal.
</metadata>
<defs>
<font id="SaolDisplay-Light" horiz-adv-x="290" >
  <font-face 
    font-family="Saol Display"
    font-weight="300"
    font-stretch="normal"
    units-per-em="1000"
    panose-1="0 0 0 0 0 0 0 0 0 0"
    ascent="800"
    descent="-200"
    x-height="489.999"
    cap-height="681"
    bbox="-227 -250 1180 1053"
    underline-thickness="50"
    underline-position="-150"
    unicode-range="U+000D-U+FB02"
  />
<missing-glyph horiz-adv-x="590" 
d="M542 -226h-494v1002h494v-1002zM525 -216l-230 479l-230 -479h460zM532 -207v964l-231 -482zM58 757v-964l231 482zM295 287l230 479h-460z" />
    <glyph glyph-name="fi" unicode="fi" horiz-adv-x="556" 
d="M235 0l-23.002 -0.00292969c-9.33301 0 -23 0.5 -41 1.5s-34 1.5 -48 1.5c-11.333 0 -24.666 -0.5 -39.999 -1.5s-26.666 -1.5 -33.999 -1.5h-14v7h1c23.333 0 38.166 3 44.499 9s9.5 19.667 9.5 41v365c0 22.667 2 42.334 6 59.001h-74v9h75
c11.333 44 28.666 81.333 51.999 112c49.333 64.667 114 97 194 97c26.667 0 49.334 -3.33301 68.001 -10s28 -16.667 28 -30c0 -7.33301 -2.66699 -13.666 -8 -18.999s-11.666 -8 -18.999 -8c-13.333 0 -34.5 5.5 -63.5 16.5s-53.833 16.5 -74.5 16.5
c-32.667 0 -60.5 -11.667 -83.5 -35s-34.5 -60.666 -34.5 -111.999v-28h158v-9h-158v-424c0 -20.667 4.66699 -34.167 14 -40.5s26.333 -9.5 51 -9.5h14v-7zM520.998 -0.00292969h-14.0029c-7.33301 0 -18.666 0.5 -33.999 1.5s-28.666 1.5 -39.999 1.5
s-24.666 -0.5 -39.999 -1.5s-26.666 -1.5 -33.999 -1.5h-14v7h1c23.333 0 38.166 3 44.499 9s9.5 19.667 9.5 41v342c0 21.333 -3.16699 34.833 -9.5 40.5s-21.166 8.5 -44.499 8.5h-1v7h6c22 0 44.667 4.33301 68 13s37 18.667 41 30h6v-441c0 -21.333 3.16699 -35 9.5 -41
s21.166 -9 44.499 -9h1v-7z" />
    <glyph glyph-name="fl" unicode="fl" horiz-adv-x="548" 
d="M314 481l-158.004 -0.000976562v-424c0 -20.667 4.66699 -34.167 14 -40.5s26.333 -9.5 51 -9.5h14v-7h-23c-9.33301 0 -23 0.5 -41 1.5s-34 1.5 -48 1.5c-11.333 0 -24.666 -0.5 -39.999 -1.5s-26.666 -1.5 -33.999 -1.5h-14v7h1c23.333 0 38.166 3 44.499 9
s9.5 19.667 9.5 41v360c0 30 1 51.333 3 64h-71v9h72c8.66699 66.667 29.334 118.167 62.001 154.5s77.667 54.5 135 54.5c44.667 0 79.667 -14.333 105 -43c36 24.667 54.667 47.334 56 68.001h6v-667c0 -21.333 3.16699 -35 9.5 -41s21.166 -9 44.499 -9h1v-7h-14
c-7.33301 0 -18.666 0.5 -33.999 1.5s-28.666 1.5 -39.999 1.5s-24.666 -0.5 -39.999 -1.5s-26.666 -1.5 -33.999 -1.5h-14v7h1c23.333 0 38.166 3 44.499 9s9.5 19.667 9.5 41v590c-25.333 28.667 -59 43 -101 43c-90 0 -135 -55.667 -135 -167v-33h158v-9z" />
    <glyph glyph-name="fb" unicode="fb" horiz-adv-x="841" 
d="M235 0l-23.0029 -0.000976562c-9.33301 0 -23 0.5 -41 1.5s-34 1.5 -48 1.5c-11.333 0 -24.666 -0.5 -39.999 -1.5s-26.666 -1.5 -33.999 -1.5h-14v7h1c23.333 0 38.166 3 44.499 9s9.5 19.667 9.5 41v360c0 30 1 51.333 3 64h-71v9h72
c8.66699 66.667 29.334 118.167 62.001 154.5s77.667 54.5 135 54.5c44.667 0 79.667 -14.333 105 -43c36 24.667 54.667 47.334 56 68.001h6v-291c43.333 43.333 94 65 152 65c49.333 0 92.333 -20.333 129 -61s55 -104.667 55 -192s-18.333 -151.333 -55 -192
s-79.667 -61 -129 -61c-58 0 -109.333 22.333 -154 67c-33.333 -22.667 -52.666 -45.667 -57.999 -69h-6v657c-25.333 28.667 -59 43 -101 43c-90 0 -135 -55.667 -135 -167v-33h158v-9h-158v-424c0 -20.667 4.66699 -34.167 14 -40.5s26.333 -9.5 51 -9.5h14v-7z
M609.997 0.999023c16.667 0 30.834 3 42.501 9s22.834 17.333 33.501 34s18.667 41.667 24 75s8 75.333 8 126s-2.66699 92.667 -8 126s-13.333 58.333 -24 75s-21.834 28 -33.501 34s-25.834 9 -42.501 9c-52 0 -102.667 -22.333 -152 -67v-354
c49.333 -44.667 100 -67 152 -67z" />
    <glyph glyph-name="fh" unicode="fh" horiz-adv-x="841" 
d="M314 481l-158.002 -0.000976562v-424c0 -20.667 4.66699 -34.167 14 -40.5s26.333 -9.5 51 -9.5h14v-7h-23c-9.33301 0 -23 0.5 -41 1.5s-34 1.5 -48 1.5c-11.333 0 -24.666 -0.5 -39.999 -1.5s-26.666 -1.5 -33.999 -1.5h-14v7h1c23.333 0 38.166 3 44.499 9
s9.5 19.667 9.5 41v360c0 30 1 51.333 3 64h-71v9h72c8.66699 66.667 29.334 118.167 62.001 154.5s77.667 54.5 135 54.5c44.667 0 79.667 -14.333 105 -43c36 24.667 54.667 47.334 56 68.001h6v-302l106 41c59.333 23.333 101.666 35 126.999 35
c41.333 0 62 -23.333 62 -70v-371c0 -21.333 3.16699 -35 9.5 -41s21.166 -9 44.499 -9h1v-7h-14c-8 0 -19.333 0.5 -34 1.5s-28 1.5 -40 1.5s-25.333 -0.5 -40 -1.5s-26 -1.5 -34 -1.5h-14v7h1c23.333 0 38.166 3 44.499 9s9.5 19.667 9.5 41v374c0 32 -11.667 48 -35 48
c-11.333 0 -39.666 -8 -84.999 -24l-109 -42v-356c0 -21.333 3.16699 -35 9.5 -41s21.166 -9 44.499 -9h1v-7h-14c-7.33301 0 -18.666 0.5 -33.999 1.5s-28.666 1.5 -39.999 1.5s-24.666 -0.5 -39.999 -1.5s-26.666 -1.5 -33.999 -1.5h-14v7h1c23.333 0 38.166 3 44.499 9
s9.5 19.667 9.5 41v590c-25.333 28.667 -59 43 -101 43c-90 0 -135 -55.667 -135 -167v-33h158v-9z" />
    <glyph glyph-name="fj" unicode="fj" horiz-adv-x="543" 
d="M466 498l-0.00195312 -459c0 -70.667 -15.333 -132 -46 -184c-37.333 -60.667 -84.666 -91 -141.999 -91c-8.66699 0 -16 2.33301 -22 7s-9 11 -9 19c0 17.333 9.66699 26 29 26c8 0 20.167 -1.66699 36.5 -5s27.5 -5 33.5 -5c36 0 54 28.333 54 85v508
c0 21.333 -3.16699 34.833 -9.5 40.5s-21.166 8.5 -44.499 8.5h-1v7h6c22 0 44.667 4.33301 68 13s37 18.667 41 30h6zM234.998 0l-23.002 -0.00292969c-9.33301 0 -23 0.5 -41 1.5s-34 1.5 -48 1.5c-11.333 0 -24.666 -0.5 -39.999 -1.5s-26.666 -1.5 -33.999 -1.5h-14v7h1
c23.333 0 38.166 3 44.499 9s9.5 19.667 9.5 41v365c0 22.667 2 42.334 6 59.001h-74v9h75c11.333 44 28.666 81.333 51.999 112c49.333 64.667 114 97 194 97c26.667 0 49.334 -3.33301 68.001 -10s28 -16.667 28 -30c0 -7.33301 -2.66699 -13.666 -8 -18.999
s-11.666 -8 -18.999 -8c-13.333 0 -34.5 5.5 -63.5 16.5s-53.833 16.5 -74.5 16.5c-32.667 0 -60.5 -11.667 -83.5 -35s-34.5 -60.666 -34.5 -111.999v-28h158v-9h-158v-424c0 -20.667 4.66699 -34.167 14 -40.5s26.333 -9.5 51 -9.5h14v-7z" />
    <glyph glyph-name="fk" unicode="fk" horiz-adv-x="827" 
d="M314 481l-158.005 -0.00195312v-424c0 -20.667 4.66699 -34.167 14 -40.5s26.333 -9.5 51 -9.5h14v-7h-23c-9.33301 0 -23 0.5 -41 1.5s-34 1.5 -48 1.5c-11.333 0 -24.666 -0.5 -39.999 -1.5s-26.666 -1.5 -33.999 -1.5h-14v7h1c23.333 0 38.166 3 44.499 9
s9.5 19.667 9.5 41v360c0 30 1 51.333 3 64h-71v9h72c8.66699 66.667 29.334 118.167 62.001 154.5s77.667 54.5 135 54.5c44.667 0 79.667 -14.333 105 -43c36 24.667 54.667 47.334 56 68.001h6v-537l85 88l-26 43c0.666992 0 11.667 -0.166992 33 -0.5
s33 -0.166016 35 0.500977l80 83c20 20.667 30 37.667 30 51c0 20.667 -16 31 -48 31h-1v7h13c7.33301 0 18 -0.5 32 -1.5s27 -1.5 39 -1.5c12.667 0 26 0.5 40 1.5s24.667 1.5 32 1.5h14v-7h-1c-38 0 -85.667 -28.667 -143 -86l-77 -80l163 -265
c11.333 -18.667 21.333 -30.834 30 -36.501s21.334 -8.5 38.001 -8.5h1v-7h-12c-3.33301 0 -12.5 0.5 -27.5 1.5s-29.167 1.5 -42.5 1.5c-12.667 0 -27 -0.5 -43 -1.5s-25.667 -1.5 -29 -1.5h-24v7h1c28.667 0 43 6 43 18c0 4.66699 -2 10.334 -6 17.001l-139 226l-90 -93
v-118c0 -21.333 3.16699 -35 9.5 -41s21.166 -9 44.499 -9h1v-7h-14c-7.33301 0 -18.666 0.5 -33.999 1.5s-28.666 1.5 -39.999 1.5s-24.666 -0.5 -39.999 -1.5s-26.666 -1.5 -33.999 -1.5h-14v7h1c23.333 0 38.166 3 44.499 9s9.5 19.667 9.5 41v590
c-25.333 28.667 -59 43 -101 43c-90 0 -135 -55.667 -135 -167v-33h158v-9z" />
    <glyph glyph-name=".notdef" horiz-adv-x="590" 
d="M542 -226h-494v1002h494v-1002zM525 -216l-230 479l-230 -479h460zM532 -207v964l-231 -482zM58 757v-964l231 482zM295 287l230 479h-460z" />
    <glyph glyph-name="NULL" horiz-adv-x="0" 
 />
    <glyph glyph-name="NULL" horiz-adv-x="0" 
 />
    <glyph glyph-name="CR" unicode="&#xd;" horiz-adv-x="250" 
 />
    <glyph glyph-name="space" unicode=" " horiz-adv-x="190" 
 />
    <glyph glyph-name="exclam" unicode="!" horiz-adv-x="241" 
d="M126 206h-10v43c0 42 -5.33301 110 -16 204s-16 156.333 -16 187c0 32 12.333 48 37 48c25.333 0 38 -16 38 -48c0 -31.333 -5.5 -93.833 -16.5 -187.5s-16.5 -161.5 -16.5 -203.5v-43zM121 -8c-14 0 -26.167 5 -36.5 15s-15.5 22.333 -15.5 37s5.16699 27 15.5 37
s22.5 15 36.5 15s26.167 -5 36.5 -15s15.5 -22.333 15.5 -37s-5.16699 -27 -15.5 -37s-22.5 -15 -36.5 -15z" />
    <glyph glyph-name="quotedbl" unicode="&#x22;" horiz-adv-x="300" 
d="M87 463l-8.00098 0.00390625c-1.33301 52 -7.66602 94.667 -18.999 128s-17 52.666 -17 57.999c0 13.333 3.5 23.666 10.5 30.999s16.5 11 28.5 11s21.833 -3.66699 29.5 -11s11.5 -17.666 11.5 -30.999c0 -8.66699 -2.66699 -19.334 -8 -32.001s-11 -31.834 -17 -57.501
s-9.66699 -57.834 -11 -96.501zM220.999 463.004l-8.00098 0.00390625c-1.33301 52 -7.66602 94.667 -18.999 128s-17 52.666 -17 57.999c0 13.333 3.5 23.666 10.5 30.999s16.5 11 28.5 11s21.833 -3.66699 29.5 -11s11.5 -17.666 11.5 -30.999
c0 -8.66699 -2.66699 -19.334 -8 -32.001s-11 -31.834 -17 -57.501s-9.66699 -57.834 -11 -96.501z" />
    <glyph glyph-name="numbersign" unicode="#" horiz-adv-x="593" 
d="M106 456v10h136l58 203l10 -3l-57 -200h157l58 203l10 -3l-57 -200h133v-10h-136l-68 -234h133v-10h-136l-58 -203l-10 3l57 200h-157l-58 -203l-10 3l57 200h-133v10h136l68 234h-133zM250 456l-68 -234h157l68 234h-157z" />
    <glyph glyph-name="dollar" unicode="$" horiz-adv-x="528" 
d="M277 -72l-10.0039 0.00195312v72c-55.333 2.66699 -105.333 16.834 -150 42.501s-67 56.834 -67 93.501c0 11.333 3 20.166 9 26.499s13.333 9.5 22 9.5c18 0 29.333 -8 34 -24c0.666992 -2.66699 2.33398 -8.83398 5.00098 -18.501s5.33398 -17.834 8.00098 -24.501
c10.667 -31.333 26.834 -54.833 48.501 -70.5s51.834 -24.167 90.501 -25.5v309l-53 16c-42 12.667 -75.667 33.667 -101 63s-38 65.666 -38 108.999c0 50 17 91.667 51 125s81 50 141 50v72h10v-72c42 -1.33301 82.667 -15 122 -41s59 -56.333 59 -91
c0 -9.33301 -3 -16.666 -9 -21.999s-12.667 -8 -20 -8c-14 0 -24.333 7 -31 21c-1.33301 4 -3.33301 10.667 -6 20s-4.66699 16 -6 20c-10 31.333 -23.167 54.166 -39.5 68.499s-39.5 22.166 -69.5 23.499v-279l53 -15c100.667 -28.667 151 -88.667 151 -180
c0 -61.333 -20 -109.666 -60 -144.999s-86.333 -53 -139 -53h-5v-72zM443.996 158.002c0 40.667 -12.167 72.667 -36.5 96s-61.833 42 -112.5 56l-18 5v-306h4c48.667 0 88 14.167 118 42.5s45 63.833 45 106.5zM102.996 538.002c0 -34.667 10.667 -61.668 32 -81.001
s56 -36.666 104 -51.999l28 -9v276c-52.667 0 -93.167 -12.667 -121.5 -38s-42.5 -57.333 -42.5 -96z" />
    <glyph glyph-name="percent" unicode="%" horiz-adv-x="713" 
d="M198 346c-42.667 0 -76.832 16.168 -102.499 48.501s-38.5 73.166 -38.5 122.499c0 48.667 12.833 89.334 38.5 122.001s59.834 49 102.501 49c32 0 59.667 -11 83 -33c31.333 -30.667 65.666 -46 102.999 -46c26 0 54.667 6.83301 86 20.5s58 33.167 80 58.5l8 -5
l-388 -692l-9 5l374 665c-17.333 -17.333 -39.833 -31.833 -67.5 -43.5s-55.5 -17.5 -83.5 -17.5s-54.667 8.33301 -80 25c17.333 -31.333 26 -67.333 26 -108c0 -48.667 -11.333 -89.334 -34 -122.001s-55.334 -49 -98.001 -49zM198.002 355.001
c38.667 0 68.667 15.334 90 46.001s32 69.334 32 116.001c0 46 -10.667 84.5 -32 115.5s-51.333 46.5 -90 46.5c-16.667 0 -30.5 -4.16699 -41.5 -12.5s-19.167 -20.5 -24.5 -36.5s-9 -32.833 -11 -50.5s-3 -38.5 -3 -62.5c0 -24.667 1 -45.834 3 -63.501
s5.66699 -34.334 11 -50.001s13.5 -27.667 24.5 -36s24.833 -12.5 41.5 -12.5zM518.002 -7.99805c-42.667 0 -76.834 16.1689 -102.501 48.502s-38.5 73.166 -38.5 122.499c0 48.667 12.833 89.334 38.5 122.001s59.834 49 102.501 49s75.334 -16.333 98.001 -49
s34 -73.334 34 -122.001s-11.333 -89.334 -34 -122.001s-55.334 -49 -98.001 -49zM518.002 1.00391c38.667 0 68.667 15.334 90 46.001s32 69.334 32 116.001c0 46 -10.667 84.5 -32 115.5s-51.333 46.5 -90 46.5c-16.667 0 -30.5 -4.16699 -41.5 -12.5
s-19.167 -20.5 -24.5 -36.5s-9 -32.833 -11 -50.5s-3 -38.5 -3 -62.5c0 -24.667 1 -45.834 3 -63.501s5.66699 -34.334 11 -50.001s13.5 -27.667 24.5 -36s24.833 -12.5 41.5 -12.5z" />
    <glyph glyph-name="ampersand" unicode="&#x26;" horiz-adv-x="785" 
d="M277 -10c-57.333 0 -105.002 18.501 -143.002 55.501s-57 85.167 -57 144.5c0 58 17.833 104.833 53.5 140.5s78.5 58.834 128.5 69.501c-28 13.333 -49.833 32.333 -65.5 57s-23.5 51.667 -23.5 81c0 47.333 17.333 84.666 52 111.999s73 41 115 41
c44 0 85.167 -11 123.5 -33s57.5 -48 57.5 -78c0 -19.333 -9.33301 -29 -28 -29c-17.333 0 -29.666 11 -36.999 33c-10 29.333 -23.667 53 -41 71s-42.333 27 -75 27c-34 0 -63.667 -9.83301 -89 -29.5s-38 -45.834 -38 -78.501c0 -55.333 39.667 -99 119 -131
c57.333 -22.667 101 -48 131 -76s50 -69 60 -123l49 78c35.333 56.667 79.333 85 132 85c10 0 18.833 -2.5 26.5 -7.5s11.5 -11.5 11.5 -19.5c0 -20 -13.333 -30 -40 -30c-9.33301 0 -21 1.66699 -35 5s-24 5 -30 5c-20 0 -39.667 -15.333 -59 -46l-51 -83
c0 -1.33301 3.33301 -17 10 -47c14 -66.667 30 -111.667 48 -135s42.333 -35 73 -35c32.667 0 61.334 21 86.001 63l7 -4c-28.667 -53.333 -70.667 -80 -126 -80c-77.333 0 -127.333 49 -150 147c-51.333 -100 -116.333 -150 -195 -150zM276.998 0.000976562
c74 0 137.668 51.334 191.001 154.001c-8.66699 46.667 -15.334 77 -20.001 91c-10 31.333 -24.333 56.5 -43 75.5s-44.334 35.5 -77.001 49.5c-29.333 12 -48.666 19.667 -57.999 23c-38.667 -10 -68.167 -32.333 -88.5 -67s-30.5 -78.334 -30.5 -131.001
c0 -130 42 -195 126 -195z" />
    <glyph glyph-name="quotesingle" unicode="'" horiz-adv-x="166" 
d="M87 463l-8.00098 0.00390625c-1.33301 52 -7.66602 94.667 -18.999 128s-17 52.666 -17 57.999c0 13.333 3.5 23.666 10.5 30.999s16.5 11 28.5 11s21.833 -3.66699 29.5 -11s11.5 -17.666 11.5 -30.999c0 -8.66699 -2.66699 -19.334 -8 -32.001s-11 -31.834 -17 -57.501
s-9.66699 -57.834 -11 -96.501z" />
    <glyph glyph-name="parenleft" unicode="(" 
d="M127 276c0 -91.333 11.833 -178 35.5 -260s63.5 -143.333 119.5 -184l-5 -7c-64.667 44.667 -117 109.167 -157 193.5s-60 170.166 -60 257.499s20 173.333 60 258s92.333 149.334 157 194.001l5 -7c-56 -40.667 -95.833 -102 -119.5 -184s-35.5 -169 -35.5 -261z" />
    <glyph glyph-name="parenright" unicode=")" 
d="M163 276c0 57.333 -3.83301 112 -11.5 164s-23.834 105 -48.501 159s-56.334 94.667 -95.001 122l5 7c64.667 -44.667 117 -109.334 157 -194.001s60 -170.667 60 -258s-20 -173.166 -60 -257.499s-92.333 -148.833 -157 -193.5l-5 7c38.667 27.333 70.334 68 95.001 122
s40.834 106.833 48.501 158.5s11.5 106.167 11.5 163.5z" />
    <glyph glyph-name="asterisk" unicode="*" horiz-adv-x="388" 
d="M194 400c-8 0 -14.8271 2.83301 -20.4941 8.5s-8.5 12.5 -8.5 20.5c0 11.333 4.33301 30.5 13 57.5s13 50.5 13 70.5c-16.667 -10 -34.5 -25.167 -53.5 -45.5s-33.5 -33.5 -43.5 -39.5c-5.33301 -3.33301 -11 -5 -17 -5c-8 0 -14.5 3 -19.5 9s-7.5 13 -7.5 21
c0 10 4.66699 18 14 24c9.33301 5.33301 28.166 11 56.499 17s51.166 14 68.499 24c-17.333 9.33301 -40 17.166 -68 23.499s-47 12.5 -57 18.5c-9.33301 6 -14 14.333 -14 25c0 8 2.66699 14.833 8 20.5s12 8.5 20 8.5c5.33301 0 10.666 -1.66699 15.999 -5
c10 -6 24.5 -19.333 43.5 -40s36.833 -36 53.5 -46c0 20 -4.33301 43.5 -13 70.5s-13 46.167 -13 57.5c0 8 2.83301 14.833 8.5 20.5s12.5 8.5 20.5 8.5s14.833 -2.83301 20.5 -8.5s8.5 -12.5 8.5 -20.5c0 -11.333 -4.33301 -30.5 -13 -57.5s-13 -50.5 -13 -70.5
c16.667 10 34.5 25.333 53.5 46s33.5 34 43.5 40c5.33301 3.33301 10.666 5 15.999 5c8 0 14.667 -2.83301 20 -8.5s8 -12.5 8 -20.5c0 -10.667 -4.66699 -19 -14 -25c-10 -6 -29 -12.167 -57 -18.5s-50.667 -14.166 -68 -23.499c17.333 -10 40.166 -18 68.499 -24
s47.166 -11.667 56.499 -17c9.33301 -6 14 -14 14 -24c0 -8 -2.5 -15 -7.5 -21s-11.5 -9 -19.5 -9c-6 0 -11.667 1.66699 -17 5c-10 6 -24.5 19.167 -43.5 39.5s-36.833 35.5 -53.5 45.5c0 -20 4.33301 -43.5 13 -70.5s13 -46.167 13 -57.5
c0 -8 -2.83301 -14.833 -8.5 -20.5s-12.5 -8.5 -20.5 -8.5z" />
    <glyph glyph-name="plus" unicode="+" horiz-adv-x="530" 
d="M270 103h-10v214h-215v10h215v216h10v-216h215v-10h-215v-214z" />
    <glyph glyph-name="comma" unicode="," horiz-adv-x="221" 
d="M105 -5c-14.667 0 -26.6689 4.83398 -36.002 14.501s-14 21.5 -14 35.5s5 26.167 15 36.5s22.667 15.5 38 15.5c16 0 29.667 -6.33301 41 -19s17 -28.667 17 -48c0 -38 -10 -68.833 -30 -92.5s-42 -37.834 -66 -42.501l-2 7c22.667 6 42.834 19.5 60.501 40.5
s26.5 46.167 26.5 75.5c0 4 -0.333008 7 -1 9c-9.33301 -21.333 -25.666 -32 -48.999 -32z" />
    <glyph glyph-name="hyphen" unicode="-" horiz-adv-x="303" 
d="M238 262h-173v39h173v-39z" />
    <glyph glyph-name="period" unicode="." horiz-adv-x="214" 
d="M107 -8c-14 0 -26.167 5 -36.5 15s-15.5 22.333 -15.5 37s5.16699 27 15.5 37s22.5 15 36.5 15s26.167 -5 36.5 -15s15.5 -22.333 15.5 -37s-5.16699 -27 -15.5 -37s-22.5 -15 -36.5 -15z" />
    <glyph glyph-name="slash" unicode="/" horiz-adv-x="351" 
d="M330 721l-300 -893l-9 3l300 893z" />
    <glyph glyph-name="zero" unicode="0" horiz-adv-x="604" 
d="M302 -1c30.667 0 56.834 6.33301 78.501 19s38.5 28.5 50.5 47.5s21.333 44.5 28 76.5s10.834 62.5 12.501 91.5s2.5 64.833 2.5 107.5s-0.833008 78.334 -2.5 107.001s-5.83398 59.167 -12.501 91.5s-16 57.833 -28 76.5s-28.833 34.334 -50.5 47.001
s-47.834 19 -78.501 19s-56.834 -6.33301 -78.501 -19s-38.5 -28.334 -50.5 -47.001s-21.333 -44.167 -28 -76.5s-10.834 -62.833 -12.501 -91.5s-2.5 -64.334 -2.5 -107.001s0.833008 -78.5 2.5 -107.5s5.83398 -59.5 12.501 -91.5s16 -57.5 28 -76.5
s28.833 -34.833 50.5 -47.5s47.834 -19 78.501 -19zM302 -10c-78 0 -139.337 33.833 -184.004 101.5s-67 150.834 -67 249.501c0 64 9.33301 122.167 28 174.5s47.334 94.666 86.001 126.999s84.334 48.5 137.001 48.5s98.334 -16.167 137.001 -48.5
s67.334 -74.666 86.001 -126.999s28 -110.5 28 -174.5c0 -98.667 -22.333 -181.834 -67 -249.501s-106 -101.5 -184 -101.5z" />
    <glyph glyph-name="one" unicode="1" horiz-adv-x="314" 
d="M253 0l-16.002 -0.000976562c-7.33301 0 -18.166 0.5 -32.499 1.5s-26.833 1.5 -37.5 1.5c-11.333 0 -24 -0.5 -38 -1.5s-24.667 -1.5 -32 -1.5h-36v8h9c24.667 0 41.334 2.66699 50.001 8s13 18 13 38v501c0 16 -6 24 -18 24c-5.33301 0 -17.666 -4.33301 -36.999 -13
l-22 -11l-4 8c34 16.667 65.333 37.834 94 63.501s45 46.167 49 61.5h6v-630c0 -21.333 3.16699 -35 9.5 -41s20.166 -9 41.499 -9h1v-8z" />
    <glyph glyph-name="two" unicode="2" horiz-adv-x="486" 
d="M444 66l-26.0029 -127.997l-6 1c1.33301 24.667 -2 41 -10 49s-22.667 12 -44 12h-342v4l137 145c68 72.667 119.167 137.667 153.5 195s51.5 117.666 51.5 180.999c0 56.667 -8.5 97 -25.5 121s-43.833 36 -80.5 36c-63.333 0 -109 -42 -137 -126
c-8 -23.333 -20.333 -35 -37 -35c-20.667 0 -31 10.333 -31 31c0 30.667 22.167 61.5 66.5 92.5s90.5 46.5 138.5 46.5c50 0 93.333 -14.5 130 -43.5s55 -70.167 55 -123.5c0 -27.333 -4.83301 -54.166 -14.5 -80.499s-25.167 -52.833 -46.5 -79.5
s-41.166 -49.834 -59.499 -69.501s-44.166 -45.334 -77.499 -77.001s-58.666 -56.834 -75.999 -75.501l-74 -76h355z" />
    <glyph glyph-name="three" unicode="3" horiz-adv-x="525" 
d="M252 -10c-60.667 0 -113.668 17.999 -159.001 53.999s-68 73 -68 111c0 10.667 3.16699 19.167 9.5 25.5s13.5 9.5 21.5 9.5c17.333 0 28.666 -11.333 33.999 -34c25.333 -104.667 79.333 -157 162 -157c48.667 0 86.334 17.333 113.001 52s40 85.334 40 152.001
c0 60.667 -7.66699 104.167 -23 130.5s-39 39.5 -71 39.5c-14 0 -30.333 -5.33301 -49 -16l-73 -37l-5 9l91 47c57.333 29.333 86 83 86 161c0 46 -7.16699 81.667 -21.5 107s-41.833 38 -82.5 38c-63.333 0 -107.666 -41 -132.999 -123
c-6.66699 -25.333 -19.667 -38 -39 -38c-8 0 -15 2.83301 -21 8.5s-9 13.167 -9 22.5c0 30.667 21.5 61.5 64.5 92.5s88.833 46.5 137.5 46.5c50.667 0 93 -13.5 127 -40.5s51 -62.5 51 -106.5c0 -33.333 -12.5 -64.333 -37.5 -93s-55.5 -51.334 -91.5 -68.001
c16.667 1.33301 34.5 -0.666992 53.5 -6s38.167 -14.333 57.5 -27s35.333 -31.5 48 -56.5s19 -54.167 19 -87.5c0 -67.333 -24.5 -120.166 -73.5 -158.499s-101.833 -57.5 -158.5 -57.5z" />
    <glyph glyph-name="four" unicode="4" horiz-adv-x="515" 
d="M480 196h-115.999v-138c0 -21.333 3.16699 -35 9.5 -41s20.166 -9 41.499 -9h1v-8h-16c-7.33301 0 -18.166 0.5 -32.499 1.5s-26.833 1.5 -37.5 1.5s-23.334 -0.5 -38.001 -1.5s-25.334 -1.5 -32.001 -1.5h-36v8h9c24.667 0 41.334 2.66699 50.001 8s13 18 13 38v142
h-292v5l298 480c2.66699 0 7.16699 -0.166992 13.5 -0.5s10.833 -0.5 13.5 -0.5c2 0 7 0.166992 15 0.5s14.667 0.5 20 0.5v-475h5c54 0 99 42.333 135 127l5 -1zM296.001 206v445l-276 -445h276z" />
    <glyph glyph-name="five" unicode="5" horiz-adv-x="527" 
d="M244 -10c-48 0 -93.1689 15.832 -135.502 47.499s-63.5 61.834 -63.5 90.501c0 9.33301 2.83301 17 8.5 23s12.834 9 21.501 9c18.667 0 31.334 -11.333 38.001 -34c25.333 -84.667 69 -127 131 -127c56 0 96.333 21.333 121 64s37 98.667 37 168
c0 68 -9.66699 119.833 -29 155.5s-53.333 53.5 -102 53.5c-34 0 -69.167 -9.66699 -105.5 -29s-63.166 -45 -80.499 -77l-9 3l25 172l18 121l8 51h256c22.667 0 40.167 2.66699 52.5 8s21.166 16.333 26.499 33l6 -1l-23 -106h-318l-38 -257c18 26 44.667 47.833 80 65.5
s69.333 26.5 102 26.5c65.333 0 116.5 -18.5 153.5 -55.5s55.5 -89.833 55.5 -158.5c0 -76 -22.333 -136 -67 -180s-101 -66 -169 -66z" />
    <glyph glyph-name="six" unicode="6" horiz-adv-x="551" 
d="M279 -10c-19.333 0 -38.335 2.33203 -57.002 6.99902s-38.667 13.834 -60 27.501s-39.833 31.167 -55.5 52.5s-28.834 50.666 -39.501 87.999s-16 80 -16 128c0 96.667 36.5 182.334 109.5 257.001s164.167 122 273.5 142l2 -10
c-177.333 -36.667 -277.666 -140.334 -300.999 -311.001c44.667 52.667 98 79 160 79c22.667 0 44.834 -3.33301 66.501 -10s43.334 -17.5 65.001 -32.5s39.167 -37 52.5 -66s20 -63.167 20 -102.5c0 -41.333 -7.33301 -78.666 -22 -111.999s-33.5 -59.5 -56.5 -78.5
s-46.667 -33.5 -71 -43.5s-47.833 -15 -70.5 -15zM278.998 -1.00098c94.667 0 141.998 79 141.998 237c0 136 -42 204 -126 204c-27.333 0 -55.666 -7.33301 -84.999 -22s-54.666 -35.334 -75.999 -62.001c-2.66699 -16.667 -4 -37.667 -4 -63
c0 -109.333 12.5 -185.666 37.5 -228.999s62.167 -65 111.5 -65z" />
    <glyph glyph-name="seven" unicode="7" horiz-adv-x="466" 
d="M226 33c0 -12 -3.83105 -21.668 -11.498 -29.001s-16.834 -11 -27.501 -11c-12 0 -21.833 3.5 -29.5 10.5s-11.5 17.167 -11.5 30.5c0 46 7.83301 95.333 23.5 148s37.667 105.5 66 158.5s55.5 100 81.5 141s56.333 85.5 91 133.5h-282c-24 0 -42 -4.66699 -54 -14
s-22.333 -26.666 -31 -51.999l-6 1l36 171l6 -1c-1.33301 -16 2.5 -26.5 11.5 -31.5s23.167 -7.5 42.5 -7.5h330v-4c-43.333 -62.667 -77.333 -114.5 -102 -155.5s-48.334 -87.833 -71.001 -140.5s-38.667 -106.667 -48 -162s-14 -117.333 -14 -186z" />
    <glyph glyph-name="eight" unicode="8" horiz-adv-x="539" 
d="M275 -10c-69.333 0 -124.666 17.668 -165.999 53.001s-62 82 -62 140c0 36.667 12.5 70.5 37.5 101.5s60.167 56.167 105.5 75.5c-75.333 33.333 -113 84.666 -113 153.999c0 48 18.167 89.5 54.5 124.5s82.833 52.5 139.5 52.5c52.667 0 97.667 -14.333 135 -43
s56 -66.667 56 -114c0 -67.333 -36 -121 -108 -161c45.333 -19.333 79.666 -43.333 102.999 -72s35 -66 35 -112c0 -58 -20.333 -105.667 -61 -143s-92.667 -56 -156 -56zM275 -0.999023c52 0 92.334 15.168 121.001 45.501s43 68.833 43 115.5
c0 68.667 -42.667 119.667 -128 153l-111 43c-28 -16.667 -49 -40.334 -63 -71.001s-21 -62.667 -21 -96c0 -52.667 13.667 -97.5 41 -134.5s66.666 -55.5 117.999 -55.5zM403.001 533.002c0 99.333 -44.333 148.999 -133 148.999c-44 0 -79.167 -11.667 -105.5 -35
s-39.5 -54.666 -39.5 -93.999c0 -59.333 36 -103.333 108 -132l110 -44c40 32.667 60 84.667 60 156z" />
    <glyph glyph-name="nine" unicode="9" horiz-adv-x="551" 
d="M272 691c19.333 0 38.335 -2.33203 57.002 -6.99902s38.667 -13.834 60 -27.501s39.833 -31.167 55.5 -52.5s28.834 -50.666 39.501 -87.999s16 -80 16 -128c0 -96.667 -36.5 -182.334 -109.5 -257.001s-164.167 -122 -273.5 -142l-2 10
c177.333 36.667 277.666 140.334 300.999 311.001c-44.667 -52.667 -98 -79 -160 -79c-22.667 0 -44.834 3.33301 -66.501 10s-43.334 17.5 -65.001 32.5s-39.167 37 -52.5 66s-20 63.167 -20 102.5c0 41.333 7.33301 78.666 22 111.999s33.5 59.5 56.5 78.5
s46.667 33.5 71 43.5s47.833 15 70.5 15zM272.002 682.001c-94.667 0 -141.998 -79 -141.998 -237c0 -136 42 -204 126 -204c27.333 0 55.666 7.33301 84.999 22s54.666 35.334 75.999 62.001c2.66699 16.667 4 37.667 4 63c0 109.333 -12.5 185.666 -37.5 228.999
s-62.167 65 -111.5 65z" />
    <glyph glyph-name="colon" unicode=":" horiz-adv-x="214" 
d="M107 360c-14 0 -26.167 5 -36.5 15s-15.5 22.333 -15.5 37s5.16699 27 15.5 37s22.5 15 36.5 15s26.167 -5 36.5 -15s15.5 -22.333 15.5 -37s-5.16699 -27 -15.5 -37s-22.5 -15 -36.5 -15zM107 -8c-14 0 -26.167 5 -36.5 15s-15.5 22.333 -15.5 37s5.16699 27 15.5 37
s22.5 15 36.5 15s26.167 -5 36.5 -15s15.5 -22.333 15.5 -37s-5.16699 -27 -15.5 -37s-22.5 -15 -36.5 -15z" />
    <glyph glyph-name="semicolon" unicode=";" horiz-adv-x="221" 
d="M107 360c-14 0 -26.167 5 -36.5 15s-15.5 22.333 -15.5 37s5.16699 27 15.5 37s22.5 15 36.5 15s26.167 -5 36.5 -15s15.5 -22.333 15.5 -37s-5.16699 -27 -15.5 -37s-22.5 -15 -36.5 -15zM105 -5c-14.667 0 -26.6689 4.83398 -36.002 14.501s-14 21.5 -14 35.5
s5 26.167 15 36.5s22.667 15.5 38 15.5c16 0 29.667 -6.33301 41 -19s17 -28.667 17 -48c0 -38 -10 -68.833 -30 -92.5s-42 -37.834 -66 -42.501l-2 7c22.667 6 42.834 19.5 60.501 40.5s26.5 46.167 26.5 75.5c0 4 -0.333008 7 -1 9
c-9.33301 -21.333 -25.666 -32 -48.999 -32z" />
    <glyph glyph-name="less" unicode="&#x3c;" horiz-adv-x="469" 
d="M43 328l376 174l4 -9l-368 -170l368 -170l-4 -9l-376 174v10z" />
    <glyph glyph-name="equal" unicode="=" horiz-adv-x="490" 
d="M45 408v10h400v-10h-400zM45 229v10h400v-10h-400z" />
    <glyph glyph-name="greater" unicode="&#x3e;" horiz-adv-x="469" 
d="M50 502l376 -174v-10l-376 -174l-4 9l368 170l-368 170z" />
    <glyph glyph-name="question" unicode="?" horiz-adv-x="345" 
d="M143 206l-10 0.000976562v202c46 9.33301 82 26.666 108 51.999s39 53 39 83c0 23.333 -8.33301 43.333 -25 60s-41 25 -73 25c-16 0 -34 -2.33301 -54 -7s-33 -7 -39 -7c-10 0 -17.833 3.5 -23.5 10.5s-8.5 15.5 -8.5 25.5c0 25.333 19 38 57 38
c53.333 0 96.333 -16.167 129 -48.5s49 -72.833 49 -121.5c0 -94.667 -49.667 -156.667 -149 -186v-126zM137 -7.99902c-14 0 -26.167 5 -36.5 15s-15.5 22.333 -15.5 37s5.16699 27 15.5 37s22.5 15 36.5 15s26.167 -5 36.5 -15s15.5 -22.333 15.5 -37
s-5.16699 -27 -15.5 -37s-22.5 -15 -36.5 -15z" />
    <glyph glyph-name="at" unicode="@" horiz-adv-x="833" 
d="M433 -145c-107.333 0 -198.001 37.5 -272.001 112.5s-111 167.5 -111 277.5c0 107.333 37.167 199.5 111.5 276.5s164.166 115.5 269.499 115.5c97.333 0 180.333 -30.667 249 -92s103 -140.666 103 -237.999c0 -70 -23.833 -136.833 -71.5 -200.5
s-104.5 -95.5 -170.5 -95.5c-26.667 0 -48 7.33301 -64 22s-24 34.667 -24 60c0 32 12 73.333 36 124l70 161l-177 -247c-58 -80 -104 -120 -138 -120c-36.667 0 -55 20.333 -55 61c0 33.333 14.333 81.833 43 145.5s58.334 116.5 89.001 158.5c50 70 101 105 153 105
c36.667 0 70 -23.333 100 -70c24.667 9.33301 42.5 18.666 53.5 27.999s21.167 23.666 30.5 42.999l6 -2l-122 -294c-24.667 -57.333 -37 -97 -37 -119c0 -30.667 12.667 -46 38 -46c62 0 115.833 31 161.5 93s68.5 126.333 68.5 193c0 93.333 -33.667 170 -101 230
s-147.666 90 -240.999 90c-102.667 0 -190.167 -37.5 -262.5 -112.5s-108.5 -164.833 -108.5 -269.5c0 -108 35.833 -198.333 107.5 -271s160.167 -109 265.5 -109c72.667 0 140 18.833 202 56.5s105.333 88.834 130 153.501l9 -4c-24.667 -66 -69.167 -118.5 -133.5 -157.5
s-133.5 -58.5 -207.5 -58.5zM275.999 38c19.333 0 52.333 32.666 99 97.999l194 269c-26 43.333 -54 65 -84 65c-20 0 -38.667 -8 -56 -24s-39 -45.333 -65 -88c-26.667 -43.333 -51.167 -96.166 -73.5 -158.499s-33.5 -106.5 -33.5 -132.5c0 -19.333 6.33301 -29 19 -29z
" />
    <glyph glyph-name="A" unicode="A" horiz-adv-x="638" 
d="M653 0l-21.002 0.000976562c-4 0 -14.667 0.5 -32 1.5s-31 1.5 -41 1.5c-12 0 -27 -0.5 -45 -1.5s-28.667 -1.5 -32 -1.5h-21v8c34.667 0 52 10.333 52 31c0 7.33301 -2.33301 15.666 -7 24.999l-52 124h-322l-27 -68c-9.33301 -25.333 -14 -45 -14 -59
c0 -35.333 23.667 -53 71 -53v-8h-12c-7.33301 0 -21 0.5 -41 1.5s-34.333 1.5 -43 1.5c-4.66699 0 -16.167 -0.5 -34.5 -1.5s-30.166 -1.5 -35.499 -1.5h-21v8c28 1.33301 51 10.5 69 27.5s35 45.833 51 86.5l187 478l-34 81c6 0 13 -0.166992 21 -0.5s14 -0.5 18 -0.5
s9.5 0.166992 16.5 0.5s13.167 0.5 18.5 0.5l260 -621c14.667 -34.667 38.334 -52 71.001 -52v-8zM287.998 589.001l-152 -391h314z" />
    <glyph glyph-name="B" unicode="B" horiz-adv-x="608" 
d="M567 175c0 -55.333 -22.335 -98.333 -67.002 -129s-96.667 -46 -156 -46h-120c-10 0 -24.5 0.166992 -43.5 0.5s-35.833 0.5 -50.5 0.5c-10.667 0 -23.334 -0.166992 -38.001 -0.5s-25.334 -0.5 -32.001 -0.5h-16v8h1c22 0 36 2.83301 42 8.5s9 19.167 9 40.5v567
c0 21.333 -3 34.833 -9 40.5s-20 8.5 -42 8.5h-1v8h16c6.66699 0 17.334 -0.166992 32.001 -0.5s27.334 -0.5 38.001 -0.5c13.333 0 29 0.166992 47 0.5s32 0.5 42 0.5h89c63.333 0 115.833 -15.333 157.5 -46s62.5 -72.334 62.5 -125.001c0 -43.333 -16.667 -80 -50 -110
s-71.666 -48 -114.999 -54c54.667 -2 102.334 -17.167 143.001 -45.5s61 -70.166 61 -125.499zM487.998 175c0 60 -12.333 102.334 -37 127.001s-63.667 37 -117 37h-170v-329h171c54 0 93 12.667 117 38s36 67.666 36 126.999zM452.998 510.001
c0 54.667 -10.668 95.167 -32.001 121.5s-60.666 39.5 -117.999 39.5h-139v-322h143c56.667 0 95.167 13.167 115.5 39.5s30.5 66.833 30.5 121.5z" />
    <glyph glyph-name="C" unicode="C" horiz-adv-x="612" 
d="M317 -8c-83.333 0 -151.333 33.1689 -204 99.502s-79 150.166 -79 251.499c0 57.333 9.5 109.166 28.5 155.499s43.333 83 73 110s60.667 47.5 93 61.5s63.833 21 94.5 21c23.333 0 49.333 -3.16699 78 -9.5s46 -9.5 52 -9.5c23.333 0 34.333 11 33 33l6 2l92 -227l-6 -3
c-45.333 75.333 -88 128.333 -128 159s-82.333 46 -127 46c-62 0 -115.833 -25.167 -161.5 -75.5s-68.5 -116.833 -68.5 -199.5c0 -109.333 25.833 -197.833 77.5 -265.5s115.834 -101.5 192.501 -101.5c92 0 163 46.667 213 140l7 -3
c-25.333 -53.333 -61.833 -97.5 -109.5 -132.5s-99.834 -52.5 -156.501 -52.5z" />
    <glyph glyph-name="D" unicode="D" horiz-adv-x="634" 
d="M520 340c0 123.333 -17.167 209.334 -51.5 258.001s-97.833 73 -190.5 73h-114v-661h114c92.667 0 156.167 24.167 190.5 72.5s51.5 134.166 51.5 257.499zM599 340.001c0 -106.667 -28.333 -190 -85 -250s-130 -90 -220 -90h-75c-10 0 -24 0.166992 -42 0.5
s-33.667 0.5 -47 0.5c-10.667 0 -23.334 -0.166992 -38.001 -0.5s-25.334 -0.5 -32.001 -0.5h-16v8h1c22 0 36 2.83301 42 8.5s9 19.167 9 40.5v567c0 21.333 -3 34.833 -9 40.5s-20 8.5 -42 8.5h-1v8h16c6.66699 0 17.334 -0.166992 32.001 -0.5s27.334 -0.5 38.001 -0.5
c13.333 0 29 0.166992 47 0.5s32 0.5 42 0.5h75c90 0 163.333 -30 220 -90s85 -143.667 85 -251z" />
    <glyph glyph-name="E" unicode="E" horiz-adv-x="615" 
d="M493 -31l-5.99707 1.99902c1.33301 9.33301 -0.333984 16.5 -5.00098 21.5s-13.334 7.5 -26.001 7.5h-237c-10 0 -24 0.166992 -42 0.5s-33.667 0.5 -47 0.5c-10.667 0 -23.334 -0.166992 -38.001 -0.5s-25.334 -0.5 -32.001 -0.5h-16v8h1c22 0 36 2.83301 42 8.5
s9 19.167 9 40.5v567c0 21.333 -3 34.833 -9 40.5s-20 8.5 -42 8.5h-1v8h16c6.66699 0 17.334 -0.166992 32.001 -0.5s27.334 -0.5 38.001 -0.5c13.333 0 29 0.166992 47 0.5s32 0.5 42 0.5h224c13.333 0 22.5 2.5 27.5 7.5s6.83301 12.5 5.5 22.5l6 2l92 -226l-6 -3
c-51.333 72 -89 121.333 -113 148c-24 26 -56 39 -96 39h-195v-320h128c36.667 0 61 10.333 73 31s20.333 54.334 25 101.001h7v-277h-7c-2.66699 23.333 -5.33398 41.666 -8.00098 54.999s-7.33398 27 -14.001 41s-16.167 24 -28.5 30s-28.166 9 -47.499 9h-128v-331h206
c22 0 40.167 2.83301 54.5 8.5s29.833 17.834 46.5 36.501c33.333 38 70.333 91.333 111 160l6 -3z" />
    <glyph glyph-name="F" unicode="F" horiz-adv-x="568" 
d="M400 196l-7.00586 0.000976562c-2.66699 23.333 -5.33398 41.666 -8.00098 54.999s-7.33398 26.833 -14.001 40.5s-16.167 23.5 -28.5 29.5s-28.166 9 -47.499 9h-131v-272c0 -19.333 5.16699 -32.5 15.5 -39.5s28.5 -10.5 54.5 -10.5h20v-8h-30
c-9.33301 0 -23.166 0.5 -41.499 1.5s-34.166 1.5 -47.499 1.5c-11.333 0 -24.666 -0.5 -39.999 -1.5s-27 -1.5 -35 -1.5h-16v8h1c22 0 36 2.83301 42 8.5s9 19.167 9 40.5v567c0 21.333 -3 34.833 -9 40.5s-20 8.5 -42 8.5h-1v8h16c6.66699 0 17.334 -0.166992 32.001 -0.5
s27.334 -0.5 38.001 -0.5s23.334 0.166992 38.001 0.5s25.334 0.5 32.001 0.5h231c13.333 0 22.5 2.5 27.5 7.5s6.83301 12.5 5.5 22.5l6 2l92 -226l-6 -3c-51.333 72 -89 121.333 -113 148c-24 26 -56 39 -96 39h-183v-331h131c36.667 0 61 10.333 73 31
s20.333 54.667 25 102h7v-277z" />
    <glyph glyph-name="G" unicode="G" horiz-adv-x="648" 
d="M572 244v-254.001h-6c-0.666992 5.33301 -1.83398 10.333 -3.50098 15s-4 9.16699 -7 13.5s-5.83301 8.16602 -8.5 11.499s-6.16699 7 -10.5 11s-7.5 7 -9.5 9s-5.33301 4.83301 -10 8.5s-7.33398 5.83398 -8.00098 6.50098c-48.667 -48.667 -109.334 -73 -182.001 -73
c-84 0 -153.833 33.333 -209.5 100s-83.5 146.334 -83.5 239.001c0 60 8.83301 113.833 26.5 161.5s40.834 85.5 69.501 113.5s59.667 49.167 93 63.5s67 21.5 101 21.5c30.667 0 60 -3.16699 88 -9.5s44.333 -9.5 49 -9.5c10.667 0 19.167 2.5 25.5 7.5
s9.16602 13.5 8.49902 25.5l6 2l92 -227l-6 -3c-47.333 76 -90.833 129.167 -130.5 159.5s-83.834 45.5 -132.501 45.5c-62.667 0 -113.667 -27.5 -153 -82.5s-59 -139.833 -59 -254.5c0 -111.333 20 -196 60 -254s97.333 -87 172 -87c32 0 62.333 7.33301 91 22
s51.667 30.667 69 48v170c0 21.333 -3 34.833 -9 40.5s-20 8.5 -42 8.5h-1v8h16c6.66699 0 17.334 -0.5 32.001 -1.5s27.334 -1.5 38.001 -1.5s23.334 0.5 38.001 1.5s25.334 1.5 32.001 1.5h16v-8h-1c-22 0 -36 -2.83301 -42 -8.5s-9 -19.167 -9 -40.5z" />
    <glyph glyph-name="H" unicode="H" horiz-adv-x="691" 
d="M595 624v-567c0 -21.333 3 -34.833 9 -40.5s20 -8.5 42 -8.5h1v-8h-16c-7.33301 0 -18 0.5 -32 1.5s-26.667 1.5 -38 1.5s-24 -0.5 -38 -1.5s-24.667 -1.5 -32 -1.5h-16v8h1c22 0 36 2.83301 42 8.5s9 19.167 9 40.5v284h-363v-284c0 -21.333 3 -34.833 9 -40.5
s20 -8.5 42 -8.5h1v-8h-16c-6.66699 0 -17.334 0.5 -32.001 1.5s-27.334 1.5 -38.001 1.5s-23.334 -0.5 -38.001 -1.5s-25.334 -1.5 -32.001 -1.5h-16v8h1c22 0 36 2.83301 42 8.5s9 19.167 9 40.5v567c0 21.333 -3 34.833 -9 40.5s-20 8.5 -42 8.5h-1v8h16
c6.66699 0 17.334 -0.5 32.001 -1.5s27.334 -1.5 38.001 -1.5s23.334 0.5 38.001 1.5s25.334 1.5 32.001 1.5h16v-8h-1c-22 0 -36 -2.83301 -42 -8.5s-9 -19.167 -9 -40.5v-273h363v273c0 21.333 -3 34.833 -9 40.5s-20 8.5 -42 8.5h-1v8h16c7.33301 0 18 -0.5 32 -1.5
s26.667 -1.5 38 -1.5s24 0.5 38 1.5s24.667 1.5 32 1.5h16v-8h-1c-22 0 -36 -2.83301 -42 -8.5s-9 -19.167 -9 -40.5z" />
    <glyph glyph-name="I" unicode="I" horiz-adv-x="260" 
d="M164 624v-567c0 -21.333 3 -34.833 9 -40.5s20 -8.5 42 -8.5h1v-8h-16c-6.66699 0 -17.334 0.5 -32.001 1.5s-27.334 1.5 -38.001 1.5s-23.334 -0.5 -38.001 -1.5s-25.334 -1.5 -32.001 -1.5h-16v8h1c22 0 36 2.83301 42 8.5s9 19.167 9 40.5v567
c0 21.333 -3 34.833 -9 40.5s-20 8.5 -42 8.5h-1v8h16c6.66699 0 17.334 -0.5 32.001 -1.5s27.334 -1.5 38.001 -1.5s23.334 0.5 38.001 1.5s25.334 1.5 32.001 1.5h16v-8h-1c-22 0 -36 -2.83301 -42 -8.5s-9 -19.167 -9 -40.5z" />
    <glyph glyph-name="J" unicode="J" horiz-adv-x="296" 
d="M207 624l-0.000976562 -428.001c0 -101.333 -20 -175.666 -60 -222.999s-91.333 -71 -154 -71c-23.333 0 -35 10 -35 30c0 20.667 10.333 31 31 31c7.33301 0 22 -3.66699 44 -11s38.333 -11 49 -11c20.667 0 35.334 9 44.001 27s13 46.333 13 85v571
c0 21.333 -3 34.833 -9 40.5s-20 8.5 -42 8.5h-1v8h16c7.33301 0 18 -0.5 32 -1.5s26.667 -1.5 38 -1.5s24 0.5 38 1.5s24.667 1.5 32 1.5h16v-8h-1c-22 0 -36 -2.83301 -42 -8.5s-9 -19.167 -9 -40.5z" />
    <glyph glyph-name="K" unicode="K" horiz-adv-x="652" 
d="M652 0l-39 -0.000976562c-3.33301 0 -13 0.5 -29 1.5s-29.667 1.5 -41 1.5s-25 -0.5 -41 -1.5s-26 -1.5 -30 -1.5h-39v8h11c29.333 0 44 9 44 27c0 8.66699 -4 18.334 -12 29.001l-189 297l-123 -147v-157c0 -21.333 3 -34.833 9 -40.5s20 -8.5 42 -8.5h1v-8h-16
c-6.66699 0 -17.334 0.5 -32.001 1.5s-27.334 1.5 -38.001 1.5s-23.334 -0.5 -38.001 -1.5s-25.334 -1.5 -32.001 -1.5h-16v8h1c22 0 36 2.83301 42 8.5s9 19.167 9 40.5v567c0 21.333 -3 34.833 -9 40.5s-20 8.5 -42 8.5h-1v8h16c6.66699 0 17.334 -0.5 32.001 -1.5
s27.334 -1.5 38.001 -1.5s23.334 0.5 38.001 1.5s25.334 1.5 32.001 1.5h16v-8h-1c-22 0 -36 -2.83301 -42 -8.5s-9 -19.167 -9 -40.5v-395l117 140l-34 53c24 -0.666992 50.333 -0.666992 79 0l143 170c15.333 18.667 23 35 23 49c0 11.333 -4.5 19.5 -13.5 24.5
s-24.833 7.5 -47.5 7.5v8h17c7.33301 0 19.166 -0.5 35.499 -1.5s28.5 -1.5 36.5 -1.5c11.333 0 25.333 0.5 42 1.5s27.334 1.5 32.001 1.5h21v-8c-42 0 -88 -28.667 -138 -86l-144 -172l227 -356c22 -34 52.667 -51 92 -51v-8z" />
    <glyph glyph-name="L" unicode="L" horiz-adv-x="561" 
d="M558 225l-100.002 -256.001l-6 2c1.33301 10 -0.166992 17.333 -4.5 22s-13.166 7 -26.499 7h-221c-6.66699 0 -17.334 0.166992 -32.001 0.5s-27.334 0.5 -38.001 0.5s-23.334 -0.166992 -38.001 -0.5s-25.334 -0.5 -32.001 -0.5h-16v8h1c22 0 36 2.83301 42 8.5
s9 19.167 9 40.5v567c0 21.333 -3 34.833 -9 40.5s-20 8.5 -42 8.5h-1v8h16c6.66699 0 17.334 -0.5 32.001 -1.5s27.334 -1.5 38.001 -1.5s23.334 0.5 38.001 1.5s25.334 1.5 32.001 1.5h16v-8h-1c-22 0 -36 -2.83301 -42 -8.5s-9 -19.167 -9 -40.5v-614h171
c22 0 40.167 2.83301 54.5 8.5s29.833 17.834 46.5 36.501c28.667 32 67.334 89.667 116.001 173z" />
    <glyph glyph-name="M" unicode="M" horiz-adv-x="856" 
d="M760 624l0.0078125 -567.001c0 -21.333 3 -34.833 9 -40.5s20 -8.5 42 -8.5h1v-8h-16c-6.66699 0 -17.334 0.5 -32.001 1.5s-27.334 1.5 -38.001 1.5s-23.334 -0.5 -38.001 -1.5s-25.334 -1.5 -32.001 -1.5h-16v8h1c22 0 36 2.83301 42 8.5s9 19.167 9 40.5v597
l-251 -577l36 -77c-6.66699 0 -13.834 0.166992 -21.501 0.5s-13.167 0.5 -16.5 0.5c-4.66699 0 -10.334 -0.166992 -17.001 -0.5s-13.334 -0.5 -20.001 -0.5l-286 614v-483c0 -37.333 6.16699 -67.166 18.5 -89.499s35.833 -33.5 70.5 -33.5h1v-8h-25
c-3.33301 0 -12.666 0.5 -27.999 1.5s-29 1.5 -41 1.5s-25.667 -0.5 -41 -1.5s-25 -1.5 -29 -1.5h-24v8h1c34 0 57 11 69 33s18 52 18 90v494c-15.333 32 -37.333 48 -66 48h-4v8h10c8 0 17.167 -0.166992 27.5 -0.5s18.833 -0.5 25.5 -0.5
c7.33301 0 17.666 0.166992 30.999 0.5s23.333 0.5 30 0.5l275 -591l257 591c2 0 9 -0.333008 21 -1s23.333 -1 34 -1c3.33301 0 10.166 0.333008 20.499 1s19.833 1 28.5 1h16v-8h-1c-22 0 -36 -2.83301 -42 -8.5s-9 -19.167 -9 -40.5z" />
    <glyph glyph-name="N" unicode="N" horiz-adv-x="690" 
d="M585 78l52.999 -78.001c-7.33301 0 -14.833 0.166992 -22.5 0.5s-13.167 0.5 -16.5 0.5c-4.66699 0 -11.667 -0.166992 -21 -0.5s-17 -0.5 -23 -0.5l-437 617v-486c0 -37.333 6.16699 -67.166 18.5 -89.499s35.833 -33.5 70.5 -33.5h1v-8h-25
c-3.33301 0 -12.666 0.5 -27.999 1.5s-29 1.5 -41 1.5s-25.833 -0.5 -41.5 -1.5s-25.167 -1.5 -28.5 -1.5h-24v8h1c34 0 57 11 69 33s18 52 18 90v496c-0.666992 1.33301 -3 4.66602 -7 9.99902s-6.33301 8.5 -7 9.5s-2.66699 3.5 -6 7.5s-5.83301 6.33301 -7.5 7
s-4.16699 2.16699 -7.5 4.5s-6.5 3.83301 -9.5 4.5s-6.66699 1.33398 -11 2.00098s-8.83301 1 -13.5 1h-1v8h7c10 0 20 -0.166992 30 -0.5s17.667 -0.5 23 -0.5c7.33301 0 17.333 0.166992 30 0.5s22.334 0.5 29.001 0.5l418 -589v458c0 38 -6 68 -18 90s-35.333 33 -70 33
h-1v8h25c3.33301 0 12.666 -0.5 27.999 -1.5s29 -1.5 41 -1.5s25.667 0.5 41 1.5s25 1.5 29 1.5h24v-8h-1c-34.667 0 -58 -11 -70 -33s-18 -52 -18 -90v-472z" />
    <glyph glyph-name="O" unicode="O" horiz-adv-x="658" 
d="M329 -1c143.333 0 215 114 215 342c0 227.333 -71.667 341 -215 341s-215 -113.667 -215 -341c0 -228 71.667 -342 215 -342zM329 -10c-85.333 0 -155.833 33.333 -211.5 100s-83.5 150.334 -83.5 251.001s27.833 184.167 83.5 250.5s126.167 99.5 211.5 99.5
s155.833 -33.167 211.5 -99.5s83.5 -149.833 83.5 -250.5s-27.833 -184.334 -83.5 -251.001s-126.167 -100 -211.5 -100z" />
    <glyph glyph-name="P" unicode="P" horiz-adv-x="566" 
d="M254 0l-30.0039 -0.000976562c-9.33301 0 -23.166 0.5 -41.499 1.5s-34.166 1.5 -47.499 1.5c-11.333 0 -24.666 -0.5 -39.999 -1.5s-27 -1.5 -35 -1.5h-16v8h1c22 0 36 2.83301 42 8.5s9 19.167 9 40.5v567c0 21.333 -3 34.833 -9 40.5s-20 8.5 -42 8.5h-1v8h16
c6.66699 0 17.334 -0.166992 32.001 -0.5s27.334 -0.5 38.001 -0.5c13.333 0 29 0.166992 47 0.5s32 0.5 42 0.5h108c64 0 117 -16.167 159 -48.5s63 -77.166 63 -134.499c0 -58.667 -21 -104.167 -63 -136.5s-95 -48.5 -159 -48.5h-163v-255
c0 -20.667 3.66699 -34.167 11 -40.5s23.666 -9.5 48.999 -9.5h30v-8zM163.996 322.999h160c57.333 0 96.166 14 116.499 42s30.5 72.333 30.5 133c0 60 -10.167 103.833 -30.5 131.5s-59.166 41.5 -116.499 41.5h-160v-348z" />
    <glyph glyph-name="Q" unicode="Q" horiz-adv-x="658" 
d="M448 -235c-26 0 -52.332 12.6689 -78.999 38.002l-59 55c-26 24 -48.667 36 -68 36c-18.667 0 -53.667 -12 -105 -36l-5 8l170 125c-78.667 6.66699 -143 43 -193 109s-75 146.333 -75 241c0 100.667 27.833 184.167 83.5 250.5s126.167 99.5 211.5 99.5
s155.833 -33.167 211.5 -99.5s83.5 -149.833 83.5 -250.5s-27.833 -184.334 -83.5 -251.001s-126.167 -100 -211.5 -100h-13l-141 -105c49.333 22.667 89.333 34 120 34c24.667 0 46.667 -9 66 -27l47 -44c13.333 -12.667 22.666 -21.167 27.999 -25.5s13.333 -9.5 24 -15.5
s20.334 -9 29.001 -9c14 0 27.5 4.83301 40.5 14.5s34.833 30.5 65.5 62.5l6 -5c-38 -40.667 -66.833 -68.334 -86.5 -83.001s-41.834 -22 -66.501 -22zM544.001 341.002c0 227.333 -71.667 341 -215 341s-215 -113.667 -215 -341c0 -228 71.667 -342 215 -342
s215 114 215 342z" />
    <glyph glyph-name="R" unicode="R" horiz-adv-x="633" 
d="M625 8l0.00195312 -8.00098c-16.667 0 -32 0.5 -46 1.5s-27.667 1.5 -41 1.5c-7.33301 0 -16 -0.5 -26 -1.5s-17.333 -1.5 -22 -1.5l-179 320h-147v-263c0 -21.333 3 -34.833 9 -40.5s20 -8.5 42 -8.5h1v-8h-16c-6.66699 0 -17.334 0.5 -32.001 1.5
s-27.334 1.5 -38.001 1.5s-23.334 -0.5 -38.001 -1.5s-25.334 -1.5 -32.001 -1.5h-16v8h1c22 0 36 2.83301 42 8.5s9 19.167 9 40.5v567c0 21.333 -3 34.833 -9 40.5s-20 8.5 -42 8.5h-1v8h16c6.66699 0 17.334 -0.166992 32.001 -0.5s27.334 -0.5 38.001 -0.5
c13.333 0 29 0.166992 47 0.5s32 0.5 42 0.5h108c63.333 0 116.5 -16.333 159.5 -49s64.5 -76.667 64.5 -132c0 -50 -20.167 -92.5 -60.5 -127.5s-94.5 -52.5 -162.5 -52.5h-4c12.667 -20 25.834 -33.833 39.501 -41.5s32.167 -11.5 55.5 -11.5l92 -165
c22 -38.667 40.167 -63.667 54.5 -75s34.166 -17.666 59.499 -18.999zM474.002 499.999c0 58 -10.832 101 -32.499 129s-60.834 42 -117.501 42h-160v-341h160c56 0 95 13.167 117 39.5s33 69.833 33 130.5z" />
    <glyph glyph-name="S" unicode="S" horiz-adv-x="554" 
d="M516 188c0 -42 -10.834 -78.502 -32.501 -109.502s-47.667 -53.5 -78 -67.5s-61.833 -21 -94.5 -21c-29.333 0 -62.666 5.16699 -99.999 15.5s-58.333 15.5 -63 15.5c-24 0 -35 -11 -33 -33l-6 -2l-81 230l6 3c21.333 -40 43.833 -74.667 67.5 -104
s44.5 -51.166 62.5 -65.499s37.5 -25.666 58.5 -33.999s37.167 -13.166 48.5 -14.499s24.333 -2 39 -2c45.333 0 83.5 13.667 114.5 41s46.5 60.333 46.5 99c0 72 -55 128.667 -165 170l-81 30c-47.333 17.333 -86.833 41.666 -118.5 72.999s-47.5 69.333 -47.5 114
c0 50 18 90 54 120s81 45 135 45c18.667 0 42.667 -3.16699 72 -9.5s47.666 -9.5 54.999 -9.5c24.667 0 35.667 11 33 33l6 2l87 -206l-6 -3c-44 72 -85.667 120.667 -125 146s-80 38 -122 38c-47.333 0 -84.166 -11.667 -110.499 -35s-39.5 -52.333 -39.5 -87
c0 -35.333 12.167 -64.5 36.5 -87.5s63.833 -44.5 118.5 -64.5l83 -31c120 -44 180 -107 180 -189z" />
    <glyph glyph-name="T" unicode="T" horiz-adv-x="640" 
d="M406 8l0.00390625 -8h-16c-6.66699 0 -17.334 0.5 -32.001 1.5s-27.334 1.5 -38.001 1.5s-23.334 -0.5 -38.001 -1.5s-25.334 -1.5 -32.001 -1.5h-16v8h1c22 0 36 2.83301 42 8.5s9 19.167 9 40.5v614h-88c-20 0 -34.5 -2 -43.5 -6s-20.167 -14 -33.5 -30
c-22.667 -28 -58 -87.667 -106 -179l-6 3l76 253l6 -1c0 -20 12 -30 36 -30h110c4.66699 0 16.167 -0.166992 34.5 -0.5s34.5 -0.5 48.5 -0.5s30.167 0.166992 48.5 0.5s29.833 0.5 34.5 0.5h110c24 0 36 10 36 30l6 1l76 -253l-6 -3c-48 91.333 -83.333 151 -106 179
c-13.333 16 -24.5 26 -33.5 30s-23.5 6 -43.5 6h-88v-614c0 -21.333 3 -34.833 9 -40.5s20 -8.5 42 -8.5h1z" />
    <glyph glyph-name="U" unicode="U" horiz-adv-x="620" 
d="M533 550l-0.000976562 -339c0 -66.667 -19 -119.834 -57 -159.501s-90 -59.5 -156 -59.5c-160 0 -240 73.333 -240 220v412c0 21.333 -3 34.833 -9 40.5s-20 8.5 -42 8.5h-1v8h16c6.66699 0 17.334 -0.5 32.001 -1.5s27.334 -1.5 38.001 -1.5s23.334 0.5 38.001 1.5
s25.334 1.5 32.001 1.5h16v-8h-1c-22 0 -36 -2.83301 -42 -8.5s-9 -19.167 -9 -40.5v-371c0 -88 14.167 -151.5 42.5 -190.5s75.166 -58.5 140.499 -58.5c57.333 0 103.666 18.833 138.999 56.5s53 87.834 53 150.501v339c0 38 -6 68 -18 90s-35.333 33 -70 33h-1v8h25
c3.33301 0 12.666 -0.5 27.999 -1.5s29 -1.5 41 -1.5s25.667 0.5 41 1.5s25 1.5 29 1.5h24v-8h-1c-34.667 0 -58 -11 -70 -33s-18 -52 -18 -90z" />
    <glyph glyph-name="V" unicode="V" horiz-adv-x="617" 
d="M519 559l-168.999 -479.001l31 -80c-6 0 -12.5 0.166992 -19.5 0.5s-12.833 0.5 -17.5 0.5c-4 0 -9.16699 -0.166992 -15.5 -0.5s-13.166 -0.5 -20.499 -0.5l-250 622c-8 18.667 -17.167 31.834 -27.5 39.501s-24.166 11.5 -41.499 11.5h-1v8h21c4 0 14.667 -0.5 32 -1.5
s31.333 -1.5 42 -1.5c12 0 26.667 0.5 44 1.5s27.666 1.5 30.999 1.5h21v-8h-1c-34.667 0 -52 -10 -52 -30c0 -6 2 -14 6 -24l212 -527l165 469c9.33301 25.333 14 45 14 59c0 35.333 -23.667 53 -71 53v8h12c7.33301 0 21 -0.5 41 -1.5s34.333 -1.5 43 -1.5
c4.66699 0 16.167 0.5 34.5 1.5s30.166 1.5 35.499 1.5h21v-8c-28.667 -1.33301 -52.334 -10.5 -71.001 -27.5s-35 -45.833 -49 -86.5z" />
    <glyph glyph-name="W" unicode="W" horiz-adv-x="976" 
d="M723 83l27.999 -83c-6 0 -12.667 0.166992 -20 0.5s-13 0.5 -17 0.5s-9 -0.166992 -15 -0.5s-12.667 -0.5 -20 -0.5l-191 554l-151 -474l29 -80c-6 0 -12.5 0.166992 -19.5 0.5s-12.833 0.5 -17.5 0.5c-4 0 -9.16699 -0.166992 -15.5 -0.5s-13.166 -0.5 -20.499 -0.5
l-231 622c-13.333 34 -36.333 51 -69 51v8h21c4 0 14.333 -0.5 31 -1.5s30.334 -1.5 41.001 -1.5c12 0 27 0.5 45 1.5s28.667 1.5 32 1.5h21v-8c-35.333 0 -53 -10 -53 -30c0 -6 1.66699 -14 5 -24l195 -524l151 476l-18 52c-7.33301 19.333 -16.333 32.5 -27 39.5
s-24.667 10.5 -42 10.5v8h21c4 0 15 -0.5 33 -1.5s32.333 -1.5 43 -1.5c12 0 26 0.5 42 1.5s26 1.5 30 1.5h21v-8c-35.333 0 -53 -10 -53 -30c0 -6 1.66699 -14 5 -24l180 -519l146 461c9.33301 25.333 14 45 14 59c0 35.333 -23.667 53 -71 53v8h12
c7.33301 0 21 -0.5 41 -1.5s34.333 -1.5 43 -1.5c4.66699 0 16.167 0.5 34.5 1.5s30.166 1.5 35.499 1.5h21v-8c-57.333 -3.33301 -97.333 -41.333 -120 -114z" />
    <glyph glyph-name="X" unicode="X" horiz-adv-x="632" 
d="M627 0h-38.998c-2.66699 0 -11.5 0.5 -26.5 1.5s-28.5 1.5 -40.5 1.5c-11.333 0 -25.333 -0.5 -42 -1.5s-27 -1.5 -31 -1.5h-39v8c37.333 0 56 9 56 27c0 8.66699 -3.66699 18.667 -11 30l-155 249l-142 -197c-19.333 -26.667 -29 -48.667 -29 -66
c0 -13.333 4.16699 -23.833 12.5 -31.5s24.166 -11.5 47.499 -11.5h1v-8h-13c-7.33301 0 -20.666 0.5 -39.999 1.5s-33 1.5 -41 1.5c-4 0 -15.5 -0.5 -34.5 -1.5s-31.167 -1.5 -36.5 -1.5h-19v8h1c27.333 0 51.166 9.33301 71.499 28s44.166 47.667 71.499 87l144 200
l-186 298c-22 34.667 -52 52 -90 52v8h39c2.66699 0 11.667 -0.5 27 -1.5s29 -1.5 41 -1.5s26.333 0.5 43 1.5s26.667 1.5 30 1.5h39v-8c-37.333 0 -56 -9 -56 -27c0 -8.66699 3.66699 -18.667 11 -30l149 -240l126 188c19.333 26.667 29 48.667 29 66
c0 13.333 -4.16699 23.833 -12.5 31.5s-24.166 11.5 -47.499 11.5h-1v8h13c7.33301 0 20.666 -0.5 39.999 -1.5s33 -1.5 41 -1.5c4 0 15.5 0.5 34.5 1.5s31.167 1.5 36.5 1.5h19v-8h-1c-28 -0.666992 -52.5 -10.5 -73.5 -29.5s-44.167 -47.5 -69.5 -85.5l-128 -191l191 -307
c22 -34.667 52 -52 90 -52v-8z" />
    <glyph glyph-name="Y" unicode="Y" horiz-adv-x="593" 
d="M339 327l-0.000976562 -270c0 -21.333 3 -34.833 9 -40.5s20 -8.5 42 -8.5h1v-8h-16c-7.33301 0 -18 0.5 -32 1.5s-26.667 1.5 -38 1.5s-24 -0.5 -38 -1.5s-24.667 -1.5 -32 -1.5h-16v8h1c22 0 36 2.83301 42 8.5s9 19.167 9 40.5v253l-202 313
c-12 18 -24 30.833 -36 38.5s-27 11.5 -45 11.5v8h29c4 0 13.5 -0.5 28.5 -1.5s28.5 -1.5 40.5 -1.5s26 0.5 42 1.5s26 1.5 30 1.5h34v-8c-19.333 0 -32.666 -1.83301 -39.999 -5.5s-11 -10.167 -11 -19.5c0 -8.66699 3.33301 -18.334 10 -29.001l183 -282l139 227
c17.333 28.667 26 49.667 26 63c0 30.667 -21.333 46 -64 46h-1v8h13c7.33301 0 20.5 -0.5 39.5 -1.5s32.833 -1.5 41.5 -1.5c4 0 15.5 0.5 34.5 1.5s31.167 1.5 36.5 1.5h19v-8h-1c-27.333 0 -51 -9.66699 -71 -29s-42 -48.666 -66 -87.999z" />
    <glyph glyph-name="Z" unicode="Z" horiz-adv-x="586" 
d="M567 212l-94.999 -243.001l-6 2c1.33301 9.33301 -0.333984 16.5 -5.00098 21.5s-13.334 7.5 -26.001 7.5h-411v4l445 667h-209c-40.667 0 -72.667 -13 -96 -39c-28 -30.667 -66.667 -82.667 -116 -156l-6 3l95 234l6 -2c-1.33301 -10 0.5 -17.5 5.5 -22.5
s14.167 -7.5 27.5 -7.5h376v-4l-445 -667h244c22 0 39.833 2.83301 53.5 8.5s28.834 17.834 45.501 36.501c33.333 38 70.333 91.333 111 160z" />
    <glyph glyph-name="bracketleft" unicode="[" horiz-adv-x="275" 
d="M85 -174l-0.000976562 901c40.667 -2 95.667 -3 165 -3v-9c-13.333 0 -31.666 -0.166992 -54.999 -0.5s-39.333 -0.5 -48 -0.5l-47 -2c34 -130.667 51 -276 51 -436c0 -162 -17 -307 -51 -435l47 -2c10 0 26.5 -0.166992 49.5 -0.5s40.833 -0.5 53.5 -0.5v-9
c-69.333 0 -124.333 -1 -165 -3z" />
    <glyph glyph-name="backslash" unicode="\" horiz-adv-x="351" 
d="M321 -172l-300 893l9 3l300 -893z" />
    <glyph glyph-name="bracketright" unicode="]" horiz-adv-x="275" 
d="M190 727l0.000976562 -901c-40 2 -95 3 -165 3v9c13.333 0 31.666 0.166992 54.999 0.5s39.333 0.5 48 0.5l47 2c-34 128 -51 273 -51 435c0 160 17 305.333 51 436l-47 2c-10 0 -26.5 0.166992 -49.5 0.5s-40.833 0.5 -53.5 0.5v9c70 0 125 1 165 3z" />
    <glyph glyph-name="asciicircum" unicode="^" horiz-adv-x="450" 
d="M402 321l-9 -4l-168 374l-168 -374l-9 4l173 384h8z" />
    <glyph glyph-name="underscore" unicode="_" horiz-adv-x="442" 
d="M432 -88h-422v10h422v-10z" />
    <glyph glyph-name="grave" unicode="`" horiz-adv-x="233" 
d="M184 546l-6.00098 -3.99805c-17.333 25.333 -40.166 51.166 -68.499 77.499s-46.166 45.166 -53.499 56.499c-4 6 -6 12.667 -6 20c0 8 2.66699 14.667 8 20s12.333 8 21 8c10 0 18.667 -5 26 -15c9.33301 -14 21.666 -38.833 36.999 -74.5s29.333 -65.167 42 -88.5z" />
    <glyph glyph-name="a" unicode="a" horiz-adv-x="500" 
d="M403 -8c-20 0 -35.168 6.33301 -45.501 19s-15.5 28.334 -15.5 47.001c-52 -44 -104.667 -66 -158 -66c-42 0 -74.833 11.333 -98.5 34s-35.5 53.667 -35.5 93c0 71.333 54.333 128.666 163 171.999l129 52v78c0 26 -3.33301 44 -10 54s-20.334 15 -41.001 15
c-33.333 0 -62.666 -8.66699 -87.999 -26s-51.333 -42.333 -78 -75c-9.33301 -11.333 -19 -17 -29 -17c-6.66699 0 -12.667 2.5 -18 7.5s-8 11.167 -8 18.5c0 20 23.333 41.667 70 65s97.334 35 152.001 35c42 0 71.833 -7.83301 89.5 -23.5s26.5 -38.167 26.5 -67.5v-362
c0 -23.333 8 -35 24 -35c16.667 0 32 12 46 36l5 -3c-18 -34 -44.667 -51 -80 -51zM192.999 3c22.667 0 47.833 6.16699 75.5 18.5s52.167 27.833 73.5 46.5v18v248l-126 -52c-36 -14.667 -60 -35 -72 -61s-18 -59.333 -18 -100c0 -78.667 22.333 -118 67 -118z" />
    <glyph glyph-name="b" unicode="b" horiz-adv-x="526" 
d="M479 245c0 -87.333 -18.334 -151.333 -55.001 -192s-79.667 -61 -129 -61s-101.333 22.333 -156 67c-31.333 -21.333 -50 -44.333 -56 -69h-6v635c0 21.333 -3.16699 34.833 -9.5 40.5s-21.166 8.5 -44.499 8.5h-1v7h6c22 0 44.667 4.33301 68 13s37 18.667 41 30h6v-290
c47.333 42.667 98 64 152 64c49.333 0 92.333 -20.333 129 -61s55 -104.667 55 -192zM402.999 245c0 50.667 -2.66699 92.667 -8 126s-13.333 58.333 -24 75s-21.834 28 -33.501 34s-25.834 9 -42.501 9c-52 0 -102.667 -22.333 -152 -67v-354
c48 -44.667 98.667 -67 152 -67c16.667 0 30.834 3 42.501 9s22.834 17.333 33.501 34s18.667 41.667 24 75s8 75.333 8 126z" />
    <glyph glyph-name="c" unicode="c" horiz-adv-x="472" 
d="M252 -8c-56 0 -104.999 22.666 -146.999 67.999s-63 104.333 -63 177c0 78.667 21.333 141.834 64 189.501s93 71.5 151 71.5c46 0 86 -14.333 120 -43s51 -58 51 -88c0 -8 -2.5 -14.667 -7.5 -20s-11.5 -8 -19.5 -8c-13.333 0 -22.333 6.66699 -27 20
c-1.33301 4 -4 15.667 -8 35c-12.667 64 -49.334 96 -110.001 96c-44.667 0 -78.834 -19.667 -102.501 -59s-35.5 -91 -35.5 -155c0 -82 15.333 -146.167 46 -192.5s68.334 -69.5 113.001 -69.5c71.333 0 121 42 149 126l6 -2c-31.333 -97.333 -91.333 -146 -180 -146z" />
    <glyph glyph-name="d" unicode="d" horiz-adv-x="539" 
d="M231 -8c-49.333 0 -92.333 20.333 -129 61s-55 104.667 -55 192s18.333 151.333 55 192s79.667 61 129 61c54 0 104.667 -21.333 152 -64v191c0 21.333 -3.16699 34.833 -9.5 40.5s-21.166 8.5 -44.499 8.5h-1v7h6c22 0 44.667 4.33301 68 13s37 18.667 41 30h6v-667
c0 -21.333 3.16699 -35 9.5 -41s21.166 -9 44.499 -9h1v-7h-14c-8 -0 -19.5 0.333008 -34.5 1s-28.167 1 -39.5 1c-6 0 -12.5 -0.333008 -19.5 -1s-11.5 -1 -13.5 -1v56c-51.333 -42.667 -102 -64 -152 -64zM231 1c48.667 0 99.333 22.333 152 67v354
c-49.333 44.667 -100 67 -152 67c-16.667 0 -30.834 -3 -42.501 -9s-22.834 -17.333 -33.501 -34s-18.667 -41.667 -24 -75s-8 -75.333 -8 -126s2.66699 -92.667 8 -126s13.333 -58.333 24 -75s21.834 -28 33.501 -34s25.834 -9 42.501 -9z" />
    <glyph glyph-name="e" unicode="e" horiz-adv-x="478" 
d="M252 -8c-56 0 -105.002 22.5 -147.002 67.5s-63 103.833 -63 176.5c0 80 21.333 143.667 64 191s93 71 151 71c46.667 0 88.334 -16.5 125.001 -49.5s53.667 -77.167 51 -132.5h-314c-0.666992 -10 -1 -25 -1 -45c0 -72.667 14.5 -133.667 43.5 -183s67.5 -74 115.5 -74
c70.667 0 120.334 42 149.001 126l6 -2c-31.333 -97.333 -91.333 -146 -180 -146zM119.998 325l245 0.000976562c-2.66699 110 -40.334 165 -113.001 165c-37.333 0 -67.166 -15.333 -89.499 -46s-36.5 -70.334 -42.5 -119.001z" />
    <glyph glyph-name="f" unicode="f" horiz-adv-x="302" 
d="M329 646c-4 0 -14.999 0.667969 -32.999 2.00098s-30.333 2 -37 2c-39.333 0 -66.333 -11 -81 -33s-22 -60.333 -22 -115v-12h158v-9h-158v-424c0 -20.667 4.66699 -34.167 14 -40.5s26.333 -9.5 51 -9.5h14v-7h-23c-9.33301 0 -23 0.5 -41 1.5s-34 1.5 -48 1.5
c-11.333 0 -24.666 -0.5 -39.999 -1.5s-26.666 -1.5 -33.999 -1.5h-14v7h1c23.333 0 38.166 3 44.499 9s9.5 19.667 9.5 41v350c0 28 1.66699 52.667 5 74h-73v9h75c10 39.333 24.667 72.666 44 99.999c23.333 33.333 52.666 59.833 87.999 79.5s68.666 29.5 99.999 29.5
c20 0 30 -8.66699 30 -26c0 -18 -10 -27 -30 -27z" />
    <glyph glyph-name="g" unicode="g" horiz-adv-x="518" 
d="M245 -234c-70.667 0 -126.669 11 -168.002 33s-62 47.333 -62 76c0 50.667 51.333 87.667 154 111c-40.667 6 -71 14.833 -91 26.5s-30 28.167 -30 49.5c0 12 3.33301 22.833 10 32.5s16.334 18.5 29.001 26.5s24.5 14.333 35.5 19s24.833 10 41.5 16
c-31.333 14 -56.5 34.833 -75.5 62.5s-28.5 60.834 -28.5 99.501c0 52 17.667 95 53 129s79.333 51 132 51c46 0 85 -12.333 117 -37c34 46 69.333 69 106 69c25.333 0 38 -9 38 -27c0 -8 -2.5 -14.333 -7.5 -19s-11.167 -7 -18.5 -7c-8 0 -17.667 2.5 -29 7.5
s-22 7.5 -32 7.5c-15.333 0 -32.333 -12 -51 -36c41.333 -34 62 -80 62 -138c0 -52 -17.667 -94.833 -53 -128.5s-79.333 -50.5 -132 -50.5c-25.333 0 -49 4 -71 12c-28 -9.33301 -48.667 -18.5 -62 -27.5s-20 -20.5 -20 -34.5c0 -24 34 -39.667 102 -47l123 -13
c114 -12.667 171 -54.334 171 -125.001c0 -44 -24.167 -78 -72.5 -102s-105.166 -36 -170.499 -36zM244.998 147c76.667 0 115 57 115 171c0 114.667 -38.333 172 -115 172s-115 -57.333 -115 -172c0 -114 38.333 -171 115 -171zM244.998 -226c59.333 0 107 9.66699 143 29
s54 46 54 80c0 47.333 -46 76.333 -138 87l-117 13c-41.333 -11.333 -70.833 -25.333 -88.5 -42s-26.5 -37.334 -26.5 -62.001c0 -29.333 15.333 -54.166 46 -74.499s73 -30.5 127 -30.5z" />
    <glyph glyph-name="h" unicode="h" horiz-adv-x="539" 
d="M451 428l-0.000976562 -371c0 -21.333 3.16699 -35 9.5 -41s21.166 -9 44.499 -9h1v-7h-14c-8 0 -19.333 0.5 -34 1.5s-28 1.5 -40 1.5s-25.333 -0.5 -40 -1.5s-26 -1.5 -34 -1.5h-14v7h1c23.333 0 38.166 3 44.499 9s9.5 19.667 9.5 41v374c0 32 -11.667 48 -35 48
c-11.333 0 -39.666 -8 -84.999 -24l-109 -42v-356c0 -21.333 3.16699 -35 9.5 -41s21.166 -9 44.499 -9h1v-7h-14c-7.33301 0 -18.666 0.5 -33.999 1.5s-28.666 1.5 -39.999 1.5s-24.666 -0.5 -39.999 -1.5s-26.666 -1.5 -33.999 -1.5h-14v7h1c23.333 0 38.166 3 44.499 9
s9.5 19.667 9.5 41v568c0 21.333 -3.16699 34.833 -9.5 40.5s-21.166 8.5 -44.499 8.5h-1v7h6c22 0 44.667 4.33301 68 13s37 18.667 41 30h6v-302l106 41c59.333 23.333 101.666 35 126.999 35c41.333 0 62 -23.333 62 -70z" />
    <glyph glyph-name="i" unicode="i" horiz-adv-x="254" 
d="M219 0h-14.0029c-7.33301 0 -18.666 0.5 -33.999 1.5s-28.666 1.5 -39.999 1.5s-24.666 -0.5 -39.999 -1.5s-26.666 -1.5 -33.999 -1.5h-14v7h1c23.333 0 38.166 3 44.499 9s9.5 19.667 9.5 41v342c0 21.333 -3.16699 34.833 -9.5 40.5s-21.166 8.5 -44.499 8.5h-1v7h6
c22 0 44.667 4.33301 68 13s37 18.667 41 30h6v-441c0 -21.333 3.16699 -35 9.5 -41s21.166 -9 44.499 -9h1v-7zM130.997 592c-13.333 0 -24.666 4.5 -33.999 13.5s-14 20.5 -14 34.5s4.66699 25.667 14 35s20.666 14 33.999 14s24.833 -4.66699 34.5 -14s14.5 -21 14.5 -35
s-4.66699 -25.5 -14 -34.5s-21 -13.5 -35 -13.5z" />
    <glyph glyph-name="j" unicode="j" horiz-adv-x="241" 
d="M-24 -236c-8.66699 0 -16.002 2.33301 -22.002 7s-9 11 -9 19c0 17.333 9.66699 26 29 26c8 0 20.167 -1.66699 36.5 -5s27.5 -5 33.5 -5c36 0 54 28.333 54 85v508c0 21.333 -3.16699 34.833 -9.5 40.5s-21.166 8.5 -44.499 8.5h-1v7h6c22 0 44.667 4.33301 68 13
s37 18.667 41 30h6v-459c0 -70.667 -15.333 -132 -46 -184c-37.333 -60.667 -84.666 -91 -141.999 -91zM130.998 592c-13.333 0 -24.666 4.5 -33.999 13.5s-14 20.5 -14 34.5s4.66699 25.667 14 35s20.666 14 33.999 14s24.833 -4.66699 34.5 -14s14.5 -21 14.5 -35
s-4.66699 -25.5 -14 -34.5s-21 -13.5 -35 -13.5z" />
    <glyph glyph-name="k" unicode="k" horiz-adv-x="525" 
d="M370 397l-77.0039 -80l163 -265c12 -18.667 22 -30.834 30 -36.501s20.667 -8.5 38 -8.5h1v-7h-12c-3.33301 0 -12.833 0.5 -28.5 1.5s-30.167 1.5 -43.5 1.5c-12.667 0 -26.667 -0.5 -42 -1.5s-24.666 -1.5 -27.999 -1.5h-24v7h1c28.667 0 43 6 43 18
c0 4.66699 -2 10.334 -6 17.001l-139 226l-90 -93v-118c0 -21.333 3.16699 -35 9.5 -41s21.166 -9 44.499 -9h1v-7h-14c-7.33301 0 -18.666 0.5 -33.999 1.5s-28.666 1.5 -39.999 1.5s-24.666 -0.5 -39.999 -1.5s-26.666 -1.5 -33.999 -1.5h-14v7h1
c23.333 0 38.166 3 44.499 9s9.5 19.667 9.5 41v568c0 21.333 -3.16699 34.833 -9.5 40.5s-21.166 8.5 -44.499 8.5h-1v7h6c22 0 44.667 4.33301 68 13s37 18.667 41 30h6v-537l85 88l-26 43h68l80 83c20 20.667 30 37.667 30 51c0 20.667 -16 31 -48 31h-1v7h13
c7.33301 0 18 -0.5 32 -1.5s27 -1.5 39 -1.5c12.667 0 26 0.5 40 1.5s24.667 1.5 32 1.5h14v-7h-1c-38 0 -85.667 -28.667 -143 -86z" />
    <glyph glyph-name="l" unicode="l" horiz-adv-x="246" 
d="M156 724l-0.00292969 -667c0 -21.333 3.16699 -35 9.5 -41s21.166 -9 44.499 -9h1v-7h-14c-7.33301 0 -18.666 0.5 -33.999 1.5s-28.666 1.5 -39.999 1.5s-24.666 -0.5 -39.999 -1.5s-26.666 -1.5 -33.999 -1.5h-14v7h1c23.333 0 38.166 3 44.499 9s9.5 19.667 9.5 41
v568c0 21.333 -3.16699 34.833 -9.5 40.5s-21.166 8.5 -44.499 8.5h-1v7h6c22 0 44.667 4.33301 68 13s37 18.667 41 30h6z" />
    <glyph glyph-name="m" unicode="m" horiz-adv-x="822" 
d="M789 0h-14.0029c-7.33301 0 -18.666 0.5 -33.999 1.5s-28.666 1.5 -39.999 1.5s-24.666 -0.5 -39.999 -1.5s-26.666 -1.5 -33.999 -1.5h-14v7h1c23.333 0 38.166 3 44.499 9s9.5 19.667 9.5 41v374c0 32 -11.667 48 -35 48c-10.667 0 -38.334 -8.66699 -83.001 -26
l-101 -40v-356c0 -21.333 3.16699 -35 9.5 -41s21.166 -9 44.499 -9h1v-7h-14c-8 0 -19.333 0.5 -34 1.5s-28 1.5 -40 1.5s-25.333 -0.5 -40 -1.5s-26 -1.5 -34 -1.5h-14v7h1c23.333 0 38.166 3 44.499 9s9.5 19.667 9.5 41v374c0 32 -11.667 48 -35 48
c-10.667 0 -38.334 -8.66699 -83.001 -26l-101 -40v-356c0 -21.333 3.16699 -35 9.5 -41s21.166 -9 44.499 -9h1v-7h-14c-7.33301 0 -18.666 0.5 -33.999 1.5s-28.666 1.5 -39.999 1.5s-24.666 -0.5 -39.999 -1.5s-26.666 -1.5 -33.999 -1.5h-14v7h1
c23.333 0 38.166 3 44.499 9s9.5 19.667 9.5 41v342c0 21.333 -3.16699 34.833 -9.5 40.5s-21.166 8.5 -44.499 8.5h-1v7h6c22 0 44.667 4.33301 68 13s37 18.667 41 30h6v-76l98 39c58.667 24.667 100.334 37 125.001 37c18.667 0 33.667 -5 45 -15s17 -30.333 17 -61
l98 39c58.667 24.667 100.334 37 125.001 37c41.333 0 62 -23.333 62 -70v-371c0 -21.333 3.16699 -35 9.5 -41s21.166 -9 44.499 -9h1v-7z" />
    <glyph glyph-name="n" unicode="n" horiz-adv-x="547" 
d="M514 0h-14.001c-8 0 -19.333 0.5 -34 1.5s-28 1.5 -40 1.5s-25.333 -0.5 -40 -1.5s-26 -1.5 -34 -1.5h-14v7h1c23.333 0 38.166 3 44.499 9s9.5 19.667 9.5 41v374c0 32 -11.667 48 -35 48c-11.333 0 -39.666 -8 -84.999 -24l-109 -42v-356
c0 -21.333 3.16699 -35 9.5 -41s21.166 -9 44.499 -9h1v-7h-14c-7.33301 0 -18.666 0.5 -33.999 1.5s-28.666 1.5 -39.999 1.5s-24.666 -0.5 -39.999 -1.5s-26.666 -1.5 -33.999 -1.5h-14v7h1c23.333 0 38.166 3 44.499 9s9.5 19.667 9.5 41v342
c0 21.333 -3.16699 34.833 -9.5 40.5s-21.166 8.5 -44.499 8.5h-1v7h6c22 0 44.667 4.33301 68 13s37 18.667 41 30h6v-76l106 41c59.333 23.333 101.666 35 126.999 35c41.333 0 62 -23.333 62 -70v-371c0 -21.333 3.16699 -35 9.5 -41s21.166 -9 44.499 -9h1v-7z" />
    <glyph glyph-name="o" unicode="o" horiz-adv-x="512" 
d="M256 -8c-58.667 0 -109 24.5 -151 73.5s-63 108.833 -63 179.5s21 130.5 63 179.5s92.333 73.5 151 73.5s109 -24.5 151 -73.5s63 -108.833 63 -179.5s-21 -130.5 -63 -179.5s-92.333 -73.5 -151 -73.5zM256 0c46 0 80.5 17.167 103.5 51.5s34.5 98.833 34.5 193.5
s-11.5 159.167 -34.5 193.5s-57.5 51.5 -103.5 51.5s-80.5 -17.167 -103.5 -51.5s-34.5 -98.833 -34.5 -193.5s11.5 -159.167 34.5 -193.5s57.5 -51.5 103.5 -51.5z" />
    <glyph glyph-name="p" unicode="p" horiz-adv-x="539" 
d="M156 56l-0.00195312 -225c0 -20.667 4.66699 -34.167 14 -40.5s26.333 -9.5 51 -9.5h14v-7h-23c-9.33301 0 -23 0.5 -41 1.5s-34 1.5 -48 1.5c-11.333 0 -24.666 -0.5 -39.999 -1.5s-26.666 -1.5 -33.999 -1.5h-14v7h1c23.333 0 38.166 3 44.499 9s9.5 19.667 9.5 41v568
c0 21.333 -3.16699 34.833 -9.5 40.5s-21.166 8.5 -44.499 8.5h-1v7h6c22 0 44.667 4.33301 68 13s37 18.667 41 30h6v-64c47.333 42.667 98 64 152 64c49.333 0 92.333 -20.333 129 -61s55 -104.667 55 -192s-18.333 -151.333 -55 -192s-79.667 -61 -129 -61
c-50 0 -100.667 21.333 -152 64zM307.998 1c16.667 0 30.833 3 42.5 9s22.834 17.333 33.501 34s18.667 41.667 24 75s8 75.333 8 126s-2.66699 92.667 -8 126s-13.333 58.333 -24 75s-21.834 28 -33.501 34s-25.834 9 -42.501 9c-52 0 -102.667 -22.333 -152 -67v-354
c52.667 -44.667 103.334 -67 152.001 -67z" />
    <glyph glyph-name="q" unicode="q" horiz-adv-x="526" 
d="M47 245c0 87.333 18.334 151.333 55.001 192s79.667 61 129 61c56 0 108 -22.333 156 -67c36 24.667 54.667 47.667 56 69h6v-669c0 -21.333 3.16699 -35 9.5 -41s21.166 -9 44.499 -9h1v-7h-14c-8 0 -19.5 0.666992 -34.5 2s-28.167 2 -39.5 2
c-12 0 -25.333 -0.666992 -40 -2s-26 -2 -34 -2h-28v7h14c23.333 0 38.333 3 45 9s10 19.667 10 41v225c-47.333 -42.667 -98 -64 -152 -64c-49.333 0 -92.333 20.333 -129 61s-55 104.667 -55 192zM123.001 245c0 -50.667 2.66602 -92.667 7.99902 -126
s13.333 -58.333 24 -75s21.834 -28 33.501 -34s25.834 -9 42.501 -9c48.667 0 99.334 22.333 152.001 67v354c-48 44.667 -98.667 67 -152 67c-16.667 0 -30.834 -3 -42.501 -9s-22.834 -17.333 -33.501 -34s-18.667 -41.667 -24 -75s-8 -75.333 -8 -126z" />
    <glyph glyph-name="r" unicode="r" horiz-adv-x="354" 
d="M242 0h-23c-10 0 -24 0.5 -42 1.5s-33.667 1.5 -47 1.5c-12 0 -25.333 -0.5 -40 -1.5s-26 -1.5 -34 -1.5h-14v7h1c23.333 0 38.166 3 44.499 9s9.5 19.667 9.5 41v342c0 21.333 -3.16699 34.833 -9.5 40.5s-21.166 8.5 -44.499 8.5h-1v7h6c22 0 44.667 4.33301 68 13
s37 18.667 41 30h6v-115c25.333 37.333 50 66 74 86c24.667 19.333 50 29 76 29c26.667 0 40 -8.66699 40 -26c0 -18 -13 -27 -39 -27c-6 0 -16 1.5 -30 4.5s-25 4.5 -33 4.5c-20.667 0 -50 -28 -88 -84v-313c0 -20.667 4.66699 -34.167 14 -40.5s26.333 -9.5 51 -9.5h14v-7
z" />
    <glyph glyph-name="s" unicode="s" horiz-adv-x="451" 
d="M245 -8c-18 0 -40.334 3.33496 -67.001 10.002s-46 10 -58 10c-7.33301 0 -13.5 -1.83301 -18.5 -5.5s-6.83301 -8.5 -5.5 -14.5l-6 -2l-50 172l6 2c51.333 -109.333 118 -164 200 -164c40 0 70.5 9.66699 91.5 29s31.5 43.666 31.5 72.999c0 46 -37.333 83.333 -112 112
l-81 31c-71.333 27.333 -107 71.666 -107 132.999c0 35.333 11.5 64.166 34.5 86.499s54.833 33.5 95.5 33.5c17.333 0 37.5 -2.83301 60.5 -8.5s39.167 -8.5 48.5 -8.5c8.66699 0 15.334 1.66699 20.001 5s6.33398 8.33301 5.00098 15l6 2l50 -168l-6 -2
c-48 104.667 -109.333 157 -184 157c-34 0 -59.333 -7.66699 -76 -23s-25 -33.333 -25 -54c0 -22 8.16699 -41.167 24.5 -57.5s44.166 -32.166 83.499 -47.499l80 -31c40 -16 69.5 -34.667 88.5 -56s28.5 -47.666 28.5 -78.999c0 -46.667 -15 -83.334 -45 -110.001
s-67.667 -40 -113 -40z" />
    <glyph glyph-name="t" unicode="t" horiz-adv-x="279" 
d="M164 -8c-50.667 0 -75.998 27.666 -75.998 82.999v406h-68v9h68v79c18 0 32.5 5.83301 43.5 17.5s16.5 25.834 16.5 42.501v1h6v-140h101v-9h-101v-417c0 -34.667 12.333 -52 37 -52c10 0 20.667 4.66699 32 14s21 21 29 35l6 -3
c-8.66699 -18 -21.334 -33.5 -38.001 -46.5s-35.334 -19.5 -56.001 -19.5z" />
    <glyph glyph-name="u" unicode="u" horiz-adv-x="534" 
d="M499 0h-14.002c-7.33301 -0 -18.666 0.333008 -33.999 1s-28.666 1 -39.999 1c-6 0 -12.5 -0.333008 -19.5 -1s-11.5 -1 -13.5 -1v68l-101 -41c-56.667 -23.333 -99 -35 -127 -35c-41.333 0 -62 23.333 -62 70v337c0 21.333 -3.16699 34.833 -9.5 40.5
s-21.166 8.5 -44.499 8.5h-1v7h6c22 0 44.667 4.33301 68 13s37 18.667 41 30h6v-439c0 -32 11.667 -48 35 -48c15.333 0 43.666 8 84.999 24l104 42v322c0 21.333 -3.16699 34.833 -9.5 40.5s-21.166 8.5 -44.499 8.5h-1v7h6c22 0 44.667 4.33301 68 13s37 18.667 41 30h6
v-441c0 -21.333 3.16699 -35 9.5 -41s21.166 -9 44.499 -9h1v-7z" />
    <glyph glyph-name="v" unicode="v" horiz-adv-x="465" 
d="M269 75l28.0029 -75c-6.66699 0 -13.5 0.166992 -20.5 0.5s-12.167 0.5 -15.5 0.5c-4 0 -9.66699 -0.166992 -17 -0.5s-13.666 -0.5 -18.999 -0.5l-163 433c-7.33301 20 -15.833 33.333 -25.5 40s-23.834 10 -42.501 10v7h23c4 0 13.167 -0.5 27.5 -1.5
s27.833 -1.5 40.5 -1.5s26.167 0.5 40.5 1.5s23.166 1.5 26.499 1.5h24v-7c-33.333 0 -50 -8 -50 -24c0 -4 1 -9 3 -15l135 -357l110 309c5.33301 14.667 8 28 8 40c0 31.333 -22 47 -66 47v7h10c8 0 19.667 -0.5 35 -1.5s27.666 -1.5 36.999 -1.5c10 0 22.667 0.5 38 1.5
s25.666 1.5 30.999 1.5h17v-7c-27.333 -1.33301 -48.5 -9.5 -63.5 -24.5s-27.833 -37.167 -38.5 -66.5z" />
    <glyph glyph-name="w" unicode="w" horiz-adv-x="752" 
d="M557 75l28.002 -75c-6.66699 0 -13.5 0.166992 -20.5 0.5s-12.167 0.5 -15.5 0.5c-4 0 -9.66699 -0.166992 -17 -0.5s-13.666 -0.5 -18.999 -0.5l-139 370l-105 -295l28 -75c-6.66699 0 -13.334 0.166992 -20.001 0.5s-11.667 0.5 -15 0.5
c-4 0 -9.83301 -0.166992 -17.5 -0.5s-14.167 -0.5 -19.5 -0.5l-163 433c-7.33301 20 -15.833 33.333 -25.5 40s-23.834 10 -42.501 10v7h23c4 0 13.167 -0.5 27.5 -1.5s27.833 -1.5 40.5 -1.5s26.167 0.5 40.5 1.5s23.166 1.5 26.499 1.5h24v-7c-33.333 0 -50 -8 -50 -24
c0 -4 1 -9 3 -15l135 -357l105 295l-19 51c-7.33301 20 -15.833 33.333 -25.5 40s-23.834 10 -42.501 10v7h23c4 0 13 -0.5 27 -1.5s27.333 -1.5 40 -1.5s26.334 0.5 41.001 1.5s23.667 1.5 27 1.5h24v-7c-33.333 0 -50 -8 -50 -24c0 -4.66699 1 -9.66699 3 -15l135 -357
l110 309c5.33301 14.667 8 28 8 40c0 31.333 -22 47 -66 47v7h10c8 0 19.667 -0.5 35 -1.5s28 -1.5 38 -1.5s22.5 0.5 37.5 1.5s25.167 1.5 30.5 1.5h17v-7c-27.333 -1.33301 -48.5 -9.5 -63.5 -24.5s-27.833 -37.167 -38.5 -66.5z" />
    <glyph glyph-name="x" unicode="x" horiz-adv-x="485" 
d="M480 0h-26c-4 0 -13.333 0.5 -28 1.5s-28.334 1.5 -41.001 1.5s-26 -0.5 -40 -1.5s-22.667 -1.5 -26 -1.5h-24v7c31.333 0 47 7.33301 47 22c0 5.33301 -2 11 -6 17l-114 175l-92 -135c-10.667 -16 -16 -30 -16 -42c0 -12.667 3.66699 -22 11 -28s22 -9 44 -9h1v-7h-10
c-8 0 -19.667 0.5 -35 1.5s-27.666 1.5 -36.999 1.5c-10 0 -22.167 -0.5 -36.5 -1.5s-24.166 -1.5 -29.499 -1.5h-17v7h1c21.333 0 41 6.66699 59 20s37 34.333 57 63l94 138l-126 196c-12.667 20 -25 34.833 -37 44.5s-26 14.5 -42 14.5v7h26c4 0 13.333 -0.5 28 -1.5
s28.334 -1.5 41.001 -1.5s26 0.5 40 1.5s22.667 1.5 26 1.5h24v-7c-31.333 0 -47 -7.33301 -47 -22c0 -5.33301 2 -11 6 -17l107 -165l82 125c10.667 16 16 30 16 42c0 12.667 -3.66699 22 -11 28s-22 9 -44 9h-1v7h10c8 0 19.667 -0.5 35 -1.5s27.666 -1.5 36.999 -1.5
c10 0 22.167 0.5 36.5 1.5s24.166 1.5 29.499 1.5h17v-7h-1c-41.333 0 -80 -27.667 -116 -83l-84 -128l133 -206c12.667 -20 25 -34.833 37 -44.5s26 -14.5 42 -14.5v-7z" />
    <glyph glyph-name="y" unicode="y" horiz-adv-x="465" 
d="M269 75l28.0039 -75.001c-6 0 -12.667 0.166992 -20 0.5s-12.666 0.5 -15.999 0.5c-2 0 -5.83301 -0.166992 -11.5 -0.5s-10.5 -0.5 -14.5 -0.5l-20 -45c-32.667 -72.667 -60 -122.667 -82 -150s-53.667 -41 -95 -41c-27.333 0 -41 9 -41 27c0 8 2.66699 14.167 8 18.5
s12 6.5 20 6.5s20.333 -2.16699 37 -6.5s28.334 -6.5 35.001 -6.5c17.333 0 33.666 11 48.999 33s35.666 62.667 60.999 122l19 42l-164 434c-7.33301 19.333 -15.833 32.333 -25.5 39s-23.834 10 -42.501 10v7h23c4 0 13.167 -0.5 27.5 -1.5s27.833 -1.5 40.5 -1.5
s26.167 0.5 40.5 1.5s23.166 1.5 26.499 1.5h24v-7c-33.333 0 -50 -8 -50 -24c0 -4 1 -9 3 -15l135 -357l110 309c5.33301 14 8 27.333 8 40c0 31.333 -22 47 -66 47v7h10c8 0 19.667 -0.5 35 -1.5s27.666 -1.5 36.999 -1.5c10 0 22.667 0.5 38 1.5s25.666 1.5 30.999 1.5
h17v-7c-27.333 -1.33301 -48.5 -9.66602 -63.5 -24.999s-27.833 -37.333 -38.5 -66z" />
    <glyph glyph-name="z" unicode="z" horiz-adv-x="446" 
d="M359 -21l-6 1.00098c0 8 -3.16699 13.333 -9.5 16s-16.833 4 -31.5 4h-280v4l299 478h-120c-22.667 0 -39.5 -2 -50.5 -6s-23.167 -12.667 -36.5 -26c-30.667 -30.667 -60 -68.334 -88 -113.001l-5 3l68 171l6 -1c0 -8 3.16699 -13.333 9.5 -16s16.833 -4 31.5 -4h261v-4
l-300 -478h135c27.333 0 47.333 2.83301 60 8.5s28 18.167 46 37.5c14 14.667 40.333 49.667 79 105l5 -3z" />
    <glyph glyph-name="braceleft" unicode="{" horiz-adv-x="292" 
d="M170 -62c0 -31.333 7 -54.1738 21 -68.5068s41 -26.166 81 -35.499l-2 -8c-58.667 14.667 -99.667 32.167 -123 52.5s-35 55.166 -35 104.499c0 22 1.66699 53.5 5 94.5s5 66.833 5 77.5c0 38.667 -5.33301 67.167 -16 85.5s-32.667 28.166 -66 29.499v10
c33.333 1.33301 55.333 11.333 66 30s16 47 16 85c0 10.667 -1.66699 36.667 -5 78s-5 72.666 -5 93.999c0 49.333 11.667 84.166 35 104.499s64.333 37.833 123 52.5l2 -8c-40 -9.33301 -67 -21.166 -81 -35.499s-21 -37.166 -21 -68.499
c0 -13.333 1.66699 -46.666 5 -99.999s5 -87.666 5 -102.999c0 -39.333 -8.5 -70.166 -25.5 -92.499s-47.833 -36.166 -92.5 -41.499c44.667 -5.33301 75.5 -19.166 92.5 -41.499s25.5 -53.166 25.5 -92.499c0 -15.333 -1.66699 -49.666 -5 -102.999s-5 -86.666 -5 -99.999z
" />
    <glyph glyph-name="bar" unicode="|" horiz-adv-x="210" 
d="M110 -217h-10v987h10v-987z" />
    <glyph glyph-name="braceright" unicode="}" horiz-adv-x="292" 
d="M122 -62c0 13.333 -1.66699 46.6738 -5 100.007s-5 87.666 -5 102.999c0 39.333 8.5 70.166 25.5 92.499s47.833 36.166 92.5 41.499c-44.667 5.33301 -75.5 19.166 -92.5 41.499s-25.5 53.166 -25.5 92.499c0 15.333 1.66699 49.666 5 102.999s5 86.666 5 99.999
c0 31.333 -7 54.166 -21 68.499s-41 26.166 -81 35.499l2 8c58.667 -14.667 99.667 -32.167 123 -52.5s35 -55.166 35 -104.499c0 -21.333 -1.66699 -52.666 -5 -93.999s-5 -67.333 -5 -78c0 -38 5.33301 -66.333 16 -85s32.667 -28.667 66 -30v-10
c-33.333 -1.33301 -55.333 -11.166 -66 -29.499s-16 -46.833 -16 -85.5c0 -10.667 1.66699 -36.5 5 -77.5s5 -72.5 5 -94.5c0 -49.333 -11.667 -84.166 -35 -104.499s-64.333 -37.833 -123 -52.5l-2 8c40 9.33301 67 21.166 81 35.499s21 37.166 21 68.499z" />
    <glyph glyph-name="asciitilde" unicode="~" horiz-adv-x="531" 
d="M379 282c-28 0 -66.333 10.333 -115 31s-86 31 -112 31c-40 0 -72.667 -19.333 -98 -58l-9 5c10 16 24.333 30.5 43 43.5s40 19.5 64 19.5c28.667 0 67.167 -10.333 115.5 -31s85.5 -31 111.5 -31c40 0 72.667 19.333 98 58l9 -5c-10 -16 -24.333 -30.5 -43 -43.5
s-40 -19.5 -64 -19.5z" />
    <glyph glyph-name="uni00A0" unicode="&#xa0;" horiz-adv-x="190" 
 />
    <glyph glyph-name="exclamdown" unicode="&#xa1;" horiz-adv-x="241" 
d="M115 284h10v-43c0 -42 5.5 -109.833 16.5 -203.5s16.5 -156.167 16.5 -187.5c0 -32 -12.667 -48 -38 -48c-24.667 0 -37 16 -37 48c0 30.667 5.33301 93 16 187s16 162 16 204v43zM120 498c14 0 26.167 -5 36.5 -15s15.5 -22.333 15.5 -37s-5.16699 -27 -15.5 -37
s-22.5 -15 -36.5 -15s-26.167 5 -36.5 15s-15.5 22.333 -15.5 37s5.16699 27 15.5 37s22.5 15 36.5 15z" />
    <glyph glyph-name="cent" unicode="&#xa2;" horiz-adv-x="500" 
d="M265 -8c-36 0 -69.667 9.99902 -101 29.999l-55 -165l-9 3l55 167c-66.667 45.333 -100 115.333 -100 210c0 78.667 21.333 141.834 64 189.501s93 71.5 151 71.5c10 0 23.333 -1.66699 40 -5l46 138l9 -3l-46 -137c34.667 -9.33301 63.667 -26.5 87 -51.5
s35 -49.167 35 -72.5c0 -8 -2.5 -14.667 -7.5 -20s-11.5 -8 -19.5 -8c-13.333 0 -22.333 6.66699 -27 20c-1.33301 4 -4 15.667 -8 35c-8.66699 45.333 -29.667 74.333 -63 87l-134 -405c28 -41.333 64 -62 108 -62c71.333 0 121 42 149 126l6 -2
c-31.333 -97.333 -91.333 -146 -180 -146zM131 275.999c0 -78.667 14.668 -142 44.001 -190l132 398c-11.333 4 -24 6 -38 6c-44.667 0 -78.834 -19.667 -102.501 -59s-35.5 -91 -35.5 -155z" />
    <glyph glyph-name="sterling" unicode="&#xa3;" horiz-adv-x="586" 
d="M425 -8c-8.66699 0 -17.1641 0.665039 -25.4971 1.99805s-17.333 3.83301 -27 7.5s-17.5 6.5 -23.5 8.5s-14.833 6.33301 -26.5 13l-23 13c-3.66699 2 -12.334 7.16699 -26.001 15.5s-21.5 13.166 -23.5 14.499c-32 -50.667 -76.667 -76 -134 -76
c-22.667 0 -41.834 6.16699 -57.501 18.5s-23.5 29.166 -23.5 50.499c0 22 9.33301 40.167 28 54.5s43.667 21.5 75 21.5c28 0 65.333 -9 112 -27c2 10.667 3 22.334 3 35.001c0 47.333 -14.667 103.333 -44 168h-133v10h129c-21.333 43.333 -37 79.833 -47 109.5
s-15 60.167 -15 91.5c0 49.333 19.5 89.833 58.5 121.5s81.5 47.5 127.5 47.5c42 0 83 -13.167 123 -39.5s60 -57.5 60 -93.5c0 -9.33301 -2.66699 -16.833 -8 -22.5s-12.333 -8.5 -21 -8.5c-12 0 -20.667 4 -26 12s-10.333 22.333 -15 43c-8 34.667 -20.667 60 -38 76
s-42.333 24 -75 24c-37.333 0 -66.166 -11 -86.499 -33s-30.5 -50.667 -30.5 -86c0 -18.667 2.16699 -39.167 6.5 -61.5s8.33301 -40.333 12 -54s10.5 -35.5 20.5 -65.5l20 -61h177v-10h-175c10.667 -41.333 16 -75.333 16 -102c0 -37.333 -6.66699 -73.333 -20 -108
c2.66699 -1.33301 10.834 -4.66602 24.501 -9.99902s22.667 -8.66602 27 -9.99902s12.166 -4.16602 23.499 -8.49902s20.166 -7.16602 26.499 -8.49902s14.166 -3.33301 23.499 -6s18 -4.33398 26 -5.00098s16 -1 24 -1c55.333 0 83 30.667 83 92c0 34 -10 64.333 -30 91
l7 6c12.667 -16 22 -35.333 28 -58s9 -41.334 9 -56.001c0 -41.333 -10.667 -74.166 -32 -98.499s-49.333 -36.5 -84 -36.5zM116.003 -0.00195312c25.333 0 49.333 6.16699 72 18.5s39.667 30.5 51 54.5c-52.667 30.667 -94 46 -124 46c-20 0 -36.667 -5.5 -50 -16.5
s-20 -25.5 -20 -43.5s6.66699 -32.333 20 -43s30.333 -16 51 -16z" />
    <glyph glyph-name="currency" unicode="&#xa4;" horiz-adv-x="664" 
d="M331 110c-68 0 -123.668 19.667 -167.001 59l-111 -110l-7 7l111 110c-42 42 -63 97.333 -63 166c0 69.333 21.667 125 65 167l-111 113l7 7l112 -113c43.333 39.333 98 59 164 59c67.333 0 123 -20.333 167 -61l113 113l7 -7l-113 -112c42.667 -44 64 -99.333 64 -166
c0 -68 -21.333 -123.333 -64 -166l111 -112l-7 -7l-112 112c-43.333 -39.333 -98.666 -59 -165.999 -59zM330.999 119c66 0 120.499 20.167 163.499 60.5s64.5 94.5 64.5 162.5s-21.667 122.333 -65 163s-97.666 61 -162.999 61s-119.5 -20.333 -162.5 -61
s-64.5 -95 -64.5 -163s21.5 -122.167 64.5 -162.5s97.167 -60.5 162.5 -60.5z" />
    <glyph glyph-name="yen" unicode="&#xa5;" horiz-adv-x="601" 
d="M389 0l-13.0029 0.000976562c-8 0 -19.333 0.5 -34 1.5s-27.667 1.5 -39 1.5s-24.666 -0.5 -39.999 -1.5s-26.666 -1.5 -33.999 -1.5h-12v8h1c22.667 0 36.834 3.16699 42.501 9.5s8.5 20.5 8.5 42.5v98h-156v10h156v93h-156v10h156v47l-183 305
c-19.333 33.333 -46.333 50 -81 50v8h29c4 0 13.667 -0.5 29 -1.5s28.666 -1.5 39.999 -1.5c12 0 26.167 0.5 42.5 1.5s26.5 1.5 30.5 1.5h34v-8c-19.333 0 -32.666 -1.83301 -39.999 -5.5s-11 -10.167 -11 -19.5c0 -8.66699 3.33301 -18.334 10 -29.001l162 -274l120 219
c17.333 31.333 26 53 26 65c0 29.333 -21.333 44 -64 44h-1v8h13c7.33301 0 20.5 -0.5 39.5 -1.5s32.833 -1.5 41.5 -1.5c4 0 15.5 0.5 34.5 1.5s31.167 1.5 36.5 1.5h19v-8h-1c-51.333 0 -97 -39 -137 -117l-121 -220v-65h156v-10h-156v-93h156v-10h-156v-98
c0 -22 3 -36.167 9 -42.5s20 -9.5 42 -9.5h1v-8z" />
    <glyph glyph-name="brokenbar" unicode="&#xa6;" horiz-adv-x="210" 
d="M110 -217h-10v438h10v-438zM110 342h-10v428h10v-428z" />
    <glyph glyph-name="section" unicode="&#xa7;" horiz-adv-x="509" 
d="M177 -155c-56 0 -84 13.6689 -84 41.002c0 8.66699 3 16.167 9 22.5s14.333 9.5 25 9.5c9.33301 0 26.666 -6 51.999 -18s49 -18 71 -18c28 0 50.167 7.66699 66.5 23s24.5 35.666 24.5 60.999c0 15.333 -3.83301 31.166 -11.5 47.499s-15.667 30 -24 41
s-22.5 28.5 -42.5 52.5l-125 147c-30 35.333 -50.5 63.333 -61.5 84s-16.5 43 -16.5 67c0 54.667 24 100.667 72 138c8 42.667 31.333 77.667 70 105s82 41 130 41c56 0 84 -13.667 84 -41c0 -8.66699 -3 -16.167 -9 -22.5s-14.333 -9.5 -25 -9.5
c-9.33301 0 -26.5 6 -51.5 18s-48.833 18 -71.5 18c-28 0 -50.167 -7.66699 -66.5 -23s-24.5 -35.666 -24.5 -60.999c0 -15.333 3.83301 -31.166 11.5 -47.499s15.667 -30 24 -41s22.5 -28.5 42.5 -52.5l125 -147c30.667 -34.667 51.334 -62.334 62.001 -83.001
s16 -43.334 16 -68.001c0 -54.667 -24 -100.667 -72 -138c-8 -42.667 -31.333 -77.667 -70 -105s-82 -41 -130 -41zM415 77.002c0 23.333 -5.5 43.833 -16.5 61.5s-32.167 44.5 -63.5 80.5l-133 155c-25.333 29.333 -43.5 55.333 -54.5 78s-16.5 49.334 -16.5 80.001
c-24.667 -23.333 -37 -48.333 -37 -75c0 -23.333 5.5 -43.833 16.5 -61.5s32.167 -44.5 63.5 -80.5l133 -155c25.333 -29.333 43.5 -55.333 54.5 -78s16.5 -49.334 16.5 -80.001c24.667 23.333 37 48.333 37 75z" />
    <glyph glyph-name="dieresis" unicode="&#xa8;" horiz-adv-x="401" 
d="M152 628c0 -12.667 -4.33301 -23.167 -13 -31.5s-19.334 -12.5 -32.001 -12.5c-12 0 -22.333 4.16699 -31 12.5s-13 18.833 -13 31.5s4.33301 23.334 13 32.001s19 13 31 13c12.667 0 23.334 -4.33301 32.001 -13s13 -19.334 13 -32.001zM341 628
c0 -12 -4.5 -22.333 -13.5 -31s-19.5 -13 -31.5 -13c-12.667 0 -23.167 4.16699 -31.5 12.5s-12.5 18.833 -12.5 31.5s4.16699 23.334 12.5 32.001s18.833 13 31.5 13c12 0 22.5 -4.33301 31.5 -13s13.5 -19.334 13.5 -32.001z" />
    <glyph glyph-name="copyright" unicode="&#xa9;" horiz-adv-x="792" 
d="M396 -9c-98 0 -180.167 32.167 -246.5 96.5s-99.5 148.5 -99.5 252.5s33.167 188.167 99.5 252.5s148.5 96.5 246.5 96.5c97.333 0 179.333 -32.333 246 -97s100 -148.667 100 -252c0 -104 -33.333 -188.167 -100 -252.5s-148.667 -96.5 -246 -96.5zM396 1
c95.333 0 175.166 31.166 239.499 93.499s96.5 144.166 96.5 245.499c0 100.667 -32.167 182.334 -96.5 245.001s-144.166 94 -239.499 94c-96 0 -176 -31.167 -240 -93.5s-96 -144.166 -96 -245.499c0 -102 32 -184 96 -246s144 -93 240 -93zM397 126.999
c-52 0 -96.6689 20.333 -134.002 61s-56 90 -56 148c0 36 5.83301 68.167 17.5 96.5s26.834 50.5 45.501 66.5s38.167 28 58.5 36s40.5 12 60.5 12c14 0 29.833 -1.83301 47.5 -5.5s29.167 -5.5 34.5 -5.5c16.667 0 24 7.66699 22 23l6 2l64 -138l-6 -4
c-33.333 40 -62.666 69.833 -87.999 89.5s-52.333 29.5 -81 29.5c-34.667 0 -63.5 -13.833 -86.5 -41.5s-34.5 -68.167 -34.5 -121.5c0 -59.333 15.667 -109.5 47 -150.5s70.333 -61.5 117 -61.5c27.333 0 53.5 6.83301 78.5 20.5s44.833 33.5 59.5 59.5l7 -4
c-16 -31.333 -40.333 -57.833 -73 -79.5s-68 -32.5 -106 -32.5z" />
    <glyph glyph-name="ordfeminine" unicode="&#xaa;" horiz-adv-x="378" 
d="M280 361c-27.333 0 -42.666 13 -45.999 39c-31.333 -26 -62.333 -39 -93 -39c-28.667 0 -51 7.66699 -67 23s-24 36.333 -24 63c0 45.333 32.667 81.333 98 108l85 34v49c0 16.667 -1.83301 28 -5.5 34s-12.167 9 -25.5 9c-34.667 0 -67.667 -20.667 -99 -62
c-8.66699 -10 -16.667 -15 -24 -15c-5.33301 0 -9.83301 2 -13.5 6s-5.5 8.66699 -5.5 14c0 14 15.333 28.5 46 43.5s63.667 22.5 99 22.5c29.333 0 50.166 -5.83301 62.499 -17.5s18.5 -29.167 18.5 -52.5v-209c0 -20.667 6.33301 -31 19 -31c7.33301 0 13 5 17 15l6 -2
c-6 -21.333 -22 -32 -48 -32zM157 373c20.667 0 46 12.333 76 37v26v144l-69 -28c-22 -9.33301 -37.167 -21.5 -45.5 -36.5s-12.5 -34.5 -12.5 -58.5c0 -56 17 -84 51 -84zM328 291h-276v9h276v-9z" />
    <glyph glyph-name="guillemotleft" unicode="&#xab;" horiz-adv-x="502" 
d="M276 74l-4.99902 -5.00098c-16.667 17.333 -43 41 -79 71l-94.5 76.5c-27 21 -42.833 33.167 -47.5 36.5c4.66699 3.33301 20.5 15.5 47.5 36.5l94.5 76.5c36 30 62.333 53.667 79 71l5 -5c-14.667 -17.333 -32.167 -39.666 -52.5 -66.999l-54 -74
c-15.667 -22 -24.834 -34.667 -27.501 -38c0.666992 -1.33301 18.167 -25.5 52.5 -72.5s61.5 -82.5 81.5 -106.5zM433.001 73.999l-5 -5c-16.667 17.333 -43 41 -79 71l-94.5 76.5c-27 21 -42.833 33.167 -47.5 36.5c4.66699 3.33301 20.5 15.5 47.5 36.5l94.5 76.5
c36 30 62.333 53.667 79 71l5 -5c-12 -14 -25.833 -31.167 -41.5 -51.5l-39.5 -53l-34.5 -48c-12.333 -17 -18.5 -25.833 -18.5 -26.5c63.333 -88 108 -147.667 134 -179z" />
    <glyph glyph-name="logicalnot" unicode="&#xac;" horiz-adv-x="506" 
d="M461 107h-10v213h-406v10h416v-223z" />
    <glyph glyph-name="uni00AD" unicode="&#xad;" horiz-adv-x="303" 
d="M238 262h-173v39h173v-39z" />
    <glyph glyph-name="registered" unicode="&#xae;" horiz-adv-x="520" 
d="M260 304c-59.333 0 -109.166 19.5 -149.499 58.5s-60.5 89.5 -60.5 151.5s20.167 112.5 60.5 151.5s90.166 58.5 149.499 58.5s109.166 -19.5 149.499 -58.5s60.5 -89.5 60.5 -151.5s-20.167 -112.5 -60.5 -151.5s-90.166 -58.5 -149.499 -58.5zM260 314
c56 0 103.333 18.5 142 55.5s58 85.167 58 144.5s-19.333 107.5 -58 144.5s-86 55.5 -142 55.5s-103.333 -18.5 -142 -55.5s-58 -85.167 -58 -144.5s19.333 -107.5 58 -144.5s86 -55.5 142 -55.5zM388 401l-0.000976562 -6.99902c-6 0 -13.167 0.166992 -21.5 0.5
s-15.166 0.5 -20.499 0.5c-2.66699 0 -6.66699 -0.166992 -12 -0.5s-9.33301 -0.5 -12 -0.5l-54 109h-49v-84c0 -8 1.66699 -13 5 -15s11.666 -3 24.999 -3v-7h-16c-2.66699 0 -7.5 0.166992 -14.5 0.5s-12.5 0.5 -16.5 0.5s-9.5 -0.166992 -16.5 -0.5
s-11.833 -0.5 -14.5 -0.5h-16v7c13.333 0 21.5 1 24.5 3s4.5 7 4.5 15v190c0 7.33301 -1.5 12 -4.5 14s-11.167 3 -24.5 3v7h16c2.66699 0 7.5 -0.166992 14.5 -0.5s12.5 -0.5 16.5 -0.5s9.5 0.166992 16.5 0.5s11.833 0.5 14.5 0.5h46c26.667 0 47.5 -5.5 62.5 -16.5
s22.5 -27.167 22.5 -48.5c0 -18.667 -6.66699 -34.167 -20 -46.5s-34.666 -18.5 -63.999 -18.5h-4c6.66699 -12 17.334 -18 32.001 -18h11l24 -51c7.33301 -14.667 13.666 -23.834 18.999 -27.501s14 -5.5 26 -5.5zM328.999 568.001c0 19.333 -3.66699 33.667 -11 43
s-21 14 -41 14h-58v-114h60c33.333 0 50 19 50 57z" />
    <glyph glyph-name="macron" unicode="&#xaf;" horiz-adv-x="360" 
d="M300 608h-240v22h240v-22z" />
    <glyph glyph-name="degree" unicode="&#xb0;" horiz-adv-x="314" 
d="M274 573c0 -35.333 -11.333 -63.833 -34 -85.5s-50.334 -32.5 -83.001 -32.5s-60.334 10.833 -83.001 32.5s-34 50.167 -34 85.5s11.333 63.833 34 85.5s50.334 32.5 83.001 32.5s60.334 -10.833 83.001 -32.5s34 -50.167 34 -85.5zM264 573c0 32.667 -10.5 59 -31.5 79
s-46.167 30 -75.5 30s-54.5 -10 -75.5 -30s-31.5 -46.333 -31.5 -79c0 -32 10.5 -58.167 31.5 -78.5s46.167 -30.5 75.5 -30.5s54.5 10.167 75.5 30.5s31.5 46.5 31.5 78.5z" />
    <glyph glyph-name="plusminus" unicode="&#xb1;" horiz-adv-x="490" 
d="M45 370v10h195v165h10v-165h195v-10h-195v-169h-10v169h-195zM45 111v10h400v-10h-400z" />
    <glyph glyph-name="twosuperior" unicode="&#xb2;" 
d="M238 620c0 -11.333 -2.00098 -22.3311 -6.00098 -32.998s-11.833 -22.334 -23.5 -35.001l-27 -29c-6.33301 -6.66699 -19.166 -18 -38.499 -34l-37 -31l-19 -17h156l-16 -76l-6 1c1.33301 20.667 -7.66699 31 -27 31h-160v4l61 60c58 58 87 111 87 159
c0 41.333 -12 62 -36 62c-21.333 0 -37.333 -16 -48 -48c-6 -18 -15 -27 -27 -27c-14 0 -21 7 -21 21s9.33301 27.667 28 41s42.667 20 72 20c26 0 47.167 -5.83301 63.5 -17.5s24.5 -28.834 24.5 -51.501z" />
    <glyph glyph-name="threesuperior" unicode="&#xb3;" 
d="M254 481c0 -26.667 -11.001 -48.667 -33.001 -66s-46.667 -26 -74 -26c-33.333 0 -60.333 7.5 -81 22.5s-31 32.833 -31 53.5c0 6 2 11.333 6 16s9 7 15 7c14 0 22.667 -8.33301 26 -25c5.33301 -25.333 12.833 -42.666 22.5 -51.999s23.834 -14 42.501 -14
s31.834 6.5 39.501 19.5s11.5 33.833 11.5 62.5c0 48.667 -11 73 -33 73c-4.66699 0 -11.667 -2 -21 -6l-33 -16l-3 7l41 20c20 10 30 32.667 30 68c0 38 -12 57 -36 57c-20.667 0 -36.334 -16 -47.001 -48c-6 -18 -15 -27 -27 -27c-14 0 -21 7 -21 21
c0 13.333 9.33301 26.833 28 40.5s42 20.5 70 20.5c26 0 47 -5.16699 63 -15.5s24 -25.166 24 -44.499c0 -14.667 -6.5 -28.334 -19.5 -41.001s-29.167 -22.334 -48.5 -29.001c23.333 0 44 -7 62 -21s27 -33 27 -57z" />
    <glyph glyph-name="acute" unicode="&#xb4;" horiz-adv-x="233" 
d="M55 542l-6.00098 4c12.667 23.333 26.667 52.833 42 88.5s27.666 60.5 36.999 74.5c7.33301 10 16 15 26 15c8 0 14.833 -2.66699 20.5 -8s8.5 -12 8.5 -20c0 -7.33301 -2 -14 -6 -20c-7.33301 -10.667 -25.166 -29.167 -53.499 -55.5s-51.166 -52.5 -68.499 -78.5z" />
    <glyph glyph-name="mu" unicode="&#xb5;" horiz-adv-x="534" 
d="M499 0h-14.002c-7.33301 -0 -18.666 0.333008 -33.999 1s-28.666 1 -39.999 1c-6 0 -12.5 -0.333008 -19.5 -1s-11.5 -1 -13.5 -1v68l-101 -41c-56.667 -23.333 -99 -35 -127 -35c-26 0 -44 9 -54 27c3.33301 -43.333 11 -87.833 23 -133.5s18 -72.167 18 -79.5
c0 -13.333 -3.5 -23.666 -10.5 -30.999s-16.5 -11 -28.5 -11c-10.667 0 -19.5 3.66699 -26.5 11s-10.5 17.666 -10.5 30.999c0 6.66699 4.5 36.5 13.5 89.5s13.5 100.5 13.5 142.5v361c0 21.333 -3.16699 34.833 -9.5 40.5s-21.166 8.5 -44.499 8.5h-1v7h6
c22 0 44.667 4.33301 68 13s37 18.667 41 30h6v-439c0 -32 11.667 -48 35 -48c15.333 0 43.666 8 84.999 24l104 42v322c0 21.333 -3.16699 34.833 -9.5 40.5s-21.166 8.5 -44.499 8.5h-1v7h6c22 0 44.667 4.33301 68 13s37 18.667 41 30h6v-441
c0 -21.333 3.16699 -35 9.5 -41s21.166 -9 44.499 -9h1v-7z" />
    <glyph glyph-name="paragraph" unicode="&#xb6;" horiz-adv-x="551" 
d="M405 -226h-10v226h-77c-79.333 0 -143.833 28.5 -193.5 85.5s-74.5 142.167 -74.5 255.5s24.833 198.333 74.5 255s114.167 85 193.5 85h183v-10h-96v-661h96v-10h-96v-226zM315 10h80v661h-80v-661z" />
    <glyph glyph-name="periodcentered" unicode="&#xb7;" horiz-adv-x="254" 
d="M127 293c-14 0 -26.167 5 -36.5 15s-15.5 22.333 -15.5 37s5.16699 27 15.5 37s22.5 15 36.5 15s26.167 -5 36.5 -15s15.5 -22.333 15.5 -37s-5.16699 -27 -15.5 -37s-22.5 -15 -36.5 -15z" />
    <glyph glyph-name="cedilla" unicode="&#xb8;" horiz-adv-x="288" 
d="M238 -117c0 -33.333 -20 -62.666 -60 -87.999s-82.667 -40.333 -128 -45l-1 7c43.333 5.33301 78.5 19.166 105.5 41.499s40.5 45.5 40.5 69.5c0 27.333 -17 41 -51 41c-23.333 0 -42 -4 -56 -12l-3 3l86 100h5l-35 -58c9.33301 1.33301 16 2 20 2
c22.667 0 41.167 -5.33301 55.5 -16s21.5 -25.667 21.5 -45z" />
    <glyph glyph-name="onesuperior" unicode="&#xb9;" 
d="M223 397h-6.99902c-7.33301 0 -17 0.5 -29 1.5s-23.667 1.5 -35 1.5s-23 -0.5 -35 -1.5s-21.667 -1.5 -29 -1.5h-22v7h18c17.333 0 28.666 3 33.999 9s8 19.667 8 41v141c0 14.667 -5.33301 22 -16 22c-2.66699 0 -16 -5.66699 -40 -17l-3 6l15 8
c21.333 12 40.833 26.333 58.5 43s28.5 30.667 32.5 42h5v-245c0 -20 2.33301 -33.333 7 -40s14.667 -10 30 -10h8v-7z" />
    <glyph glyph-name="ordmasculine" unicode="&#xba;" horiz-adv-x="385" 
d="M191 369c27.333 0 47.833 10.833 61.5 32.5s20.5 62.5 20.5 122.5c0 61.333 -6.66699 102.666 -20 123.999s-34 32 -62 32c-27.333 0 -47.5 -10.667 -60.5 -32s-19.5 -62.666 -19.5 -123.999c0 -60 6.66699 -100.833 20 -122.5s33.333 -32.5 60 -32.5zM191 360
c-39.333 0 -72.667 16 -100 48s-41 70.667 -41 116c0 46.667 13.5 85.834 40.5 117.501s60.5 47.5 100.5 47.5c40.667 0 74.834 -15.833 102.501 -47.5s41.5 -70.834 41.5 -117.501c0 -45.333 -13.833 -84 -41.5 -116s-61.834 -48 -102.501 -48zM328.999 291h-276v9h276v-9z
" />
    <glyph glyph-name="guillemotright" unicode="&#xbb;" horiz-adv-x="502" 
d="M74 69l-5 4.99805c47.333 54.667 92 114.334 134 179.001c-58 84.667 -102.667 144.334 -134 179.001l5 5c16.667 -17.333 43 -41 79 -71l94.5 -76.5c27 -21 42.833 -33.167 47.5 -36.5c-4.66699 -3.33301 -20.5 -15.5 -47.5 -36.5l-94.5 -76.5
c-36 -30 -62.333 -53.667 -79 -71zM231 68.998l-5 4.99902c47.333 54.667 92 114.334 134 179.001c-53.333 80 -98 139.667 -134 179l5 5c16.667 -17.333 43 -41 79 -71l94.5 -76.5c27 -21 42.833 -33.167 47.5 -36.5c-4.66699 -3.33301 -20.5 -15.5 -47.5 -36.5
l-94.5 -76.5c-36 -30 -62.333 -53.667 -79 -71z" />
    <glyph glyph-name="onequarter" unicode="&#xbc;" horiz-adv-x="390" 
d="M44 346h302v-9h-302v9zM271 397h-6.99902c-7.33301 0 -17 0.5 -29 1.5s-23.667 1.5 -35 1.5s-23 -0.5 -35 -1.5s-21.667 -1.5 -29 -1.5h-22v7h18c17.333 0 28.666 3 33.999 9s8 19.667 8 41v141c0 14.667 -5.33301 22 -16 22c-2.66699 0 -16 -5.66699 -40 -17l-3 6l15 8
c21.333 12 40.833 26.333 58.5 43s28.5 30.667 32.5 42h5v-245c0 -20 2.33301 -33.333 7 -40s14.667 -10 30 -10h8v-7zM286.001 0h-11.001c-3.33301 0 -10 0.5 -20 1.5s-21.333 1.5 -34 1.5s-24 -0.5 -34 -1.5s-16.667 -1.5 -20 -1.5h-22v7h11c16 0 26.5 3 31.5 9
s7.5 19.667 7.5 41v19h-129v4l137 204c0.666992 0 3.66699 -0.166992 9 -0.5s9.33301 -0.5 12 -0.5c3.33301 0 7.33301 0.166992 12 0.5s8.33398 0.5 11.001 0.5v-200h3c22 0 43.667 22 65 66l5 -1l-16 -73h-57v-19c0 -21.333 2.33301 -35 7 -41s14.667 -9 30 -9h2v-7z
M195 84v174l-116 -174h116z" />
    <glyph glyph-name="onehalf" unicode="&#xbd;" horiz-adv-x="390" 
d="M44 346h302v-9h-302v9zM271 397h-6.99902c-7.33301 0 -17 0.5 -29 1.5s-23.667 1.5 -35 1.5s-23 -0.5 -35 -1.5s-21.667 -1.5 -29 -1.5h-22v7h18c17.333 0 28.666 3 33.999 9s8 19.667 8 41v141c0 14.667 -5.33301 22 -16 22c-2.66699 0 -16 -5.66699 -40 -17l-3 6l15 8
c21.333 12 40.833 26.333 58.5 43s28.5 30.667 32.5 42h5v-245c0 -20 2.33301 -33.333 7 -40s14.667 -10 30 -10h8v-7zM280.001 223c0 -11.333 -2.00098 -22.3311 -6.00098 -32.998s-11.833 -22.334 -23.5 -35.001l-27 -29c-6.33301 -6.66699 -19.166 -18 -38.499 -34
l-37 -31l-19 -17h156l-16 -76l-6 1c1.33301 20.667 -7.66699 31 -27 31h-160v4l61 60c58 58 87 111 87 159c0 41.333 -12 62 -36 62c-21.333 0 -37.333 -16 -48 -48c-6 -18 -15 -27 -27 -27c-14 0 -21 7 -21 21s9.33301 27.667 28 41s42.667 20 72 20
c26 0 47.167 -5.83301 63.5 -17.5s24.5 -28.834 24.5 -51.501z" />
    <glyph glyph-name="threequarters" unicode="&#xbe;" horiz-adv-x="390" 
d="M44 346h302v-9h-302v9zM286 0h-11.001c-3.33301 0 -10 0.5 -20 1.5s-21.333 1.5 -34 1.5s-24 -0.5 -34 -1.5s-16.667 -1.5 -20 -1.5h-22v7h11c16 0 26.5 3 31.5 9s7.5 19.667 7.5 41v19h-129v4l137 204c0.666992 0 3.66699 -0.166992 9 -0.5s9.33301 -0.5 12 -0.5
c3.33301 0 7.33301 0.166992 12 0.5s8.33398 0.5 11.001 0.5v-200h3c22 0 43.667 22 65 66l5 -1l-16 -73h-57v-19c0 -21.333 2.33301 -35 7 -41s14.667 -9 30 -9h2v-7zM194.999 84v174l-116 -174h116zM307.999 481c0 -26.667 -11.001 -48.667 -33.001 -66
s-46.667 -26 -74 -26c-33.333 0 -60.333 7.5 -81 22.5s-31 32.833 -31 53.5c0 6 2 11.333 6 16s9 7 15 7c14 0 22.667 -8.33301 26 -25c5.33301 -25.333 12.833 -42.666 22.5 -51.999s23.834 -14 42.501 -14s31.834 6.5 39.501 19.5s11.5 33.833 11.5 62.5
c0 48.667 -11 73 -33 73c-4.66699 0 -11.667 -2 -21 -6l-33 -16l-3 7l41 20c20 10 30 32.667 30 68c0 38 -12 57 -36 57c-20.667 0 -36.334 -16 -47.001 -48c-6 -18 -15 -27 -27 -27c-14 0 -21 7 -21 21c0 13.333 9.33301 26.833 28 40.5s42 20.5 70 20.5
c26 0 47 -5.16699 63 -15.5s24 -25.166 24 -44.499c0 -14.667 -6.5 -28.334 -19.5 -41.001s-29.167 -22.334 -48.5 -29.001c23.333 0 44 -7 62 -21s27 -33 27 -57z" />
    <glyph glyph-name="questiondown" unicode="&#xbf;" horiz-adv-x="345" 
d="M202 284l10 -0.000976562v-202c-46 -9.33301 -82 -26.666 -108 -51.999s-39 -53 -39 -83c0 -23.333 8.33301 -43.333 25 -60s41 -25 73 -25c16 0 34 2.33301 54 7s33 7 39 7c10 0 17.833 -3.5 23.5 -10.5s8.5 -15.5 8.5 -25.5c0 -25.333 -19 -38 -57 -38
c-53.333 0 -96.333 16.167 -129 48.5s-49 72.833 -49 121.5c0 94.667 49.667 156.667 149 186v126zM208 497.999c14 0 26.167 -5 36.5 -15s15.5 -22.333 15.5 -37s-5.16699 -27 -15.5 -37s-22.5 -15 -36.5 -15s-26.167 5 -36.5 15s-15.5 22.333 -15.5 37s5.16699 27 15.5 37
s22.5 15 36.5 15z" />
    <glyph glyph-name="Agrave" unicode="&#xc0;" horiz-adv-x="638" 
d="M653 0l-21.002 0.000976562c-4 0 -14.667 0.5 -32 1.5s-31 1.5 -41 1.5c-12 0 -27 -0.5 -45 -1.5s-28.667 -1.5 -32 -1.5h-21v8c34.667 0 52 10.333 52 31c0 7.33301 -2.33301 15.666 -7 24.999l-52 124h-322l-27 -68c-9.33301 -25.333 -14 -45 -14 -59
c0 -35.333 23.667 -53 71 -53v-8h-12c-7.33301 0 -21 0.5 -41 1.5s-34.333 1.5 -43 1.5c-4.66699 0 -16.167 -0.5 -34.5 -1.5s-30.166 -1.5 -35.499 -1.5h-21v8c28 1.33301 51 10.5 69 27.5s35 45.833 51 86.5l187 478l-34 81c6 0 13 -0.166992 21 -0.5s14 -0.5 18 -0.5
s9.5 0.166992 16.5 0.5s13.167 0.5 18.5 0.5l260 -621c14.667 -34.667 38.334 -52 71.001 -52v-8zM287.998 589.001l-152 -391h314zM357.998 735.001l-6.00098 -3.99805c-17.333 25.333 -40.166 51.166 -68.499 77.499s-46.166 45.166 -53.499 56.499c-4 6 -6 12.667 -6 20
s2.66699 13.833 8 19.5s12.333 8.5 21 8.5c10 0 18.667 -5 26 -15c9.33301 -14 21.666 -38.833 36.999 -74.5s29.333 -65.167 42 -88.5z" />
    <glyph glyph-name="Aacute" unicode="&#xc1;" horiz-adv-x="638" 
d="M653 0l-21.002 0.000976562c-4 0 -14.667 0.5 -32 1.5s-31 1.5 -41 1.5c-12 0 -27 -0.5 -45 -1.5s-28.667 -1.5 -32 -1.5h-21v8c34.667 0 52 10.333 52 31c0 7.33301 -2.33301 15.666 -7 24.999l-52 124h-322l-27 -68c-9.33301 -25.333 -14 -45 -14 -59
c0 -35.333 23.667 -53 71 -53v-8h-12c-7.33301 0 -21 0.5 -41 1.5s-34.333 1.5 -43 1.5c-4.66699 0 -16.167 -0.5 -34.5 -1.5s-30.166 -1.5 -35.499 -1.5h-21v8c28 1.33301 51 10.5 69 27.5s35 45.833 51 86.5l187 478l-34 81c6 0 13 -0.166992 21 -0.5s14 -0.5 18 -0.5
s9.5 0.166992 16.5 0.5s13.167 0.5 18.5 0.5l260 -621c14.667 -34.667 38.334 -52 71.001 -52v-8zM287.998 589.001l-152 -391h314zM241.998 731.001l-6.00098 4c12.667 23.333 26.667 52.833 42 88.5s27.666 60.5 36.999 74.5c7.33301 10 16 15 26 15
c8.66699 0 15.667 -2.83301 21 -8.5s8 -12.167 8 -19.5s-2 -14 -6 -20c-7.33301 -10.667 -25.166 -29.167 -53.499 -55.5s-51.166 -52.5 -68.499 -78.5z" />
    <glyph glyph-name="Acircumflex" unicode="&#xc2;" horiz-adv-x="638" 
d="M653 0l-21.002 0.000976562c-4 0 -14.667 0.5 -32 1.5s-31 1.5 -41 1.5c-12 0 -27 -0.5 -45 -1.5s-28.667 -1.5 -32 -1.5h-21v8c34.667 0 52 10.333 52 31c0 7.33301 -2.33301 15.666 -7 24.999l-52 124h-322l-27 -68c-9.33301 -25.333 -14 -45 -14 -59
c0 -35.333 23.667 -53 71 -53v-8h-12c-7.33301 0 -21 0.5 -41 1.5s-34.333 1.5 -43 1.5c-4.66699 0 -16.167 -0.5 -34.5 -1.5s-30.166 -1.5 -35.499 -1.5h-21v8c28 1.33301 51 10.5 69 27.5s35 45.833 51 86.5l187 478l-34 81c6 0 13 -0.166992 21 -0.5s14 -0.5 18 -0.5
s9.5 0.166992 16.5 0.5s13.167 0.5 18.5 0.5l260 -621c14.667 -34.667 38.334 -52 71.001 -52v-8zM287.998 589.001l-152 -391h314zM410.998 735.001l-6 -4c-10.667 14 -21.667 27.167 -33 39.5s-25.5 27 -42.5 44l-32.5 32.5l-32.5 -32.5
c-17 -17 -31.167 -31.667 -42.5 -44s-22.333 -25.5 -33 -39.5l-6 4c9.33301 14 18.5 29.333 27.5 46l28.5 55.5c10 20.333 17.333 34.5 22 42.5c6.66699 12.667 12.5 21.5 17.5 26.5s11.167 7.5 18.5 7.5s13.5 -2.5 18.5 -7.5s10.833 -13.833 17.5 -26.5
c4.66699 -8 12 -22.167 22 -42.5l28.5 -55.5c9 -16.667 18.167 -32 27.5 -46z" />
    <glyph glyph-name="Atilde" unicode="&#xc3;" horiz-adv-x="638" 
d="M653 0l-21.002 0.000976562c-4 0 -14.667 0.5 -32 1.5s-31 1.5 -41 1.5c-12 0 -27 -0.5 -45 -1.5s-28.667 -1.5 -32 -1.5h-21v8c34.667 0 52 10.333 52 31c0 7.33301 -2.33301 15.666 -7 24.999l-52 124h-322l-27 -68c-9.33301 -25.333 -14 -45 -14 -59
c0 -35.333 23.667 -53 71 -53v-8h-12c-7.33301 0 -21 0.5 -41 1.5s-34.333 1.5 -43 1.5c-4.66699 0 -16.167 -0.5 -34.5 -1.5s-30.166 -1.5 -35.499 -1.5h-21v8c28 1.33301 51 10.5 69 27.5s35 45.833 51 86.5l187 478l-34 81c6 0 13 -0.166992 21 -0.5s14 -0.5 18 -0.5
s9.5 0.166992 16.5 0.5s13.167 0.5 18.5 0.5l260 -621c14.667 -34.667 38.334 -52 71.001 -52v-8zM287.998 589.001l-152 -391h314zM336.998 777.001c-14 0 -32.5 7.16504 -55.5 21.498s-43.167 21.5 -60.5 21.5c-7.33301 0 -15.166 -3.66699 -23.499 -11
s-14.333 -13.5 -18 -18.5s-9.5 -13.833 -17.5 -26.5l-6 4c1.33301 2 5.66602 9 12.999 21s13.166 20.833 17.499 26.5s10.333 12.834 18 21.501s15.834 14.834 24.501 18.501s18 5.5 28 5.5c14 0 32.333 -7.16699 55 -21.5s43 -21.5 61 -21.5
c7.33301 0 15.166 3.66699 23.499 11s14.333 13.5 18 18.5s9.5 13.833 17.5 26.5l6 -4c-23.333 -39.333 -42.666 -65 -57.999 -77c-14 -10.667 -28.333 -16 -43 -16z" />
    <glyph glyph-name="Adieresis" unicode="&#xc4;" horiz-adv-x="638" 
d="M653 0l-21.002 0.000976562c-4 0 -14.667 0.5 -32 1.5s-31 1.5 -41 1.5c-12 0 -27 -0.5 -45 -1.5s-28.667 -1.5 -32 -1.5h-21v8c34.667 0 52 10.333 52 31c0 7.33301 -2.33301 15.666 -7 24.999l-52 124h-322l-27 -68c-9.33301 -25.333 -14 -45 -14 -59
c0 -35.333 23.667 -53 71 -53v-8h-12c-7.33301 0 -21 0.5 -41 1.5s-34.333 1.5 -43 1.5c-4.66699 0 -16.167 -0.5 -34.5 -1.5s-30.166 -1.5 -35.499 -1.5h-21v8c28 1.33301 51 10.5 69 27.5s35 45.833 51 86.5l187 478l-34 81c6 0 13 -0.166992 21 -0.5s14 -0.5 18 -0.5
s9.5 0.166992 16.5 0.5s13.167 0.5 18.5 0.5l260 -621c14.667 -34.667 38.334 -52 71.001 -52v-8zM287.998 589.001l-152 -391h314zM247.998 807.001c0 -12.667 -4.33301 -23.167 -13 -31.5s-19.334 -12.5 -32.001 -12.5c-12 0 -22.333 4.16699 -31 12.5
s-13 18.833 -13 31.5s4.33301 23.334 13 32.001s19 13 31 13c12.667 0 23.334 -4.33301 32.001 -13s13 -19.334 13 -32.001zM436.998 807.001c0 -12 -4.5 -22.333 -13.5 -31s-19.5 -13 -31.5 -13c-12.667 0 -23.167 4.16699 -31.5 12.5s-12.5 18.833 -12.5 31.5
s4.16699 23.334 12.5 32.001s18.833 13 31.5 13c12 0 22.5 -4.33301 31.5 -13s13.5 -19.334 13.5 -32.001z" />
    <glyph glyph-name="Aring" unicode="&#xc5;" horiz-adv-x="638" 
d="M653 0l-21.002 0.000976562c-4 0 -14.667 0.5 -32 1.5s-31 1.5 -41 1.5c-12 0 -27 -0.5 -45 -1.5s-28.667 -1.5 -32 -1.5h-21v8c34.667 0 52 10.333 52 31c0 7.33301 -2.33301 15.666 -7 24.999l-52 124h-322l-27 -68c-9.33301 -25.333 -14 -45 -14 -59
c0 -35.333 23.667 -53 71 -53v-8h-12c-7.33301 0 -21 0.5 -41 1.5s-34.333 1.5 -43 1.5c-4.66699 0 -16.167 -0.5 -34.5 -1.5s-30.166 -1.5 -35.499 -1.5h-21v8c28 1.33301 51 10.5 69 27.5s35 45.833 51 86.5l187 478l-34 81c6 0 13 -0.166992 21 -0.5s14 -0.5 18 -0.5
s9.5 0.166992 16.5 0.5s13.167 0.5 18.5 0.5l260 -621c14.667 -34.667 38.334 -52 71.001 -52v-8zM287.998 589.001l-152 -391h314zM380.998 828.001c0 -24 -8 -44.333 -24 -61s-36 -25 -60 -25s-44 8.33301 -60 25s-24 37 -24 61s8 44.333 24 61s36 25 60 25
s44 -8.33301 60 -25s24 -37 24 -61zM370.998 828.001c0 20.667 -7 38.5 -21 53.5s-31.667 22.5 -53 22.5s-39 -7.5 -53 -22.5s-21 -32.833 -21 -53.5s7 -38.5 21 -53.5s31.667 -22.5 53 -22.5s39 7.5 53 22.5s21 32.833 21 53.5z" />
    <glyph glyph-name="AE" unicode="&#xc6;" horiz-adv-x="1001" 
d="M482 198v429l-315 -429h315zM879 -31l-5.99707 1.99805c1.33301 9.33301 -0.333984 16.5 -5.00098 21.5s-13.334 7.5 -26.001 7.5h-237c-10 0 -24 0.166992 -42 0.5s-33.667 0.5 -47 0.5c-10.667 0 -23.334 -0.166992 -38.001 -0.5s-25.334 -0.5 -32.001 -0.5h-16v8h1
c22 0 36 2.83301 42 8.5s9 19.167 9 40.5v131h-323l-52 -71c-20 -26.667 -30 -49 -30 -67c0 -13.333 4.16699 -23.666 12.5 -30.999s24.5 -11 48.5 -11h2v-8h-12c-8 0 -22 0.5 -42 1.5s-34.667 1.5 -44 1.5c-5.33301 0 -17.5 -0.5 -36.5 -1.5s-31.5 -1.5 -37.5 -1.5h-23v8h2
c46 2.66699 96.333 40.667 151 114l365 496c8.66699 11.333 13 22.333 13 33c0 14.667 -13.667 22 -41 22h-5v8h16c6.66699 0 17.334 -0.166992 32.001 -0.5s27.334 -0.5 38.001 -0.5c13.333 0 29 0.166992 47 0.5s32 0.5 42 0.5h224c13.333 0 22.5 2.5 27.5 7.5
s6.83301 12.5 5.5 22.5l6 2l92 -226l-6 -3c-52 72.667 -89.667 122 -113 148s-55.333 39 -96 39h-195v-320h128c36.667 0 61 10.333 73 31s20.333 54.334 25 101.001h7v-277h-7c-2.66699 23.333 -5.33398 41.666 -8.00098 54.999s-7.33398 27 -14.001 41
s-16.167 24 -28.5 30s-28.166 9 -47.499 9h-128v-331h206c22 0 40.167 2.83301 54.5 8.5s29.833 17.834 46.5 36.501c33.333 38 70.333 91.333 111 160l6 -3z" />
    <glyph glyph-name="Ccedilla" unicode="&#xc7;" horiz-adv-x="612" 
d="M368 -117c0 -33.333 -20.001 -62.665 -60.001 -87.998s-82.667 -40.333 -128 -45l-1 7c43.333 5.33301 78.5 19.166 105.5 41.499s40.5 45.5 40.5 69.5c0 27.333 -17 41 -51 41c-23.333 0 -42 -4 -56 -12l-3 3l78 93c-76.667 6.66699 -139 42.667 -187 108
s-72 146 -72 242c0 57.333 9.5 109.166 28.5 155.499s43.333 83 73 110s60.667 47.5 93 61.5s63.833 21 94.5 21c23.333 0 49.333 -3.16699 78 -9.5s46 -9.5 52 -9.5c23.333 0 34.333 11 33 33l6 2l92 -227l-6 -3c-45.333 75.333 -88 128.333 -128 159s-82.333 46 -127 46
c-62 0 -115.833 -25.167 -161.5 -75.5s-68.5 -116.833 -68.5 -199.5c0 -109.333 25.833 -197.833 77.5 -265.5s115.834 -101.5 192.501 -101.5c92 0 163 46.667 213 140l7 -3c-25.333 -53.333 -61.833 -97.5 -109.5 -132.5s-99.834 -52.5 -156.501 -52.5
c-7.33301 0 -12.666 0.333008 -15.999 1l-30 -51c9.33301 1.33301 16 2 20 2c22.667 0 41.167 -5.33301 55.5 -16s21.5 -25.667 21.5 -45z" />
    <glyph glyph-name="Egrave" unicode="&#xc8;" horiz-adv-x="615" 
d="M493 -31l-5.99707 1.99902c1.33301 9.33301 -0.333984 16.5 -5.00098 21.5s-13.334 7.5 -26.001 7.5h-237c-10 0 -24 0.166992 -42 0.5s-33.667 0.5 -47 0.5c-10.667 0 -23.334 -0.166992 -38.001 -0.5s-25.334 -0.5 -32.001 -0.5h-16v8h1c22 0 36 2.83301 42 8.5
s9 19.167 9 40.5v567c0 21.333 -3 34.833 -9 40.5s-20 8.5 -42 8.5h-1v8h16c6.66699 0 17.334 -0.166992 32.001 -0.5s27.334 -0.5 38.001 -0.5c13.333 0 29 0.166992 47 0.5s32 0.5 42 0.5h224c13.333 0 22.5 2.5 27.5 7.5s6.83301 12.5 5.5 22.5l6 2l92 -226l-6 -3
c-51.333 72 -89 121.333 -113 148c-24 26 -56 39 -96 39h-195v-320h128c36.667 0 61 10.333 73 31s20.333 54.334 25 101.001h7v-277h-7c-2.66699 23.333 -5.33398 41.666 -8.00098 54.999s-7.33398 27 -14.001 41s-16.167 24 -28.5 30s-28.166 9 -47.499 9h-128v-331h206
c22 0 40.167 2.83301 54.5 8.5s29.833 17.834 46.5 36.501c33.333 38 70.333 91.333 111 160l6 -3zM356.003 734.999l-6.00098 -3.99805c-17.333 25.333 -40.166 51.166 -68.499 77.499s-46.166 45.166 -53.499 56.499c-4 6 -6 12.667 -6 20s2.66699 13.833 8 19.5
s12.333 8.5 21 8.5c10 0 18.667 -5 26 -15c9.33301 -14 21.666 -38.833 36.999 -74.5s29.333 -65.167 42 -88.5z" />
    <glyph glyph-name="Eacute" unicode="&#xc9;" horiz-adv-x="615" 
d="M493 -31l-5.99707 1.99902c1.33301 9.33301 -0.333984 16.5 -5.00098 21.5s-13.334 7.5 -26.001 7.5h-237c-10 0 -24 0.166992 -42 0.5s-33.667 0.5 -47 0.5c-10.667 0 -23.334 -0.166992 -38.001 -0.5s-25.334 -0.5 -32.001 -0.5h-16v8h1c22 0 36 2.83301 42 8.5
s9 19.167 9 40.5v567c0 21.333 -3 34.833 -9 40.5s-20 8.5 -42 8.5h-1v8h16c6.66699 0 17.334 -0.166992 32.001 -0.5s27.334 -0.5 38.001 -0.5c13.333 0 29 0.166992 47 0.5s32 0.5 42 0.5h224c13.333 0 22.5 2.5 27.5 7.5s6.83301 12.5 5.5 22.5l6 2l92 -226l-6 -3
c-51.333 72 -89 121.333 -113 148c-24 26 -56 39 -96 39h-195v-320h128c36.667 0 61 10.333 73 31s20.333 54.334 25 101.001h7v-277h-7c-2.66699 23.333 -5.33398 41.666 -8.00098 54.999s-7.33398 27 -14.001 41s-16.167 24 -28.5 30s-28.166 9 -47.499 9h-128v-331h206
c22 0 40.167 2.83301 54.5 8.5s29.833 17.834 46.5 36.501c33.333 38 70.333 91.333 111 160l6 -3zM240.003 730.999l-6.00098 4c12.667 23.333 26.667 52.833 42 88.5s27.666 60.5 36.999 74.5c7.33301 10 16 15 26 15c8.66699 0 15.667 -2.83301 21 -8.5
s8 -12.167 8 -19.5s-2 -14 -6 -20c-7.33301 -10.667 -25.166 -29.167 -53.499 -55.5s-51.166 -52.5 -68.499 -78.5z" />
    <glyph glyph-name="Ecircumflex" unicode="&#xca;" horiz-adv-x="615" 
d="M493 -31l-5.99707 1.99902c1.33301 9.33301 -0.333984 16.5 -5.00098 21.5s-13.334 7.5 -26.001 7.5h-237c-10 0 -24 0.166992 -42 0.5s-33.667 0.5 -47 0.5c-10.667 0 -23.334 -0.166992 -38.001 -0.5s-25.334 -0.5 -32.001 -0.5h-16v8h1c22 0 36 2.83301 42 8.5
s9 19.167 9 40.5v567c0 21.333 -3 34.833 -9 40.5s-20 8.5 -42 8.5h-1v8h16c6.66699 0 17.334 -0.166992 32.001 -0.5s27.334 -0.5 38.001 -0.5c13.333 0 29 0.166992 47 0.5s32 0.5 42 0.5h224c13.333 0 22.5 2.5 27.5 7.5s6.83301 12.5 5.5 22.5l6 2l92 -226l-6 -3
c-51.333 72 -89 121.333 -113 148c-24 26 -56 39 -96 39h-195v-320h128c36.667 0 61 10.333 73 31s20.333 54.334 25 101.001h7v-277h-7c-2.66699 23.333 -5.33398 41.666 -8.00098 54.999s-7.33398 27 -14.001 41s-16.167 24 -28.5 30s-28.166 9 -47.499 9h-128v-331h206
c22 0 40.167 2.83301 54.5 8.5s29.833 17.834 46.5 36.501c33.333 38 70.333 91.333 111 160l6 -3zM409.003 734.999l-6 -4c-10.667 14 -21.667 27.167 -33 39.5s-25.5 27 -42.5 44l-32.5 32.5l-32.5 -32.5c-17 -17 -31.167 -31.667 -42.5 -44s-22.333 -25.5 -33 -39.5l-6 4
c9.33301 14 18.5 29.333 27.5 46l28.5 55.5c10 20.333 17.333 34.5 22 42.5c6.66699 12.667 12.5 21.5 17.5 26.5s11.167 7.5 18.5 7.5s13.5 -2.5 18.5 -7.5s10.833 -13.833 17.5 -26.5c4.66699 -8 12 -22.167 22 -42.5l28.5 -55.5c9 -16.667 18.167 -32 27.5 -46z" />
    <glyph glyph-name="Edieresis" unicode="&#xcb;" horiz-adv-x="615" 
d="M493 -31l-5.99707 1.99902c1.33301 9.33301 -0.333984 16.5 -5.00098 21.5s-13.334 7.5 -26.001 7.5h-237c-10 0 -24 0.166992 -42 0.5s-33.667 0.5 -47 0.5c-10.667 0 -23.334 -0.166992 -38.001 -0.5s-25.334 -0.5 -32.001 -0.5h-16v8h1c22 0 36 2.83301 42 8.5
s9 19.167 9 40.5v567c0 21.333 -3 34.833 -9 40.5s-20 8.5 -42 8.5h-1v8h16c6.66699 0 17.334 -0.166992 32.001 -0.5s27.334 -0.5 38.001 -0.5c13.333 0 29 0.166992 47 0.5s32 0.5 42 0.5h224c13.333 0 22.5 2.5 27.5 7.5s6.83301 12.5 5.5 22.5l6 2l92 -226l-6 -3
c-51.333 72 -89 121.333 -113 148c-24 26 -56 39 -96 39h-195v-320h128c36.667 0 61 10.333 73 31s20.333 54.334 25 101.001h7v-277h-7c-2.66699 23.333 -5.33398 41.666 -8.00098 54.999s-7.33398 27 -14.001 41s-16.167 24 -28.5 30s-28.166 9 -47.499 9h-128v-331h206
c22 0 40.167 2.83301 54.5 8.5s29.833 17.834 46.5 36.501c33.333 38 70.333 91.333 111 160l6 -3zM246.003 806.999c0 -12.667 -4.33301 -23.167 -13 -31.5s-19.334 -12.5 -32.001 -12.5c-12 0 -22.333 4.16699 -31 12.5s-13 18.833 -13 31.5s4.33301 23.334 13 32.001
s19 13 31 13c12.667 0 23.334 -4.33301 32.001 -13s13 -19.334 13 -32.001zM435.003 806.999c0 -12 -4.5 -22.333 -13.5 -31s-19.5 -13 -31.5 -13c-12.667 0 -23.167 4.16699 -31.5 12.5s-12.5 18.833 -12.5 31.5s4.16699 23.334 12.5 32.001s18.833 13 31.5 13
c12 0 22.5 -4.33301 31.5 -13s13.5 -19.334 13.5 -32.001z" />
    <glyph glyph-name="Igrave" unicode="&#xcc;" horiz-adv-x="260" 
d="M164 624v-567c0 -21.333 3 -34.833 9 -40.5s20 -8.5 42 -8.5h1v-8h-16c-6.66699 0 -17.334 0.5 -32.001 1.5s-27.334 1.5 -38.001 1.5s-23.334 -0.5 -38.001 -1.5s-25.334 -1.5 -32.001 -1.5h-16v8h1c22 0 36 2.83301 42 8.5s9 19.167 9 40.5v567
c0 21.333 -3 34.833 -9 40.5s-20 8.5 -42 8.5h-1v8h16c6.66699 0 17.334 -0.5 32.001 -1.5s27.334 -1.5 38.001 -1.5s23.334 0.5 38.001 1.5s25.334 1.5 32.001 1.5h16v-8h-1c-22 0 -36 -2.83301 -42 -8.5s-9 -19.167 -9 -40.5zM191 735l-6.00195 -3.99805
c-17.333 25.333 -40.166 51.166 -68.499 77.499s-46.166 45.166 -53.499 56.499c-4 6 -6 12.667 -6 20s2.83301 13.833 8.5 19.5s12.5 8.5 20.5 8.5c10.667 0 19.334 -5 26.001 -15c9.33301 -14 21.666 -38.833 36.999 -74.5s29.333 -65.167 42 -88.5z" />
    <glyph glyph-name="Iacute" unicode="&#xcd;" horiz-adv-x="260" 
d="M164 624v-567c0 -21.333 3 -34.833 9 -40.5s20 -8.5 42 -8.5h1v-8h-16c-6.66699 0 -17.334 0.5 -32.001 1.5s-27.334 1.5 -38.001 1.5s-23.334 -0.5 -38.001 -1.5s-25.334 -1.5 -32.001 -1.5h-16v8h1c22 0 36 2.83301 42 8.5s9 19.167 9 40.5v567
c0 21.333 -3 34.833 -9 40.5s-20 8.5 -42 8.5h-1v8h16c6.66699 0 17.334 -0.5 32.001 -1.5s27.334 -1.5 38.001 -1.5s23.334 0.5 38.001 1.5s25.334 1.5 32.001 1.5h16v-8h-1c-22 0 -36 -2.83301 -42 -8.5s-9 -19.167 -9 -40.5zM75 731l-6.00195 4
c12.667 23.333 26.667 52.833 42 88.5s27.666 60.5 36.999 74.5c6.66699 10 15.334 15 26.001 15c8 0 14.833 -2.83301 20.5 -8.5s8.5 -12.167 8.5 -19.5s-2 -14 -6 -20c-7.33301 -10.667 -25.166 -29.167 -53.499 -55.5s-51.166 -52.5 -68.499 -78.5z" />
    <glyph glyph-name="Icircumflex" unicode="&#xce;" horiz-adv-x="260" 
d="M164 624v-567c0 -21.333 3 -34.833 9 -40.5s20 -8.5 42 -8.5h1v-8h-16c-6.66699 0 -17.334 0.5 -32.001 1.5s-27.334 1.5 -38.001 1.5s-23.334 -0.5 -38.001 -1.5s-25.334 -1.5 -32.001 -1.5h-16v8h1c22 0 36 2.83301 42 8.5s9 19.167 9 40.5v567
c0 21.333 -3 34.833 -9 40.5s-20 8.5 -42 8.5h-1v8h16c6.66699 0 17.334 -0.5 32.001 -1.5s27.334 -1.5 38.001 -1.5s23.334 0.5 38.001 1.5s25.334 1.5 32.001 1.5h16v-8h-1c-22 0 -36 -2.83301 -42 -8.5s-9 -19.167 -9 -40.5zM244 735l-6 -4
c-10.667 14 -21.667 27.167 -33 39.5s-25.5 27 -42.5 44l-32.5 32.5l-32.5 -32.5c-17 -17 -31.167 -31.667 -42.5 -44s-22.333 -25.5 -33 -39.5l-6 4c9.33301 14 18.5 29.333 27.5 46l28.5 55.5c10 20.333 17.333 34.5 22 42.5c6.66699 12.667 12.5 21.5 17.5 26.5
s11.167 7.5 18.5 7.5s13.5 -2.5 18.5 -7.5s10.833 -13.833 17.5 -26.5c4.66699 -8 12 -22.167 22 -42.5l28.5 -55.5c9 -16.667 18.167 -32 27.5 -46z" />
    <glyph glyph-name="Idieresis" unicode="&#xcf;" horiz-adv-x="260" 
d="M164 624v-567c0 -21.333 3 -34.833 9 -40.5s20 -8.5 42 -8.5h1v-8h-16c-6.66699 0 -17.334 0.5 -32.001 1.5s-27.334 1.5 -38.001 1.5s-23.334 -0.5 -38.001 -1.5s-25.334 -1.5 -32.001 -1.5h-16v8h1c22 0 36 2.83301 42 8.5s9 19.167 9 40.5v567
c0 21.333 -3 34.833 -9 40.5s-20 8.5 -42 8.5h-1v8h16c6.66699 0 17.334 -0.5 32.001 -1.5s27.334 -1.5 38.001 -1.5s23.334 0.5 38.001 1.5s25.334 1.5 32.001 1.5h16v-8h-1c-22 0 -36 -2.83301 -42 -8.5s-9 -19.167 -9 -40.5zM81 807
c0 -12.667 -4.33301 -23.167 -13 -31.5s-19.334 -12.5 -32.001 -12.5c-12 0 -22.333 4.16699 -31 12.5s-13 18.833 -13 31.5s4.33301 23.334 13 32.001s19 13 31 13c12.667 0 23.334 -4.33301 32.001 -13s13 -19.334 13 -32.001zM270 807c0 -12 -4.5 -22.333 -13.5 -31
s-19.5 -13 -31.5 -13c-12.667 0 -23.167 4.16699 -31.5 12.5s-12.5 18.833 -12.5 31.5s4.16699 23.334 12.5 32.001s18.833 13 31.5 13c12 0 22.5 -4.33301 31.5 -13s13.5 -19.334 13.5 -32.001z" />
    <glyph glyph-name="Eth" unicode="&#xd0;" horiz-adv-x="634" 
d="M599 340c0 -106.667 -28.333 -190 -85 -250s-130 -90 -220 -90h-75c-10 0 -24 0.166992 -42 0.5s-33.667 0.5 -47 0.5c-10.667 0 -23.334 -0.166992 -38.001 -0.5s-25.334 -0.5 -32.001 -0.5h-16v8h1c22 0 36 2.83301 42 8.5s9 19.167 9 40.5v285h-73v10h73v272
c0 21.333 -3 34.833 -9 40.5s-20 8.5 -42 8.5h-1v8h16c6.66699 0 17.334 -0.166992 32.001 -0.5s27.334 -0.5 38.001 -0.5c13.333 0 29 0.166992 47 0.5s32 0.5 42 0.5h75c90 0 163.333 -30 220 -90s85 -143.667 85 -251zM300 342l-136 0.000976562v-332h114
c92.667 0 156.167 24.167 190.5 72.5s51.5 134.166 51.5 257.499s-17.167 209.333 -51.5 258s-97.833 73 -190.5 73h-114v-319h136v-10z" />
    <glyph glyph-name="Ntilde" unicode="&#xd1;" horiz-adv-x="690" 
d="M585 78l52.999 -78.001c-7.33301 0 -14.833 0.166992 -22.5 0.5s-13.167 0.5 -16.5 0.5c-4.66699 0 -11.667 -0.166992 -21 -0.5s-17 -0.5 -23 -0.5l-437 617v-486c0 -37.333 6.16699 -67.166 18.5 -89.499s35.833 -33.5 70.5 -33.5h1v-8h-25
c-3.33301 0 -12.666 0.5 -27.999 1.5s-29 1.5 -41 1.5s-25.833 -0.5 -41.5 -1.5s-25.167 -1.5 -28.5 -1.5h-24v8h1c34 0 57 11 69 33s18 52 18 90v496c-0.666992 1.33301 -3 4.66602 -7 9.99902s-6.33301 8.5 -7 9.5s-2.66699 3.5 -6 7.5s-5.83301 6.33301 -7.5 7
s-4.16699 2.16699 -7.5 4.5s-6.5 3.83301 -9.5 4.5s-6.66699 1.33398 -11 2.00098s-8.83301 1 -13.5 1h-1v8h7c10 0 20 -0.166992 30 -0.5s17.667 -0.5 23 -0.5c7.33301 0 17.333 0.166992 30 0.5s22.334 0.5 29.001 0.5l418 -589v458c0 38 -6 68 -18 90s-35.333 33 -70 33
h-1v8h25c3.33301 0 12.666 -0.5 27.999 -1.5s29 -1.5 41 -1.5s25.667 0.5 41 1.5s25 1.5 29 1.5h24v-8h-1c-34.667 0 -58 -11 -70 -33s-18 -52 -18 -90v-472zM397.999 776.999c-13.333 0 -31.666 7.16504 -54.999 21.498s-43.666 21.5 -60.999 21.5
c-7.33301 0 -15.166 -3.66699 -23.499 -11s-14.333 -13.5 -18 -18.5s-9.5 -13.833 -17.5 -26.5l-6 4c1.33301 2 5.66602 9 12.999 21s13.166 20.833 17.499 26.5s10.333 12.834 18 21.501s15.834 14.834 24.501 18.501s18 5.5 28 5.5c13.333 0 31.666 -7.16699 54.999 -21.5
s43.666 -21.5 60.999 -21.5c7.33301 0 15.166 3.66699 23.499 11s14.333 13.5 18 18.5s9.5 13.833 17.5 26.5l6 -4c-23.333 -39.333 -42.666 -65 -57.999 -77c-14 -10.667 -28.333 -16 -43 -16z" />
    <glyph glyph-name="Ograve" unicode="&#xd2;" horiz-adv-x="658" 
d="M329 -1c143.333 0 215 114 215 342c0 227.333 -71.667 341 -215 341s-215 -113.667 -215 -341c0 -228 71.667 -342 215 -342zM329 -10c-85.333 0 -155.833 33.333 -211.5 100s-83.5 150.334 -83.5 251.001s27.833 184.167 83.5 250.5s126.167 99.5 211.5 99.5
s155.833 -33.167 211.5 -99.5s83.5 -149.833 83.5 -250.5s-27.833 -184.334 -83.5 -251.001s-126.167 -100 -211.5 -100zM390 735l-6.00098 -3.99805c-17.333 25.333 -40.166 51.166 -68.499 77.499s-46.166 45.166 -53.499 56.499c-4 6 -6 12.667 -6 20
s2.66699 13.833 8 19.5s12.333 8.5 21 8.5c10 0 18.667 -5 26 -15c9.33301 -14 21.666 -38.833 36.999 -74.5s29.333 -65.167 42 -88.5z" />
    <glyph glyph-name="Oacute" unicode="&#xd3;" horiz-adv-x="658" 
d="M329 -1c143.333 0 215 114 215 342c0 227.333 -71.667 341 -215 341s-215 -113.667 -215 -341c0 -228 71.667 -342 215 -342zM329 -10c-85.333 0 -155.833 33.333 -211.5 100s-83.5 150.334 -83.5 251.001s27.833 184.167 83.5 250.5s126.167 99.5 211.5 99.5
s155.833 -33.167 211.5 -99.5s83.5 -149.833 83.5 -250.5s-27.833 -184.334 -83.5 -251.001s-126.167 -100 -211.5 -100zM274 731l-6.00098 4c12.667 23.333 26.667 52.833 42 88.5s27.666 60.5 36.999 74.5c7.33301 10 16 15 26 15c8.66699 0 15.667 -2.83301 21 -8.5
s8 -12.167 8 -19.5s-2 -14 -6 -20c-7.33301 -10.667 -25.166 -29.167 -53.499 -55.5s-51.166 -52.5 -68.499 -78.5z" />
    <glyph glyph-name="Ocircumflex" unicode="&#xd4;" horiz-adv-x="658" 
d="M329 -1c143.333 0 215 114 215 342c0 227.333 -71.667 341 -215 341s-215 -113.667 -215 -341c0 -228 71.667 -342 215 -342zM329 -10c-85.333 0 -155.833 33.333 -211.5 100s-83.5 150.334 -83.5 251.001s27.833 184.167 83.5 250.5s126.167 99.5 211.5 99.5
s155.833 -33.167 211.5 -99.5s83.5 -149.833 83.5 -250.5s-27.833 -184.334 -83.5 -251.001s-126.167 -100 -211.5 -100zM443 735l-6 -4c-10.667 14 -21.667 27.167 -33 39.5s-25.5 27 -42.5 44l-32.5 32.5l-32.5 -32.5c-17 -17 -31.167 -31.667 -42.5 -44
s-22.333 -25.5 -33 -39.5l-6 4c9.33301 14 18.5 29.333 27.5 46l28.5 55.5c10 20.333 17.333 34.5 22 42.5c6.66699 12.667 12.5 21.5 17.5 26.5s11.167 7.5 18.5 7.5s13.5 -2.5 18.5 -7.5s10.833 -13.833 17.5 -26.5c4.66699 -8 12 -22.167 22 -42.5l28.5 -55.5
c9 -16.667 18.167 -32 27.5 -46z" />
    <glyph glyph-name="Otilde" unicode="&#xd5;" horiz-adv-x="658" 
d="M329 -1c143.333 0 215 114 215 342c0 227.333 -71.667 341 -215 341s-215 -113.667 -215 -341c0 -228 71.667 -342 215 -342zM329 -10c-85.333 0 -155.833 33.333 -211.5 100s-83.5 150.334 -83.5 251.001s27.833 184.167 83.5 250.5s126.167 99.5 211.5 99.5
s155.833 -33.167 211.5 -99.5s83.5 -149.833 83.5 -250.5s-27.833 -184.334 -83.5 -251.001s-126.167 -100 -211.5 -100zM369 777c-14 0 -32.333 7.16504 -55 21.498s-43 21.5 -61 21.5c-7.33301 0 -15.166 -3.66699 -23.499 -11s-14.333 -13.5 -18 -18.5
s-9.5 -13.833 -17.5 -26.5l-6 4c1.33301 2 5.66602 9 12.999 21s13.166 20.833 17.499 26.5s10.333 12.834 18 21.501s15.834 14.834 24.501 18.501s18 5.5 28 5.5c14 0 32.333 -7.16699 55 -21.5s43 -21.5 61 -21.5c7.33301 0 15.166 3.66699 23.499 11
s14.333 13.5 18 18.5s9.5 13.833 17.5 26.5l6 -4c-23.333 -39.333 -42.666 -65 -57.999 -77c-14 -10.667 -28.333 -16 -43 -16z" />
    <glyph glyph-name="Odieresis" unicode="&#xd6;" horiz-adv-x="658" 
d="M329 -1c143.333 0 215 114 215 342c0 227.333 -71.667 341 -215 341s-215 -113.667 -215 -341c0 -228 71.667 -342 215 -342zM329 -10c-85.333 0 -155.833 33.333 -211.5 100s-83.5 150.334 -83.5 251.001s27.833 184.167 83.5 250.5s126.167 99.5 211.5 99.5
s155.833 -33.167 211.5 -99.5s83.5 -149.833 83.5 -250.5s-27.833 -184.334 -83.5 -251.001s-126.167 -100 -211.5 -100zM280 807c0 -12.667 -4.33301 -23.167 -13 -31.5s-19.334 -12.5 -32.001 -12.5c-12 0 -22.333 4.16699 -31 12.5s-13 18.833 -13 31.5
s4.33301 23.334 13 32.001s19 13 31 13c12.667 0 23.334 -4.33301 32.001 -13s13 -19.334 13 -32.001zM469 807c0 -12 -4.5 -22.333 -13.5 -31s-19.5 -13 -31.5 -13c-12.667 0 -23.167 4.16699 -31.5 12.5s-12.5 18.833 -12.5 31.5s4.16699 23.334 12.5 32.001
s18.833 13 31.5 13c12 0 22.5 -4.33301 31.5 -13s13.5 -19.334 13.5 -32.001z" />
    <glyph glyph-name="multiply" unicode="&#xd7;" horiz-adv-x="407" 
d="M372 485l-162 -162l163 -163l-7 -7l-163 163l-163 -163l-7 7l163 163l-162 162l7 7l162 -162l162 162z" />
    <glyph glyph-name="Oslash" unicode="&#xd8;" horiz-adv-x="658" 
d="M329 -10c-66 0 -123 20.002 -171 60.002l-64 -105l-8 5l64 106c-77.333 68 -116 163 -116 285c0 100.667 27.833 184.167 83.5 250.5s126.167 99.5 211.5 99.5c66 0 123 -20 171 -60l63 104l9 -5l-64 -105c77.333 -68.667 116 -163.334 116 -284.001
c0 -100.667 -27.833 -184.334 -83.5 -251.001s-126.167 -100 -211.5 -100zM329 682.002c-143.333 0 -215 -113.667 -215 -341c0 -114 18 -199.667 54 -257l316 521c-35.333 51.333 -87 77 -155 77zM329 -0.998047c143.333 0 215 114 215 342c0 113.333 -18 198.333 -54 255
l-317 -521c38 -50.667 90 -76 156 -76z" />
    <glyph glyph-name="Ugrave" unicode="&#xd9;" horiz-adv-x="620" 
d="M533 550l-0.000976562 -339c0 -66.667 -19 -119.834 -57 -159.501s-90 -59.5 -156 -59.5c-160 0 -240 73.333 -240 220v412c0 21.333 -3 34.833 -9 40.5s-20 8.5 -42 8.5h-1v8h16c6.66699 0 17.334 -0.5 32.001 -1.5s27.334 -1.5 38.001 -1.5s23.334 0.5 38.001 1.5
s25.334 1.5 32.001 1.5h16v-8h-1c-22 0 -36 -2.83301 -42 -8.5s-9 -19.167 -9 -40.5v-371c0 -88 14.167 -151.5 42.5 -190.5s75.166 -58.5 140.499 -58.5c57.333 0 103.666 18.833 138.999 56.5s53 87.834 53 150.501v339c0 38 -6 68 -18 90s-35.333 33 -70 33h-1v8h25
c3.33301 0 12.666 -0.5 27.999 -1.5s29 -1.5 41 -1.5s25.667 0.5 41 1.5s25 1.5 29 1.5h24v-8h-1c-34.667 0 -58 -11 -70 -33s-18 -52 -18 -90zM387.999 735l-6.00098 -3.99805c-17.333 25.333 -40.166 51.166 -68.499 77.499s-46.166 45.166 -53.499 56.499
c-4 6 -6 12.667 -6 20s2.66699 13.833 8 19.5s12.333 8.5 21 8.5c10 0 18.667 -5 26 -15c9.33301 -14 21.666 -38.833 36.999 -74.5s29.333 -65.167 42 -88.5z" />
    <glyph glyph-name="Uacute" unicode="&#xda;" horiz-adv-x="620" 
d="M533 550l-0.000976562 -339c0 -66.667 -19 -119.834 -57 -159.501s-90 -59.5 -156 -59.5c-160 0 -240 73.333 -240 220v412c0 21.333 -3 34.833 -9 40.5s-20 8.5 -42 8.5h-1v8h16c6.66699 0 17.334 -0.5 32.001 -1.5s27.334 -1.5 38.001 -1.5s23.334 0.5 38.001 1.5
s25.334 1.5 32.001 1.5h16v-8h-1c-22 0 -36 -2.83301 -42 -8.5s-9 -19.167 -9 -40.5v-371c0 -88 14.167 -151.5 42.5 -190.5s75.166 -58.5 140.499 -58.5c57.333 0 103.666 18.833 138.999 56.5s53 87.834 53 150.501v339c0 38 -6 68 -18 90s-35.333 33 -70 33h-1v8h25
c3.33301 0 12.666 -0.5 27.999 -1.5s29 -1.5 41 -1.5s25.667 0.5 41 1.5s25 1.5 29 1.5h24v-8h-1c-34.667 0 -58 -11 -70 -33s-18 -52 -18 -90zM271.999 731l-6.00098 4c12.667 23.333 26.667 52.833 42 88.5s27.666 60.5 36.999 74.5c7.33301 10 16 15 26 15
c8.66699 0 15.667 -2.83301 21 -8.5s8 -12.167 8 -19.5s-2 -14 -6 -20c-7.33301 -10.667 -25.166 -29.167 -53.499 -55.5s-51.166 -52.5 -68.499 -78.5z" />
    <glyph glyph-name="Ucircumflex" unicode="&#xdb;" horiz-adv-x="620" 
d="M533 550l-0.000976562 -339c0 -66.667 -19 -119.834 -57 -159.501s-90 -59.5 -156 -59.5c-160 0 -240 73.333 -240 220v412c0 21.333 -3 34.833 -9 40.5s-20 8.5 -42 8.5h-1v8h16c6.66699 0 17.334 -0.5 32.001 -1.5s27.334 -1.5 38.001 -1.5s23.334 0.5 38.001 1.5
s25.334 1.5 32.001 1.5h16v-8h-1c-22 0 -36 -2.83301 -42 -8.5s-9 -19.167 -9 -40.5v-371c0 -88 14.167 -151.5 42.5 -190.5s75.166 -58.5 140.499 -58.5c57.333 0 103.666 18.833 138.999 56.5s53 87.834 53 150.501v339c0 38 -6 68 -18 90s-35.333 33 -70 33h-1v8h25
c3.33301 0 12.666 -0.5 27.999 -1.5s29 -1.5 41 -1.5s25.667 0.5 41 1.5s25 1.5 29 1.5h24v-8h-1c-34.667 0 -58 -11 -70 -33s-18 -52 -18 -90zM440.999 735l-6 -4c-10.667 14 -21.667 27.167 -33 39.5s-25.5 27 -42.5 44l-32.5 32.5l-32.5 -32.5
c-17 -17 -31.167 -31.667 -42.5 -44s-22.333 -25.5 -33 -39.5l-6 4c9.33301 14 18.5 29.333 27.5 46l28.5 55.5c10 20.333 17.333 34.5 22 42.5c6.66699 12.667 12.5 21.5 17.5 26.5s11.167 7.5 18.5 7.5s13.5 -2.5 18.5 -7.5s10.833 -13.833 17.5 -26.5
c4.66699 -8 12 -22.167 22 -42.5l28.5 -55.5c9 -16.667 18.167 -32 27.5 -46z" />
    <glyph glyph-name="Udieresis" unicode="&#xdc;" horiz-adv-x="620" 
d="M533 550l-0.000976562 -339c0 -66.667 -19 -119.834 -57 -159.501s-90 -59.5 -156 -59.5c-160 0 -240 73.333 -240 220v412c0 21.333 -3 34.833 -9 40.5s-20 8.5 -42 8.5h-1v8h16c6.66699 0 17.334 -0.5 32.001 -1.5s27.334 -1.5 38.001 -1.5s23.334 0.5 38.001 1.5
s25.334 1.5 32.001 1.5h16v-8h-1c-22 0 -36 -2.83301 -42 -8.5s-9 -19.167 -9 -40.5v-371c0 -88 14.167 -151.5 42.5 -190.5s75.166 -58.5 140.499 -58.5c57.333 0 103.666 18.833 138.999 56.5s53 87.834 53 150.501v339c0 38 -6 68 -18 90s-35.333 33 -70 33h-1v8h25
c3.33301 0 12.666 -0.5 27.999 -1.5s29 -1.5 41 -1.5s25.667 0.5 41 1.5s25 1.5 29 1.5h24v-8h-1c-34.667 0 -58 -11 -70 -33s-18 -52 -18 -90zM277.999 807c0 -12.667 -4.33301 -23.167 -13 -31.5s-19.334 -12.5 -32.001 -12.5c-12 0 -22.333 4.16699 -31 12.5
s-13 18.833 -13 31.5s4.33301 23.334 13 32.001s19 13 31 13c12.667 0 23.334 -4.33301 32.001 -13s13 -19.334 13 -32.001zM466.999 807c0 -12 -4.5 -22.333 -13.5 -31s-19.5 -13 -31.5 -13c-12.667 0 -23.167 4.16699 -31.5 12.5s-12.5 18.833 -12.5 31.5
s4.16699 23.334 12.5 32.001s18.833 13 31.5 13c12 0 22.5 -4.33301 31.5 -13s13.5 -19.334 13.5 -32.001z" />
    <glyph glyph-name="Yacute" unicode="&#xdd;" horiz-adv-x="593" 
d="M339 327l-0.000976562 -270c0 -21.333 3 -34.833 9 -40.5s20 -8.5 42 -8.5h1v-8h-16c-7.33301 0 -18 0.5 -32 1.5s-26.667 1.5 -38 1.5s-24 -0.5 -38 -1.5s-24.667 -1.5 -32 -1.5h-16v8h1c22 0 36 2.83301 42 8.5s9 19.167 9 40.5v253l-202 313
c-12 18 -24 30.833 -36 38.5s-27 11.5 -45 11.5v8h29c4 0 13.5 -0.5 28.5 -1.5s28.5 -1.5 40.5 -1.5s26 0.5 42 1.5s26 1.5 30 1.5h34v-8c-19.333 0 -32.666 -1.83301 -39.999 -5.5s-11 -10.167 -11 -19.5c0 -8.66699 3.33301 -18.334 10 -29.001l183 -282l139 227
c17.333 28.667 26 49.667 26 63c0 30.667 -21.333 46 -64 46h-1v8h13c7.33301 0 20.5 -0.5 39.5 -1.5s32.833 -1.5 41.5 -1.5c4 0 15.5 0.5 34.5 1.5s31.167 1.5 36.5 1.5h19v-8h-1c-27.333 0 -51 -9.66699 -71 -29s-42 -48.666 -66 -87.999zM257.999 731l-6.00098 4
c12.667 23.333 26.667 52.833 42 88.5s27.666 60.5 36.999 74.5c7.33301 10 16 15 26 15c8.66699 0 15.667 -2.83301 21 -8.5s8 -12.167 8 -19.5s-2 -14 -6 -20c-7.33301 -10.667 -25.166 -29.167 -53.499 -55.5s-51.166 -52.5 -68.499 -78.5z" />
    <glyph glyph-name="Thorn" unicode="&#xde;" horiz-adv-x="566" 
d="M216 0l-16 -0.000976562c-6.66699 0 -17.334 0.5 -32.001 1.5s-27.334 1.5 -38.001 1.5s-23.334 -0.5 -38.001 -1.5s-25.334 -1.5 -32.001 -1.5h-16v8h1c22 0 36 2.83301 42 8.5s9 19.167 9 40.5v567c0 21.333 -3 34.833 -9 40.5s-20 8.5 -42 8.5h-1v8h16
c6.66699 0 17.334 -0.5 32.001 -1.5s27.334 -1.5 38.001 -1.5s23.334 0.5 38.001 1.5s25.334 1.5 32.001 1.5h16v-8h-1c-22 0 -36 -2.83301 -42 -8.5s-9 -19.167 -9 -40.5v-83h158c65.333 0 119.5 -16.167 162.5 -48.5s64.5 -77.166 64.5 -134.499
c0 -58 -21.5 -103.333 -64.5 -136s-97.167 -49 -162.5 -49h-158v-116c0 -21.333 3 -34.833 9 -40.5s20 -8.5 42 -8.5h1v-8zM164 182.999h150c61.333 0 102.833 14 124.5 42s32.5 72.333 32.5 133c0 60 -10.833 103.833 -32.5 131.5s-63.167 41.5 -124.5 41.5h-150v-348z" />
    <glyph glyph-name="germandbls" unicode="&#xdf;" horiz-adv-x="568" 
d="M546 159c0 -48.667 -15.335 -88.6689 -46.002 -120.002s-66 -47 -106 -47c-12 0 -30 3.33301 -54 10s-39.667 10 -47 10c-6.66699 0 -12 -1.83301 -16 -5.5s-5.66699 -8.5 -5 -14.5l-6 -2l-50 172l6 3c60 -110 117.333 -165 172 -165c31.333 0 56.833 11.5 76.5 34.5
s29.5 50.833 29.5 83.5c0 56.667 -29.333 101.334 -88 134.001l-65 36c-43.333 24.667 -65 51.334 -65 80.001c0 16 4 30.167 12 42.5s23 29.5 45 51.5c39.333 40 59 83 59 129c0 66.667 -33.667 100 -101 100c-51.333 0 -87.666 -15.167 -108.999 -45.5
s-32 -76.833 -32 -139.5v-506c-2.66699 0 -8.33398 0.166992 -17.001 0.5s-14 0.5 -16 0.5c-11.333 0 -24.666 -0.166992 -39.999 -0.5s-26.666 -0.5 -33.999 -0.5h-14v7h1c23.333 0 38.166 3 44.499 9s9.5 19.667 9.5 41v424h-68v9h68
c3.33301 64.667 22.333 115.667 57 153s84.667 56 150 56c42 0 78.667 -8.83301 110 -26.5s47 -43.167 47 -76.5c0 -36 -23.667 -72 -71 -108c-40.667 -31.333 -61 -57.333 -61 -78c0 -12 4.83301 -22.667 14.5 -32s26.834 -21 51.501 -35l62 -34
c64 -35.333 96 -85.333 96 -150z" />
    <glyph glyph-name="agrave" unicode="&#xe0;" horiz-adv-x="500" 
d="M403 -8c-20 0 -35.168 6.33301 -45.501 19s-15.5 28.334 -15.5 47.001c-52 -44 -104.667 -66 -158 -66c-42 0 -74.833 11.333 -98.5 34s-35.5 53.667 -35.5 93c0 71.333 54.333 128.666 163 171.999l129 52v78c0 26 -3.33301 44 -10 54s-20.334 15 -41.001 15
c-33.333 0 -62.666 -8.66699 -87.999 -26s-51.333 -42.333 -78 -75c-9.33301 -11.333 -19 -17 -29 -17c-6.66699 0 -12.667 2.5 -18 7.5s-8 11.167 -8 18.5c0 20 23.333 41.667 70 65s97.334 35 152.001 35c42 0 71.833 -7.83301 89.5 -23.5s26.5 -38.167 26.5 -67.5v-362
c0 -23.333 8 -35 24 -35c16.667 0 32 12 46 36l5 -3c-18 -34 -44.667 -51 -80 -51zM192.999 3c22.667 0 47.833 6.16699 75.5 18.5s52.167 27.833 73.5 46.5v18v248l-126 -52c-36 -14.667 -60 -35 -72 -61s-18 -59.333 -18 -100c0 -78.667 22.333 -118 67 -118zM314.998 546
l-6.00195 -3.99805c-17.333 25.333 -40.166 51.166 -68.499 77.499s-46.166 45.166 -53.499 56.499c-4 6 -6 12.667 -6 20c0 8 2.83301 14.667 8.5 20s12.5 8 20.5 8c10.667 0 19.334 -5 26.001 -15c9.33301 -14 21.666 -38.833 36.999 -74.5s29.333 -65.167 42 -88.5z" />
    <glyph glyph-name="aacute" unicode="&#xe1;" horiz-adv-x="500" 
d="M403 -8c-20 0 -35.168 6.33301 -45.501 19s-15.5 28.334 -15.5 47.001c-52 -44 -104.667 -66 -158 -66c-42 0 -74.833 11.333 -98.5 34s-35.5 53.667 -35.5 93c0 71.333 54.333 128.666 163 171.999l129 52v78c0 26 -3.33301 44 -10 54s-20.334 15 -41.001 15
c-33.333 0 -62.666 -8.66699 -87.999 -26s-51.333 -42.333 -78 -75c-9.33301 -11.333 -19 -17 -29 -17c-6.66699 0 -12.667 2.5 -18 7.5s-8 11.167 -8 18.5c0 20 23.333 41.667 70 65s97.334 35 152.001 35c42 0 71.833 -7.83301 89.5 -23.5s26.5 -38.167 26.5 -67.5v-362
c0 -23.333 8 -35 24 -35c16.667 0 32 12 46 36l5 -3c-18 -34 -44.667 -51 -80 -51zM192.999 3c22.667 0 47.833 6.16699 75.5 18.5s52.167 27.833 73.5 46.5v18v248l-126 -52c-36 -14.667 -60 -35 -72 -61s-18 -59.333 -18 -100c0 -78.667 22.333 -118 67 -118zM198.998 542
l-6.00195 4c12.667 23.333 26.667 52.833 42 88.5s27.666 60.5 36.999 74.5c6.66699 10 15.334 15 26.001 15c8 0 14.833 -2.66699 20.5 -8s8.5 -12 8.5 -20c0 -7.33301 -2 -14 -6 -20c-7.33301 -10.667 -25.166 -29.167 -53.499 -55.5s-51.166 -52.5 -68.499 -78.5z" />
    <glyph glyph-name="acircumflex" unicode="&#xe2;" horiz-adv-x="500" 
d="M403 -8c-20 0 -35.168 6.33301 -45.501 19s-15.5 28.334 -15.5 47.001c-52 -44 -104.667 -66 -158 -66c-42 0 -74.833 11.333 -98.5 34s-35.5 53.667 -35.5 93c0 71.333 54.333 128.666 163 171.999l129 52v78c0 26 -3.33301 44 -10 54s-20.334 15 -41.001 15
c-33.333 0 -62.666 -8.66699 -87.999 -26s-51.333 -42.333 -78 -75c-9.33301 -11.333 -19 -17 -29 -17c-6.66699 0 -12.667 2.5 -18 7.5s-8 11.167 -8 18.5c0 20 23.333 41.667 70 65s97.334 35 152.001 35c42 0 71.833 -7.83301 89.5 -23.5s26.5 -38.167 26.5 -67.5v-362
c0 -23.333 8 -35 24 -35c16.667 0 32 12 46 36l5 -3c-18 -34 -44.667 -51 -80 -51zM192.999 3c22.667 0 47.833 6.16699 75.5 18.5s52.167 27.833 73.5 46.5v18v248l-126 -52c-36 -14.667 -60 -35 -72 -61s-18 -59.333 -18 -100c0 -78.667 22.333 -118 67 -118zM367.998 546
l-6 -4c-10.667 14 -21.667 27.167 -33 39.5s-25.5 27 -42.5 44l-32.5 32.5l-32.5 -32.5c-17 -17 -31.167 -31.667 -42.5 -44s-22.333 -25.5 -33 -39.5l-6 4c9.33301 14 18.5 29.333 27.5 46l28.5 55.5c10 20.333 17.333 34.5 22 42.5c6.66699 12.667 12.5 21.5 17.5 26.5
s11.167 7.5 18.5 7.5s13.5 -2.5 18.5 -7.5s10.833 -13.833 17.5 -26.5c4.66699 -8 12 -22.167 22 -42.5l28.5 -55.5c9 -16.667 18.167 -32 27.5 -46z" />
    <glyph glyph-name="atilde" unicode="&#xe3;" horiz-adv-x="500" 
d="M403 -8c-20 0 -35.168 6.33301 -45.501 19s-15.5 28.334 -15.5 47.001c-52 -44 -104.667 -66 -158 -66c-42 0 -74.833 11.333 -98.5 34s-35.5 53.667 -35.5 93c0 71.333 54.333 128.666 163 171.999l129 52v78c0 26 -3.33301 44 -10 54s-20.334 15 -41.001 15
c-33.333 0 -62.666 -8.66699 -87.999 -26s-51.333 -42.333 -78 -75c-9.33301 -11.333 -19 -17 -29 -17c-6.66699 0 -12.667 2.5 -18 7.5s-8 11.167 -8 18.5c0 20 23.333 41.667 70 65s97.334 35 152.001 35c42 0 71.833 -7.83301 89.5 -23.5s26.5 -38.167 26.5 -67.5v-362
c0 -23.333 8 -35 24 -35c16.667 0 32 12 46 36l5 -3c-18 -34 -44.667 -51 -80 -51zM192.999 3c22.667 0 47.833 6.16699 75.5 18.5s52.167 27.833 73.5 46.5v18v248l-126 -52c-36 -14.667 -60 -35 -72 -61s-18 -59.333 -18 -100c0 -78.667 22.333 -118 67 -118zM293.998 588
c-13.333 0 -31.666 7.16504 -54.999 21.498s-43.666 21.5 -60.999 21.5c-7.33301 0 -15.166 -3.66699 -23.499 -11s-14.333 -13.5 -18 -18.5s-9.5 -13.833 -17.5 -26.5l-6 4c1.33301 2 5.66602 9 12.999 21s13.166 20.833 17.499 26.5s10.333 12.834 18 21.501
s15.834 14.834 24.501 18.501s18 5.5 28 5.5c13.333 0 31.666 -7.16699 54.999 -21.5s43.666 -21.5 60.999 -21.5c7.33301 0 15.166 3.66699 23.499 11s14.333 13.5 18 18.5s9.5 13.833 17.5 26.5l6 -4c-23.333 -39.333 -42.666 -65 -57.999 -77
c-14 -10.667 -28.333 -16 -43 -16z" />
    <glyph glyph-name="adieresis" unicode="&#xe4;" horiz-adv-x="500" 
d="M403 -8c-20 0 -35.168 6.33301 -45.501 19s-15.5 28.334 -15.5 47.001c-52 -44 -104.667 -66 -158 -66c-42 0 -74.833 11.333 -98.5 34s-35.5 53.667 -35.5 93c0 71.333 54.333 128.666 163 171.999l129 52v78c0 26 -3.33301 44 -10 54s-20.334 15 -41.001 15
c-33.333 0 -62.666 -8.66699 -87.999 -26s-51.333 -42.333 -78 -75c-9.33301 -11.333 -19 -17 -29 -17c-6.66699 0 -12.667 2.5 -18 7.5s-8 11.167 -8 18.5c0 20 23.333 41.667 70 65s97.334 35 152.001 35c42 0 71.833 -7.83301 89.5 -23.5s26.5 -38.167 26.5 -67.5v-362
c0 -23.333 8 -35 24 -35c16.667 0 32 12 46 36l5 -3c-18 -34 -44.667 -51 -80 -51zM192.999 3c22.667 0 47.833 6.16699 75.5 18.5s52.167 27.833 73.5 46.5v18v248l-126 -52c-36 -14.667 -60 -35 -72 -61s-18 -59.333 -18 -100c0 -78.667 22.333 -118 67 -118zM204.998 628
c0 -12.667 -4.33301 -23.167 -13 -31.5s-19.334 -12.5 -32.001 -12.5c-12 0 -22.333 4.16699 -31 12.5s-13 18.833 -13 31.5s4.33301 23.334 13 32.001s19 13 31 13c12.667 0 23.334 -4.33301 32.001 -13s13 -19.334 13 -32.001zM393.998 628c0 -12 -4.5 -22.333 -13.5 -31
s-19.5 -13 -31.5 -13c-12.667 0 -23.167 4.16699 -31.5 12.5s-12.5 18.833 -12.5 31.5s4.16699 23.334 12.5 32.001s18.833 13 31.5 13c12 0 22.5 -4.33301 31.5 -13s13.5 -19.334 13.5 -32.001z" />
    <glyph glyph-name="aring" unicode="&#xe5;" horiz-adv-x="500" 
d="M403 -8c-20 0 -35.168 6.33301 -45.501 19s-15.5 28.334 -15.5 47.001c-52 -44 -104.667 -66 -158 -66c-42 0 -74.833 11.333 -98.5 34s-35.5 53.667 -35.5 93c0 71.333 54.333 128.666 163 171.999l129 52v78c0 26 -3.33301 44 -10 54s-20.334 15 -41.001 15
c-33.333 0 -62.666 -8.66699 -87.999 -26s-51.333 -42.333 -78 -75c-9.33301 -11.333 -19 -17 -29 -17c-6.66699 0 -12.667 2.5 -18 7.5s-8 11.167 -8 18.5c0 20 23.333 41.667 70 65s97.334 35 152.001 35c42 0 71.833 -7.83301 89.5 -23.5s26.5 -38.167 26.5 -67.5v-362
c0 -23.333 8 -35 24 -35c16.667 0 32 12 46 36l5 -3c-18 -34 -44.667 -51 -80 -51zM192.999 3c22.667 0 47.833 6.16699 75.5 18.5s52.167 27.833 73.5 46.5v18v248l-126 -52c-36 -14.667 -60 -35 -72 -61s-18 -59.333 -18 -100c0 -78.667 22.333 -118 67 -118zM337.998 639
c0 -24 -8 -44.333 -24 -61s-36 -25 -60 -25s-44 8.33301 -60 25s-24 37 -24 61s8 44.333 24 61s36 25 60 25s44 -8.33301 60 -25s24 -37 24 -61zM327.998 639c0 20.667 -7 38.5 -21 53.5s-31.667 22.5 -53 22.5s-39 -7.5 -53 -22.5s-21 -32.833 -21 -53.5s7 -38.5 21 -53.5
s31.667 -22.5 53 -22.5s39 7.5 53 22.5s21 32.833 21 53.5z" />
    <glyph glyph-name="ae" unicode="&#xe6;" horiz-adv-x="770" 
d="M544 -8c-68 0 -122.67 33 -164.003 99c-52 -66 -112.333 -99 -181 -99c-40.667 0 -75.667 13 -105 39s-44 65.333 -44 118c0 54.667 21.667 97.667 65 129s95.666 47 156.999 47h70v94c0 26.667 -3.16699 45.167 -9.5 55.5s-20.166 15.5 -41.499 15.5
c-34 0 -63 -8.5 -87 -25.5s-50.333 -42.167 -79 -75.5c-9.33301 -11.333 -19 -17 -29 -17c-6.66699 0 -12.667 2.5 -18 7.5s-8 11.167 -8 18.5c0 20 23.333 41.667 70 65s97.334 35 152.001 35c36.667 0 62.667 -5.83301 78 -17.5s25 -31.167 29 -58.5
c38.667 50.667 88.667 76 150 76c46.667 0 88.334 -16.5 125.001 -49.5s53.667 -77.167 51 -132.5h-314c-0.666992 -10 -1 -25 -1 -45c0 -72.667 14.5 -133.667 43.5 -183s67.5 -74 115.5 -74c70.667 0 120.334 42 149.001 126l6 -2c-31.333 -97.333 -91.333 -146 -180 -146
zM203.997 2c63.333 0 120.333 31.999 171 95.999c-22 42.667 -33 98.667 -33 168v50h-68c-55.333 0 -93.833 -13.167 -115.5 -39.5s-32.5 -68.166 -32.5 -125.499c0 -99.333 26 -149 78 -149zM544.997 489.999c-36 0 -65.667 -14.332 -89 -42.999s-38 -69.334 -44 -122.001
h245c-2.66699 110 -40 165 -112 165z" />
    <glyph glyph-name="ccedilla" unicode="&#xe7;" horiz-adv-x="472" 
d="M312 -117c0 -33.333 -19.999 -62.667 -59.999 -88s-82.667 -40.333 -128 -45l-1 7c43.333 5.33301 78.5 19.166 105.5 41.499s40.5 45.5 40.5 69.5c0 27.333 -17 41 -51 41c-23.333 0 -42 -4 -56 -12l-3 3l79 92c-53.333 4 -99.333 28.333 -138 73s-58 102 -58 172
c0 78.667 21.333 141.834 64 189.501s93 71.5 151 71.5c46 0 86 -14.333 120 -43s51 -58 51 -88c0 -8 -2.5 -14.667 -7.5 -20s-11.5 -8 -19.5 -8c-13.333 0 -22.333 6.66699 -27 20c-1.33301 4 -4 15.667 -8 35c-12.667 64 -49.334 96 -110.001 96
c-44.667 0 -78.834 -19.667 -102.501 -59s-35.5 -91 -35.5 -155c0 -82 15.333 -146.167 46 -192.5s68.334 -69.5 113.001 -69.5c71.333 0 121 42 149 126l6 -2c-32 -100 -94.333 -148.667 -187 -146l-30 -50c9.33301 1.33301 16 2 20 2c22.667 0 41.167 -5.33301 55.5 -16
s21.5 -25.667 21.5 -45z" />
    <glyph glyph-name="egrave" unicode="&#xe8;" horiz-adv-x="478" 
d="M252 -8c-56 0 -105.002 22.5 -147.002 67.5s-63 103.833 -63 176.5c0 80 21.333 143.667 64 191s93 71 151 71c46.667 0 88.334 -16.5 125.001 -49.5s53.667 -77.167 51 -132.5h-314c-0.666992 -10 -1 -25 -1 -45c0 -72.667 14.5 -133.667 43.5 -183s67.5 -74 115.5 -74
c70.667 0 120.334 42 149.001 126l6 -2c-31.333 -97.333 -91.333 -146 -180 -146zM119.998 325l245 0.000976562c-2.66699 110 -40.334 165 -113.001 165c-37.333 0 -67.166 -15.333 -89.499 -46s-36.5 -70.334 -42.5 -119.001zM314.998 546.001l-6.00195 -3.99805
c-17.333 25.333 -40.166 51.166 -68.499 77.499s-46.166 45.166 -53.499 56.499c-4 6 -6 12.667 -6 20c0 8 2.83301 14.667 8.5 20s12.5 8 20.5 8c10.667 0 19.334 -5 26.001 -15c9.33301 -14 21.666 -38.833 36.999 -74.5s29.333 -65.167 42 -88.5z" />
    <glyph glyph-name="eacute" unicode="&#xe9;" horiz-adv-x="478" 
d="M252 -8c-56 0 -105.002 22.5 -147.002 67.5s-63 103.833 -63 176.5c0 80 21.333 143.667 64 191s93 71 151 71c46.667 0 88.334 -16.5 125.001 -49.5s53.667 -77.167 51 -132.5h-314c-0.666992 -10 -1 -25 -1 -45c0 -72.667 14.5 -133.667 43.5 -183s67.5 -74 115.5 -74
c70.667 0 120.334 42 149.001 126l6 -2c-31.333 -97.333 -91.333 -146 -180 -146zM119.998 325l245 0.000976562c-2.66699 110 -40.334 165 -113.001 165c-37.333 0 -67.166 -15.333 -89.499 -46s-36.5 -70.334 -42.5 -119.001zM198.998 542.001l-6.00195 4
c12.667 23.333 26.667 52.833 42 88.5s27.666 60.5 36.999 74.5c6.66699 10 15.334 15 26.001 15c8 0 14.833 -2.66699 20.5 -8s8.5 -12 8.5 -20c0 -7.33301 -2 -14 -6 -20c-7.33301 -10.667 -25.166 -29.167 -53.499 -55.5s-51.166 -52.5 -68.499 -78.5z" />
    <glyph glyph-name="ecircumflex" unicode="&#xea;" horiz-adv-x="478" 
d="M252 -8c-56 0 -105.002 22.5 -147.002 67.5s-63 103.833 -63 176.5c0 80 21.333 143.667 64 191s93 71 151 71c46.667 0 88.334 -16.5 125.001 -49.5s53.667 -77.167 51 -132.5h-314c-0.666992 -10 -1 -25 -1 -45c0 -72.667 14.5 -133.667 43.5 -183s67.5 -74 115.5 -74
c70.667 0 120.334 42 149.001 126l6 -2c-31.333 -97.333 -91.333 -146 -180 -146zM119.998 325l245 0.000976562c-2.66699 110 -40.334 165 -113.001 165c-37.333 0 -67.166 -15.333 -89.499 -46s-36.5 -70.334 -42.5 -119.001zM367.998 546.001l-6 -4
c-10.667 14 -21.667 27.167 -33 39.5s-25.5 27 -42.5 44l-32.5 32.5l-32.5 -32.5c-17 -17 -31.167 -31.667 -42.5 -44s-22.333 -25.5 -33 -39.5l-6 4c9.33301 14 18.5 29.333 27.5 46l28.5 55.5c10 20.333 17.333 34.5 22 42.5c6.66699 12.667 12.5 21.5 17.5 26.5
s11.167 7.5 18.5 7.5s13.5 -2.5 18.5 -7.5s10.833 -13.833 17.5 -26.5c4.66699 -8 12 -22.167 22 -42.5l28.5 -55.5c9 -16.667 18.167 -32 27.5 -46z" />
    <glyph glyph-name="edieresis" unicode="&#xeb;" horiz-adv-x="478" 
d="M252 -8c-56 0 -105.002 22.5 -147.002 67.5s-63 103.833 -63 176.5c0 80 21.333 143.667 64 191s93 71 151 71c46.667 0 88.334 -16.5 125.001 -49.5s53.667 -77.167 51 -132.5h-314c-0.666992 -10 -1 -25 -1 -45c0 -72.667 14.5 -133.667 43.5 -183s67.5 -74 115.5 -74
c70.667 0 120.334 42 149.001 126l6 -2c-31.333 -97.333 -91.333 -146 -180 -146zM119.998 325l245 0.000976562c-2.66699 110 -40.334 165 -113.001 165c-37.333 0 -67.166 -15.333 -89.499 -46s-36.5 -70.334 -42.5 -119.001zM204.998 628.001
c0 -12.667 -4.33301 -23.167 -13 -31.5s-19.334 -12.5 -32.001 -12.5c-12 0 -22.333 4.16699 -31 12.5s-13 18.833 -13 31.5s4.33301 23.334 13 32.001s19 13 31 13c12.667 0 23.334 -4.33301 32.001 -13s13 -19.334 13 -32.001zM393.998 628.001
c0 -12 -4.5 -22.333 -13.5 -31s-19.5 -13 -31.5 -13c-12.667 0 -23.167 4.16699 -31.5 12.5s-12.5 18.833 -12.5 31.5s4.16699 23.334 12.5 32.001s18.833 13 31.5 13c12 0 22.5 -4.33301 31.5 -13s13.5 -19.334 13.5 -32.001z" />
    <glyph glyph-name="igrave" unicode="&#xec;" horiz-adv-x="254" 
d="M219 0h-14.0029c-7.33301 0 -18.666 0.5 -33.999 1.5s-28.666 1.5 -39.999 1.5s-24.666 -0.5 -39.999 -1.5s-26.666 -1.5 -33.999 -1.5h-14v7h1c23.333 0 38.166 3 44.499 9s9.5 19.667 9.5 41v342c0 21.333 -3.16699 34.833 -9.5 40.5s-21.166 8.5 -44.499 8.5h-1v7h6
c22 0 44.667 4.33301 68 13s37 18.667 41 30h6v-441c0 -21.333 3.16699 -35 9.5 -41s21.166 -9 44.499 -9h1v-7zM191.997 546l-6.00195 -3.99805c-17.333 25.333 -40.166 51.166 -68.499 77.499s-46.166 45.166 -53.499 56.499c-4 6 -6 12.667 -6 20
c0 8 2.66699 14.667 8 20s12.333 8 21 8c10.667 0 19.334 -5 26.001 -15c9.33301 -14 21.666 -38.833 36.999 -74.5s29.333 -65.167 42 -88.5z" />
    <glyph glyph-name="iacute" unicode="&#xed;" horiz-adv-x="254" 
d="M219 0h-14.0029c-7.33301 0 -18.666 0.5 -33.999 1.5s-28.666 1.5 -39.999 1.5s-24.666 -0.5 -39.999 -1.5s-26.666 -1.5 -33.999 -1.5h-14v7h1c23.333 0 38.166 3 44.499 9s9.5 19.667 9.5 41v342c0 21.333 -3.16699 34.833 -9.5 40.5s-21.166 8.5 -44.499 8.5h-1v7h6
c22 0 44.667 4.33301 68 13s37 18.667 41 30h6v-441c0 -21.333 3.16699 -35 9.5 -41s21.166 -9 44.499 -9h1v-7zM75.9971 542l-6.00098 4c12.667 23.333 26.667 52.833 42 88.5s27.666 60.5 36.999 74.5c7.33301 10 16 15 26 15c8.66699 0 15.667 -2.66699 21 -8
s8 -12 8 -20c0 -7.33301 -2 -14 -6 -20c-7.33301 -10.667 -25.166 -29.167 -53.499 -55.5s-51.166 -52.5 -68.499 -78.5z" />
    <glyph glyph-name="icircumflex" unicode="&#xee;" horiz-adv-x="254" 
d="M219 0h-14.0029c-7.33301 0 -18.666 0.5 -33.999 1.5s-28.666 1.5 -39.999 1.5s-24.666 -0.5 -39.999 -1.5s-26.666 -1.5 -33.999 -1.5h-14v7h1c23.333 0 38.166 3 44.499 9s9.5 19.667 9.5 41v342c0 21.333 -3.16699 34.833 -9.5 40.5s-21.166 8.5 -44.499 8.5h-1v7h6
c22 0 44.667 4.33301 68 13s37 18.667 41 30h6v-441c0 -21.333 3.16699 -35 9.5 -41s21.166 -9 44.499 -9h1v-7zM244.997 546l-6 -4c-10.667 14 -21.667 27.167 -33 39.5s-25.5 27 -42.5 44l-32.5 32.5l-32.5 -32.5c-17 -17 -31.167 -31.667 -42.5 -44
s-22.333 -25.5 -33 -39.5l-6 4c9.33301 14 18.5 29.333 27.5 46l28.5 55.5c10 20.333 17.333 34.5 22 42.5c6.66699 12.667 12.5 21.5 17.5 26.5s11.167 7.5 18.5 7.5s13.5 -2.5 18.5 -7.5s10.833 -13.833 17.5 -26.5c4.66699 -8 12 -22.167 22 -42.5l28.5 -55.5
c9 -16.667 18.167 -32 27.5 -46z" />
    <glyph glyph-name="idieresis" unicode="&#xef;" horiz-adv-x="254" 
d="M219 0h-14.0029c-7.33301 0 -18.666 0.5 -33.999 1.5s-28.666 1.5 -39.999 1.5s-24.666 -0.5 -39.999 -1.5s-26.666 -1.5 -33.999 -1.5h-14v7h1c23.333 0 38.166 3 44.499 9s9.5 19.667 9.5 41v342c0 21.333 -3.16699 34.833 -9.5 40.5s-21.166 8.5 -44.499 8.5h-1v7h6
c22 0 44.667 4.33301 68 13s37 18.667 41 30h6v-441c0 -21.333 3.16699 -35 9.5 -41s21.166 -9 44.499 -9h1v-7zM81.9971 628c0 -12.667 -4.33301 -23.167 -13 -31.5s-19.334 -12.5 -32.001 -12.5c-12 0 -22.333 4.16699 -31 12.5s-13 18.833 -13 31.5
s4.33301 23.334 13 32.001s19 13 31 13c12.667 0 23.334 -4.33301 32.001 -13s13 -19.334 13 -32.001zM270.997 628c0 -12 -4.5 -22.333 -13.5 -31s-19.5 -13 -31.5 -13c-12.667 0 -23.167 4.16699 -31.5 12.5s-12.5 18.833 -12.5 31.5s4.16699 23.334 12.5 32.001
s18.833 13 31.5 13c12 0 22.5 -4.33301 31.5 -13s13.5 -19.334 13.5 -32.001z" />
    <glyph glyph-name="eth" unicode="&#xf0;" horiz-adv-x="512" 
d="M255 -8c-58.667 0 -109 24.501 -151 73.501s-63 108.833 -63 179.5s21 130.5 63 179.5s92.333 73.5 151 73.5c43.333 0 80.666 -14 111.999 -42c-19.333 60.667 -51 111 -95 151l-106 -71l-5 7l104 70c-45.333 36.667 -99.333 61 -162 73l2 8
c66.667 -13.333 125.334 -37 176.001 -71l97 65l5 -7l-95 -63c56.667 -38 101.167 -85.333 133.5 -142s48.5 -117.334 48.5 -182.001c0 -55.333 -6.66699 -103.5 -20 -144.5s-31 -72.333 -53 -94s-44.833 -37.667 -68.5 -48s-48.167 -15.5 -73.5 -15.5zM255 0.000976562
c22.667 0 41.667 3.50195 57 10.502s29.5 19.833 42.5 38.5s22.667 46.667 29 84s9.5 84.666 9.5 141.999c0 63.333 -7 118.666 -21 165.999c-31.333 32.667 -70.333 49 -117 49c-46 0 -80.5 -17.333 -103.5 -52s-34.5 -99 -34.5 -193s11.5 -158.333 34.5 -193
s57.5 -52 103.5 -52z" />
    <glyph glyph-name="ntilde" unicode="&#xf1;" horiz-adv-x="547" 
d="M514 0h-14.001c-8 0 -19.333 0.5 -34 1.5s-28 1.5 -40 1.5s-25.333 -0.5 -40 -1.5s-26 -1.5 -34 -1.5h-14v7h1c23.333 0 38.166 3 44.499 9s9.5 19.667 9.5 41v374c0 32 -11.667 48 -35 48c-11.333 0 -39.666 -8 -84.999 -24l-109 -42v-356
c0 -21.333 3.16699 -35 9.5 -41s21.166 -9 44.499 -9h1v-7h-14c-7.33301 0 -18.666 0.5 -33.999 1.5s-28.666 1.5 -39.999 1.5s-24.666 -0.5 -39.999 -1.5s-26.666 -1.5 -33.999 -1.5h-14v7h1c23.333 0 38.166 3 44.499 9s9.5 19.667 9.5 41v342
c0 21.333 -3.16699 34.833 -9.5 40.5s-21.166 8.5 -44.499 8.5h-1v7h6c22 0 44.667 4.33301 68 13s37 18.667 41 30h6v-76l106 41c59.333 23.333 101.666 35 126.999 35c41.333 0 62 -23.333 62 -70v-371c0 -21.333 3.16699 -35 9.5 -41s21.166 -9 44.499 -9h1v-7z
M318.999 588c-14 0 -32.333 7.16504 -55 21.498s-43 21.5 -61 21.5c-7.33301 0 -15.166 -3.66699 -23.499 -11s-14.333 -13.5 -18 -18.5s-9.5 -13.833 -17.5 -26.5l-6 4c1.33301 2 5.66602 9 12.999 21s13.166 20.833 17.499 26.5s10.333 12.834 18 21.501
s15.834 14.834 24.501 18.501s18 5.5 28 5.5c14 0 32.333 -7.16699 55 -21.5s43 -21.5 61 -21.5c7.33301 0 15.166 3.66699 23.499 11s14.333 13.5 18 18.5s9.5 13.833 17.5 26.5l6 -4c-23.333 -39.333 -42.666 -65 -57.999 -77c-14 -10.667 -28.333 -16 -43 -16z" />
    <glyph glyph-name="ograve" unicode="&#xf2;" horiz-adv-x="512" 
d="M256 -8c-58.667 0 -109 24.5 -151 73.5s-63 108.833 -63 179.5s21 130.5 63 179.5s92.333 73.5 151 73.5s109 -24.5 151 -73.5s63 -108.833 63 -179.5s-21 -130.5 -63 -179.5s-92.333 -73.5 -151 -73.5zM256 0c46 0 80.5 17.167 103.5 51.5s34.5 98.833 34.5 193.5
s-11.5 159.167 -34.5 193.5s-57.5 51.5 -103.5 51.5s-80.5 -17.167 -103.5 -51.5s-34.5 -98.833 -34.5 -193.5s11.5 -159.167 34.5 -193.5s57.5 -51.5 103.5 -51.5zM317 546l-6.00195 -3.99805c-17.333 25.333 -40.166 51.166 -68.499 77.499s-46.166 45.166 -53.499 56.499
c-4 6 -6 12.667 -6 20c0 8 2.83301 14.667 8.5 20s12.5 8 20.5 8c10.667 0 19.334 -5 26.001 -15c9.33301 -14 21.666 -38.833 36.999 -74.5s29.333 -65.167 42 -88.5z" />
    <glyph glyph-name="oacute" unicode="&#xf3;" horiz-adv-x="512" 
d="M256 -8c-58.667 0 -109 24.5 -151 73.5s-63 108.833 -63 179.5s21 130.5 63 179.5s92.333 73.5 151 73.5s109 -24.5 151 -73.5s63 -108.833 63 -179.5s-21 -130.5 -63 -179.5s-92.333 -73.5 -151 -73.5zM256 0c46 0 80.5 17.167 103.5 51.5s34.5 98.833 34.5 193.5
s-11.5 159.167 -34.5 193.5s-57.5 51.5 -103.5 51.5s-80.5 -17.167 -103.5 -51.5s-34.5 -98.833 -34.5 -193.5s11.5 -159.167 34.5 -193.5s57.5 -51.5 103.5 -51.5zM201 542l-6.00195 4c12.667 23.333 26.667 52.833 42 88.5s27.666 60.5 36.999 74.5
c6.66699 10 15.334 15 26.001 15c8 0 14.833 -2.66699 20.5 -8s8.5 -12 8.5 -20c0 -7.33301 -2 -14 -6 -20c-7.33301 -10.667 -25.166 -29.167 -53.499 -55.5s-51.166 -52.5 -68.499 -78.5z" />
    <glyph glyph-name="ocircumflex" unicode="&#xf4;" horiz-adv-x="512" 
d="M256 -8c-58.667 0 -109 24.5 -151 73.5s-63 108.833 -63 179.5s21 130.5 63 179.5s92.333 73.5 151 73.5s109 -24.5 151 -73.5s63 -108.833 63 -179.5s-21 -130.5 -63 -179.5s-92.333 -73.5 -151 -73.5zM256 0c46 0 80.5 17.167 103.5 51.5s34.5 98.833 34.5 193.5
s-11.5 159.167 -34.5 193.5s-57.5 51.5 -103.5 51.5s-80.5 -17.167 -103.5 -51.5s-34.5 -98.833 -34.5 -193.5s11.5 -159.167 34.5 -193.5s57.5 -51.5 103.5 -51.5zM370 546l-6 -4c-10.667 14 -21.667 27.167 -33 39.5s-25.5 27 -42.5 44l-32.5 32.5l-32.5 -32.5
c-17 -17 -31.167 -31.667 -42.5 -44s-22.333 -25.5 -33 -39.5l-6 4c9.33301 14 18.5 29.333 27.5 46l28.5 55.5c10 20.333 17.333 34.5 22 42.5c6.66699 12.667 12.5 21.5 17.5 26.5s11.167 7.5 18.5 7.5s13.5 -2.5 18.5 -7.5s10.833 -13.833 17.5 -26.5
c4.66699 -8 12 -22.167 22 -42.5l28.5 -55.5c9 -16.667 18.167 -32 27.5 -46z" />
    <glyph glyph-name="otilde" unicode="&#xf5;" horiz-adv-x="512" 
d="M256 -8c-58.667 0 -109 24.5 -151 73.5s-63 108.833 -63 179.5s21 130.5 63 179.5s92.333 73.5 151 73.5s109 -24.5 151 -73.5s63 -108.833 63 -179.5s-21 -130.5 -63 -179.5s-92.333 -73.5 -151 -73.5zM256 0c46 0 80.5 17.167 103.5 51.5s34.5 98.833 34.5 193.5
s-11.5 159.167 -34.5 193.5s-57.5 51.5 -103.5 51.5s-80.5 -17.167 -103.5 -51.5s-34.5 -98.833 -34.5 -193.5s11.5 -159.167 34.5 -193.5s57.5 -51.5 103.5 -51.5zM296 588c-13.333 0 -31.666 7.16504 -54.999 21.498s-43.666 21.5 -60.999 21.5
c-7.33301 0 -15.166 -3.66699 -23.499 -11s-14.333 -13.5 -18 -18.5s-9.5 -13.833 -17.5 -26.5l-6 4c1.33301 2 5.66602 9 12.999 21s13.166 20.833 17.499 26.5s10.333 12.834 18 21.501s15.834 14.834 24.501 18.501s18 5.5 28 5.5c13.333 0 31.666 -7.16699 54.999 -21.5
s43.666 -21.5 60.999 -21.5c7.33301 0 15.166 3.66699 23.499 11s14.333 13.5 18 18.5s9.5 13.833 17.5 26.5l6 -4c-23.333 -39.333 -42.666 -65 -57.999 -77c-14 -10.667 -28.333 -16 -43 -16z" />
    <glyph glyph-name="odieresis" unicode="&#xf6;" horiz-adv-x="512" 
d="M256 -8c-58.667 0 -109 24.5 -151 73.5s-63 108.833 -63 179.5s21 130.5 63 179.5s92.333 73.5 151 73.5s109 -24.5 151 -73.5s63 -108.833 63 -179.5s-21 -130.5 -63 -179.5s-92.333 -73.5 -151 -73.5zM256 0c46 0 80.5 17.167 103.5 51.5s34.5 98.833 34.5 193.5
s-11.5 159.167 -34.5 193.5s-57.5 51.5 -103.5 51.5s-80.5 -17.167 -103.5 -51.5s-34.5 -98.833 -34.5 -193.5s11.5 -159.167 34.5 -193.5s57.5 -51.5 103.5 -51.5zM207 628c0 -12.667 -4.33301 -23.167 -13 -31.5s-19.334 -12.5 -32.001 -12.5
c-12 0 -22.333 4.16699 -31 12.5s-13 18.833 -13 31.5s4.33301 23.334 13 32.001s19 13 31 13c12.667 0 23.334 -4.33301 32.001 -13s13 -19.334 13 -32.001zM396 628c0 -12 -4.5 -22.333 -13.5 -31s-19.5 -13 -31.5 -13c-12.667 0 -23.167 4.16699 -31.5 12.5
s-12.5 18.833 -12.5 31.5s4.16699 23.334 12.5 32.001s18.833 13 31.5 13c12 0 22.5 -4.33301 31.5 -13s13.5 -19.334 13.5 -32.001z" />
    <glyph glyph-name="divide" unicode="&#xf7;" horiz-adv-x="530" 
d="M259 426c-13.333 0 -24.666 4.5 -33.999 13.5s-14 20.5 -14 34.5s4.66699 25.667 14 35s20.666 14 33.999 14s24.833 -4.66699 34.5 -14s14.5 -21 14.5 -35s-4.66699 -25.5 -14 -34.5s-21 -13.5 -35 -13.5zM45 317v10h440v-10h-440zM259 122
c-13.333 0 -24.666 4.5 -33.999 13.5s-14 20.5 -14 34.5s4.66699 25.667 14 35s20.666 14 33.999 14s24.833 -4.66699 34.5 -14s14.5 -21 14.5 -35s-4.66699 -25.5 -14 -34.5s-21 -13.5 -35 -13.5z" />
    <glyph glyph-name="oslash" unicode="&#xf8;" horiz-adv-x="512" 
d="M256 -8c-44.667 0 -85.333 14.667 -122 44l-53 -86l-7 5l53 87c-56.667 49.333 -85 117 -85 203c0 70.667 21 130.5 63 179.5s92.333 73.5 151 73.5c44 0 84.667 -15 122 -45l53 88l8 -5l-54 -88c56.667 -52 85 -119.667 85 -203c0 -70.667 -21 -130.5 -63 -179.5
s-92.333 -73.5 -151 -73.5zM256.001 0c46 0 80.5 17.167 103.5 51.5s34.5 98.833 34.5 193.5c0 76.667 -8.66699 135 -26 175l-220 -360c21.333 -40 57.333 -60 108 -60zM256.001 490c-46 0 -80.499 -17.167 -103.499 -51.5s-34.5 -98.833 -34.5 -193.5
c0 -77.333 8.66699 -136 26 -176l219 361c-20.667 40 -56.334 60 -107.001 60z" />
    <glyph glyph-name="ugrave" unicode="&#xf9;" horiz-adv-x="534" 
d="M499 0h-14.002c-7.33301 -0 -18.666 0.333008 -33.999 1s-28.666 1 -39.999 1c-6 0 -12.5 -0.333008 -19.5 -1s-11.5 -1 -13.5 -1v68l-101 -41c-56.667 -23.333 -99 -35 -127 -35c-41.333 0 -62 23.333 -62 70v337c0 21.333 -3.16699 34.833 -9.5 40.5
s-21.166 8.5 -44.499 8.5h-1v7h6c22 0 44.667 4.33301 68 13s37 18.667 41 30h6v-439c0 -32 11.667 -48 35 -48c15.333 0 43.666 8 84.999 24l104 42v322c0 21.333 -3.16699 34.833 -9.5 40.5s-21.166 8.5 -44.499 8.5h-1v7h6c22 0 44.667 4.33301 68 13s37 18.667 41 30h6
v-441c0 -21.333 3.16699 -35 9.5 -41s21.166 -9 44.499 -9h1v-7zM326.998 546l-6.00195 -3.99805c-17.333 25.333 -40.166 51.166 -68.499 77.499s-46.166 45.166 -53.499 56.499c-4 6 -6 12.667 -6 20c0 8 2.83301 14.667 8.5 20s12.5 8 20.5 8
c10.667 0 19.334 -5 26.001 -15c9.33301 -14 21.666 -38.833 36.999 -74.5s29.333 -65.167 42 -88.5z" />
    <glyph glyph-name="uacute" unicode="&#xfa;" horiz-adv-x="534" 
d="M499 0h-14.002c-7.33301 -0 -18.666 0.333008 -33.999 1s-28.666 1 -39.999 1c-6 0 -12.5 -0.333008 -19.5 -1s-11.5 -1 -13.5 -1v68l-101 -41c-56.667 -23.333 -99 -35 -127 -35c-41.333 0 -62 23.333 -62 70v337c0 21.333 -3.16699 34.833 -9.5 40.5
s-21.166 8.5 -44.499 8.5h-1v7h6c22 0 44.667 4.33301 68 13s37 18.667 41 30h6v-439c0 -32 11.667 -48 35 -48c15.333 0 43.666 8 84.999 24l104 42v322c0 21.333 -3.16699 34.833 -9.5 40.5s-21.166 8.5 -44.499 8.5h-1v7h6c22 0 44.667 4.33301 68 13s37 18.667 41 30h6
v-441c0 -21.333 3.16699 -35 9.5 -41s21.166 -9 44.499 -9h1v-7zM210.998 542l-6.00195 4c12.667 23.333 26.667 52.833 42 88.5s27.666 60.5 36.999 74.5c6.66699 10 15.334 15 26.001 15c8 0 14.833 -2.66699 20.5 -8s8.5 -12 8.5 -20c0 -7.33301 -2 -14 -6 -20
c-7.33301 -10.667 -25.166 -29.167 -53.499 -55.5s-51.166 -52.5 -68.499 -78.5z" />
    <glyph glyph-name="ucircumflex" unicode="&#xfb;" horiz-adv-x="534" 
d="M499 0h-14.002c-7.33301 -0 -18.666 0.333008 -33.999 1s-28.666 1 -39.999 1c-6 0 -12.5 -0.333008 -19.5 -1s-11.5 -1 -13.5 -1v68l-101 -41c-56.667 -23.333 -99 -35 -127 -35c-41.333 0 -62 23.333 -62 70v337c0 21.333 -3.16699 34.833 -9.5 40.5
s-21.166 8.5 -44.499 8.5h-1v7h6c22 0 44.667 4.33301 68 13s37 18.667 41 30h6v-439c0 -32 11.667 -48 35 -48c15.333 0 43.666 8 84.999 24l104 42v322c0 21.333 -3.16699 34.833 -9.5 40.5s-21.166 8.5 -44.499 8.5h-1v7h6c22 0 44.667 4.33301 68 13s37 18.667 41 30h6
v-441c0 -21.333 3.16699 -35 9.5 -41s21.166 -9 44.499 -9h1v-7zM379.998 546l-6 -4c-10.667 14 -21.667 27.167 -33 39.5s-25.5 27 -42.5 44l-32.5 32.5l-32.5 -32.5c-17 -17 -31.167 -31.667 -42.5 -44s-22.333 -25.5 -33 -39.5l-6 4c9.33301 14 18.5 29.333 27.5 46
l28.5 55.5c10 20.333 17.333 34.5 22 42.5c6.66699 12.667 12.5 21.5 17.5 26.5s11.167 7.5 18.5 7.5s13.5 -2.5 18.5 -7.5s10.833 -13.833 17.5 -26.5c4.66699 -8 12 -22.167 22 -42.5l28.5 -55.5c9 -16.667 18.167 -32 27.5 -46z" />
    <glyph glyph-name="udieresis" unicode="&#xfc;" horiz-adv-x="534" 
d="M499 0h-14.002c-7.33301 -0 -18.666 0.333008 -33.999 1s-28.666 1 -39.999 1c-6 0 -12.5 -0.333008 -19.5 -1s-11.5 -1 -13.5 -1v68l-101 -41c-56.667 -23.333 -99 -35 -127 -35c-41.333 0 -62 23.333 -62 70v337c0 21.333 -3.16699 34.833 -9.5 40.5
s-21.166 8.5 -44.499 8.5h-1v7h6c22 0 44.667 4.33301 68 13s37 18.667 41 30h6v-439c0 -32 11.667 -48 35 -48c15.333 0 43.666 8 84.999 24l104 42v322c0 21.333 -3.16699 34.833 -9.5 40.5s-21.166 8.5 -44.499 8.5h-1v7h6c22 0 44.667 4.33301 68 13s37 18.667 41 30h6
v-441c0 -21.333 3.16699 -35 9.5 -41s21.166 -9 44.499 -9h1v-7zM216.998 628c0 -12.667 -4.33301 -23.167 -13 -31.5s-19.334 -12.5 -32.001 -12.5c-12 0 -22.333 4.16699 -31 12.5s-13 18.833 -13 31.5s4.33301 23.334 13 32.001s19 13 31 13
c12.667 0 23.334 -4.33301 32.001 -13s13 -19.334 13 -32.001zM405.998 628c0 -12 -4.5 -22.333 -13.5 -31s-19.5 -13 -31.5 -13c-12.667 0 -23.167 4.16699 -31.5 12.5s-12.5 18.833 -12.5 31.5s4.16699 23.334 12.5 32.001s18.833 13 31.5 13c12 0 22.5 -4.33301 31.5 -13
s13.5 -19.334 13.5 -32.001z" />
    <glyph glyph-name="yacute" unicode="&#xfd;" horiz-adv-x="465" 
d="M269 75l28.0039 -75.001c-6 0 -12.667 0.166992 -20 0.5s-12.666 0.5 -15.999 0.5c-2 0 -5.83301 -0.166992 -11.5 -0.5s-10.5 -0.5 -14.5 -0.5l-20 -45c-32.667 -72.667 -60 -122.667 -82 -150s-53.667 -41 -95 -41c-27.333 0 -41 9 -41 27c0 8 2.66699 14.167 8 18.5
s12 6.5 20 6.5s20.333 -2.16699 37 -6.5s28.334 -6.5 35.001 -6.5c17.333 0 33.666 11 48.999 33s35.666 62.667 60.999 122l19 42l-164 434c-7.33301 19.333 -15.833 32.333 -25.5 39s-23.834 10 -42.501 10v7h23c4 0 13.167 -0.5 27.5 -1.5s27.833 -1.5 40.5 -1.5
s26.167 0.5 40.5 1.5s23.166 1.5 26.499 1.5h24v-7c-33.333 0 -50 -8 -50 -24c0 -4 1 -9 3 -15l135 -357l110 309c5.33301 14 8 27.333 8 40c0 31.333 -22 47 -66 47v7h10c8 0 19.667 -0.5 35 -1.5s27.666 -1.5 36.999 -1.5c10 0 22.667 0.5 38 1.5s25.666 1.5 30.999 1.5
h17v-7c-27.333 -1.33301 -48.5 -9.66602 -63.5 -24.999s-27.833 -37.333 -38.5 -66zM187.004 541.999l-6.00195 4c12.667 23.333 26.667 52.833 42 88.5s27.666 60.5 36.999 74.5c6.66699 10 15.334 15 26.001 15c8 0 14.833 -2.66699 20.5 -8s8.5 -12 8.5 -20
c0 -7.33301 -2 -14 -6 -20c-7.33301 -10.667 -25.166 -29.167 -53.499 -55.5s-51.166 -52.5 -68.499 -78.5z" />
    <glyph glyph-name="thorn" unicode="&#xfe;" horiz-adv-x="539" 
d="M156 56l-0.00195312 -225c0 -20.667 4.66699 -34.167 14 -40.5s26.333 -9.5 51 -9.5h14v-7h-23c-9.33301 0 -23 0.5 -41 1.5s-34 1.5 -48 1.5c-11.333 0 -24.666 -0.5 -39.999 -1.5s-26.666 -1.5 -33.999 -1.5h-14v7h1c23.333 0 38.166 3 44.499 9s9.5 19.667 9.5 41v794
c0 21.333 -3.16699 34.833 -9.5 40.5s-21.166 8.5 -44.499 8.5h-1v7h6c22 0 44.667 4.33301 68 13s37 18.667 41 30h6v-290c47.333 42.667 98 64 152 64c49.333 0 92.333 -20.333 129 -61s55 -104.667 55 -192s-18.333 -151.333 -55 -192s-79.667 -61 -129 -61
c-50 0 -100.667 21.333 -152 64zM415.998 245c0 50.667 -2.66797 92.667 -8.00098 126s-13.333 58.333 -24 75s-21.834 28 -33.501 34s-25.834 9 -42.501 9c-52 0 -102.667 -22.333 -152 -67v-354c52.667 -44.667 103.334 -67 152.001 -67c16.667 0 30.834 3 42.501 9
s22.834 17.333 33.501 34s18.667 41.667 24 75s8 75.333 8 126z" />
    <glyph glyph-name="ydieresis" unicode="&#xff;" horiz-adv-x="465" 
d="M269 75l28.0039 -75.001c-6 0 -12.667 0.166992 -20 0.5s-12.666 0.5 -15.999 0.5c-2 0 -5.83301 -0.166992 -11.5 -0.5s-10.5 -0.5 -14.5 -0.5l-20 -45c-32.667 -72.667 -60 -122.667 -82 -150s-53.667 -41 -95 -41c-27.333 0 -41 9 -41 27c0 8 2.66699 14.167 8 18.5
s12 6.5 20 6.5s20.333 -2.16699 37 -6.5s28.334 -6.5 35.001 -6.5c17.333 0 33.666 11 48.999 33s35.666 62.667 60.999 122l19 42l-164 434c-7.33301 19.333 -15.833 32.333 -25.5 39s-23.834 10 -42.501 10v7h23c4 0 13.167 -0.5 27.5 -1.5s27.833 -1.5 40.5 -1.5
s26.167 0.5 40.5 1.5s23.166 1.5 26.499 1.5h24v-7c-33.333 0 -50 -8 -50 -24c0 -4 1 -9 3 -15l135 -357l110 309c5.33301 14 8 27.333 8 40c0 31.333 -22 47 -66 47v7h10c8 0 19.667 -0.5 35 -1.5s27.666 -1.5 36.999 -1.5c10 0 22.667 0.5 38 1.5s25.666 1.5 30.999 1.5
h17v-7c-27.333 -1.33301 -48.5 -9.66602 -63.5 -24.999s-27.833 -37.333 -38.5 -66zM193.004 627.999c0 -12.667 -4.33301 -23.167 -13 -31.5s-19.334 -12.5 -32.001 -12.5c-12 0 -22.333 4.16699 -31 12.5s-13 18.833 -13 31.5s4.33301 23.334 13 32.001s19 13 31 13
c12.667 0 23.334 -4.33301 32.001 -13s13 -19.334 13 -32.001zM382.004 627.999c0 -12 -4.5 -22.333 -13.5 -31s-19.5 -13 -31.5 -13c-12.667 0 -23.167 4.16699 -31.5 12.5s-12.5 18.833 -12.5 31.5s4.16699 23.334 12.5 32.001s18.833 13 31.5 13
c12 0 22.5 -4.33301 31.5 -13s13.5 -19.334 13.5 -32.001z" />
    <glyph glyph-name="Amacron" unicode="&#x100;" horiz-adv-x="638" 
d="M653 0l-21.002 0.000976562c-4 0 -14.667 0.5 -32 1.5s-31 1.5 -41 1.5c-12 0 -27 -0.5 -45 -1.5s-28.667 -1.5 -32 -1.5h-21v8c34.667 0 52 10.333 52 31c0 7.33301 -2.33301 15.666 -7 24.999l-52 124h-322l-27 -68c-9.33301 -25.333 -14 -45 -14 -59
c0 -35.333 23.667 -53 71 -53v-8h-12c-7.33301 0 -21 0.5 -41 1.5s-34.333 1.5 -43 1.5c-4.66699 0 -16.167 -0.5 -34.5 -1.5s-30.166 -1.5 -35.499 -1.5h-21v8c28 1.33301 51 10.5 69 27.5s35 45.833 51 86.5l187 478l-34 81c6 0 13 -0.166992 21 -0.5s14 -0.5 18 -0.5
s9.5 0.166992 16.5 0.5s13.167 0.5 18.5 0.5l260 -621c14.667 -34.667 38.334 -52 71.001 -52v-8zM287.998 589.001l-152 -391h314zM415.998 797.001h-240v22h240v-22z" />
    <glyph glyph-name="amacron" unicode="&#x101;" horiz-adv-x="500" 
d="M403 -8c-20 0 -35.168 6.33301 -45.501 19s-15.5 28.334 -15.5 47.001c-52 -44 -104.667 -66 -158 -66c-42 0 -74.833 11.333 -98.5 34s-35.5 53.667 -35.5 93c0 71.333 54.333 128.666 163 171.999l129 52v78c0 26 -3.33301 44 -10 54s-20.334 15 -41.001 15
c-33.333 0 -62.666 -8.66699 -87.999 -26s-51.333 -42.333 -78 -75c-9.33301 -11.333 -19 -17 -29 -17c-6.66699 0 -12.667 2.5 -18 7.5s-8 11.167 -8 18.5c0 20 23.333 41.667 70 65s97.334 35 152.001 35c42 0 71.833 -7.83301 89.5 -23.5s26.5 -38.167 26.5 -67.5v-362
c0 -23.333 8 -35 24 -35c16.667 0 32 12 46 36l5 -3c-18 -34 -44.667 -51 -80 -51zM192.999 3c22.667 0 47.833 6.16699 75.5 18.5s52.167 27.833 73.5 46.5v18v248l-126 -52c-36 -14.667 -60 -35 -72 -61s-18 -59.333 -18 -100c0 -78.667 22.333 -118 67 -118zM372.998 608
h-240v22h240v-22z" />
    <glyph glyph-name="Abreve" unicode="&#x102;" horiz-adv-x="638" 
d="M653 0l-21.002 0.000976562c-4 0 -14.667 0.5 -32 1.5s-31 1.5 -41 1.5c-12 0 -27 -0.5 -45 -1.5s-28.667 -1.5 -32 -1.5h-21v8c34.667 0 52 10.333 52 31c0 7.33301 -2.33301 15.666 -7 24.999l-52 124h-322l-27 -68c-9.33301 -25.333 -14 -45 -14 -59
c0 -35.333 23.667 -53 71 -53v-8h-12c-7.33301 0 -21 0.5 -41 1.5s-34.333 1.5 -43 1.5c-4.66699 0 -16.167 -0.5 -34.5 -1.5s-30.166 -1.5 -35.499 -1.5h-21v8c28 1.33301 51 10.5 69 27.5s35 45.833 51 86.5l187 478l-34 81c6 0 13 -0.166992 21 -0.5s14 -0.5 18 -0.5
s9.5 0.166992 16.5 0.5s13.167 0.5 18.5 0.5l260 -621c14.667 -34.667 38.334 -52 71.001 -52v-8zM287.998 589.001l-152 -391h314zM296.998 758.001c-30.667 0 -57 11.667 -79 35s-38.667 50 -50 80l6 3c22.667 -44.667 63.667 -67 123 -67s100.333 22.333 123 67l6 -3
c-11.333 -30 -28 -56.667 -50 -80s-48.333 -35 -79 -35z" />
    <glyph glyph-name="abreve" unicode="&#x103;" horiz-adv-x="500" 
d="M403 -8c-20 0 -35.168 6.33301 -45.501 19s-15.5 28.334 -15.5 47.001c-52 -44 -104.667 -66 -158 -66c-42 0 -74.833 11.333 -98.5 34s-35.5 53.667 -35.5 93c0 71.333 54.333 128.666 163 171.999l129 52v78c0 26 -3.33301 44 -10 54s-20.334 15 -41.001 15
c-33.333 0 -62.666 -8.66699 -87.999 -26s-51.333 -42.333 -78 -75c-9.33301 -11.333 -19 -17 -29 -17c-6.66699 0 -12.667 2.5 -18 7.5s-8 11.167 -8 18.5c0 20 23.333 41.667 70 65s97.334 35 152.001 35c42 0 71.833 -7.83301 89.5 -23.5s26.5 -38.167 26.5 -67.5v-362
c0 -23.333 8 -35 24 -35c16.667 0 32 12 46 36l5 -3c-18 -34 -44.667 -51 -80 -51zM192.999 3c22.667 0 47.833 6.16699 75.5 18.5s52.167 27.833 73.5 46.5v18v248l-126 -52c-36 -14.667 -60 -35 -72 -61s-18 -59.333 -18 -100c0 -78.667 22.333 -118 67 -118zM253.998 569
c-30.667 0 -57 11.667 -79 35s-38.667 50 -50 80l6 3c22.667 -44.667 63.667 -67 123 -67s100.333 22.333 123 67l6 -3c-11.333 -30 -28 -56.667 -50 -80s-48.333 -35 -79 -35z" />
    <glyph glyph-name="Aogonek" unicode="&#x104;" horiz-adv-x="638" 
d="M481 -178c-26 0 -46.668 6.16699 -62.001 18.5s-23 28.5 -23 48.5c0 21.333 14.333 42.333 43 63s59.334 38.334 92.001 53.001l-77 183h-322l-27 -68c-9.33301 -25.333 -14 -45 -14 -59c0 -35.333 23.667 -53 71 -53v-8h-12c-7.33301 0 -21 0.5 -41 1.5
s-34.333 1.5 -43 1.5c-4.66699 0 -16.167 -0.5 -34.5 -1.5s-30.166 -1.5 -35.499 -1.5h-21v8c28 1.33301 51 10.5 69 27.5s35 45.833 51 86.5l187 478l-34 81c6 0 13 -0.166992 21 -0.5s14 -0.5 18 -0.5s9.5 0.166992 16.5 0.5s13.167 0.5 18.5 0.5l260 -621
c14.667 -34.667 38.334 -52 71.001 -52v-8h-21c-4 0 -14.667 0.5 -32 1.5s-31 1.5 -41 1.5c-5.33301 0 -11 -0.333008 -17 -1c-58.667 -27.333 -88 -59.333 -88 -96c0 -18 5.83301 -32.5 17.5 -43.5s26.5 -16.5 44.5 -16.5c27.333 0 51.666 13.333 72.999 40l6 -4
c-12 -16.667 -28.333 -30.834 -49 -42.501s-42.334 -17.5 -65.001 -17.5zM449.999 198l-162 391l-152 -391h314z" />
    <glyph glyph-name="aogonek" unicode="&#x105;" horiz-adv-x="500" 
d="M408 -8l-4.99902 0.00195312c-20 0 -35.167 6.33301 -45.5 19s-15.5 28.334 -15.5 47.001c-52 -44 -104.667 -66 -158 -66c-42 0 -74.833 11.333 -98.5 34s-35.5 53.667 -35.5 93c0 71.333 54.333 128.666 163 171.999l129 52v78c0 26 -3.33301 44 -10 54
s-20.334 15 -41.001 15c-33.333 0 -62.666 -8.66699 -87.999 -26s-51.333 -42.333 -78 -75c-9.33301 -11.333 -19 -17 -29 -17c-6.66699 0 -12.667 2.5 -18 7.5s-8 11.167 -8 18.5c0 20 23.333 41.667 70 65s97.334 35 152.001 35c42 0 71.833 -7.83301 89.5 -23.5
s26.5 -38.167 26.5 -67.5v-362c0 -23.333 8 -35 24 -35c16.667 0 32 12 46 36l5 -3c-12 -22.667 -29.667 -38.667 -53 -48c-52 -24 -78 -53.667 -78 -89c0 -18 5.83301 -32.5 17.5 -43.5s26.5 -16.5 44.5 -16.5c27.333 0 51.666 13.333 72.999 40l6 -4
c-12 -16.667 -28.333 -30.834 -49 -42.501s-42.334 -17.5 -65.001 -17.5c-26 0 -46.667 6.16699 -62 18.5s-23 28.5 -23 48.5c0 31.333 38 65.666 114 102.999zM193.001 3.00195c22.667 0 47.833 6.16699 75.5 18.5s52.167 27.833 73.5 46.5v266l-126 -52
c-36 -14.667 -60 -35 -72 -61s-18 -59.333 -18 -100c0 -78.667 22.333 -118 67 -118z" />
    <glyph glyph-name="Cacute" unicode="&#x106;" horiz-adv-x="612" 
d="M317 -8c-83.333 0 -151.333 33.1689 -204 99.502s-79 150.166 -79 251.499c0 57.333 9.5 109.166 28.5 155.499s43.333 83 73 110s60.667 47.5 93 61.5s63.833 21 94.5 21c23.333 0 49.333 -3.16699 78 -9.5s46 -9.5 52 -9.5c23.333 0 34.333 11 33 33l6 2l92 -227l-6 -3
c-45.333 75.333 -88 128.333 -128 159s-82.333 46 -127 46c-62 0 -115.833 -25.167 -161.5 -75.5s-68.5 -116.833 -68.5 -199.5c0 -109.333 25.833 -197.833 77.5 -265.5s115.834 -101.5 192.501 -101.5c92 0 163 46.667 213 140l7 -3
c-25.333 -53.333 -61.833 -97.5 -109.5 -132.5s-99.834 -52.5 -156.501 -52.5zM267 733.002l-6.00195 4c12.667 23.333 26.667 52.833 42 88.5s27.666 60.5 36.999 74.5c6.66699 10 15.334 15 26.001 15c8 0 14.833 -2.83301 20.5 -8.5s8.5 -12.167 8.5 -19.5s-2 -14 -6 -20
c-7.33301 -10.667 -25.166 -29.167 -53.499 -55.5s-51.166 -52.5 -68.499 -78.5z" />
    <glyph glyph-name="cacute" unicode="&#x107;" horiz-adv-x="472" 
d="M252 -8c-56 0 -104.999 22.666 -146.999 67.999s-63 104.333 -63 177c0 78.667 21.333 141.834 64 189.501s93 71.5 151 71.5c46 0 86 -14.333 120 -43s51 -58 51 -88c0 -8 -2.5 -14.667 -7.5 -20s-11.5 -8 -19.5 -8c-13.333 0 -22.333 6.66699 -27 20
c-1.33301 4 -4 15.667 -8 35c-12.667 64 -49.334 96 -110.001 96c-44.667 0 -78.834 -19.667 -102.501 -59s-35.5 -91 -35.5 -155c0 -82 15.333 -146.167 46 -192.5s68.334 -69.5 113.001 -69.5c71.333 0 121 42 149 126l6 -2c-31.333 -97.333 -91.333 -146 -180 -146z
M201.001 541.999l-6.00195 4c12.667 23.333 26.667 52.833 42 88.5s27.666 60.5 36.999 74.5c6.66699 10 15.334 15 26.001 15c8 0 14.833 -2.66699 20.5 -8s8.5 -12 8.5 -20c0 -7.33301 -2 -14 -6 -20c-7.33301 -10.667 -25.166 -29.167 -53.499 -55.5
s-51.166 -52.5 -68.499 -78.5z" />
    <glyph glyph-name="Ccircumflex" unicode="&#x108;" horiz-adv-x="612" 
d="M317 -8c-83.333 0 -151.333 33.1689 -204 99.502s-79 150.166 -79 251.499c0 57.333 9.5 109.166 28.5 155.499s43.333 83 73 110s60.667 47.5 93 61.5s63.833 21 94.5 21c23.333 0 49.333 -3.16699 78 -9.5s46 -9.5 52 -9.5c23.333 0 34.333 11 33 33l6 2l92 -227l-6 -3
c-45.333 75.333 -88 128.333 -128 159s-82.333 46 -127 46c-62 0 -115.833 -25.167 -161.5 -75.5s-68.5 -116.833 -68.5 -199.5c0 -109.333 25.833 -197.833 77.5 -265.5s115.834 -101.5 192.501 -101.5c92 0 163 46.667 213 140l7 -3
c-25.333 -53.333 -61.833 -97.5 -109.5 -132.5s-99.834 -52.5 -156.501 -52.5zM436 737.002l-6 -4c-10.667 14 -21.667 27.167 -33 39.5s-25.5 27 -42.5 44l-32.5 32.5l-32.5 -32.5c-17 -17 -31.167 -31.667 -42.5 -44s-22.333 -25.5 -33 -39.5l-6 4
c9.33301 14 18.5 29.333 27.5 46l28.5 55.5c10 20.333 17.333 34.5 22 42.5c6.66699 12.667 12.5 21.5 17.5 26.5s11.167 7.5 18.5 7.5s13.5 -2.5 18.5 -7.5s10.833 -13.833 17.5 -26.5c4.66699 -8 12 -22.167 22 -42.5l28.5 -55.5c9 -16.667 18.167 -32 27.5 -46z" />
    <glyph glyph-name="ccircumflex" unicode="&#x109;" horiz-adv-x="472" 
d="M252 -8c-56 0 -104.999 22.666 -146.999 67.999s-63 104.333 -63 177c0 78.667 21.333 141.834 64 189.501s93 71.5 151 71.5c46 0 86 -14.333 120 -43s51 -58 51 -88c0 -8 -2.5 -14.667 -7.5 -20s-11.5 -8 -19.5 -8c-13.333 0 -22.333 6.66699 -27 20
c-1.33301 4 -4 15.667 -8 35c-12.667 64 -49.334 96 -110.001 96c-44.667 0 -78.834 -19.667 -102.501 -59s-35.5 -91 -35.5 -155c0 -82 15.333 -146.167 46 -192.5s68.334 -69.5 113.001 -69.5c71.333 0 121 42 149 126l6 -2c-31.333 -97.333 -91.333 -146 -180 -146z
M370.001 545.999l-6 -4c-10.667 14 -21.667 27.167 -33 39.5s-25.5 27 -42.5 44l-32.5 32.5l-32.5 -32.5c-17 -17 -31.167 -31.667 -42.5 -44s-22.333 -25.5 -33 -39.5l-6 4c9.33301 14 18.5 29.333 27.5 46l28.5 55.5c10 20.333 17.333 34.5 22 42.5
c6.66699 12.667 12.5 21.5 17.5 26.5s11.167 7.5 18.5 7.5s13.5 -2.5 18.5 -7.5s10.833 -13.833 17.5 -26.5c4.66699 -8 12 -22.167 22 -42.5l28.5 -55.5c9 -16.667 18.167 -32 27.5 -46z" />
    <glyph glyph-name="Cdotaccent" unicode="&#x10a;" horiz-adv-x="612" 
d="M317 -8c-83.333 0 -151.333 33.1689 -204 99.502s-79 150.166 -79 251.499c0 57.333 9.5 109.166 28.5 155.499s43.333 83 73 110s60.667 47.5 93 61.5s63.833 21 94.5 21c23.333 0 49.333 -3.16699 78 -9.5s46 -9.5 52 -9.5c23.333 0 34.333 11 33 33l6 2l92 -227l-6 -3
c-45.333 75.333 -88 128.333 -128 159s-82.333 46 -127 46c-62 0 -115.833 -25.167 -161.5 -75.5s-68.5 -116.833 -68.5 -199.5c0 -109.333 25.833 -197.833 77.5 -265.5s115.834 -101.5 192.501 -101.5c92 0 163 46.667 213 140l7 -3
c-25.333 -53.333 -61.833 -97.5 -109.5 -132.5s-99.834 -52.5 -156.501 -52.5zM322 757.002c-13.333 0 -24.666 4.5 -33.999 13.5s-14 20.5 -14 34.5s4.66699 25.667 14 35s20.666 14 33.999 14s24.833 -4.66699 34.5 -14s14.5 -21 14.5 -35s-4.66699 -25.5 -14 -34.5
s-21 -13.5 -35 -13.5z" />
    <glyph glyph-name="cdotaccent" unicode="&#x10b;" horiz-adv-x="472" 
d="M252 -8c-56 0 -104.999 22.666 -146.999 67.999s-63 104.333 -63 177c0 78.667 21.333 141.834 64 189.501s93 71.5 151 71.5c46 0 86 -14.333 120 -43s51 -58 51 -88c0 -8 -2.5 -14.667 -7.5 -20s-11.5 -8 -19.5 -8c-13.333 0 -22.333 6.66699 -27 20
c-1.33301 4 -4 15.667 -8 35c-12.667 64 -49.334 96 -110.001 96c-44.667 0 -78.834 -19.667 -102.501 -59s-35.5 -91 -35.5 -155c0 -82 15.333 -146.167 46 -192.5s68.334 -69.5 113.001 -69.5c71.333 0 121 42 149 126l6 -2c-31.333 -97.333 -91.333 -146 -180 -146z
M256.001 575.999c-13.333 0 -24.666 4.5 -33.999 13.5s-14 20.5 -14 34.5s4.66699 25.667 14 35s20.666 14 33.999 14s24.833 -4.66699 34.5 -14s14.5 -21 14.5 -35s-4.66699 -25.5 -14 -34.5s-21 -13.5 -35 -13.5z" />
    <glyph glyph-name="Ccaron" unicode="&#x10c;" horiz-adv-x="612" 
d="M317 -8c-83.333 0 -151.333 33.1689 -204 99.502s-79 150.166 -79 251.499c0 57.333 9.5 109.166 28.5 155.499s43.333 83 73 110s60.667 47.5 93 61.5s63.833 21 94.5 21c23.333 0 49.333 -3.16699 78 -9.5s46 -9.5 52 -9.5c23.333 0 34.333 11 33 33l6 2l92 -227l-6 -3
c-45.333 75.333 -88 128.333 -128 159s-82.333 46 -127 46c-62 0 -115.833 -25.167 -161.5 -75.5s-68.5 -116.833 -68.5 -199.5c0 -109.333 25.833 -197.833 77.5 -265.5s115.834 -101.5 192.501 -101.5c92 0 163 46.667 213 140l7 -3
c-25.333 -53.333 -61.833 -97.5 -109.5 -132.5s-99.834 -52.5 -156.501 -52.5zM322 734.002c-7.33301 0 -13.5 2.5 -18.5 7.5s-10.833 13.833 -17.5 26.5c-4.66699 8 -12 22.167 -22 42.5l-28.5 55.5c-9 16.667 -18.167 32 -27.5 46l6 4c10.667 -14 21.667 -27.167 33 -39.5
s25.5 -27 42.5 -44l32.5 -32.5l32.5 32.5c17 17 31.167 31.667 42.5 44s22.333 25.5 33 39.5l6 -4c-9.33301 -14 -18.5 -29.333 -27.5 -46l-28.5 -55.5c-10 -20.333 -17.333 -34.5 -22 -42.5c-6.66699 -12.667 -12.5 -21.5 -17.5 -26.5s-11.167 -7.5 -18.5 -7.5z" />
    <glyph glyph-name="ccaron" unicode="&#x10d;" horiz-adv-x="472" 
d="M252 -8c-56 0 -104.999 22.666 -146.999 67.999s-63 104.333 -63 177c0 78.667 21.333 141.834 64 189.501s93 71.5 151 71.5c46 0 86 -14.333 120 -43s51 -58 51 -88c0 -8 -2.5 -14.667 -7.5 -20s-11.5 -8 -19.5 -8c-13.333 0 -22.333 6.66699 -27 20
c-1.33301 4 -4 15.667 -8 35c-12.667 64 -49.334 96 -110.001 96c-44.667 0 -78.834 -19.667 -102.501 -59s-35.5 -91 -35.5 -155c0 -82 15.333 -146.167 46 -192.5s68.334 -69.5 113.001 -69.5c71.333 0 121 42 149 126l6 -2c-31.333 -97.333 -91.333 -146 -180 -146z
M256.001 542.999c-7.33301 0 -13.5 2.5 -18.5 7.5s-10.833 13.833 -17.5 26.5c-4.66699 8 -12 22.167 -22 42.5l-28.5 55.5c-9 16.667 -18.167 32 -27.5 46l6 4c10.667 -14 21.667 -27.167 33 -39.5s25.5 -27 42.5 -44l32.5 -32.5l32.5 32.5c17 17 31.167 31.667 42.5 44
s22.333 25.5 33 39.5l6 -4c-9.33301 -14 -18.5 -29.333 -27.5 -46l-28.5 -55.5c-10 -20.333 -17.333 -34.5 -22 -42.5c-6.66699 -12.667 -12.5 -21.5 -17.5 -26.5s-11.167 -7.5 -18.5 -7.5z" />
    <glyph glyph-name="Dcaron" unicode="&#x10e;" horiz-adv-x="634" 
d="M520 340c0 123.333 -17.167 209.334 -51.5 258.001s-97.833 73 -190.5 73h-114v-661h114c92.667 0 156.167 24.167 190.5 72.5s51.5 134.166 51.5 257.499zM599 340.001c0 -106.667 -28.333 -190 -85 -250s-130 -90 -220 -90h-75c-10 0 -24 0.166992 -42 0.5
s-33.667 0.5 -47 0.5c-10.667 0 -23.334 -0.166992 -38.001 -0.5s-25.334 -0.5 -32.001 -0.5h-16v8h1c22 0 36 2.83301 42 8.5s9 19.167 9 40.5v567c0 21.333 -3 34.833 -9 40.5s-20 8.5 -42 8.5h-1v8h16c6.66699 0 17.334 -0.166992 32.001 -0.5s27.334 -0.5 38.001 -0.5
c13.333 0 29 0.166992 47 0.5s32 0.5 42 0.5h75c90 0 163.333 -30 220 -90s85 -143.667 85 -251zM308 734.001c-7.33301 0 -13.5 2.5 -18.5 7.5s-10.833 13.833 -17.5 26.5c-4.66699 8 -12 22.167 -22 42.5l-28.5 55.5c-9 16.667 -18.167 32 -27.5 46l6 4
c10.667 -14 21.667 -27.167 33 -39.5s25.5 -27 42.5 -44l32.5 -32.5l32.5 32.5c17 17 31.167 31.667 42.5 44s22.333 25.5 33 39.5l6 -4c-9.33301 -14 -18.5 -29.333 -27.5 -46l-28.5 -55.5c-10 -20.333 -17.333 -34.5 -22 -42.5c-6.66699 -12.667 -12.5 -21.5 -17.5 -26.5
s-11.167 -7.5 -18.5 -7.5z" />
    <glyph glyph-name="dcaron" unicode="&#x10f;" horiz-adv-x="551" 
d="M231 -8c-49.333 0 -92.333 20.333 -129 61s-55 104.667 -55 192s18.333 151.333 55 192s79.667 61 129 61c54 0 104.667 -21.333 152 -64v191c0 21.333 -3.16699 34.833 -9.5 40.5s-21.166 8.5 -44.499 8.5h-1v7h6c22 0 44.667 4.33301 68 13s37 18.667 41 30h6v-667
c0 -21.333 3.16699 -35 9.5 -41s21.166 -9 44.499 -9h1v-7h-14c-8 -0 -19.5 0.333008 -34.5 1s-28.167 1 -39.5 1c-6 0 -12.5 -0.333008 -19.5 -1s-11.5 -1 -13.5 -1v56c-51.333 -42.667 -102 -64 -152 -64zM231 1c48.667 0 99.333 22.333 152 67v354
c-49.333 44.667 -100 67 -152 67c-16.667 0 -30.834 -3 -42.501 -9s-22.834 -17.333 -33.501 -34s-18.667 -41.667 -24 -75s-8 -75.333 -8 -126s2.66699 -92.667 8 -126s13.333 -58.333 24 -75s21.834 -28 33.501 -34s25.834 -9 42.501 -9zM548.999 490l-7.00098 2.00098
c5.33301 30 9.5 68 12.5 114s6.5 76.667 10.5 92c5.33301 17.333 15.666 26 30.999 26c8 0 15 -2.5 21 -7.5s9 -11.5 9 -19.5c0 -7.33301 -1 -13.333 -3 -18c-3.33301 -10.667 -14.166 -36.834 -32.499 -78.501s-32.166 -78.5 -41.499 -110.5z" />
    <glyph glyph-name="Dcroat" unicode="&#x110;" horiz-adv-x="634" 
d="M599 340c0 -106.667 -28.333 -190 -85 -250s-130 -90 -220 -90h-75c-10 0 -24 0.166992 -42 0.5s-33.667 0.5 -47 0.5c-10.667 0 -23.334 -0.166992 -38.001 -0.5s-25.334 -0.5 -32.001 -0.5h-16v8h1c22 0 36 2.83301 42 8.5s9 19.167 9 40.5v285h-73v10h73v272
c0 21.333 -3 34.833 -9 40.5s-20 8.5 -42 8.5h-1v8h16c6.66699 0 17.334 -0.166992 32.001 -0.5s27.334 -0.5 38.001 -0.5c13.333 0 29 0.166992 47 0.5s32 0.5 42 0.5h75c90 0 163.333 -30 220 -90s85 -143.667 85 -251zM300 342l-136 0.000976562v-332h114
c92.667 0 156.167 24.167 190.5 72.5s51.5 134.166 51.5 257.499s-17.167 209.333 -51.5 258s-97.833 73 -190.5 73h-114v-319h136v-10z" />
    <glyph glyph-name="dcroat" unicode="&#x111;" horiz-adv-x="539" 
d="M231 -8c-49.333 0 -92.333 20.333 -129 61s-55 104.667 -55 192s18.333 151.333 55 192s79.667 61 129 61c54 0 104.667 -21.333 152 -64v132h-107v8h107v51c0 21.333 -3.16699 34.833 -9.5 40.5s-21.166 8.5 -44.499 8.5h-1v7h6c22 0 44.667 4.33301 68 13
s37 18.667 41 30h6v-150h65v-8h-65v-509c0 -21.333 3.16699 -35 9.5 -41s21.166 -9 44.499 -9h1v-7h-14c-8 -0 -19.5 0.333008 -34.5 1s-28.167 1 -39.5 1c-6 0 -12.5 -0.333008 -19.5 -1s-11.5 -1 -13.5 -1v56c-51.333 -42.667 -102 -64 -152 -64zM231 1
c48.667 0 99.333 22.333 152 67v354c-49.333 44.667 -100 67 -152 67c-16.667 0 -30.834 -3 -42.501 -9s-22.834 -17.333 -33.501 -34s-18.667 -41.667 -24 -75s-8 -75.333 -8 -126s2.66699 -92.667 8 -126s13.333 -58.333 24 -75s21.834 -28 33.501 -34
s25.834 -9 42.501 -9z" />
    <glyph glyph-name="Emacron" unicode="&#x112;" horiz-adv-x="615" 
d="M493 -31l-5.99707 1.99902c1.33301 9.33301 -0.333984 16.5 -5.00098 21.5s-13.334 7.5 -26.001 7.5h-237c-10 0 -24 0.166992 -42 0.5s-33.667 0.5 -47 0.5c-10.667 0 -23.334 -0.166992 -38.001 -0.5s-25.334 -0.5 -32.001 -0.5h-16v8h1c22 0 36 2.83301 42 8.5
s9 19.167 9 40.5v567c0 21.333 -3 34.833 -9 40.5s-20 8.5 -42 8.5h-1v8h16c6.66699 0 17.334 -0.166992 32.001 -0.5s27.334 -0.5 38.001 -0.5c13.333 0 29 0.166992 47 0.5s32 0.5 42 0.5h224c13.333 0 22.5 2.5 27.5 7.5s6.83301 12.5 5.5 22.5l6 2l92 -226l-6 -3
c-51.333 72 -89 121.333 -113 148c-24 26 -56 39 -96 39h-195v-320h128c36.667 0 61 10.333 73 31s20.333 54.334 25 101.001h7v-277h-7c-2.66699 23.333 -5.33398 41.666 -8.00098 54.999s-7.33398 27 -14.001 41s-16.167 24 -28.5 30s-28.166 9 -47.499 9h-128v-331h206
c22 0 40.167 2.83301 54.5 8.5s29.833 17.834 46.5 36.501c33.333 38 70.333 91.333 111 160l6 -3zM414.003 796.999h-240v22h240v-22z" />
    <glyph glyph-name="emacron" unicode="&#x113;" horiz-adv-x="478" 
d="M252 -8c-56 0 -105.002 22.5 -147.002 67.5s-63 103.833 -63 176.5c0 80 21.333 143.667 64 191s93 71 151 71c46.667 0 88.334 -16.5 125.001 -49.5s53.667 -77.167 51 -132.5h-314c-0.666992 -10 -1 -25 -1 -45c0 -72.667 14.5 -133.667 43.5 -183s67.5 -74 115.5 -74
c70.667 0 120.334 42 149.001 126l6 -2c-31.333 -97.333 -91.333 -146 -180 -146zM119.998 325l245 0.000976562c-2.66699 110 -40.334 165 -113.001 165c-37.333 0 -67.166 -15.333 -89.499 -46s-36.5 -70.334 -42.5 -119.001zM372.998 608.001h-240v22h240v-22z" />
    <glyph glyph-name="Ebreve" unicode="&#x114;" horiz-adv-x="615" 
d="M493 -31l-5.99707 1.99902c1.33301 9.33301 -0.333984 16.5 -5.00098 21.5s-13.334 7.5 -26.001 7.5h-237c-10 0 -24 0.166992 -42 0.5s-33.667 0.5 -47 0.5c-10.667 0 -23.334 -0.166992 -38.001 -0.5s-25.334 -0.5 -32.001 -0.5h-16v8h1c22 0 36 2.83301 42 8.5
s9 19.167 9 40.5v567c0 21.333 -3 34.833 -9 40.5s-20 8.5 -42 8.5h-1v8h16c6.66699 0 17.334 -0.166992 32.001 -0.5s27.334 -0.5 38.001 -0.5c13.333 0 29 0.166992 47 0.5s32 0.5 42 0.5h224c13.333 0 22.5 2.5 27.5 7.5s6.83301 12.5 5.5 22.5l6 2l92 -226l-6 -3
c-51.333 72 -89 121.333 -113 148c-24 26 -56 39 -96 39h-195v-320h128c36.667 0 61 10.333 73 31s20.333 54.334 25 101.001h7v-277h-7c-2.66699 23.333 -5.33398 41.666 -8.00098 54.999s-7.33398 27 -14.001 41s-16.167 24 -28.5 30s-28.166 9 -47.499 9h-128v-331h206
c22 0 40.167 2.83301 54.5 8.5s29.833 17.834 46.5 36.501c33.333 38 70.333 91.333 111 160l6 -3zM295.003 757.999c-30.667 0 -57 11.667 -79 35s-38.667 50 -50 80l6 3c22.667 -44.667 63.667 -67 123 -67s100.333 22.333 123 67l6 -3c-11.333 -30 -28 -56.667 -50 -80
s-48.333 -35 -79 -35z" />
    <glyph glyph-name="ebreve" unicode="&#x115;" horiz-adv-x="478" 
d="M252 -8c-56 0 -105.002 22.5 -147.002 67.5s-63 103.833 -63 176.5c0 80 21.333 143.667 64 191s93 71 151 71c46.667 0 88.334 -16.5 125.001 -49.5s53.667 -77.167 51 -132.5h-314c-0.666992 -10 -1 -25 -1 -45c0 -72.667 14.5 -133.667 43.5 -183s67.5 -74 115.5 -74
c70.667 0 120.334 42 149.001 126l6 -2c-31.333 -97.333 -91.333 -146 -180 -146zM119.998 325l245 0.000976562c-2.66699 110 -40.334 165 -113.001 165c-37.333 0 -67.166 -15.333 -89.499 -46s-36.5 -70.334 -42.5 -119.001zM253.998 569.001
c-30.667 0 -57 11.667 -79 35s-38.667 50 -50 80l6 3c22.667 -44.667 63.667 -67 123 -67s100.333 22.333 123 67l6 -3c-11.333 -30 -28 -56.667 -50 -80s-48.333 -35 -79 -35z" />
    <glyph glyph-name="Edotaccent" unicode="&#x116;" horiz-adv-x="615" 
d="M493 -31l-5.99707 1.99902c1.33301 9.33301 -0.333984 16.5 -5.00098 21.5s-13.334 7.5 -26.001 7.5h-237c-10 0 -24 0.166992 -42 0.5s-33.667 0.5 -47 0.5c-10.667 0 -23.334 -0.166992 -38.001 -0.5s-25.334 -0.5 -32.001 -0.5h-16v8h1c22 0 36 2.83301 42 8.5
s9 19.167 9 40.5v567c0 21.333 -3 34.833 -9 40.5s-20 8.5 -42 8.5h-1v8h16c6.66699 0 17.334 -0.166992 32.001 -0.5s27.334 -0.5 38.001 -0.5c13.333 0 29 0.166992 47 0.5s32 0.5 42 0.5h224c13.333 0 22.5 2.5 27.5 7.5s6.83301 12.5 5.5 22.5l6 2l92 -226l-6 -3
c-51.333 72 -89 121.333 -113 148c-24 26 -56 39 -96 39h-195v-320h128c36.667 0 61 10.333 73 31s20.333 54.334 25 101.001h7v-277h-7c-2.66699 23.333 -5.33398 41.666 -8.00098 54.999s-7.33398 27 -14.001 41s-16.167 24 -28.5 30s-28.166 9 -47.499 9h-128v-331h206
c22 0 40.167 2.83301 54.5 8.5s29.833 17.834 46.5 36.501c33.333 38 70.333 91.333 111 160l6 -3zM295.003 754.999c-13.333 0 -24.666 4.5 -33.999 13.5s-14 20.5 -14 34.5s4.66699 25.667 14 35s20.666 14 33.999 14s24.833 -4.66699 34.5 -14s14.5 -21 14.5 -35
s-4.66699 -25.5 -14 -34.5s-21 -13.5 -35 -13.5z" />
    <glyph glyph-name="edotaccent" unicode="&#x117;" horiz-adv-x="478" 
d="M252 -8c-56 0 -105.002 22.5 -147.002 67.5s-63 103.833 -63 176.5c0 80 21.333 143.667 64 191s93 71 151 71c46.667 0 88.334 -16.5 125.001 -49.5s53.667 -77.167 51 -132.5h-314c-0.666992 -10 -1 -25 -1 -45c0 -72.667 14.5 -133.667 43.5 -183s67.5 -74 115.5 -74
c70.667 0 120.334 42 149.001 126l6 -2c-31.333 -97.333 -91.333 -146 -180 -146zM119.998 325l245 0.000976562c-2.66699 110 -40.334 165 -113.001 165c-37.333 0 -67.166 -15.333 -89.499 -46s-36.5 -70.334 -42.5 -119.001zM253.998 576.001
c-13.333 0 -24.666 4.5 -33.999 13.5s-14 20.5 -14 34.5s4.66699 25.667 14 35s20.666 14 33.999 14s24.833 -4.66699 34.5 -14s14.5 -21 14.5 -35s-4.66699 -25.5 -14 -34.5s-21 -13.5 -35 -13.5z" />
    <glyph glyph-name="Eogonek" unicode="&#x118;" horiz-adv-x="615" 
d="M493 -31l-5.99512 2c1.33301 9.33301 -0.333984 16.5 -5.00098 21.5s-13.334 7.5 -26.001 7.5h-35c-56.667 -26 -85 -57.333 -85 -94c0 -18 5.83301 -32.5 17.5 -43.5s26.5 -16.5 44.5 -16.5c27.333 0 51.666 13.333 72.999 40l6 -4
c-12 -16.667 -28.333 -30.834 -49 -42.501s-42.334 -17.5 -65.001 -17.5c-26 0 -46.667 6.16699 -62 18.5s-23 28.5 -23 48.5c0 37.333 43 74.333 129 111h-188c-10 0 -24 0.166992 -42 0.5s-33.667 0.5 -47 0.5c-10.667 0 -23.334 -0.166992 -38.001 -0.5
s-25.334 -0.5 -32.001 -0.5h-16v8h1c22 0 36 2.83301 42 8.5s9 19.167 9 40.5v567c0 21.333 -3 34.833 -9 40.5s-20 8.5 -42 8.5h-1v8h16c6.66699 0 17.334 -0.166992 32.001 -0.5s27.334 -0.5 38.001 -0.5c13.333 0 29 0.166992 47 0.5s32 0.5 42 0.5h224
c13.333 0 22.5 2.5 27.5 7.5s6.83301 12.5 5.5 22.5l6 2l92 -226l-6 -3c-51.333 72 -89 121.333 -113 148c-24 26 -56 39 -96 39h-195v-320h128c36.667 0 61 10.333 73 31s20.333 54.334 25 101.001h7v-277h-7c-2.66699 23.333 -5.33398 41.666 -8.00098 54.999
s-7.33398 27 -14.001 41s-16.167 24 -28.5 30s-28.166 9 -47.499 9h-128v-331h206c22 0 40.167 2.83301 54.5 8.5s29.833 17.834 46.5 36.501c33.333 38 70.333 91.333 111 160l6 -3z" />
    <glyph glyph-name="eogonek" unicode="&#x119;" horiz-adv-x="478" 
d="M252 -8c-56 0 -105 22.501 -147 67.501s-63 103.833 -63 176.5c0 80 21.333 143.667 64 191s93 71 151 71c46.667 0 88.334 -16.5 125.001 -49.5s53.667 -77.167 51 -132.5h-314c-0.666992 -10 -1 -25 -1 -45c0 -72.667 14.5 -133.667 43.5 -183s67.5 -74 115.5 -74
c70.667 0 120.334 42 149.001 126l6 -2c-22 -68.667 -60.667 -115 -116 -139c-56 -24 -84 -55 -84 -93c0 -18 5.83301 -32.5 17.5 -43.5s26.5 -16.5 44.5 -16.5c27.333 0 51.666 13.333 72.999 40l6 -4c-12 -16.667 -28.333 -30.834 -49 -42.501
s-42.334 -17.5 -65.001 -17.5c-26 0 -46.667 6.16699 -62 18.5s-23 28.5 -23 48.5c0 34 40 69.667 120 107c-10 -2.66699 -24 -4 -42 -4zM120 325.001l245 0.000976562c-2.66699 110 -40.334 165 -113.001 165c-37.333 0 -67.166 -15.333 -89.499 -46
s-36.5 -70.334 -42.5 -119.001z" />
    <glyph glyph-name="Ecaron" unicode="&#x11a;" horiz-adv-x="615" 
d="M493 -31l-5.99707 1.99902c1.33301 9.33301 -0.333984 16.5 -5.00098 21.5s-13.334 7.5 -26.001 7.5h-237c-10 0 -24 0.166992 -42 0.5s-33.667 0.5 -47 0.5c-10.667 0 -23.334 -0.166992 -38.001 -0.5s-25.334 -0.5 -32.001 -0.5h-16v8h1c22 0 36 2.83301 42 8.5
s9 19.167 9 40.5v567c0 21.333 -3 34.833 -9 40.5s-20 8.5 -42 8.5h-1v8h16c6.66699 0 17.334 -0.166992 32.001 -0.5s27.334 -0.5 38.001 -0.5c13.333 0 29 0.166992 47 0.5s32 0.5 42 0.5h224c13.333 0 22.5 2.5 27.5 7.5s6.83301 12.5 5.5 22.5l6 2l92 -226l-6 -3
c-51.333 72 -89 121.333 -113 148c-24 26 -56 39 -96 39h-195v-320h128c36.667 0 61 10.333 73 31s20.333 54.334 25 101.001h7v-277h-7c-2.66699 23.333 -5.33398 41.666 -8.00098 54.999s-7.33398 27 -14.001 41s-16.167 24 -28.5 30s-28.166 9 -47.499 9h-128v-331h206
c22 0 40.167 2.83301 54.5 8.5s29.833 17.834 46.5 36.501c33.333 38 70.333 91.333 111 160l6 -3zM295.003 731.999c-7.33301 0 -13.5 2.5 -18.5 7.5s-10.833 13.833 -17.5 26.5c-4.66699 8 -12 22.167 -22 42.5l-28.5 55.5c-9 16.667 -18.167 32 -27.5 46l6 4
c10.667 -14 21.667 -27.167 33 -39.5s25.5 -27 42.5 -44l32.5 -32.5l32.5 32.5c17 17 31.167 31.667 42.5 44s22.333 25.5 33 39.5l6 -4c-9.33301 -14 -18.5 -29.333 -27.5 -46l-28.5 -55.5c-10 -20.333 -17.333 -34.5 -22 -42.5c-6.66699 -12.667 -12.5 -21.5 -17.5 -26.5
s-11.167 -7.5 -18.5 -7.5z" />
    <glyph glyph-name="ecaron" unicode="&#x11b;" horiz-adv-x="478" 
d="M252 -8c-56 0 -105.002 22.5 -147.002 67.5s-63 103.833 -63 176.5c0 80 21.333 143.667 64 191s93 71 151 71c46.667 0 88.334 -16.5 125.001 -49.5s53.667 -77.167 51 -132.5h-314c-0.666992 -10 -1 -25 -1 -45c0 -72.667 14.5 -133.667 43.5 -183s67.5 -74 115.5 -74
c70.667 0 120.334 42 149.001 126l6 -2c-31.333 -97.333 -91.333 -146 -180 -146zM119.998 325l245 0.000976562c-2.66699 110 -40.334 165 -113.001 165c-37.333 0 -67.166 -15.333 -89.499 -46s-36.5 -70.334 -42.5 -119.001zM253.998 543.001
c-7.33301 0 -13.5 2.5 -18.5 7.5s-10.833 13.833 -17.5 26.5c-4.66699 8 -12 22.167 -22 42.5l-28.5 55.5c-9 16.667 -18.167 32 -27.5 46l6 4c10.667 -14 21.667 -27.167 33 -39.5s25.5 -27 42.5 -44l32.5 -32.5l32.5 32.5c17 17 31.167 31.667 42.5 44
s22.333 25.5 33 39.5l6 -4c-9.33301 -14 -18.5 -29.333 -27.5 -46l-28.5 -55.5c-10 -20.333 -17.333 -34.5 -22 -42.5c-6.66699 -12.667 -12.5 -21.5 -17.5 -26.5s-11.167 -7.5 -18.5 -7.5z" />
    <glyph glyph-name="Gcircumflex" unicode="&#x11c;" horiz-adv-x="648" 
d="M572 244v-254.001h-6c-0.666992 5.33301 -1.83398 10.333 -3.50098 15s-4 9.16699 -7 13.5s-5.83301 8.16602 -8.5 11.499s-6.16699 7 -10.5 11s-7.5 7 -9.5 9s-5.33301 4.83301 -10 8.5s-7.33398 5.83398 -8.00098 6.50098c-48.667 -48.667 -109.334 -73 -182.001 -73
c-84 0 -153.833 33.333 -209.5 100s-83.5 146.334 -83.5 239.001c0 60 8.83301 113.833 26.5 161.5s40.834 85.5 69.501 113.5s59.667 49.167 93 63.5s67 21.5 101 21.5c30.667 0 60 -3.16699 88 -9.5s44.333 -9.5 49 -9.5c10.667 0 19.167 2.5 25.5 7.5
s9.16602 13.5 8.49902 25.5l6 2l92 -227l-6 -3c-47.333 76 -90.833 129.167 -130.5 159.5s-83.834 45.5 -132.501 45.5c-62.667 0 -113.667 -27.5 -153 -82.5s-59 -139.833 -59 -254.5c0 -111.333 20 -196 60 -254s97.333 -87 172 -87c32 0 62.333 7.33301 91 22
s51.667 30.667 69 48v170c0 21.333 -3 34.833 -9 40.5s-20 8.5 -42 8.5h-1v8h16c6.66699 0 17.334 -0.5 32.001 -1.5s27.334 -1.5 38.001 -1.5s23.334 0.5 38.001 1.5s25.334 1.5 32.001 1.5h16v-8h-1c-22 0 -36 -2.83301 -42 -8.5s-9 -19.167 -9 -40.5zM450 736.999l-6 -4
c-10.667 14 -21.667 27.167 -33 39.5s-25.5 27 -42.5 44l-32.5 32.5l-32.5 -32.5c-17 -17 -31.167 -31.667 -42.5 -44s-22.333 -25.5 -33 -39.5l-6 4c9.33301 14 18.5 29.333 27.5 46l28.5 55.5c10 20.333 17.333 34.5 22 42.5c6.66699 12.667 12.5 21.5 17.5 26.5
s11.167 7.5 18.5 7.5s13.5 -2.5 18.5 -7.5s10.833 -13.833 17.5 -26.5c4.66699 -8 12 -22.167 22 -42.5l28.5 -55.5c9 -16.667 18.167 -32 27.5 -46z" />
    <glyph glyph-name="gcircumflex" unicode="&#x11d;" horiz-adv-x="518" 
d="M245 -234c-70.667 0 -126.669 11 -168.002 33s-62 47.333 -62 76c0 50.667 51.333 87.667 154 111c-40.667 6 -71 14.833 -91 26.5s-30 28.167 -30 49.5c0 12 3.33301 22.833 10 32.5s16.334 18.5 29.001 26.5s24.5 14.333 35.5 19s24.833 10 41.5 16
c-31.333 14 -56.5 34.833 -75.5 62.5s-28.5 60.834 -28.5 99.501c0 52 17.667 95 53 129s79.333 51 132 51c46 0 85 -12.333 117 -37c34 46 69.333 69 106 69c25.333 0 38 -9 38 -27c0 -8 -2.5 -14.333 -7.5 -19s-11.167 -7 -18.5 -7c-8 0 -17.667 2.5 -29 7.5
s-22 7.5 -32 7.5c-15.333 0 -32.333 -12 -51 -36c41.333 -34 62 -80 62 -138c0 -52 -17.667 -94.833 -53 -128.5s-79.333 -50.5 -132 -50.5c-25.333 0 -49 4 -71 12c-28 -9.33301 -48.667 -18.5 -62 -27.5s-20 -20.5 -20 -34.5c0 -24 34 -39.667 102 -47l123 -13
c114 -12.667 171 -54.334 171 -125.001c0 -44 -24.167 -78 -72.5 -102s-105.166 -36 -170.499 -36zM244.998 147c76.667 0 115 57 115 171c0 114.667 -38.333 172 -115 172s-115 -57.333 -115 -172c0 -114 38.333 -171 115 -171zM244.998 -226c59.333 0 107 9.66699 143 29
s54 46 54 80c0 47.333 -46 76.333 -138 87l-117 13c-41.333 -11.333 -70.833 -25.333 -88.5 -42s-26.5 -37.334 -26.5 -62.001c0 -29.333 15.333 -54.166 46 -74.499s73 -30.5 127 -30.5zM368.998 546l-6 -4c-10.667 14 -21.667 27.167 -33 39.5s-25.5 27 -42.5 44
l-32.5 32.5l-32.5 -32.5c-17 -17 -31.167 -31.667 -42.5 -44s-22.333 -25.5 -33 -39.5l-6 4c9.33301 14 18.5 29.333 27.5 46l28.5 55.5c10 20.333 17.333 34.5 22 42.5c6.66699 12.667 12.5 21.5 17.5 26.5s11.167 7.5 18.5 7.5s13.5 -2.5 18.5 -7.5
s10.833 -13.833 17.5 -26.5c4.66699 -8 12 -22.167 22 -42.5l28.5 -55.5c9 -16.667 18.167 -32 27.5 -46z" />
    <glyph glyph-name="Gbreve" unicode="&#x11e;" horiz-adv-x="648" 
d="M572 244v-254.001h-6c-0.666992 5.33301 -1.83398 10.333 -3.50098 15s-4 9.16699 -7 13.5s-5.83301 8.16602 -8.5 11.499s-6.16699 7 -10.5 11s-7.5 7 -9.5 9s-5.33301 4.83301 -10 8.5s-7.33398 5.83398 -8.00098 6.50098c-48.667 -48.667 -109.334 -73 -182.001 -73
c-84 0 -153.833 33.333 -209.5 100s-83.5 146.334 -83.5 239.001c0 60 8.83301 113.833 26.5 161.5s40.834 85.5 69.501 113.5s59.667 49.167 93 63.5s67 21.5 101 21.5c30.667 0 60 -3.16699 88 -9.5s44.333 -9.5 49 -9.5c10.667 0 19.167 2.5 25.5 7.5
s9.16602 13.5 8.49902 25.5l6 2l92 -227l-6 -3c-47.333 76 -90.833 129.167 -130.5 159.5s-83.834 45.5 -132.501 45.5c-62.667 0 -113.667 -27.5 -153 -82.5s-59 -139.833 -59 -254.5c0 -111.333 20 -196 60 -254s97.333 -87 172 -87c32 0 62.333 7.33301 91 22
s51.667 30.667 69 48v170c0 21.333 -3 34.833 -9 40.5s-20 8.5 -42 8.5h-1v8h16c6.66699 0 17.334 -0.5 32.001 -1.5s27.334 -1.5 38.001 -1.5s23.334 0.5 38.001 1.5s25.334 1.5 32.001 1.5h16v-8h-1c-22 0 -36 -2.83301 -42 -8.5s-9 -19.167 -9 -40.5zM336 759.999
c-30.667 0 -57 11.667 -79 35s-38.667 50 -50 80l6 3c22.667 -44.667 63.667 -67 123 -67s100.333 22.333 123 67l6 -3c-11.333 -30 -28 -56.667 -50 -80s-48.333 -35 -79 -35z" />
    <glyph glyph-name="gbreve" unicode="&#x11f;" horiz-adv-x="518" 
d="M245 -234c-70.667 0 -126.669 11 -168.002 33s-62 47.333 -62 76c0 50.667 51.333 87.667 154 111c-40.667 6 -71 14.833 -91 26.5s-30 28.167 -30 49.5c0 12 3.33301 22.833 10 32.5s16.334 18.5 29.001 26.5s24.5 14.333 35.5 19s24.833 10 41.5 16
c-31.333 14 -56.5 34.833 -75.5 62.5s-28.5 60.834 -28.5 99.501c0 52 17.667 95 53 129s79.333 51 132 51c46 0 85 -12.333 117 -37c34 46 69.333 69 106 69c25.333 0 38 -9 38 -27c0 -8 -2.5 -14.333 -7.5 -19s-11.167 -7 -18.5 -7c-8 0 -17.667 2.5 -29 7.5
s-22 7.5 -32 7.5c-15.333 0 -32.333 -12 -51 -36c41.333 -34 62 -80 62 -138c0 -52 -17.667 -94.833 -53 -128.5s-79.333 -50.5 -132 -50.5c-25.333 0 -49 4 -71 12c-28 -9.33301 -48.667 -18.5 -62 -27.5s-20 -20.5 -20 -34.5c0 -24 34 -39.667 102 -47l123 -13
c114 -12.667 171 -54.334 171 -125.001c0 -44 -24.167 -78 -72.5 -102s-105.166 -36 -170.499 -36zM244.998 147c76.667 0 115 57 115 171c0 114.667 -38.333 172 -115 172s-115 -57.333 -115 -172c0 -114 38.333 -171 115 -171zM244.998 -226c59.333 0 107 9.66699 143 29
s54 46 54 80c0 47.333 -46 76.333 -138 87l-117 13c-41.333 -11.333 -70.833 -25.333 -88.5 -42s-26.5 -37.334 -26.5 -62.001c0 -29.333 15.333 -54.166 46 -74.499s73 -30.5 127 -30.5zM254.998 569c-30.667 0 -57 11.667 -79 35s-38.667 50 -50 80l6 3
c22.667 -44.667 63.667 -67 123 -67s100.333 22.333 123 67l6 -3c-11.333 -30 -28 -56.667 -50 -80s-48.333 -35 -79 -35z" />
    <glyph glyph-name="Gdotaccent" unicode="&#x120;" horiz-adv-x="648" 
d="M572 244v-254.001h-6c-0.666992 5.33301 -1.83398 10.333 -3.50098 15s-4 9.16699 -7 13.5s-5.83301 8.16602 -8.5 11.499s-6.16699 7 -10.5 11s-7.5 7 -9.5 9s-5.33301 4.83301 -10 8.5s-7.33398 5.83398 -8.00098 6.50098c-48.667 -48.667 -109.334 -73 -182.001 -73
c-84 0 -153.833 33.333 -209.5 100s-83.5 146.334 -83.5 239.001c0 60 8.83301 113.833 26.5 161.5s40.834 85.5 69.501 113.5s59.667 49.167 93 63.5s67 21.5 101 21.5c30.667 0 60 -3.16699 88 -9.5s44.333 -9.5 49 -9.5c10.667 0 19.167 2.5 25.5 7.5
s9.16602 13.5 8.49902 25.5l6 2l92 -227l-6 -3c-47.333 76 -90.833 129.167 -130.5 159.5s-83.834 45.5 -132.501 45.5c-62.667 0 -113.667 -27.5 -153 -82.5s-59 -139.833 -59 -254.5c0 -111.333 20 -196 60 -254s97.333 -87 172 -87c32 0 62.333 7.33301 91 22
s51.667 30.667 69 48v170c0 21.333 -3 34.833 -9 40.5s-20 8.5 -42 8.5h-1v8h16c6.66699 0 17.334 -0.5 32.001 -1.5s27.334 -1.5 38.001 -1.5s23.334 0.5 38.001 1.5s25.334 1.5 32.001 1.5h16v-8h-1c-22 0 -36 -2.83301 -42 -8.5s-9 -19.167 -9 -40.5zM336 756.999
c-13.333 0 -24.666 4.5 -33.999 13.5s-14 20.5 -14 34.5s4.66699 25.667 14 35s20.666 14 33.999 14s24.833 -4.66699 34.5 -14s14.5 -21 14.5 -35s-4.66699 -25.5 -14 -34.5s-21 -13.5 -35 -13.5z" />
    <glyph glyph-name="gdotaccent" unicode="&#x121;" horiz-adv-x="518" 
d="M245 -234c-70.667 0 -126.669 11 -168.002 33s-62 47.333 -62 76c0 50.667 51.333 87.667 154 111c-40.667 6 -71 14.833 -91 26.5s-30 28.167 -30 49.5c0 12 3.33301 22.833 10 32.5s16.334 18.5 29.001 26.5s24.5 14.333 35.5 19s24.833 10 41.5 16
c-31.333 14 -56.5 34.833 -75.5 62.5s-28.5 60.834 -28.5 99.501c0 52 17.667 95 53 129s79.333 51 132 51c46 0 85 -12.333 117 -37c34 46 69.333 69 106 69c25.333 0 38 -9 38 -27c0 -8 -2.5 -14.333 -7.5 -19s-11.167 -7 -18.5 -7c-8 0 -17.667 2.5 -29 7.5
s-22 7.5 -32 7.5c-15.333 0 -32.333 -12 -51 -36c41.333 -34 62 -80 62 -138c0 -52 -17.667 -94.833 -53 -128.5s-79.333 -50.5 -132 -50.5c-25.333 0 -49 4 -71 12c-28 -9.33301 -48.667 -18.5 -62 -27.5s-20 -20.5 -20 -34.5c0 -24 34 -39.667 102 -47l123 -13
c114 -12.667 171 -54.334 171 -125.001c0 -44 -24.167 -78 -72.5 -102s-105.166 -36 -170.499 -36zM244.998 147c76.667 0 115 57 115 171c0 114.667 -38.333 172 -115 172s-115 -57.333 -115 -172c0 -114 38.333 -171 115 -171zM244.998 -226c59.333 0 107 9.66699 143 29
s54 46 54 80c0 47.333 -46 76.333 -138 87l-117 13c-41.333 -11.333 -70.833 -25.333 -88.5 -42s-26.5 -37.334 -26.5 -62.001c0 -29.333 15.333 -54.166 46 -74.499s73 -30.5 127 -30.5zM254.998 576c-13.333 0 -24.666 4.5 -33.999 13.5s-14 20.5 -14 34.5
s4.66699 25.667 14 35s20.666 14 33.999 14s24.833 -4.66699 34.5 -14s14.5 -21 14.5 -35s-4.66699 -25.5 -14 -34.5s-21 -13.5 -35 -13.5z" />
    <glyph glyph-name="Gcommaaccent" unicode="&#x122;" horiz-adv-x="648" 
d="M572 244v-254.001h-6c-0.666992 5.33301 -1.83398 10.333 -3.50098 15s-4 9.16699 -7 13.5s-5.83301 8.16602 -8.5 11.499s-6.16699 7 -10.5 11s-7.5 7 -9.5 9s-5.33301 4.83301 -10 8.5s-7.33398 5.83398 -8.00098 6.50098c-48.667 -48.667 -109.334 -73 -182.001 -73
c-84 0 -153.833 33.333 -209.5 100s-83.5 146.334 -83.5 239.001c0 60 8.83301 113.833 26.5 161.5s40.834 85.5 69.501 113.5s59.667 49.167 93 63.5s67 21.5 101 21.5c30.667 0 60 -3.16699 88 -9.5s44.333 -9.5 49 -9.5c10.667 0 19.167 2.5 25.5 7.5
s9.16602 13.5 8.49902 25.5l6 2l92 -227l-6 -3c-47.333 76 -90.833 129.167 -130.5 159.5s-83.834 45.5 -132.501 45.5c-62.667 0 -113.667 -27.5 -153 -82.5s-59 -139.833 -59 -254.5c0 -111.333 20 -196 60 -254s97.333 -87 172 -87c32 0 62.333 7.33301 91 22
s51.667 30.667 69 48v170c0 21.333 -3 34.833 -9 40.5s-20 8.5 -42 8.5h-1v8h16c6.66699 0 17.334 -0.5 32.001 -1.5s27.334 -1.5 38.001 -1.5s23.334 0.5 38.001 1.5s25.334 1.5 32.001 1.5h16v-8h-1c-22 0 -36 -2.83301 -42 -8.5s-9 -19.167 -9 -40.5zM332 -155.001
c-12.667 0 -23 4.16602 -31 12.499s-12 18.5 -12 30.5s4.16699 22.333 12.5 31s19.166 13 32.499 13c14 0 25.833 -5.5 35.5 -16.5s14.5 -24.5 14.5 -40.5c0 -32 -8.5 -58 -25.5 -78s-35.833 -32.333 -56.5 -37l-1 6c18.667 4.66699 35.334 15.5 50.001 32.5
s22 37.833 22 62.5c0 2.66699 -0.333008 6.33398 -1 11.001c-8.66699 -18 -22 -27 -40 -27z" />
    <glyph glyph-name="gcommaaccent" unicode="&#x123;" horiz-adv-x="518" 
d="M245 -234c-70.667 0 -126.669 11 -168.002 33s-62 47.333 -62 76c0 50.667 51.333 87.667 154 111c-40.667 6 -71 14.833 -91 26.5s-30 28.167 -30 49.5c0 12 3.33301 22.833 10 32.5s16.334 18.5 29.001 26.5s24.5 14.333 35.5 19s24.833 10 41.5 16
c-31.333 14 -56.5 34.833 -75.5 62.5s-28.5 60.834 -28.5 99.501c0 52 17.667 95 53 129s79.333 51 132 51c46 0 85 -12.333 117 -37c34 46 69.333 69 106 69c25.333 0 38 -9 38 -27c0 -8 -2.5 -14.333 -7.5 -19s-11.167 -7 -18.5 -7c-8 0 -17.667 2.5 -29 7.5
s-22 7.5 -32 7.5c-15.333 0 -32.333 -12 -51 -36c41.333 -34 62 -80 62 -138c0 -52 -17.667 -94.833 -53 -128.5s-79.333 -50.5 -132 -50.5c-25.333 0 -49 4 -71 12c-28 -9.33301 -48.667 -18.5 -62 -27.5s-20 -20.5 -20 -34.5c0 -24 34 -39.667 102 -47l123 -13
c114 -12.667 171 -54.334 171 -125.001c0 -44 -24.167 -78 -72.5 -102s-105.166 -36 -170.499 -36zM244.998 147c76.667 0 115 57 115 171c0 114.667 -38.333 172 -115 172s-115 -57.333 -115 -172c0 -114 38.333 -171 115 -171zM244.998 -226c59.333 0 107 9.66699 143 29
s54 46 54 80c0 47.333 -46 76.333 -138 87l-117 13c-41.333 -11.333 -70.833 -25.333 -88.5 -42s-26.5 -37.334 -26.5 -62.001c0 -29.333 15.333 -54.166 46 -74.499s73 -30.5 127 -30.5zM259.998 653c12.667 0 23 -4.16602 31 -12.499s12 -18.5 12 -30.5
s-4.16699 -22.333 -12.5 -31s-19.166 -13 -32.499 -13c-14 0 -25.833 5.5 -35.5 16.5s-14.5 24.5 -14.5 40.5c0 32 8.5 58 25.5 78s35.833 32.333 56.5 37l1 -6c-18.667 -4.66699 -35.334 -15.5 -50.001 -32.5s-22 -37.833 -22 -62.5
c0 -2.66699 0.333008 -6.33398 1 -11.001c8.66699 18 22 27 40 27z" />
    <glyph glyph-name="Hcircumflex" unicode="&#x124;" horiz-adv-x="691" 
d="M595 624v-567c0 -21.333 3 -34.833 9 -40.5s20 -8.5 42 -8.5h1v-8h-16c-7.33301 0 -18 0.5 -32 1.5s-26.667 1.5 -38 1.5s-24 -0.5 -38 -1.5s-24.667 -1.5 -32 -1.5h-16v8h1c22 0 36 2.83301 42 8.5s9 19.167 9 40.5v284h-363v-284c0 -21.333 3 -34.833 9 -40.5
s20 -8.5 42 -8.5h1v-8h-16c-6.66699 0 -17.334 0.5 -32.001 1.5s-27.334 1.5 -38.001 1.5s-23.334 -0.5 -38.001 -1.5s-25.334 -1.5 -32.001 -1.5h-16v8h1c22 0 36 2.83301 42 8.5s9 19.167 9 40.5v567c0 21.333 -3 34.833 -9 40.5s-20 8.5 -42 8.5h-1v8h16
c6.66699 0 17.334 -0.5 32.001 -1.5s27.334 -1.5 38.001 -1.5s23.334 0.5 38.001 1.5s25.334 1.5 32.001 1.5h16v-8h-1c-22 0 -36 -2.83301 -42 -8.5s-9 -19.167 -9 -40.5v-273h363v273c0 21.333 -3 34.833 -9 40.5s-20 8.5 -42 8.5h-1v8h16c7.33301 0 18 -0.5 32 -1.5
s26.667 -1.5 38 -1.5s24 0.5 38 1.5s24.667 1.5 32 1.5h16v-8h-1c-22 0 -36 -2.83301 -42 -8.5s-9 -19.167 -9 -40.5zM460 735l-6 -4c-10.667 14 -21.667 27.167 -33 39.5s-25.5 27 -42.5 44l-32.5 32.5l-32.5 -32.5c-17 -17 -31.167 -31.667 -42.5 -44
s-22.333 -25.5 -33 -39.5l-6 4c9.33301 14 18.5 29.333 27.5 46l28.5 55.5c10 20.333 17.333 34.5 22 42.5c6.66699 12.667 12.5 21.5 17.5 26.5s11.167 7.5 18.5 7.5s13.5 -2.5 18.5 -7.5s10.833 -13.833 17.5 -26.5c4.66699 -8 12 -22.167 22 -42.5l28.5 -55.5
c9 -16.667 18.167 -32 27.5 -46z" />
    <glyph glyph-name="hcircumflex" unicode="&#x125;" horiz-adv-x="539" 
d="M451 428l-0.000976562 -371c0 -21.333 3.16699 -35 9.5 -41s21.166 -9 44.499 -9h1v-7h-14c-8 0 -19.333 0.5 -34 1.5s-28 1.5 -40 1.5s-25.333 -0.5 -40 -1.5s-26 -1.5 -34 -1.5h-14v7h1c23.333 0 38.166 3 44.499 9s9.5 19.667 9.5 41v374c0 32 -11.667 48 -35 48
c-11.333 0 -39.666 -8 -84.999 -24l-109 -42v-356c0 -21.333 3.16699 -35 9.5 -41s21.166 -9 44.499 -9h1v-7h-14c-7.33301 0 -18.666 0.5 -33.999 1.5s-28.666 1.5 -39.999 1.5s-24.666 -0.5 -39.999 -1.5s-26.666 -1.5 -33.999 -1.5h-14v7h1c23.333 0 38.166 3 44.499 9
s9.5 19.667 9.5 41v568c0 21.333 -3.16699 34.833 -9.5 40.5s-21.166 8.5 -44.499 8.5h-1v7h6c22 0 44.667 4.33301 68 13s37 18.667 41 30h6v-302l106 41c59.333 23.333 101.666 35 126.999 35c41.333 0 62 -23.333 62 -70zM229.999 737l-6 -4
c-10.667 14 -21.667 27.167 -33 39.5s-25.5 27 -42.5 44l-32.5 32.5l-32.5 -32.5c-17 -17 -31.167 -31.667 -42.5 -44s-22.333 -25.5 -33 -39.5l-6 4c9.33301 14 18.5 29.333 27.5 46l28.5 55.5c10 20.333 17.333 34.5 22 42.5c6.66699 12.667 12.5 21.5 17.5 26.5
s11.167 7.5 18.5 7.5s13.5 -2.5 18.5 -7.5s10.833 -13.833 17.5 -26.5c4.66699 -8 12 -22.167 22 -42.5l28.5 -55.5c9 -16.667 18.167 -32 27.5 -46z" />
    <glyph glyph-name="Hbar" unicode="&#x126;" horiz-adv-x="697" 
d="M651 0h-16c-7.33301 0 -18 0.5 -32 1.5s-26.667 1.5 -38 1.5s-24.166 -0.5 -38.499 -1.5s-24.833 -1.5 -31.5 -1.5h-16v8h1c22 0 36 2.83301 42 8.5s9 19.167 9 40.5v252h-363v-252c0 -21.333 3 -34.833 9 -40.5s20 -8.5 42 -8.5h1v-8h-16
c-6.66699 0 -17.334 0.5 -32.001 1.5s-27.334 1.5 -38.001 1.5s-23.334 -0.5 -38.001 -1.5s-25.334 -1.5 -32.001 -1.5h-16v8h1c22 0 36 2.83301 42 8.5s9 19.167 9 40.5v415h-75v10h75v142c0 21.333 -3 34.833 -9 40.5s-20 8.5 -42 8.5h-1v8h16
c6.66699 0 17.334 -0.5 32.001 -1.5s27.334 -1.5 38.001 -1.5s23.334 0.5 38.001 1.5s25.334 1.5 32.001 1.5h16v-8h-1c-22 0 -36 -2.83301 -42 -8.5s-9 -19.167 -9 -40.5v-142h363v142c0 21.333 -3 34.833 -9 40.5s-20 8.5 -42 8.5h-1v8h16
c6.66699 0 17.167 -0.5 31.5 -1.5s27.166 -1.5 38.499 -1.5s24 0.5 38 1.5s24.667 1.5 32 1.5h16v-8h-1c-22 0 -36 -2.83301 -42 -8.5s-9 -19.167 -9 -40.5v-142h73v-10h-73v-415c0 -21.333 3 -34.833 9 -40.5s20 -8.5 42 -8.5h1v-8zM531 319v153h-363v-153h363z" />
    <glyph glyph-name="hbar" unicode="&#x127;" horiz-adv-x="539" 
d="M451 428l-0.00292969 -371c0 -21.333 3.16699 -35 9.5 -41s21.166 -9 44.499 -9h1v-7h-14c-8 0 -19.333 0.5 -34 1.5s-28 1.5 -40 1.5s-25.333 -0.5 -40 -1.5s-26 -1.5 -34 -1.5h-14l1 7c22.667 0 37.334 3 44.001 9s10 19.667 10 41v374c0 32 -11.667 48 -35 48
c-11.333 0 -39.666 -8 -84.999 -24l-109 -42v-356c0 -21.333 3.16699 -35 9.5 -41s21.166 -9 44.499 -9h1v-7h-14c-7.33301 0 -18.666 0.5 -33.999 1.5s-28.666 1.5 -39.999 1.5s-24.666 -0.5 -39.999 -1.5s-26.666 -1.5 -33.999 -1.5h-14v7h1c23.333 0 38.166 3 44.499 9
s9.5 19.667 9.5 41v509h-65v8h65v51c0 21.333 -3.16699 34.833 -9.5 40.5s-21.166 8.5 -44.499 8.5h-1v7h6c22 0 44.667 4.33301 68 13s37 18.667 41 30h6v-150h107v-8h-107v-144l106 41c59.333 23.333 101.666 35 126.999 35c41.333 0 62 -23.333 62 -70z" />
    <glyph glyph-name="Itilde" unicode="&#x128;" horiz-adv-x="260" 
d="M164 624v-567c0 -21.333 3 -34.833 9 -40.5s20 -8.5 42 -8.5h1v-8h-16c-6.66699 0 -17.334 0.5 -32.001 1.5s-27.334 1.5 -38.001 1.5s-23.334 -0.5 -38.001 -1.5s-25.334 -1.5 -32.001 -1.5h-16v8h1c22 0 36 2.83301 42 8.5s9 19.167 9 40.5v567
c0 21.333 -3 34.833 -9 40.5s-20 8.5 -42 8.5h-1v8h16c6.66699 0 17.334 -0.5 32.001 -1.5s27.334 -1.5 38.001 -1.5s23.334 0.5 38.001 1.5s25.334 1.5 32.001 1.5h16v-8h-1c-22 0 -36 -2.83301 -42 -8.5s-9 -19.167 -9 -40.5zM170 777
c-13.333 0 -31.498 7.16699 -54.498 21.5s-43.5 21.5 -61.5 21.5c-7.33301 0 -15.166 -3.66699 -23.499 -11s-14.333 -13.5 -18 -18.5s-9.5 -13.833 -17.5 -26.5l-6 4c23.333 39.333 42.666 65 57.999 77c14 10.667 28.333 16 43 16c13.333 0 31.666 -7.16699 54.999 -21.5
s43.666 -21.5 60.999 -21.5c7.33301 0 15.166 3.66699 23.499 11s14.333 13.5 18 18.5s9.5 13.833 17.5 26.5l6 -4c-23.333 -39.333 -42.666 -65 -57.999 -77c-14 -10.667 -28.333 -16 -43 -16z" />
    <glyph glyph-name="itilde" unicode="&#x129;" horiz-adv-x="254" 
d="M219 0h-14.0029c-7.33301 0 -18.666 0.5 -33.999 1.5s-28.666 1.5 -39.999 1.5s-24.666 -0.5 -39.999 -1.5s-26.666 -1.5 -33.999 -1.5h-14v7h1c23.333 0 38.166 3 44.499 9s9.5 19.667 9.5 41v342c0 21.333 -3.16699 34.833 -9.5 40.5s-21.166 8.5 -44.499 8.5h-1v7h6
c22 0 44.667 4.33301 68 13s37 18.667 41 30h6v-441c0 -21.333 3.16699 -35 9.5 -41s21.166 -9 44.499 -9h1v-7zM170.997 588c-14 0 -32.333 7.16699 -55 21.5s-43 21.5 -61 21.5c-7.33301 0 -15.166 -3.66699 -23.499 -11s-14.333 -13.5 -18 -18.5
s-9.5 -13.833 -17.5 -26.5l-6 4c23.333 39.333 42.666 65 57.999 77c14 10.667 28.333 16 43 16c14 0 32.333 -7.16699 55 -21.5s43 -21.5 61 -21.5c7.33301 0 15.166 3.66699 23.499 11s14.333 13.5 18 18.5s9.5 13.833 17.5 26.5l6 -4
c-23.333 -39.333 -42.666 -65 -57.999 -77c-14 -10.667 -28.333 -16 -43 -16z" />
    <glyph glyph-name="Imacron" unicode="&#x12a;" horiz-adv-x="260" 
d="M164 624v-567c0 -21.333 3 -34.833 9 -40.5s20 -8.5 42 -8.5h1v-8h-16c-6.66699 0 -17.334 0.5 -32.001 1.5s-27.334 1.5 -38.001 1.5s-23.334 -0.5 -38.001 -1.5s-25.334 -1.5 -32.001 -1.5h-16v8h1c22 0 36 2.83301 42 8.5s9 19.167 9 40.5v567
c0 21.333 -3 34.833 -9 40.5s-20 8.5 -42 8.5h-1v8h16c6.66699 0 17.334 -0.5 32.001 -1.5s27.334 -1.5 38.001 -1.5s23.334 0.5 38.001 1.5s25.334 1.5 32.001 1.5h16v-8h-1c-22 0 -36 -2.83301 -42 -8.5s-9 -19.167 -9 -40.5zM249 797h-240v22h240v-22z" />
    <glyph glyph-name="imacron" unicode="&#x12b;" horiz-adv-x="254" 
d="M219 0h-14.0029c-7.33301 0 -18.666 0.5 -33.999 1.5s-28.666 1.5 -39.999 1.5s-24.666 -0.5 -39.999 -1.5s-26.666 -1.5 -33.999 -1.5h-14v7h1c23.333 0 38.166 3 44.499 9s9.5 19.667 9.5 41v342c0 21.333 -3.16699 34.833 -9.5 40.5s-21.166 8.5 -44.499 8.5h-1v7h6
c22 0 44.667 4.33301 68 13s37 18.667 41 30h6v-441c0 -21.333 3.16699 -35 9.5 -41s21.166 -9 44.499 -9h1v-7zM249.997 608h-240v22h240v-22z" />
    <glyph glyph-name="Ibreve" unicode="&#x12c;" horiz-adv-x="260" 
d="M164 624v-567c0 -21.333 3 -34.833 9 -40.5s20 -8.5 42 -8.5h1v-8h-16c-6.66699 0 -17.334 0.5 -32.001 1.5s-27.334 1.5 -38.001 1.5s-23.334 -0.5 -38.001 -1.5s-25.334 -1.5 -32.001 -1.5h-16v8h1c22 0 36 2.83301 42 8.5s9 19.167 9 40.5v567
c0 21.333 -3 34.833 -9 40.5s-20 8.5 -42 8.5h-1v8h16c6.66699 0 17.334 -0.5 32.001 -1.5s27.334 -1.5 38.001 -1.5s23.334 0.5 38.001 1.5s25.334 1.5 32.001 1.5h16v-8h-1c-22 0 -36 -2.83301 -42 -8.5s-9 -19.167 -9 -40.5zM130 758c-30.667 0 -57 11.667 -79 35
s-38.667 50 -50 80l6 3c22.667 -44.667 63.667 -67 123 -67s100.333 22.333 123 67l6 -3c-11.333 -30 -28 -56.667 -50 -80s-48.333 -35 -79 -35z" />
    <glyph glyph-name="ibreve" unicode="&#x12d;" horiz-adv-x="254" 
d="M219 0h-14.0029c-7.33301 0 -18.666 0.5 -33.999 1.5s-28.666 1.5 -39.999 1.5s-24.666 -0.5 -39.999 -1.5s-26.666 -1.5 -33.999 -1.5h-14v7h1c23.333 0 38.166 3 44.499 9s9.5 19.667 9.5 41v342c0 21.333 -3.16699 34.833 -9.5 40.5s-21.166 8.5 -44.499 8.5h-1v7h6
c22 0 44.667 4.33301 68 13s37 18.667 41 30h6v-441c0 -21.333 3.16699 -35 9.5 -41s21.166 -9 44.499 -9h1v-7zM130.997 569c-30.667 0 -57 11.667 -79 35s-38.667 50 -50 80l6 3c22.667 -44.667 63.667 -67 123 -67s100.333 22.333 123 67l6 -3
c-11.333 -30 -28 -56.667 -50 -80s-48.333 -35 -79 -35z" />
    <glyph glyph-name="Iogonek" unicode="&#x12e;" horiz-adv-x="260" 
d="M164 624v-566.997c0 -21.333 3 -34.833 9 -40.5s20 -8.5 42 -8.5h1v-8h-16c-8 0 -20.667 0.666992 -38 2c-22 -10 -41.667 -23.333 -59 -40s-26 -35.334 -26 -56.001c0 -18 5.83301 -32.5 17.5 -43.5s26.5 -16.5 44.5 -16.5c27.333 0 51.666 13.333 72.999 40l6 -4
c-12 -16.667 -28.333 -30.834 -49 -42.501s-42.334 -17.5 -65.001 -17.5c-26 0 -46.667 6.16699 -62 18.5s-23 28.5 -23 48.5c0 21.333 14.5 42.666 43.5 63.999s57.833 38 86.5 50h-19c-10.667 0 -23.334 -0.5 -38.001 -1.5s-25.334 -1.5 -32.001 -1.5h-16v8h1
c22 0 36 2.83301 42 8.5s9 19.167 9 40.5v567c0 21.333 -3 34.833 -9 40.5s-20 8.5 -42 8.5h-1v8h16c6.66699 0 17.334 -0.5 32.001 -1.5s27.334 -1.5 38.001 -1.5s23.334 0.5 38.001 1.5s25.334 1.5 32.001 1.5h16v-8h-1c-22 0 -36 -2.83301 -42 -8.5s-9 -19.167 -9 -40.5z
" />
    <glyph glyph-name="iogonek" unicode="&#x12f;" horiz-adv-x="254" 
d="M219 0l-13.999 0.00292969c-8 0 -22 0.666992 -42 2c-22 -10 -41.667 -23.333 -59 -40s-26 -35.334 -26 -56.001c0 -18 5.83301 -32.5 17.5 -43.5s26.5 -16.5 44.5 -16.5c27.333 0 51.666 13.333 72.999 40l6 -4c-12 -16.667 -28.333 -30.834 -49 -42.501
s-42.334 -17.5 -65.001 -17.5c-26 0 -46.667 6.16699 -62 18.5s-23 28.5 -23 48.5c0 21.333 14.5 42.666 43.5 63.999s57.833 38 86.5 50h-19c-11.333 0 -24.666 -0.5 -39.999 -1.5s-26.666 -1.5 -33.999 -1.5h-14v7h1c23.333 0 38.166 3 44.499 9s9.5 19.667 9.5 41v342
c0 21.333 -3.16699 34.833 -9.5 40.5s-21.166 8.5 -44.499 8.5h-1v7h6c22 0 44.667 4.33301 68 13s37 18.667 41 30h6v-441c0 -21.333 3.16699 -35 9.5 -41s21.166 -9 44.499 -9h1v-7zM131.001 592.003c-13.333 0 -24.666 4.5 -33.999 13.5s-14 20.5 -14 34.5
s4.66699 25.667 14 35s20.666 14 33.999 14s24.833 -4.66699 34.5 -14s14.5 -21 14.5 -35s-4.66699 -25.5 -14 -34.5s-21 -13.5 -35 -13.5z" />
    <glyph glyph-name="Idotaccent" unicode="&#x130;" horiz-adv-x="260" 
d="M164 624v-567c0 -21.333 3 -34.833 9 -40.5s20 -8.5 42 -8.5h1v-8h-16c-6.66699 0 -17.334 0.5 -32.001 1.5s-27.334 1.5 -38.001 1.5s-23.334 -0.5 -38.001 -1.5s-25.334 -1.5 -32.001 -1.5h-16v8h1c22 0 36 2.83301 42 8.5s9 19.167 9 40.5v567
c0 21.333 -3 34.833 -9 40.5s-20 8.5 -42 8.5h-1v8h16c6.66699 0 17.334 -0.5 32.001 -1.5s27.334 -1.5 38.001 -1.5s23.334 0.5 38.001 1.5s25.334 1.5 32.001 1.5h16v-8h-1c-22 0 -36 -2.83301 -42 -8.5s-9 -19.167 -9 -40.5zM130 755c-13.333 0 -24.666 4.5 -33.999 13.5
s-14 20.5 -14 34.5s4.66699 25.667 14 35s20.666 14 33.999 14s24.833 -4.66699 34.5 -14s14.5 -21 14.5 -35s-4.66699 -25.5 -14 -34.5s-21 -13.5 -35 -13.5z" />
    <glyph glyph-name="dotlessi" unicode="&#x131;" horiz-adv-x="254" 
d="M219 0h-14.0029c-7.33301 0 -18.666 0.5 -33.999 1.5s-28.666 1.5 -39.999 1.5s-24.666 -0.5 -39.999 -1.5s-26.666 -1.5 -33.999 -1.5h-14v7h1c23.333 0 38.166 3 44.499 9s9.5 19.667 9.5 41v342c0 21.333 -3.16699 34.833 -9.5 40.5s-21.166 8.5 -44.499 8.5h-1v7h6
c22 0 44.667 4.33301 68 13s37 18.667 41 30h6v-441c0 -21.333 3.16699 -35 9.5 -41s21.166 -9 44.499 -9h1v-7z" />
    <glyph glyph-name="IJ" unicode="&#x132;" horiz-adv-x="556" 
d="M164 624v-567c0 -21.333 3 -34.833 9 -40.5s20 -8.5 42 -8.5h1v-8h-16c-6.66699 0 -17.334 0.5 -32.001 1.5s-27.334 1.5 -38.001 1.5s-23.334 -0.5 -38.001 -1.5s-25.334 -1.5 -32.001 -1.5h-16v8h1c22 0 36 2.83301 42 8.5s9 19.167 9 40.5v567
c0 21.333 -3 34.833 -9 40.5s-20 8.5 -42 8.5h-1v8h16c6.66699 0 17.334 -0.5 32.001 -1.5s27.334 -1.5 38.001 -1.5s23.334 0.5 38.001 1.5s25.334 1.5 32.001 1.5h16v-8h-1c-22 0 -36 -2.83301 -42 -8.5s-9 -19.167 -9 -40.5zM467 624v-428.001
c0 -101.333 -20 -175.666 -60 -222.999s-91.333 -71 -154 -71c-23.333 0 -35 10 -35 30c0 20.667 10.333 31 31 31c7.33301 0 22 -3.66699 44 -11s38.333 -11 49 -11c20.667 0 35.334 9 44.001 27s13 46.333 13 85v571c0 21.333 -3 34.833 -9 40.5s-20 8.5 -42 8.5h-1v8h16
c7.33301 0 18 -0.5 32 -1.5s26.667 -1.5 38 -1.5c10.667 0 23.167 0.5 37.5 1.5s25.166 1.5 32.499 1.5h16v-8h-1c-22 0 -36 -2.83301 -42 -8.5s-9 -19.167 -9 -40.5z" />
    </font>
</defs>
</svg>
